%FSLAX45Y45*%
G04 Gerber Fmt 4.5, Leading zero omitted, Abs format (unit mm)*
G04 Created by KiCad (PCBNEW (5.0.1)-4) date 12/19/2018 12:38:26 AM*
%MOMM*%
%LPD*%
G01*
G04 APERTURE LIST*
%ADD10C,0.150000*%
%ADD11C,0.200000*%
%ADD12C,0.300000*%
G04 APERTURE END LIST*
D10*
X4981200Y-14498600D02*
X24981200Y-14498600D01*
X4981200Y-3498600D02*
X4981200Y-14498600D01*
X24981200Y-3498600D02*
X24981200Y-14498600D01*
D11*
X4981200Y-3498600D02*
X24981200Y-3498600D01*
D11*
D12*
X5257628Y-14971814D02*
X5257628Y-14671814D01*
X5329057Y-14671814D01*
X5371914Y-14686100D01*
X5400486Y-14714671D01*
X5414771Y-14743243D01*
X5429057Y-14800386D01*
X5429057Y-14843243D01*
X5414771Y-14900386D01*
X5400486Y-14928957D01*
X5371914Y-14957529D01*
X5329057Y-14971814D01*
X5257628Y-14971814D01*
X5557628Y-14971814D02*
X5557628Y-14771814D01*
X5557628Y-14828957D02*
X5571914Y-14800386D01*
X5586200Y-14786100D01*
X5614771Y-14771814D01*
X5643343Y-14771814D01*
X5743343Y-14971814D02*
X5743343Y-14771814D01*
X5743343Y-14671814D02*
X5729057Y-14686100D01*
X5743343Y-14700386D01*
X5757628Y-14686100D01*
X5743343Y-14671814D01*
X5743343Y-14700386D01*
X5929057Y-14971814D02*
X5900486Y-14957529D01*
X5886200Y-14928957D01*
X5886200Y-14671814D01*
X6086200Y-14971814D02*
X6057628Y-14957529D01*
X6043343Y-14928957D01*
X6043343Y-14671814D01*
X6429057Y-14971814D02*
X6429057Y-14671814D01*
X6529057Y-14886100D01*
X6629057Y-14671814D01*
X6629057Y-14971814D01*
X6900486Y-14971814D02*
X6900486Y-14814671D01*
X6886200Y-14786100D01*
X6857628Y-14771814D01*
X6800486Y-14771814D01*
X6771914Y-14786100D01*
X6900486Y-14957529D02*
X6871914Y-14971814D01*
X6800486Y-14971814D01*
X6771914Y-14957529D01*
X6757628Y-14928957D01*
X6757628Y-14900386D01*
X6771914Y-14871814D01*
X6800486Y-14857529D01*
X6871914Y-14857529D01*
X6900486Y-14843243D01*
X7043343Y-14771814D02*
X7043343Y-15071814D01*
X7043343Y-14786100D02*
X7071914Y-14771814D01*
X7129057Y-14771814D01*
X7157628Y-14786100D01*
X7171914Y-14800386D01*
X7186200Y-14828957D01*
X7186200Y-14914671D01*
X7171914Y-14943243D01*
X7157628Y-14957529D01*
X7129057Y-14971814D01*
X7071914Y-14971814D01*
X7043343Y-14957529D01*
X7314771Y-14943243D02*
X7329057Y-14957529D01*
X7314771Y-14971814D01*
X7300486Y-14957529D01*
X7314771Y-14943243D01*
X7314771Y-14971814D01*
X7314771Y-14786100D02*
X7329057Y-14800386D01*
X7314771Y-14814671D01*
X7300486Y-14800386D01*
X7314771Y-14786100D01*
X7314771Y-14814671D01*
M02*
