M48
;DRILL file {KiCad (5.0.1)-4} date 12/19/2018 12:38:25 AM
;FORMAT={-:-/ absolute / metric / decimal}
FMAT,2
METRIC,TZ
T1C0.400
T2C0.500
T3C0.800
T4C1.000
T5C1.300
T6C2.700
%
G90
G05
M71
T1
X52.324Y-55.118
X52.635Y-99.501
X53.086Y-103.886
X53.848Y-97.028
X54.652Y-46.482
X54.652Y-56.642
X56.134Y-97.028
X56.134Y-103.886
X58.674Y-55.118
X58.928Y-97.028
X60.284Y-117.966
X61.214Y-97.028
X61.976Y-55.118
X62.05Y-124.2
X62.3Y-118.75
X62.738Y-103.886
X63.3Y-119.65
X63.754Y-97.028
X64.364Y-46.482
X64.364Y-56.642
X65.786Y-103.886
X66.04Y-97.028
X68.326Y-55.118
X68.326Y-97.028
X70.1Y-144.2
X70.104Y-125.222
X70.104Y-142.24
X71.12Y-97.028
X72.136Y-125.222
X72.39Y-54.864
X73.152Y-130.048
X73.406Y-97.028
X73.406Y-103.886
X74.076Y-46.482
X74.076Y-56.642
X75.169Y-126.669
X75.692Y-97.028
X76.454Y-104.14
X76.454Y-125.222
X76.962Y-55.118
X77.47Y-129.54
X77.978Y-97.028
X78.486Y-131.572
X79.5Y-130.65
X80.264Y-97.028
X80.518Y-130.35
X81.534Y-55.372
X82.804Y-103.886
X83.058Y-97.028
X83.312Y-125.222
X83.788Y-46.482
X83.788Y-56.642
X85.344Y-97.028
X86.773Y-55.372
X86.852Y-100.838
X86.868Y-143.51
X87.884Y-97.028
X88.95Y-118.8
X88.981Y-143.935
X90.17Y-97.028
X91.45Y-117.5
X91.694Y-55.118
X91.712Y-138.061
X92.15Y-135.045
X92.456Y-97.028
X92.9Y-139.15
X93.5Y-46.482
X93.5Y-56.642
X93.578Y-100.838
X94.05Y-116.35
X94.75Y-127.961
X95.25Y-97.028
X95.504Y-133.604
X95.55Y-128.646
X95.7Y-135.045
X96.485Y-55.267
X97.087Y-131.597
X97.536Y-97.028
X97.6Y-140.7
X98.298Y-100.915
X98.912Y-116.386
X99.35Y-130.8
X99.822Y-97.028
X100.1Y-143.935
X101.35Y-113.55
X101.6Y-55.372
X101.712Y-131.686
X102.108Y-97.028
X103.087Y-138.061
X103.124Y-46.482
X103.213Y-56.642
X103.247Y-99.822
X103.637Y-136.636
X103.95Y-111.911
X104.Y-125.286
X104.394Y-97.028
X104.537Y-131.686
X104.784Y-135.533
X105.012Y-136.561
X105.306Y-140.15
X105.999Y-136.569
X106.033Y-99.06
X106.172Y-55.372
X106.684Y-134.716
X107.188Y-97.028
X108.837Y-131.736
X109.087Y-111.911
X109.45Y-143.935
X109.474Y-97.028
X109.8Y-125.35
X110.5Y-140.15
X111.028Y-55.089
X111.76Y-97.028
X112.85Y-115.
X112.916Y-99.06
X112.925Y-46.482
X112.925Y-56.642
X113.538Y-116.361
X114.046Y-97.028
X114.046Y-111.911
X114.2Y-125.4
X115.68Y-98.806
X115.812Y-55.118
X116.84Y-97.028
X116.84Y-111.911
X117.105Y-131.75
X119.126Y-97.028
X119.634Y-110.49
X120.612Y-140.541
X120.904Y-55.118
X121.412Y-97.028
X121.412Y-116.332
X121.744Y-140.704
X122.585Y-98.298
X122.637Y-46.482
X122.637Y-56.642
X123.19Y-111.836
X123.952Y-97.028
X125.35Y-111.836
X125.737Y-55.626
X126.238Y-97.028
X127.Y-124.206
X127.508Y-97.79
X127.937Y-138.486
X128.27Y-123.306
X128.524Y-97.028
X129.286Y-116.261
X129.794Y-124.714
X130.556Y-111.811
X130.662Y-137.801
X131.064Y-55.372
X131.318Y-97.028
X131.572Y-107.696
X132.08Y-125.984
X132.334Y-97.79
X132.334Y-110.49
X132.349Y-46.482
X132.349Y-56.896
X133.096Y-124.686
X133.112Y-136.951
X133.462Y-111.811
X133.604Y-97.028
X134.366Y-124.714
X135.636Y-55.372
X135.762Y-140.541
X135.89Y-97.028
X135.89Y-123.991
X136.398Y-132.159
X136.652Y-122.621
X137.16Y-97.79
X137.16Y-136.906
X138.062Y-111.811
X138.176Y-97.028
X138.35Y-115.15
X138.35Y-124.
X139.287Y-116.261
X139.7Y-123.991
X140.172Y-112.536
X140.462Y-55.118
X140.462Y-97.028
X141.73Y-97.713
X141.986Y-46.482
X142.061Y-56.896
X142.812Y-111.786
X143.256Y-97.028
X144.05Y-131.75
X145.087Y-140.971
X145.092Y-117.096
X145.288Y-55.372
X145.462Y-115.061
X145.5Y-131.85
X145.527Y-114.061
X145.542Y-97.028
X146.558Y-108.458
X146.558Y-120.142
X147.412Y-138.486
X147.698Y-108.325
X148.082Y-97.028
X148.383Y-107.486
X148.59Y-123.991
X149.068Y-106.76
X149.068Y-117.036
X149.142Y-124.776
X149.192Y-119.311
X149.352Y-123.306
X150.062Y-137.811
X150.114Y-55.372
X150.227Y-108.128
X150.368Y-97.028
X150.368Y-104.648
X150.503Y-119.251
X150.622Y-126.165
X150.637Y-122.621
X150.677Y-107.235
X150.677Y-135.716
X151.158Y-105.389
X151.362Y-139.186
X151.773Y-46.482
X151.773Y-56.896
X152.562Y-136.426
X152.654Y-97.028
X152.712Y-128.536
X152.862Y-112.455
X154.212Y-129.436
X154.686Y-105.41
X154.816Y-139.166
X154.94Y-55.118
X155.062Y-111.77
X155.437Y-106.191
X155.448Y-97.028
X155.606Y-123.584
X155.887Y-128.511
X156.122Y-105.333
X156.587Y-135.586
X156.606Y-127.875
X156.7Y-118.95
X156.807Y-106.172
X157.294Y-127.206
X157.48Y-137.111
X157.492Y-105.333
X157.512Y-122.536
X157.537Y-115.611
X157.734Y-97.028
X157.947Y-128.554
X157.988Y-131.318
X158.4Y-133.8
X158.577Y-109.314
X158.812Y-115.586
X159.062Y-140.286
X159.077Y-108.427
X159.45Y-128.35
X159.512Y-121.412
X159.577Y-107.569
X159.947Y-131.573
X160.02Y-55.118
X160.02Y-97.028
X160.077Y-106.68
X160.112Y-141.061
X160.187Y-137.111
X160.462Y-122.606
X160.528Y-127.762
X160.577Y-105.754
X160.8Y-133.45
X161.223Y-139.166
X161.45Y-132.05
X161.463Y-134.901
X161.485Y-46.482
X161.485Y-56.896
X161.802Y-117.3
X161.937Y-138.481
X162.25Y-128.4
X162.306Y-97.028
X162.437Y-143.636
X162.647Y-136.426
X163.332Y-137.796
X164.262Y-138.036
X164.47Y-55.372
X164.55Y-122.
X164.577Y-123.444
X164.592Y-97.028
X165.773Y-134.112
X166.212Y-139.586
X166.447Y-118.11
X166.447Y-119.126
X166.878Y-121.412
X167.102Y-117.296
X167.209Y-125.328
X167.386Y-97.028
X167.502Y-113.836
X167.921Y-107.145
X168.612Y-109.186
X168.687Y-115.086
X168.712Y-129.836
X168.712Y-131.05
X168.779Y-134.985
X169.418Y-55.118
X169.537Y-112.286
X169.672Y-97.028
X169.949Y-117.635
X170.112Y-133.636
X170.412Y-125.936
X171.009Y-126.688
X171.196Y-130.556
X171.197Y-46.482
X171.197Y-56.896
X171.712Y-136.136
X171.958Y-97.028
X172.812Y-134.436
X172.812Y-137.886
X172.836Y-122.81
X172.974Y-128.016
X173.15Y-111.65
X173.391Y-127.135
X173.497Y-135.128
X173.662Y-136.136
X173.712Y-143.586
X174.162Y-138.636
X174.244Y-55.626
X174.244Y-97.028
X174.35Y-105.55
X174.691Y-106.825
X174.772Y-107.836
X174.781Y-108.827
X174.847Y-137.896
X175.312Y-125.251
X175.466Y-109.727
X175.612Y-121.111
X175.862Y-138.286
X176.Y-144.25
X176.062Y-133.836
X176.166Y-108.99
X176.53Y-97.028
X176.7Y-125.35
X177.292Y-135.89
X177.8Y-108.458
X177.9Y-124.6
X178.8Y-130.55
X179.07Y-55.372
X179.324Y-97.028
X179.5Y-113.836
X180.75Y-113.9
X180.909Y-56.896
X181.102Y-46.482
X181.25Y-133.2
X181.356Y-104.902
X181.61Y-97.028
X181.762Y-138.286
X182.112Y-139.686
X182.25Y-115.1
X183.134Y-136.398
X183.896Y-55.626
X183.95Y-132.05
X184.15Y-97.028
X184.5Y-115.086
X184.95Y-117.296
X186.25Y-118.026
X186.436Y-97.028
X186.65Y-130.
X188.362Y-112.276
X188.468Y-55.372
X188.722Y-97.028
X188.812Y-132.136
X189.15Y-141.636
X190.621Y-46.228
X190.621Y-56.896
X191.2Y-140.328
X191.312Y-108.661
X191.516Y-97.028
X191.687Y-110.961
X192.189Y-100.915
X192.862Y-112.911
X192.9Y-139.85
X193.437Y-131.686
X193.802Y-55.626
X193.802Y-97.028
X194.Y-125.371
X194.687Y-115.536
X195.05Y-127.65
X195.4Y-102.801
X195.4Y-117.15
X196.342Y-97.028
X196.882Y-130.086
X196.912Y-117.836
X198.628Y-55.118
X198.628Y-97.028
X199.312Y-119.561
X199.4Y-135.15
X200.312Y-112.286
X200.334Y-46.482
X200.334Y-56.896
X200.914Y-97.028
X201.612Y-125.886
X201.846Y-101.35
X202.05Y-111.6
X202.887Y-118.711
X203.454Y-55.372
X203.708Y-97.028
X204.25Y-123.861
X204.262Y-113.636
X204.75Y-141.636
X205.862Y-125.736
X205.994Y-97.028
X206.362Y-114.236
X207.062Y-121.036
X207.062Y-125.736
X207.772Y-55.118
X208.28Y-97.028
X208.612Y-114.086
X209.296Y-102.801
X209.812Y-112.876
X209.962Y-124.686
X210.046Y-46.482
X210.046Y-56.896
X210.462Y-136.336
X210.566Y-97.028
X211.962Y-134.736
X212.852Y-97.028
X213.106Y-55.118
X213.612Y-125.736
X214.122Y-106.631
X215.646Y-97.028
X217.17Y-103.621
X217.678Y-55.118
X217.932Y-97.028
X218.812Y-136.286
X218.837Y-128.511
X219.758Y-46.228
X219.758Y-56.896
X220.472Y-97.028
X220.98Y-103.886
X222.758Y-55.372
X222.758Y-97.028
X225.044Y-97.028
X225.806Y-104.14
X227.838Y-97.028
X227.841Y-55.37
X228.912Y-128.461
X229.47Y-46.228
X229.47Y-56.896
X230.124Y-97.028
X230.632Y-103.886
X230.812Y-135.586
X231.174Y-125.536
X232.41Y-97.028
X232.912Y-124.851
X232.918Y-55.372
X234.667Y-119.536
X234.696Y-97.028
X236.162Y-135.636
X236.262Y-125.536
X236.982Y-97.028
X236.982Y-103.886
X237.262Y-133.086
X237.962Y-116.236
X237.998Y-55.626
X239.182Y-46.482
X239.182Y-56.896
X239.776Y-97.028
X240.284Y-103.886
X242.062Y-97.028
X242.316Y-55.626
X244.Y-56.896
X244.718Y-46.482
X245.087Y-56.896
T2
X144.037Y-109.136
X144.037Y-110.636
T3
X197.812Y-115.536
X200.312Y-115.536
X190.212Y-134.136
X190.212Y-136.636
X215.762Y-111.586
X215.762Y-114.086
X242.762Y-132.186
X242.762Y-134.686
T4
X236.662Y-141.636
X239.202Y-141.636
X88.9Y-121.92
X91.44Y-121.92
X93.98Y-121.92
X190.462Y-126.346
X190.462Y-128.886
X206.212Y-128.836
X208.752Y-128.836
X166.433Y-37.846
X168.974Y-37.846
X171.513Y-37.846
X174.053Y-37.846
X176.594Y-37.846
X179.133Y-37.846
X181.673Y-37.846
X184.213Y-37.846
X186.754Y-37.846
X189.293Y-37.846
X182.27Y-121.25
X184.81Y-121.25
X187.35Y-121.25
X189.89Y-121.25
X98.862Y-121.861
X101.402Y-121.861
X103.942Y-121.861
X129.921Y-37.846
X132.461Y-37.846
X135.001Y-37.846
X137.541Y-37.846
X140.081Y-37.846
X142.621Y-37.846
X145.161Y-37.846
X147.701Y-37.846
X150.241Y-37.846
X152.781Y-37.846
X199.537Y-107.511
X202.077Y-107.511
X204.617Y-107.511
X207.157Y-107.511
X209.697Y-107.511
X212.237Y-107.511
X90.2Y-142.386
X92.74Y-142.386
X95.28Y-142.386
X97.82Y-142.386
X125.517Y-142.386
X128.057Y-142.386
X130.597Y-142.386
X133.137Y-142.386
X135.677Y-142.386
X138.217Y-142.386
X127.Y-121.412
X129.54Y-121.412
X59.69Y-37.846
X62.23Y-37.846
X64.77Y-37.846
X67.31Y-37.846
X69.85Y-37.846
X72.39Y-37.846
X74.93Y-37.846
X77.47Y-37.846
X80.01Y-37.846
X82.55Y-37.846
X202.946Y-37.846
X205.486Y-37.846
X208.026Y-37.846
X210.566Y-37.846
X213.106Y-37.846
X215.646Y-37.846
X218.186Y-37.846
X220.726Y-37.846
X223.266Y-37.846
X225.806Y-37.846
X144.962Y-142.386
X147.502Y-142.386
X150.042Y-142.386
X152.582Y-142.386
X155.122Y-142.386
X157.662Y-142.386
X222.662Y-122.886
X225.202Y-122.886
X176.4Y-128.55
X178.94Y-128.55
X181.48Y-128.55
X184.02Y-128.55
X186.56Y-128.55
X103.Y-142.4
X105.54Y-142.4
X108.08Y-142.4
X110.62Y-142.4
X113.16Y-142.4
X115.7Y-142.4
X180.812Y-109.836
X183.352Y-109.836
X185.892Y-109.836
X188.432Y-109.836
X235.86Y-37.75
X238.4Y-37.75
X93.408Y-37.846
X95.948Y-37.846
X98.489Y-37.846
X101.028Y-37.846
X103.569Y-37.846
X106.108Y-37.846
X108.648Y-37.846
X111.188Y-37.846
X113.728Y-37.846
X116.268Y-37.846
X205.45Y-133.3
X188.6Y-115.5
X191.14Y-115.5
X117.Y-121.7
X119.54Y-121.7
X122.08Y-121.7
T5
X223.562Y-110.636
X223.562Y-115.636
X243.562Y-110.636
X243.562Y-115.636
T6
X52.578Y-142.24
X52.324Y-38.1
X246.8Y-37.8
X247.142Y-142.494
T0
M30
