G04 #@! TF.GenerationSoftware,KiCad,Pcbnew,(5.0.1)-4*
G04 #@! TF.CreationDate,2018-12-21T07:52:54-07:00*
G04 #@! TF.ProjectId,SprinklerControllerSTM,537072696E6B6C6572436F6E74726F6C,rev?*
G04 #@! TF.SameCoordinates,Original*
G04 #@! TF.FileFunction,Soldermask,Bot*
G04 #@! TF.FilePolarity,Negative*
%FSLAX46Y46*%
G04 Gerber Fmt 4.6, Leading zero omitted, Abs format (unit mm)*
G04 Created by KiCad (PCBNEW (5.0.1)-4) date 12/21/2018 7:52:54 AM*
%MOMM*%
%LPD*%
G01*
G04 APERTURE LIST*
%ADD10C,0.100000*%
G04 APERTURE END LIST*
D10*
G36*
X247590903Y-140237213D02*
X247813177Y-140281426D01*
X248231932Y-140454880D01*
X248608802Y-140706696D01*
X248929304Y-141027198D01*
X249181120Y-141404068D01*
X249354574Y-141822823D01*
X249354574Y-141822824D01*
X249443000Y-142267370D01*
X249443000Y-142720630D01*
X249440645Y-142732467D01*
X249354574Y-143165177D01*
X249181120Y-143583932D01*
X248929304Y-143960802D01*
X248608802Y-144281304D01*
X248231932Y-144533120D01*
X247813177Y-144706574D01*
X247590903Y-144750787D01*
X247368630Y-144795000D01*
X246915370Y-144795000D01*
X246693097Y-144750787D01*
X246470823Y-144706574D01*
X246052068Y-144533120D01*
X245675198Y-144281304D01*
X245354696Y-143960802D01*
X245102880Y-143583932D01*
X244929426Y-143165177D01*
X244843355Y-142732467D01*
X244841000Y-142720630D01*
X244841000Y-142267370D01*
X244929426Y-141822824D01*
X244929426Y-141822823D01*
X245102880Y-141404068D01*
X245354696Y-141027198D01*
X245675198Y-140706696D01*
X246052068Y-140454880D01*
X246470823Y-140281426D01*
X246693097Y-140237213D01*
X246915370Y-140193000D01*
X247368630Y-140193000D01*
X247590903Y-140237213D01*
X247590903Y-140237213D01*
G37*
G36*
X53026903Y-139983213D02*
X53249177Y-140027426D01*
X53667932Y-140200880D01*
X54044802Y-140452696D01*
X54365304Y-140773198D01*
X54617120Y-141150068D01*
X54790574Y-141568823D01*
X54825780Y-141745814D01*
X54879000Y-142013370D01*
X54879000Y-142466630D01*
X54857120Y-142576627D01*
X54790574Y-142911177D01*
X54617120Y-143329932D01*
X54365304Y-143706802D01*
X54044802Y-144027304D01*
X53667932Y-144279120D01*
X53249177Y-144452574D01*
X53026903Y-144496787D01*
X52804630Y-144541000D01*
X52351370Y-144541000D01*
X52129097Y-144496787D01*
X51906823Y-144452574D01*
X51488068Y-144279120D01*
X51111198Y-144027304D01*
X50790696Y-143706802D01*
X50538880Y-143329932D01*
X50365426Y-142911177D01*
X50298880Y-142576627D01*
X50277000Y-142466630D01*
X50277000Y-142013370D01*
X50330220Y-141745814D01*
X50365426Y-141568823D01*
X50538880Y-141150068D01*
X50790696Y-140773198D01*
X51111198Y-140452696D01*
X51488068Y-140200880D01*
X51906823Y-140027426D01*
X52129097Y-139983213D01*
X52351370Y-139939000D01*
X52804630Y-139939000D01*
X53026903Y-139983213D01*
X53026903Y-139983213D01*
G37*
G36*
X103901000Y-143301000D02*
X102099000Y-143301000D01*
X102099000Y-141499000D01*
X103901000Y-141499000D01*
X103901000Y-143301000D01*
X103901000Y-143301000D01*
G37*
G36*
X105650443Y-141505519D02*
X105716627Y-141512037D01*
X105829853Y-141546384D01*
X105886467Y-141563557D01*
X106016797Y-141633221D01*
X106042991Y-141647222D01*
X106078729Y-141676552D01*
X106180186Y-141759814D01*
X106231895Y-141822823D01*
X106292778Y-141897009D01*
X106292779Y-141897011D01*
X106376443Y-142053533D01*
X106376443Y-142053534D01*
X106427963Y-142223373D01*
X106445359Y-142400000D01*
X106427963Y-142576627D01*
X106393616Y-142689853D01*
X106376443Y-142746467D01*
X106302348Y-142885087D01*
X106292778Y-142902991D01*
X106263448Y-142938729D01*
X106180186Y-143040186D01*
X106078729Y-143123448D01*
X106042991Y-143152778D01*
X106042989Y-143152779D01*
X105886467Y-143236443D01*
X105829853Y-143253616D01*
X105716627Y-143287963D01*
X105650443Y-143294481D01*
X105584260Y-143301000D01*
X105495740Y-143301000D01*
X105429557Y-143294481D01*
X105363373Y-143287963D01*
X105250147Y-143253616D01*
X105193533Y-143236443D01*
X105037011Y-143152779D01*
X105037009Y-143152778D01*
X105001271Y-143123448D01*
X104899814Y-143040186D01*
X104816552Y-142938729D01*
X104787222Y-142902991D01*
X104777652Y-142885087D01*
X104703557Y-142746467D01*
X104686384Y-142689853D01*
X104652037Y-142576627D01*
X104634641Y-142400000D01*
X104652037Y-142223373D01*
X104703557Y-142053534D01*
X104703557Y-142053533D01*
X104787221Y-141897011D01*
X104787222Y-141897009D01*
X104848105Y-141822823D01*
X104899814Y-141759814D01*
X105001271Y-141676552D01*
X105037009Y-141647222D01*
X105063203Y-141633221D01*
X105193533Y-141563557D01*
X105250147Y-141546384D01*
X105363373Y-141512037D01*
X105429557Y-141505519D01*
X105495740Y-141499000D01*
X105584260Y-141499000D01*
X105650443Y-141505519D01*
X105650443Y-141505519D01*
G37*
G36*
X110730443Y-141505519D02*
X110796627Y-141512037D01*
X110909853Y-141546384D01*
X110966467Y-141563557D01*
X111096797Y-141633221D01*
X111122991Y-141647222D01*
X111158729Y-141676552D01*
X111260186Y-141759814D01*
X111311895Y-141822823D01*
X111372778Y-141897009D01*
X111372779Y-141897011D01*
X111456443Y-142053533D01*
X111456443Y-142053534D01*
X111507963Y-142223373D01*
X111525359Y-142400000D01*
X111507963Y-142576627D01*
X111473616Y-142689853D01*
X111456443Y-142746467D01*
X111382348Y-142885087D01*
X111372778Y-142902991D01*
X111343448Y-142938729D01*
X111260186Y-143040186D01*
X111158729Y-143123448D01*
X111122991Y-143152778D01*
X111122989Y-143152779D01*
X110966467Y-143236443D01*
X110909853Y-143253616D01*
X110796627Y-143287963D01*
X110730443Y-143294481D01*
X110664260Y-143301000D01*
X110575740Y-143301000D01*
X110509557Y-143294481D01*
X110443373Y-143287963D01*
X110330147Y-143253616D01*
X110273533Y-143236443D01*
X110117011Y-143152779D01*
X110117009Y-143152778D01*
X110081271Y-143123448D01*
X109979814Y-143040186D01*
X109896552Y-142938729D01*
X109867222Y-142902991D01*
X109857652Y-142885087D01*
X109783557Y-142746467D01*
X109766384Y-142689853D01*
X109732037Y-142576627D01*
X109714641Y-142400000D01*
X109732037Y-142223373D01*
X109783557Y-142053534D01*
X109783557Y-142053533D01*
X109867221Y-141897011D01*
X109867222Y-141897009D01*
X109928105Y-141822823D01*
X109979814Y-141759814D01*
X110081271Y-141676552D01*
X110117009Y-141647222D01*
X110143203Y-141633221D01*
X110273533Y-141563557D01*
X110330147Y-141546384D01*
X110443373Y-141512037D01*
X110509557Y-141505519D01*
X110575740Y-141499000D01*
X110664260Y-141499000D01*
X110730443Y-141505519D01*
X110730443Y-141505519D01*
G37*
G36*
X113270443Y-141505519D02*
X113336627Y-141512037D01*
X113449853Y-141546384D01*
X113506467Y-141563557D01*
X113636797Y-141633221D01*
X113662991Y-141647222D01*
X113698729Y-141676552D01*
X113800186Y-141759814D01*
X113851895Y-141822823D01*
X113912778Y-141897009D01*
X113912779Y-141897011D01*
X113996443Y-142053533D01*
X113996443Y-142053534D01*
X114047963Y-142223373D01*
X114065359Y-142400000D01*
X114047963Y-142576627D01*
X114013616Y-142689853D01*
X113996443Y-142746467D01*
X113922348Y-142885087D01*
X113912778Y-142902991D01*
X113883448Y-142938729D01*
X113800186Y-143040186D01*
X113698729Y-143123448D01*
X113662991Y-143152778D01*
X113662989Y-143152779D01*
X113506467Y-143236443D01*
X113449853Y-143253616D01*
X113336627Y-143287963D01*
X113270443Y-143294481D01*
X113204260Y-143301000D01*
X113115740Y-143301000D01*
X113049557Y-143294481D01*
X112983373Y-143287963D01*
X112870147Y-143253616D01*
X112813533Y-143236443D01*
X112657011Y-143152779D01*
X112657009Y-143152778D01*
X112621271Y-143123448D01*
X112519814Y-143040186D01*
X112436552Y-142938729D01*
X112407222Y-142902991D01*
X112397652Y-142885087D01*
X112323557Y-142746467D01*
X112306384Y-142689853D01*
X112272037Y-142576627D01*
X112254641Y-142400000D01*
X112272037Y-142223373D01*
X112323557Y-142053534D01*
X112323557Y-142053533D01*
X112407221Y-141897011D01*
X112407222Y-141897009D01*
X112468105Y-141822823D01*
X112519814Y-141759814D01*
X112621271Y-141676552D01*
X112657009Y-141647222D01*
X112683203Y-141633221D01*
X112813533Y-141563557D01*
X112870147Y-141546384D01*
X112983373Y-141512037D01*
X113049557Y-141505519D01*
X113115740Y-141499000D01*
X113204260Y-141499000D01*
X113270443Y-141505519D01*
X113270443Y-141505519D01*
G37*
G36*
X115810443Y-141505519D02*
X115876627Y-141512037D01*
X115989853Y-141546384D01*
X116046467Y-141563557D01*
X116176797Y-141633221D01*
X116202991Y-141647222D01*
X116238729Y-141676552D01*
X116340186Y-141759814D01*
X116391895Y-141822823D01*
X116452778Y-141897009D01*
X116452779Y-141897011D01*
X116536443Y-142053533D01*
X116536443Y-142053534D01*
X116587963Y-142223373D01*
X116605359Y-142400000D01*
X116587963Y-142576627D01*
X116553616Y-142689853D01*
X116536443Y-142746467D01*
X116462348Y-142885087D01*
X116452778Y-142902991D01*
X116423448Y-142938729D01*
X116340186Y-143040186D01*
X116238729Y-143123448D01*
X116202991Y-143152778D01*
X116202989Y-143152779D01*
X116046467Y-143236443D01*
X115989853Y-143253616D01*
X115876627Y-143287963D01*
X115810443Y-143294481D01*
X115744260Y-143301000D01*
X115655740Y-143301000D01*
X115589557Y-143294481D01*
X115523373Y-143287963D01*
X115410147Y-143253616D01*
X115353533Y-143236443D01*
X115197011Y-143152779D01*
X115197009Y-143152778D01*
X115161271Y-143123448D01*
X115059814Y-143040186D01*
X114976552Y-142938729D01*
X114947222Y-142902991D01*
X114937652Y-142885087D01*
X114863557Y-142746467D01*
X114846384Y-142689853D01*
X114812037Y-142576627D01*
X114794641Y-142400000D01*
X114812037Y-142223373D01*
X114863557Y-142053534D01*
X114863557Y-142053533D01*
X114947221Y-141897011D01*
X114947222Y-141897009D01*
X115008105Y-141822823D01*
X115059814Y-141759814D01*
X115161271Y-141676552D01*
X115197009Y-141647222D01*
X115223203Y-141633221D01*
X115353533Y-141563557D01*
X115410147Y-141546384D01*
X115523373Y-141512037D01*
X115589557Y-141505519D01*
X115655740Y-141499000D01*
X115744260Y-141499000D01*
X115810443Y-141505519D01*
X115810443Y-141505519D01*
G37*
G36*
X108190443Y-141505519D02*
X108256627Y-141512037D01*
X108369853Y-141546384D01*
X108426467Y-141563557D01*
X108556797Y-141633221D01*
X108582991Y-141647222D01*
X108618729Y-141676552D01*
X108720186Y-141759814D01*
X108771895Y-141822823D01*
X108832778Y-141897009D01*
X108832779Y-141897011D01*
X108916443Y-142053533D01*
X108916443Y-142053534D01*
X108967963Y-142223373D01*
X108985359Y-142400000D01*
X108967963Y-142576627D01*
X108933616Y-142689853D01*
X108916443Y-142746467D01*
X108842348Y-142885087D01*
X108832778Y-142902991D01*
X108803448Y-142938729D01*
X108720186Y-143040186D01*
X108618729Y-143123448D01*
X108582991Y-143152778D01*
X108582989Y-143152779D01*
X108426467Y-143236443D01*
X108369853Y-143253616D01*
X108256627Y-143287963D01*
X108190443Y-143294481D01*
X108124260Y-143301000D01*
X108035740Y-143301000D01*
X107969557Y-143294481D01*
X107903373Y-143287963D01*
X107790147Y-143253616D01*
X107733533Y-143236443D01*
X107577011Y-143152779D01*
X107577009Y-143152778D01*
X107541271Y-143123448D01*
X107439814Y-143040186D01*
X107356552Y-142938729D01*
X107327222Y-142902991D01*
X107317652Y-142885087D01*
X107243557Y-142746467D01*
X107226384Y-142689853D01*
X107192037Y-142576627D01*
X107174641Y-142400000D01*
X107192037Y-142223373D01*
X107243557Y-142053534D01*
X107243557Y-142053533D01*
X107327221Y-141897011D01*
X107327222Y-141897009D01*
X107388105Y-141822823D01*
X107439814Y-141759814D01*
X107541271Y-141676552D01*
X107577009Y-141647222D01*
X107603203Y-141633221D01*
X107733533Y-141563557D01*
X107790147Y-141546384D01*
X107903373Y-141512037D01*
X107969557Y-141505519D01*
X108035740Y-141499000D01*
X108124260Y-141499000D01*
X108190443Y-141505519D01*
X108190443Y-141505519D01*
G37*
G36*
X95390442Y-141491518D02*
X95456627Y-141498037D01*
X95569853Y-141532384D01*
X95626467Y-141549557D01*
X95662512Y-141568824D01*
X95782991Y-141633222D01*
X95800050Y-141647222D01*
X95920186Y-141745814D01*
X96003448Y-141847271D01*
X96032778Y-141883009D01*
X96032779Y-141883011D01*
X96116443Y-142039533D01*
X96116443Y-142039534D01*
X96167963Y-142209373D01*
X96185359Y-142386000D01*
X96167963Y-142562627D01*
X96163716Y-142576627D01*
X96116443Y-142732467D01*
X96042348Y-142871087D01*
X96032778Y-142888991D01*
X96021290Y-142902989D01*
X95920186Y-143026186D01*
X95818729Y-143109448D01*
X95782991Y-143138778D01*
X95782989Y-143138779D01*
X95626467Y-143222443D01*
X95580314Y-143236443D01*
X95456627Y-143273963D01*
X95390443Y-143280481D01*
X95324260Y-143287000D01*
X95235740Y-143287000D01*
X95169557Y-143280481D01*
X95103373Y-143273963D01*
X94979686Y-143236443D01*
X94933533Y-143222443D01*
X94777011Y-143138779D01*
X94777009Y-143138778D01*
X94741271Y-143109448D01*
X94639814Y-143026186D01*
X94538710Y-142902989D01*
X94527222Y-142888991D01*
X94517652Y-142871087D01*
X94443557Y-142732467D01*
X94396284Y-142576627D01*
X94392037Y-142562627D01*
X94374641Y-142386000D01*
X94392037Y-142209373D01*
X94443557Y-142039534D01*
X94443557Y-142039533D01*
X94527221Y-141883011D01*
X94527222Y-141883009D01*
X94556552Y-141847271D01*
X94639814Y-141745814D01*
X94759950Y-141647222D01*
X94777009Y-141633222D01*
X94897488Y-141568824D01*
X94933533Y-141549557D01*
X94990147Y-141532384D01*
X95103373Y-141498037D01*
X95169558Y-141491518D01*
X95235740Y-141485000D01*
X95324260Y-141485000D01*
X95390442Y-141491518D01*
X95390442Y-141491518D01*
G37*
G36*
X157772442Y-141491518D02*
X157838627Y-141498037D01*
X157951853Y-141532384D01*
X158008467Y-141549557D01*
X158044512Y-141568824D01*
X158164991Y-141633222D01*
X158182050Y-141647222D01*
X158302186Y-141745814D01*
X158385448Y-141847271D01*
X158414778Y-141883009D01*
X158414779Y-141883011D01*
X158498443Y-142039533D01*
X158498443Y-142039534D01*
X158549963Y-142209373D01*
X158567359Y-142386000D01*
X158549963Y-142562627D01*
X158545716Y-142576627D01*
X158498443Y-142732467D01*
X158424348Y-142871087D01*
X158414778Y-142888991D01*
X158403290Y-142902989D01*
X158302186Y-143026186D01*
X158200729Y-143109448D01*
X158164991Y-143138778D01*
X158164989Y-143138779D01*
X158008467Y-143222443D01*
X157962314Y-143236443D01*
X157838627Y-143273963D01*
X157772443Y-143280481D01*
X157706260Y-143287000D01*
X157617740Y-143287000D01*
X157551557Y-143280481D01*
X157485373Y-143273963D01*
X157361686Y-143236443D01*
X157315533Y-143222443D01*
X157159011Y-143138779D01*
X157159009Y-143138778D01*
X157123271Y-143109448D01*
X157021814Y-143026186D01*
X156920710Y-142902989D01*
X156909222Y-142888991D01*
X156899652Y-142871087D01*
X156825557Y-142732467D01*
X156778284Y-142576627D01*
X156774037Y-142562627D01*
X156756641Y-142386000D01*
X156774037Y-142209373D01*
X156825557Y-142039534D01*
X156825557Y-142039533D01*
X156909221Y-141883011D01*
X156909222Y-141883009D01*
X156938552Y-141847271D01*
X157021814Y-141745814D01*
X157141950Y-141647222D01*
X157159009Y-141633222D01*
X157279488Y-141568824D01*
X157315533Y-141549557D01*
X157372147Y-141532384D01*
X157485373Y-141498037D01*
X157551558Y-141491518D01*
X157617740Y-141485000D01*
X157706260Y-141485000D01*
X157772442Y-141491518D01*
X157772442Y-141491518D01*
G37*
G36*
X155232442Y-141491518D02*
X155298627Y-141498037D01*
X155411853Y-141532384D01*
X155468467Y-141549557D01*
X155504512Y-141568824D01*
X155624991Y-141633222D01*
X155642050Y-141647222D01*
X155762186Y-141745814D01*
X155845448Y-141847271D01*
X155874778Y-141883009D01*
X155874779Y-141883011D01*
X155958443Y-142039533D01*
X155958443Y-142039534D01*
X156009963Y-142209373D01*
X156027359Y-142386000D01*
X156009963Y-142562627D01*
X156005716Y-142576627D01*
X155958443Y-142732467D01*
X155884348Y-142871087D01*
X155874778Y-142888991D01*
X155863290Y-142902989D01*
X155762186Y-143026186D01*
X155660729Y-143109448D01*
X155624991Y-143138778D01*
X155624989Y-143138779D01*
X155468467Y-143222443D01*
X155422314Y-143236443D01*
X155298627Y-143273963D01*
X155232443Y-143280481D01*
X155166260Y-143287000D01*
X155077740Y-143287000D01*
X155011557Y-143280481D01*
X154945373Y-143273963D01*
X154821686Y-143236443D01*
X154775533Y-143222443D01*
X154619011Y-143138779D01*
X154619009Y-143138778D01*
X154583271Y-143109448D01*
X154481814Y-143026186D01*
X154380710Y-142902989D01*
X154369222Y-142888991D01*
X154359652Y-142871087D01*
X154285557Y-142732467D01*
X154238284Y-142576627D01*
X154234037Y-142562627D01*
X154216641Y-142386000D01*
X154234037Y-142209373D01*
X154285557Y-142039534D01*
X154285557Y-142039533D01*
X154369221Y-141883011D01*
X154369222Y-141883009D01*
X154398552Y-141847271D01*
X154481814Y-141745814D01*
X154601950Y-141647222D01*
X154619009Y-141633222D01*
X154739488Y-141568824D01*
X154775533Y-141549557D01*
X154832147Y-141532384D01*
X154945373Y-141498037D01*
X155011558Y-141491518D01*
X155077740Y-141485000D01*
X155166260Y-141485000D01*
X155232442Y-141491518D01*
X155232442Y-141491518D01*
G37*
G36*
X91101000Y-143287000D02*
X89299000Y-143287000D01*
X89299000Y-141485000D01*
X91101000Y-141485000D01*
X91101000Y-143287000D01*
X91101000Y-143287000D01*
G37*
G36*
X92850442Y-141491518D02*
X92916627Y-141498037D01*
X93029853Y-141532384D01*
X93086467Y-141549557D01*
X93122512Y-141568824D01*
X93242991Y-141633222D01*
X93260050Y-141647222D01*
X93380186Y-141745814D01*
X93463448Y-141847271D01*
X93492778Y-141883009D01*
X93492779Y-141883011D01*
X93576443Y-142039533D01*
X93576443Y-142039534D01*
X93627963Y-142209373D01*
X93645359Y-142386000D01*
X93627963Y-142562627D01*
X93623716Y-142576627D01*
X93576443Y-142732467D01*
X93502348Y-142871087D01*
X93492778Y-142888991D01*
X93481290Y-142902989D01*
X93380186Y-143026186D01*
X93278729Y-143109448D01*
X93242991Y-143138778D01*
X93242989Y-143138779D01*
X93086467Y-143222443D01*
X93040314Y-143236443D01*
X92916627Y-143273963D01*
X92850443Y-143280481D01*
X92784260Y-143287000D01*
X92695740Y-143287000D01*
X92629557Y-143280481D01*
X92563373Y-143273963D01*
X92439686Y-143236443D01*
X92393533Y-143222443D01*
X92237011Y-143138779D01*
X92237009Y-143138778D01*
X92201271Y-143109448D01*
X92099814Y-143026186D01*
X91998710Y-142902989D01*
X91987222Y-142888991D01*
X91977652Y-142871087D01*
X91903557Y-142732467D01*
X91856284Y-142576627D01*
X91852037Y-142562627D01*
X91834641Y-142386000D01*
X91852037Y-142209373D01*
X91903557Y-142039534D01*
X91903557Y-142039533D01*
X91987221Y-141883011D01*
X91987222Y-141883009D01*
X92016552Y-141847271D01*
X92099814Y-141745814D01*
X92219950Y-141647222D01*
X92237009Y-141633222D01*
X92357488Y-141568824D01*
X92393533Y-141549557D01*
X92450147Y-141532384D01*
X92563373Y-141498037D01*
X92629558Y-141491518D01*
X92695740Y-141485000D01*
X92784260Y-141485000D01*
X92850442Y-141491518D01*
X92850442Y-141491518D01*
G37*
G36*
X97930442Y-141491518D02*
X97996627Y-141498037D01*
X98109853Y-141532384D01*
X98166467Y-141549557D01*
X98202512Y-141568824D01*
X98322991Y-141633222D01*
X98340050Y-141647222D01*
X98460186Y-141745814D01*
X98543448Y-141847271D01*
X98572778Y-141883009D01*
X98572779Y-141883011D01*
X98656443Y-142039533D01*
X98656443Y-142039534D01*
X98707963Y-142209373D01*
X98725359Y-142386000D01*
X98707963Y-142562627D01*
X98703716Y-142576627D01*
X98656443Y-142732467D01*
X98582348Y-142871087D01*
X98572778Y-142888991D01*
X98561290Y-142902989D01*
X98460186Y-143026186D01*
X98358729Y-143109448D01*
X98322991Y-143138778D01*
X98322989Y-143138779D01*
X98166467Y-143222443D01*
X98120314Y-143236443D01*
X97996627Y-143273963D01*
X97930443Y-143280481D01*
X97864260Y-143287000D01*
X97775740Y-143287000D01*
X97709557Y-143280481D01*
X97643373Y-143273963D01*
X97519686Y-143236443D01*
X97473533Y-143222443D01*
X97317011Y-143138779D01*
X97317009Y-143138778D01*
X97281271Y-143109448D01*
X97179814Y-143026186D01*
X97078710Y-142902989D01*
X97067222Y-142888991D01*
X97057652Y-142871087D01*
X96983557Y-142732467D01*
X96936284Y-142576627D01*
X96932037Y-142562627D01*
X96914641Y-142386000D01*
X96932037Y-142209373D01*
X96983557Y-142039534D01*
X96983557Y-142039533D01*
X97067221Y-141883011D01*
X97067222Y-141883009D01*
X97096552Y-141847271D01*
X97179814Y-141745814D01*
X97299950Y-141647222D01*
X97317009Y-141633222D01*
X97437488Y-141568824D01*
X97473533Y-141549557D01*
X97530147Y-141532384D01*
X97643373Y-141498037D01*
X97709558Y-141491518D01*
X97775740Y-141485000D01*
X97864260Y-141485000D01*
X97930442Y-141491518D01*
X97930442Y-141491518D01*
G37*
G36*
X126418000Y-143287000D02*
X124616000Y-143287000D01*
X124616000Y-141485000D01*
X126418000Y-141485000D01*
X126418000Y-143287000D01*
X126418000Y-143287000D01*
G37*
G36*
X128167442Y-141491518D02*
X128233627Y-141498037D01*
X128346853Y-141532384D01*
X128403467Y-141549557D01*
X128439512Y-141568824D01*
X128559991Y-141633222D01*
X128577050Y-141647222D01*
X128697186Y-141745814D01*
X128780448Y-141847271D01*
X128809778Y-141883009D01*
X128809779Y-141883011D01*
X128893443Y-142039533D01*
X128893443Y-142039534D01*
X128944963Y-142209373D01*
X128962359Y-142386000D01*
X128944963Y-142562627D01*
X128940716Y-142576627D01*
X128893443Y-142732467D01*
X128819348Y-142871087D01*
X128809778Y-142888991D01*
X128798290Y-142902989D01*
X128697186Y-143026186D01*
X128595729Y-143109448D01*
X128559991Y-143138778D01*
X128559989Y-143138779D01*
X128403467Y-143222443D01*
X128357314Y-143236443D01*
X128233627Y-143273963D01*
X128167443Y-143280481D01*
X128101260Y-143287000D01*
X128012740Y-143287000D01*
X127946557Y-143280481D01*
X127880373Y-143273963D01*
X127756686Y-143236443D01*
X127710533Y-143222443D01*
X127554011Y-143138779D01*
X127554009Y-143138778D01*
X127518271Y-143109448D01*
X127416814Y-143026186D01*
X127315710Y-142902989D01*
X127304222Y-142888991D01*
X127294652Y-142871087D01*
X127220557Y-142732467D01*
X127173284Y-142576627D01*
X127169037Y-142562627D01*
X127151641Y-142386000D01*
X127169037Y-142209373D01*
X127220557Y-142039534D01*
X127220557Y-142039533D01*
X127304221Y-141883011D01*
X127304222Y-141883009D01*
X127333552Y-141847271D01*
X127416814Y-141745814D01*
X127536950Y-141647222D01*
X127554009Y-141633222D01*
X127674488Y-141568824D01*
X127710533Y-141549557D01*
X127767147Y-141532384D01*
X127880373Y-141498037D01*
X127946558Y-141491518D01*
X128012740Y-141485000D01*
X128101260Y-141485000D01*
X128167442Y-141491518D01*
X128167442Y-141491518D01*
G37*
G36*
X133247442Y-141491518D02*
X133313627Y-141498037D01*
X133426853Y-141532384D01*
X133483467Y-141549557D01*
X133519512Y-141568824D01*
X133639991Y-141633222D01*
X133657050Y-141647222D01*
X133777186Y-141745814D01*
X133860448Y-141847271D01*
X133889778Y-141883009D01*
X133889779Y-141883011D01*
X133973443Y-142039533D01*
X133973443Y-142039534D01*
X134024963Y-142209373D01*
X134042359Y-142386000D01*
X134024963Y-142562627D01*
X134020716Y-142576627D01*
X133973443Y-142732467D01*
X133899348Y-142871087D01*
X133889778Y-142888991D01*
X133878290Y-142902989D01*
X133777186Y-143026186D01*
X133675729Y-143109448D01*
X133639991Y-143138778D01*
X133639989Y-143138779D01*
X133483467Y-143222443D01*
X133437314Y-143236443D01*
X133313627Y-143273963D01*
X133247443Y-143280481D01*
X133181260Y-143287000D01*
X133092740Y-143287000D01*
X133026557Y-143280481D01*
X132960373Y-143273963D01*
X132836686Y-143236443D01*
X132790533Y-143222443D01*
X132634011Y-143138779D01*
X132634009Y-143138778D01*
X132598271Y-143109448D01*
X132496814Y-143026186D01*
X132395710Y-142902989D01*
X132384222Y-142888991D01*
X132374652Y-142871087D01*
X132300557Y-142732467D01*
X132253284Y-142576627D01*
X132249037Y-142562627D01*
X132231641Y-142386000D01*
X132249037Y-142209373D01*
X132300557Y-142039534D01*
X132300557Y-142039533D01*
X132384221Y-141883011D01*
X132384222Y-141883009D01*
X132413552Y-141847271D01*
X132496814Y-141745814D01*
X132616950Y-141647222D01*
X132634009Y-141633222D01*
X132754488Y-141568824D01*
X132790533Y-141549557D01*
X132847147Y-141532384D01*
X132960373Y-141498037D01*
X133026558Y-141491518D01*
X133092740Y-141485000D01*
X133181260Y-141485000D01*
X133247442Y-141491518D01*
X133247442Y-141491518D01*
G37*
G36*
X135787442Y-141491518D02*
X135853627Y-141498037D01*
X135966853Y-141532384D01*
X136023467Y-141549557D01*
X136059512Y-141568824D01*
X136179991Y-141633222D01*
X136197050Y-141647222D01*
X136317186Y-141745814D01*
X136400448Y-141847271D01*
X136429778Y-141883009D01*
X136429779Y-141883011D01*
X136513443Y-142039533D01*
X136513443Y-142039534D01*
X136564963Y-142209373D01*
X136582359Y-142386000D01*
X136564963Y-142562627D01*
X136560716Y-142576627D01*
X136513443Y-142732467D01*
X136439348Y-142871087D01*
X136429778Y-142888991D01*
X136418290Y-142902989D01*
X136317186Y-143026186D01*
X136215729Y-143109448D01*
X136179991Y-143138778D01*
X136179989Y-143138779D01*
X136023467Y-143222443D01*
X135977314Y-143236443D01*
X135853627Y-143273963D01*
X135787443Y-143280481D01*
X135721260Y-143287000D01*
X135632740Y-143287000D01*
X135566557Y-143280481D01*
X135500373Y-143273963D01*
X135376686Y-143236443D01*
X135330533Y-143222443D01*
X135174011Y-143138779D01*
X135174009Y-143138778D01*
X135138271Y-143109448D01*
X135036814Y-143026186D01*
X134935710Y-142902989D01*
X134924222Y-142888991D01*
X134914652Y-142871087D01*
X134840557Y-142732467D01*
X134793284Y-142576627D01*
X134789037Y-142562627D01*
X134771641Y-142386000D01*
X134789037Y-142209373D01*
X134840557Y-142039534D01*
X134840557Y-142039533D01*
X134924221Y-141883011D01*
X134924222Y-141883009D01*
X134953552Y-141847271D01*
X135036814Y-141745814D01*
X135156950Y-141647222D01*
X135174009Y-141633222D01*
X135294488Y-141568824D01*
X135330533Y-141549557D01*
X135387147Y-141532384D01*
X135500373Y-141498037D01*
X135566558Y-141491518D01*
X135632740Y-141485000D01*
X135721260Y-141485000D01*
X135787442Y-141491518D01*
X135787442Y-141491518D01*
G37*
G36*
X152692442Y-141491518D02*
X152758627Y-141498037D01*
X152871853Y-141532384D01*
X152928467Y-141549557D01*
X152964512Y-141568824D01*
X153084991Y-141633222D01*
X153102050Y-141647222D01*
X153222186Y-141745814D01*
X153305448Y-141847271D01*
X153334778Y-141883009D01*
X153334779Y-141883011D01*
X153418443Y-142039533D01*
X153418443Y-142039534D01*
X153469963Y-142209373D01*
X153487359Y-142386000D01*
X153469963Y-142562627D01*
X153465716Y-142576627D01*
X153418443Y-142732467D01*
X153344348Y-142871087D01*
X153334778Y-142888991D01*
X153323290Y-142902989D01*
X153222186Y-143026186D01*
X153120729Y-143109448D01*
X153084991Y-143138778D01*
X153084989Y-143138779D01*
X152928467Y-143222443D01*
X152882314Y-143236443D01*
X152758627Y-143273963D01*
X152692443Y-143280481D01*
X152626260Y-143287000D01*
X152537740Y-143287000D01*
X152471557Y-143280481D01*
X152405373Y-143273963D01*
X152281686Y-143236443D01*
X152235533Y-143222443D01*
X152079011Y-143138779D01*
X152079009Y-143138778D01*
X152043271Y-143109448D01*
X151941814Y-143026186D01*
X151840710Y-142902989D01*
X151829222Y-142888991D01*
X151819652Y-142871087D01*
X151745557Y-142732467D01*
X151698284Y-142576627D01*
X151694037Y-142562627D01*
X151676641Y-142386000D01*
X151694037Y-142209373D01*
X151745557Y-142039534D01*
X151745557Y-142039533D01*
X151829221Y-141883011D01*
X151829222Y-141883009D01*
X151858552Y-141847271D01*
X151941814Y-141745814D01*
X152061950Y-141647222D01*
X152079009Y-141633222D01*
X152199488Y-141568824D01*
X152235533Y-141549557D01*
X152292147Y-141532384D01*
X152405373Y-141498037D01*
X152471558Y-141491518D01*
X152537740Y-141485000D01*
X152626260Y-141485000D01*
X152692442Y-141491518D01*
X152692442Y-141491518D01*
G37*
G36*
X145863000Y-143287000D02*
X144061000Y-143287000D01*
X144061000Y-141485000D01*
X145863000Y-141485000D01*
X145863000Y-143287000D01*
X145863000Y-143287000D01*
G37*
G36*
X147612442Y-141491518D02*
X147678627Y-141498037D01*
X147791853Y-141532384D01*
X147848467Y-141549557D01*
X147884512Y-141568824D01*
X148004991Y-141633222D01*
X148022050Y-141647222D01*
X148142186Y-141745814D01*
X148225448Y-141847271D01*
X148254778Y-141883009D01*
X148254779Y-141883011D01*
X148338443Y-142039533D01*
X148338443Y-142039534D01*
X148389963Y-142209373D01*
X148407359Y-142386000D01*
X148389963Y-142562627D01*
X148385716Y-142576627D01*
X148338443Y-142732467D01*
X148264348Y-142871087D01*
X148254778Y-142888991D01*
X148243290Y-142902989D01*
X148142186Y-143026186D01*
X148040729Y-143109448D01*
X148004991Y-143138778D01*
X148004989Y-143138779D01*
X147848467Y-143222443D01*
X147802314Y-143236443D01*
X147678627Y-143273963D01*
X147612443Y-143280481D01*
X147546260Y-143287000D01*
X147457740Y-143287000D01*
X147391557Y-143280481D01*
X147325373Y-143273963D01*
X147201686Y-143236443D01*
X147155533Y-143222443D01*
X146999011Y-143138779D01*
X146999009Y-143138778D01*
X146963271Y-143109448D01*
X146861814Y-143026186D01*
X146760710Y-142902989D01*
X146749222Y-142888991D01*
X146739652Y-142871087D01*
X146665557Y-142732467D01*
X146618284Y-142576627D01*
X146614037Y-142562627D01*
X146596641Y-142386000D01*
X146614037Y-142209373D01*
X146665557Y-142039534D01*
X146665557Y-142039533D01*
X146749221Y-141883011D01*
X146749222Y-141883009D01*
X146778552Y-141847271D01*
X146861814Y-141745814D01*
X146981950Y-141647222D01*
X146999009Y-141633222D01*
X147119488Y-141568824D01*
X147155533Y-141549557D01*
X147212147Y-141532384D01*
X147325373Y-141498037D01*
X147391558Y-141491518D01*
X147457740Y-141485000D01*
X147546260Y-141485000D01*
X147612442Y-141491518D01*
X147612442Y-141491518D01*
G37*
G36*
X150152442Y-141491518D02*
X150218627Y-141498037D01*
X150331853Y-141532384D01*
X150388467Y-141549557D01*
X150424512Y-141568824D01*
X150544991Y-141633222D01*
X150562050Y-141647222D01*
X150682186Y-141745814D01*
X150765448Y-141847271D01*
X150794778Y-141883009D01*
X150794779Y-141883011D01*
X150878443Y-142039533D01*
X150878443Y-142039534D01*
X150929963Y-142209373D01*
X150947359Y-142386000D01*
X150929963Y-142562627D01*
X150925716Y-142576627D01*
X150878443Y-142732467D01*
X150804348Y-142871087D01*
X150794778Y-142888991D01*
X150783290Y-142902989D01*
X150682186Y-143026186D01*
X150580729Y-143109448D01*
X150544991Y-143138778D01*
X150544989Y-143138779D01*
X150388467Y-143222443D01*
X150342314Y-143236443D01*
X150218627Y-143273963D01*
X150152443Y-143280481D01*
X150086260Y-143287000D01*
X149997740Y-143287000D01*
X149931557Y-143280481D01*
X149865373Y-143273963D01*
X149741686Y-143236443D01*
X149695533Y-143222443D01*
X149539011Y-143138779D01*
X149539009Y-143138778D01*
X149503271Y-143109448D01*
X149401814Y-143026186D01*
X149300710Y-142902989D01*
X149289222Y-142888991D01*
X149279652Y-142871087D01*
X149205557Y-142732467D01*
X149158284Y-142576627D01*
X149154037Y-142562627D01*
X149136641Y-142386000D01*
X149154037Y-142209373D01*
X149205557Y-142039534D01*
X149205557Y-142039533D01*
X149289221Y-141883011D01*
X149289222Y-141883009D01*
X149318552Y-141847271D01*
X149401814Y-141745814D01*
X149521950Y-141647222D01*
X149539009Y-141633222D01*
X149659488Y-141568824D01*
X149695533Y-141549557D01*
X149752147Y-141532384D01*
X149865373Y-141498037D01*
X149931558Y-141491518D01*
X149997740Y-141485000D01*
X150086260Y-141485000D01*
X150152442Y-141491518D01*
X150152442Y-141491518D01*
G37*
G36*
X138327442Y-141491518D02*
X138393627Y-141498037D01*
X138506853Y-141532384D01*
X138563467Y-141549557D01*
X138599512Y-141568824D01*
X138719991Y-141633222D01*
X138737050Y-141647222D01*
X138857186Y-141745814D01*
X138940448Y-141847271D01*
X138969778Y-141883009D01*
X138969779Y-141883011D01*
X139053443Y-142039533D01*
X139053443Y-142039534D01*
X139104963Y-142209373D01*
X139122359Y-142386000D01*
X139104963Y-142562627D01*
X139100716Y-142576627D01*
X139053443Y-142732467D01*
X138979348Y-142871087D01*
X138969778Y-142888991D01*
X138958290Y-142902989D01*
X138857186Y-143026186D01*
X138755729Y-143109448D01*
X138719991Y-143138778D01*
X138719989Y-143138779D01*
X138563467Y-143222443D01*
X138517314Y-143236443D01*
X138393627Y-143273963D01*
X138327443Y-143280481D01*
X138261260Y-143287000D01*
X138172740Y-143287000D01*
X138106557Y-143280481D01*
X138040373Y-143273963D01*
X137916686Y-143236443D01*
X137870533Y-143222443D01*
X137714011Y-143138779D01*
X137714009Y-143138778D01*
X137678271Y-143109448D01*
X137576814Y-143026186D01*
X137475710Y-142902989D01*
X137464222Y-142888991D01*
X137454652Y-142871087D01*
X137380557Y-142732467D01*
X137333284Y-142576627D01*
X137329037Y-142562627D01*
X137311641Y-142386000D01*
X137329037Y-142209373D01*
X137380557Y-142039534D01*
X137380557Y-142039533D01*
X137464221Y-141883011D01*
X137464222Y-141883009D01*
X137493552Y-141847271D01*
X137576814Y-141745814D01*
X137696950Y-141647222D01*
X137714009Y-141633222D01*
X137834488Y-141568824D01*
X137870533Y-141549557D01*
X137927147Y-141532384D01*
X138040373Y-141498037D01*
X138106558Y-141491518D01*
X138172740Y-141485000D01*
X138261260Y-141485000D01*
X138327442Y-141491518D01*
X138327442Y-141491518D01*
G37*
G36*
X130707442Y-141491518D02*
X130773627Y-141498037D01*
X130886853Y-141532384D01*
X130943467Y-141549557D01*
X130979512Y-141568824D01*
X131099991Y-141633222D01*
X131117050Y-141647222D01*
X131237186Y-141745814D01*
X131320448Y-141847271D01*
X131349778Y-141883009D01*
X131349779Y-141883011D01*
X131433443Y-142039533D01*
X131433443Y-142039534D01*
X131484963Y-142209373D01*
X131502359Y-142386000D01*
X131484963Y-142562627D01*
X131480716Y-142576627D01*
X131433443Y-142732467D01*
X131359348Y-142871087D01*
X131349778Y-142888991D01*
X131338290Y-142902989D01*
X131237186Y-143026186D01*
X131135729Y-143109448D01*
X131099991Y-143138778D01*
X131099989Y-143138779D01*
X130943467Y-143222443D01*
X130897314Y-143236443D01*
X130773627Y-143273963D01*
X130707443Y-143280481D01*
X130641260Y-143287000D01*
X130552740Y-143287000D01*
X130486557Y-143280481D01*
X130420373Y-143273963D01*
X130296686Y-143236443D01*
X130250533Y-143222443D01*
X130094011Y-143138779D01*
X130094009Y-143138778D01*
X130058271Y-143109448D01*
X129956814Y-143026186D01*
X129855710Y-142902989D01*
X129844222Y-142888991D01*
X129834652Y-142871087D01*
X129760557Y-142732467D01*
X129713284Y-142576627D01*
X129709037Y-142562627D01*
X129691641Y-142386000D01*
X129709037Y-142209373D01*
X129760557Y-142039534D01*
X129760557Y-142039533D01*
X129844221Y-141883011D01*
X129844222Y-141883009D01*
X129873552Y-141847271D01*
X129956814Y-141745814D01*
X130076950Y-141647222D01*
X130094009Y-141633222D01*
X130214488Y-141568824D01*
X130250533Y-141549557D01*
X130307147Y-141532384D01*
X130420373Y-141498037D01*
X130486558Y-141491518D01*
X130552740Y-141485000D01*
X130641260Y-141485000D01*
X130707442Y-141491518D01*
X130707442Y-141491518D01*
G37*
G36*
X237563000Y-142537000D02*
X235761000Y-142537000D01*
X235761000Y-140735000D01*
X237563000Y-140735000D01*
X237563000Y-142537000D01*
X237563000Y-142537000D01*
G37*
G36*
X239312442Y-140741518D02*
X239378627Y-140748037D01*
X239491853Y-140782384D01*
X239548467Y-140799557D01*
X239687087Y-140873652D01*
X239704991Y-140883222D01*
X239740729Y-140912552D01*
X239842186Y-140995814D01*
X239925448Y-141097271D01*
X239954778Y-141133009D01*
X239954779Y-141133011D01*
X240038443Y-141289533D01*
X240038443Y-141289534D01*
X240089963Y-141459373D01*
X240107359Y-141636000D01*
X240089963Y-141812627D01*
X240068613Y-141883009D01*
X240038443Y-141982467D01*
X240000457Y-142053533D01*
X239954778Y-142138991D01*
X239925448Y-142174729D01*
X239842186Y-142276186D01*
X239740729Y-142359448D01*
X239704991Y-142388778D01*
X239704989Y-142388779D01*
X239548467Y-142472443D01*
X239491853Y-142489616D01*
X239378627Y-142523963D01*
X239312442Y-142530482D01*
X239246260Y-142537000D01*
X239157740Y-142537000D01*
X239091558Y-142530482D01*
X239025373Y-142523963D01*
X238912147Y-142489616D01*
X238855533Y-142472443D01*
X238699011Y-142388779D01*
X238699009Y-142388778D01*
X238663271Y-142359448D01*
X238561814Y-142276186D01*
X238478552Y-142174729D01*
X238449222Y-142138991D01*
X238403543Y-142053533D01*
X238365557Y-141982467D01*
X238335387Y-141883009D01*
X238314037Y-141812627D01*
X238296641Y-141636000D01*
X238314037Y-141459373D01*
X238365557Y-141289534D01*
X238365557Y-141289533D01*
X238449221Y-141133011D01*
X238449222Y-141133009D01*
X238478552Y-141097271D01*
X238561814Y-140995814D01*
X238663271Y-140912552D01*
X238699009Y-140883222D01*
X238716913Y-140873652D01*
X238855533Y-140799557D01*
X238912147Y-140782384D01*
X239025373Y-140748037D01*
X239091558Y-140741518D01*
X239157740Y-140735000D01*
X239246260Y-140735000D01*
X239312442Y-140741518D01*
X239312442Y-140741518D01*
G37*
G36*
X190460228Y-135817703D02*
X190615100Y-135881853D01*
X190754481Y-135974985D01*
X190873015Y-136093519D01*
X190966147Y-136232900D01*
X191030297Y-136387772D01*
X191063000Y-136552184D01*
X191063000Y-136719816D01*
X191030297Y-136884228D01*
X190966147Y-137039100D01*
X190873015Y-137178481D01*
X190754481Y-137297015D01*
X190615100Y-137390147D01*
X190460228Y-137454297D01*
X190295816Y-137487000D01*
X190128184Y-137487000D01*
X189963772Y-137454297D01*
X189808900Y-137390147D01*
X189669519Y-137297015D01*
X189550985Y-137178481D01*
X189457853Y-137039100D01*
X189393703Y-136884228D01*
X189361000Y-136719816D01*
X189361000Y-136552184D01*
X189393703Y-136387772D01*
X189457853Y-136232900D01*
X189550985Y-136093519D01*
X189669519Y-135974985D01*
X189808900Y-135881853D01*
X189963772Y-135817703D01*
X190128184Y-135785000D01*
X190295816Y-135785000D01*
X190460228Y-135817703D01*
X190460228Y-135817703D01*
G37*
G36*
X243010228Y-133867703D02*
X243165100Y-133931853D01*
X243304481Y-134024985D01*
X243423015Y-134143519D01*
X243516147Y-134282900D01*
X243580297Y-134437772D01*
X243613000Y-134602184D01*
X243613000Y-134769816D01*
X243580297Y-134934228D01*
X243516147Y-135089100D01*
X243423015Y-135228481D01*
X243304481Y-135347015D01*
X243165100Y-135440147D01*
X243010228Y-135504297D01*
X242845816Y-135537000D01*
X242678184Y-135537000D01*
X242513772Y-135504297D01*
X242358900Y-135440147D01*
X242219519Y-135347015D01*
X242100985Y-135228481D01*
X242007853Y-135089100D01*
X241943703Y-134934228D01*
X241911000Y-134769816D01*
X241911000Y-134602184D01*
X241943703Y-134437772D01*
X242007853Y-134282900D01*
X242100985Y-134143519D01*
X242219519Y-134024985D01*
X242358900Y-133931853D01*
X242513772Y-133867703D01*
X242678184Y-133835000D01*
X242845816Y-133835000D01*
X243010228Y-133867703D01*
X243010228Y-133867703D01*
G37*
G36*
X191063000Y-134987000D02*
X189361000Y-134987000D01*
X189361000Y-133285000D01*
X191063000Y-133285000D01*
X191063000Y-134987000D01*
X191063000Y-134987000D01*
G37*
G36*
X206351000Y-134201000D02*
X204549000Y-134201000D01*
X204549000Y-132399000D01*
X206351000Y-132399000D01*
X206351000Y-134201000D01*
X206351000Y-134201000D01*
G37*
G36*
X243613000Y-133037000D02*
X241911000Y-133037000D01*
X241911000Y-131335000D01*
X243613000Y-131335000D01*
X243613000Y-133037000D01*
X243613000Y-133037000D01*
G37*
G36*
X191363000Y-129787000D02*
X189561000Y-129787000D01*
X189561000Y-127985000D01*
X191363000Y-127985000D01*
X191363000Y-129787000D01*
X191363000Y-129787000D01*
G37*
G36*
X208862442Y-127941518D02*
X208928627Y-127948037D01*
X209041853Y-127982384D01*
X209098467Y-127999557D01*
X209187242Y-128047009D01*
X209254991Y-128083222D01*
X209290729Y-128112552D01*
X209392186Y-128195814D01*
X209475448Y-128297271D01*
X209504778Y-128333009D01*
X209504779Y-128333011D01*
X209588443Y-128489533D01*
X209588443Y-128489534D01*
X209639963Y-128659373D01*
X209657359Y-128836000D01*
X209639963Y-129012627D01*
X209605616Y-129125853D01*
X209588443Y-129182467D01*
X209584317Y-129190186D01*
X209504778Y-129338991D01*
X209475448Y-129374729D01*
X209392186Y-129476186D01*
X209290729Y-129559448D01*
X209254991Y-129588778D01*
X209254989Y-129588779D01*
X209098467Y-129672443D01*
X209041853Y-129689616D01*
X208928627Y-129723963D01*
X208862443Y-129730481D01*
X208796260Y-129737000D01*
X208707740Y-129737000D01*
X208641557Y-129730481D01*
X208575373Y-129723963D01*
X208462147Y-129689616D01*
X208405533Y-129672443D01*
X208249011Y-129588779D01*
X208249009Y-129588778D01*
X208213271Y-129559448D01*
X208111814Y-129476186D01*
X208028552Y-129374729D01*
X207999222Y-129338991D01*
X207919683Y-129190186D01*
X207915557Y-129182467D01*
X207898384Y-129125853D01*
X207864037Y-129012627D01*
X207846641Y-128836000D01*
X207864037Y-128659373D01*
X207915557Y-128489534D01*
X207915557Y-128489533D01*
X207999221Y-128333011D01*
X207999222Y-128333009D01*
X208028552Y-128297271D01*
X208111814Y-128195814D01*
X208213271Y-128112552D01*
X208249009Y-128083222D01*
X208316758Y-128047009D01*
X208405533Y-127999557D01*
X208462147Y-127982384D01*
X208575373Y-127948037D01*
X208641558Y-127941518D01*
X208707740Y-127935000D01*
X208796260Y-127935000D01*
X208862442Y-127941518D01*
X208862442Y-127941518D01*
G37*
G36*
X207113000Y-129737000D02*
X205311000Y-129737000D01*
X205311000Y-127935000D01*
X207113000Y-127935000D01*
X207113000Y-129737000D01*
X207113000Y-129737000D01*
G37*
G36*
X184130443Y-127655519D02*
X184196627Y-127662037D01*
X184309853Y-127696384D01*
X184366467Y-127713557D01*
X184505087Y-127787652D01*
X184522991Y-127797222D01*
X184558729Y-127826552D01*
X184660186Y-127909814D01*
X184733835Y-127999557D01*
X184772778Y-128047009D01*
X184772779Y-128047011D01*
X184856443Y-128203533D01*
X184856443Y-128203534D01*
X184907963Y-128373373D01*
X184925359Y-128550000D01*
X184907963Y-128726627D01*
X184874785Y-128836000D01*
X184856443Y-128896467D01*
X184794354Y-129012625D01*
X184772778Y-129052991D01*
X184743448Y-129088729D01*
X184660186Y-129190186D01*
X184558729Y-129273448D01*
X184522991Y-129302778D01*
X184522989Y-129302779D01*
X184366467Y-129386443D01*
X184309853Y-129403616D01*
X184196627Y-129437963D01*
X184130442Y-129444482D01*
X184064260Y-129451000D01*
X183975740Y-129451000D01*
X183909558Y-129444482D01*
X183843373Y-129437963D01*
X183730147Y-129403616D01*
X183673533Y-129386443D01*
X183517011Y-129302779D01*
X183517009Y-129302778D01*
X183481271Y-129273448D01*
X183379814Y-129190186D01*
X183296552Y-129088729D01*
X183267222Y-129052991D01*
X183245646Y-129012625D01*
X183183557Y-128896467D01*
X183165215Y-128836000D01*
X183132037Y-128726627D01*
X183114641Y-128550000D01*
X183132037Y-128373373D01*
X183183557Y-128203534D01*
X183183557Y-128203533D01*
X183267221Y-128047011D01*
X183267222Y-128047009D01*
X183306165Y-127999557D01*
X183379814Y-127909814D01*
X183481271Y-127826552D01*
X183517009Y-127797222D01*
X183534913Y-127787652D01*
X183673533Y-127713557D01*
X183730147Y-127696384D01*
X183843373Y-127662037D01*
X183909557Y-127655519D01*
X183975740Y-127649000D01*
X184064260Y-127649000D01*
X184130443Y-127655519D01*
X184130443Y-127655519D01*
G37*
G36*
X179050443Y-127655519D02*
X179116627Y-127662037D01*
X179229853Y-127696384D01*
X179286467Y-127713557D01*
X179425087Y-127787652D01*
X179442991Y-127797222D01*
X179478729Y-127826552D01*
X179580186Y-127909814D01*
X179653835Y-127999557D01*
X179692778Y-128047009D01*
X179692779Y-128047011D01*
X179776443Y-128203533D01*
X179776443Y-128203534D01*
X179827963Y-128373373D01*
X179845359Y-128550000D01*
X179827963Y-128726627D01*
X179794785Y-128836000D01*
X179776443Y-128896467D01*
X179714354Y-129012625D01*
X179692778Y-129052991D01*
X179663448Y-129088729D01*
X179580186Y-129190186D01*
X179478729Y-129273448D01*
X179442991Y-129302778D01*
X179442989Y-129302779D01*
X179286467Y-129386443D01*
X179229853Y-129403616D01*
X179116627Y-129437963D01*
X179050442Y-129444482D01*
X178984260Y-129451000D01*
X178895740Y-129451000D01*
X178829558Y-129444482D01*
X178763373Y-129437963D01*
X178650147Y-129403616D01*
X178593533Y-129386443D01*
X178437011Y-129302779D01*
X178437009Y-129302778D01*
X178401271Y-129273448D01*
X178299814Y-129190186D01*
X178216552Y-129088729D01*
X178187222Y-129052991D01*
X178165646Y-129012625D01*
X178103557Y-128896467D01*
X178085215Y-128836000D01*
X178052037Y-128726627D01*
X178034641Y-128550000D01*
X178052037Y-128373373D01*
X178103557Y-128203534D01*
X178103557Y-128203533D01*
X178187221Y-128047011D01*
X178187222Y-128047009D01*
X178226165Y-127999557D01*
X178299814Y-127909814D01*
X178401271Y-127826552D01*
X178437009Y-127797222D01*
X178454913Y-127787652D01*
X178593533Y-127713557D01*
X178650147Y-127696384D01*
X178763373Y-127662037D01*
X178829557Y-127655519D01*
X178895740Y-127649000D01*
X178984260Y-127649000D01*
X179050443Y-127655519D01*
X179050443Y-127655519D01*
G37*
G36*
X177301000Y-129451000D02*
X175499000Y-129451000D01*
X175499000Y-127649000D01*
X177301000Y-127649000D01*
X177301000Y-129451000D01*
X177301000Y-129451000D01*
G37*
G36*
X186670443Y-127655519D02*
X186736627Y-127662037D01*
X186849853Y-127696384D01*
X186906467Y-127713557D01*
X187045087Y-127787652D01*
X187062991Y-127797222D01*
X187098729Y-127826552D01*
X187200186Y-127909814D01*
X187273835Y-127999557D01*
X187312778Y-128047009D01*
X187312779Y-128047011D01*
X187396443Y-128203533D01*
X187396443Y-128203534D01*
X187447963Y-128373373D01*
X187465359Y-128550000D01*
X187447963Y-128726627D01*
X187414785Y-128836000D01*
X187396443Y-128896467D01*
X187334354Y-129012625D01*
X187312778Y-129052991D01*
X187283448Y-129088729D01*
X187200186Y-129190186D01*
X187098729Y-129273448D01*
X187062991Y-129302778D01*
X187062989Y-129302779D01*
X186906467Y-129386443D01*
X186849853Y-129403616D01*
X186736627Y-129437963D01*
X186670442Y-129444482D01*
X186604260Y-129451000D01*
X186515740Y-129451000D01*
X186449558Y-129444482D01*
X186383373Y-129437963D01*
X186270147Y-129403616D01*
X186213533Y-129386443D01*
X186057011Y-129302779D01*
X186057009Y-129302778D01*
X186021271Y-129273448D01*
X185919814Y-129190186D01*
X185836552Y-129088729D01*
X185807222Y-129052991D01*
X185785646Y-129012625D01*
X185723557Y-128896467D01*
X185705215Y-128836000D01*
X185672037Y-128726627D01*
X185654641Y-128550000D01*
X185672037Y-128373373D01*
X185723557Y-128203534D01*
X185723557Y-128203533D01*
X185807221Y-128047011D01*
X185807222Y-128047009D01*
X185846165Y-127999557D01*
X185919814Y-127909814D01*
X186021271Y-127826552D01*
X186057009Y-127797222D01*
X186074913Y-127787652D01*
X186213533Y-127713557D01*
X186270147Y-127696384D01*
X186383373Y-127662037D01*
X186449557Y-127655519D01*
X186515740Y-127649000D01*
X186604260Y-127649000D01*
X186670443Y-127655519D01*
X186670443Y-127655519D01*
G37*
G36*
X181590443Y-127655519D02*
X181656627Y-127662037D01*
X181769853Y-127696384D01*
X181826467Y-127713557D01*
X181965087Y-127787652D01*
X181982991Y-127797222D01*
X182018729Y-127826552D01*
X182120186Y-127909814D01*
X182193835Y-127999557D01*
X182232778Y-128047009D01*
X182232779Y-128047011D01*
X182316443Y-128203533D01*
X182316443Y-128203534D01*
X182367963Y-128373373D01*
X182385359Y-128550000D01*
X182367963Y-128726627D01*
X182334785Y-128836000D01*
X182316443Y-128896467D01*
X182254354Y-129012625D01*
X182232778Y-129052991D01*
X182203448Y-129088729D01*
X182120186Y-129190186D01*
X182018729Y-129273448D01*
X181982991Y-129302778D01*
X181982989Y-129302779D01*
X181826467Y-129386443D01*
X181769853Y-129403616D01*
X181656627Y-129437963D01*
X181590442Y-129444482D01*
X181524260Y-129451000D01*
X181435740Y-129451000D01*
X181369558Y-129444482D01*
X181303373Y-129437963D01*
X181190147Y-129403616D01*
X181133533Y-129386443D01*
X180977011Y-129302779D01*
X180977009Y-129302778D01*
X180941271Y-129273448D01*
X180839814Y-129190186D01*
X180756552Y-129088729D01*
X180727222Y-129052991D01*
X180705646Y-129012625D01*
X180643557Y-128896467D01*
X180625215Y-128836000D01*
X180592037Y-128726627D01*
X180574641Y-128550000D01*
X180592037Y-128373373D01*
X180643557Y-128203534D01*
X180643557Y-128203533D01*
X180727221Y-128047011D01*
X180727222Y-128047009D01*
X180766165Y-127999557D01*
X180839814Y-127909814D01*
X180941271Y-127826552D01*
X180977009Y-127797222D01*
X180994913Y-127787652D01*
X181133533Y-127713557D01*
X181190147Y-127696384D01*
X181303373Y-127662037D01*
X181369557Y-127655519D01*
X181435740Y-127649000D01*
X181524260Y-127649000D01*
X181590443Y-127655519D01*
X181590443Y-127655519D01*
G37*
G36*
X190572443Y-125451519D02*
X190638627Y-125458037D01*
X190751853Y-125492384D01*
X190808467Y-125509557D01*
X190947087Y-125583652D01*
X190964991Y-125593222D01*
X191000729Y-125622552D01*
X191102186Y-125705814D01*
X191185448Y-125807271D01*
X191214778Y-125843009D01*
X191214779Y-125843011D01*
X191298443Y-125999533D01*
X191298443Y-125999534D01*
X191349963Y-126169373D01*
X191367359Y-126346000D01*
X191349963Y-126522627D01*
X191315616Y-126635853D01*
X191298443Y-126692467D01*
X191224348Y-126831087D01*
X191214778Y-126848991D01*
X191185448Y-126884729D01*
X191102186Y-126986186D01*
X191000729Y-127069448D01*
X190964991Y-127098778D01*
X190964989Y-127098779D01*
X190808467Y-127182443D01*
X190751853Y-127199616D01*
X190638627Y-127233963D01*
X190572443Y-127240481D01*
X190506260Y-127247000D01*
X190417740Y-127247000D01*
X190351557Y-127240481D01*
X190285373Y-127233963D01*
X190172147Y-127199616D01*
X190115533Y-127182443D01*
X189959011Y-127098779D01*
X189959009Y-127098778D01*
X189923271Y-127069448D01*
X189821814Y-126986186D01*
X189738552Y-126884729D01*
X189709222Y-126848991D01*
X189699652Y-126831087D01*
X189625557Y-126692467D01*
X189608384Y-126635853D01*
X189574037Y-126522627D01*
X189556641Y-126346000D01*
X189574037Y-126169373D01*
X189625557Y-125999534D01*
X189625557Y-125999533D01*
X189709221Y-125843011D01*
X189709222Y-125843009D01*
X189738552Y-125807271D01*
X189821814Y-125705814D01*
X189923271Y-125622552D01*
X189959009Y-125593222D01*
X189976913Y-125583652D01*
X190115533Y-125509557D01*
X190172147Y-125492384D01*
X190285373Y-125458037D01*
X190351557Y-125451519D01*
X190417740Y-125445000D01*
X190506260Y-125445000D01*
X190572443Y-125451519D01*
X190572443Y-125451519D01*
G37*
G36*
X225312443Y-121991519D02*
X225378627Y-121998037D01*
X225491853Y-122032384D01*
X225548467Y-122049557D01*
X225636527Y-122096627D01*
X225704991Y-122133222D01*
X225726653Y-122151000D01*
X225842186Y-122245814D01*
X225897323Y-122313000D01*
X225954778Y-122383009D01*
X225954779Y-122383011D01*
X226038443Y-122539533D01*
X226044708Y-122560186D01*
X226089963Y-122709373D01*
X226107359Y-122886000D01*
X226089963Y-123062627D01*
X226055616Y-123175853D01*
X226038443Y-123232467D01*
X225964348Y-123371087D01*
X225954778Y-123388991D01*
X225925448Y-123424729D01*
X225842186Y-123526186D01*
X225740729Y-123609448D01*
X225704991Y-123638778D01*
X225704989Y-123638779D01*
X225548467Y-123722443D01*
X225491853Y-123739616D01*
X225378627Y-123773963D01*
X225312442Y-123780482D01*
X225246260Y-123787000D01*
X225157740Y-123787000D01*
X225091558Y-123780482D01*
X225025373Y-123773963D01*
X224912147Y-123739616D01*
X224855533Y-123722443D01*
X224699011Y-123638779D01*
X224699009Y-123638778D01*
X224663271Y-123609448D01*
X224561814Y-123526186D01*
X224478552Y-123424729D01*
X224449222Y-123388991D01*
X224439652Y-123371087D01*
X224365557Y-123232467D01*
X224348384Y-123175853D01*
X224314037Y-123062627D01*
X224296641Y-122886000D01*
X224314037Y-122709373D01*
X224359292Y-122560186D01*
X224365557Y-122539533D01*
X224449221Y-122383011D01*
X224449222Y-122383009D01*
X224506677Y-122313000D01*
X224561814Y-122245814D01*
X224677347Y-122151000D01*
X224699009Y-122133222D01*
X224767473Y-122096627D01*
X224855533Y-122049557D01*
X224912147Y-122032384D01*
X225025373Y-121998037D01*
X225091557Y-121991519D01*
X225157740Y-121985000D01*
X225246260Y-121985000D01*
X225312443Y-121991519D01*
X225312443Y-121991519D01*
G37*
G36*
X223563000Y-123787000D02*
X221761000Y-123787000D01*
X221761000Y-121985000D01*
X223563000Y-121985000D01*
X223563000Y-123787000D01*
X223563000Y-123787000D01*
G37*
G36*
X94080680Y-121024557D02*
X94156627Y-121032037D01*
X94248199Y-121059815D01*
X94326467Y-121083557D01*
X94372609Y-121108221D01*
X94482991Y-121167222D01*
X94518729Y-121196552D01*
X94620186Y-121279814D01*
X94703448Y-121381271D01*
X94732778Y-121417009D01*
X94732779Y-121417011D01*
X94816443Y-121573533D01*
X94823400Y-121596467D01*
X94867963Y-121743373D01*
X94885359Y-121920000D01*
X94867963Y-122096627D01*
X94835698Y-122202991D01*
X94816443Y-122266467D01*
X94754149Y-122383009D01*
X94732778Y-122422991D01*
X94708332Y-122452778D01*
X94620186Y-122560186D01*
X94518729Y-122643448D01*
X94482991Y-122672778D01*
X94482989Y-122672779D01*
X94326467Y-122756443D01*
X94269853Y-122773616D01*
X94156627Y-122807963D01*
X94090443Y-122814481D01*
X94024260Y-122821000D01*
X93935740Y-122821000D01*
X93869557Y-122814481D01*
X93803373Y-122807963D01*
X93690147Y-122773616D01*
X93633533Y-122756443D01*
X93477011Y-122672779D01*
X93477009Y-122672778D01*
X93441271Y-122643448D01*
X93339814Y-122560186D01*
X93251668Y-122452778D01*
X93227222Y-122422991D01*
X93205851Y-122383009D01*
X93143557Y-122266467D01*
X93124302Y-122202991D01*
X93092037Y-122096627D01*
X93074641Y-121920000D01*
X93092037Y-121743373D01*
X93136600Y-121596467D01*
X93143557Y-121573533D01*
X93227221Y-121417011D01*
X93227222Y-121417009D01*
X93256552Y-121381271D01*
X93339814Y-121279814D01*
X93441271Y-121196552D01*
X93477009Y-121167222D01*
X93587391Y-121108221D01*
X93633533Y-121083557D01*
X93711801Y-121059815D01*
X93803373Y-121032037D01*
X93879320Y-121024557D01*
X93935740Y-121019000D01*
X94024260Y-121019000D01*
X94080680Y-121024557D01*
X94080680Y-121024557D01*
G37*
G36*
X91540680Y-121024557D02*
X91616627Y-121032037D01*
X91708199Y-121059815D01*
X91786467Y-121083557D01*
X91832609Y-121108221D01*
X91942991Y-121167222D01*
X91978729Y-121196552D01*
X92080186Y-121279814D01*
X92163448Y-121381271D01*
X92192778Y-121417009D01*
X92192779Y-121417011D01*
X92276443Y-121573533D01*
X92283400Y-121596467D01*
X92327963Y-121743373D01*
X92345359Y-121920000D01*
X92327963Y-122096627D01*
X92295698Y-122202991D01*
X92276443Y-122266467D01*
X92214149Y-122383009D01*
X92192778Y-122422991D01*
X92168332Y-122452778D01*
X92080186Y-122560186D01*
X91978729Y-122643448D01*
X91942991Y-122672778D01*
X91942989Y-122672779D01*
X91786467Y-122756443D01*
X91729853Y-122773616D01*
X91616627Y-122807963D01*
X91550443Y-122814481D01*
X91484260Y-122821000D01*
X91395740Y-122821000D01*
X91329557Y-122814481D01*
X91263373Y-122807963D01*
X91150147Y-122773616D01*
X91093533Y-122756443D01*
X90937011Y-122672779D01*
X90937009Y-122672778D01*
X90901271Y-122643448D01*
X90799814Y-122560186D01*
X90711668Y-122452778D01*
X90687222Y-122422991D01*
X90665851Y-122383009D01*
X90603557Y-122266467D01*
X90584302Y-122202991D01*
X90552037Y-122096627D01*
X90534641Y-121920000D01*
X90552037Y-121743373D01*
X90596600Y-121596467D01*
X90603557Y-121573533D01*
X90687221Y-121417011D01*
X90687222Y-121417009D01*
X90716552Y-121381271D01*
X90799814Y-121279814D01*
X90901271Y-121196552D01*
X90937009Y-121167222D01*
X91047391Y-121108221D01*
X91093533Y-121083557D01*
X91171801Y-121059815D01*
X91263373Y-121032037D01*
X91339320Y-121024557D01*
X91395740Y-121019000D01*
X91484260Y-121019000D01*
X91540680Y-121024557D01*
X91540680Y-121024557D01*
G37*
G36*
X89801000Y-122821000D02*
X87999000Y-122821000D01*
X87999000Y-121019000D01*
X89801000Y-121019000D01*
X89801000Y-122821000D01*
X89801000Y-122821000D01*
G37*
G36*
X99763000Y-122762000D02*
X97961000Y-122762000D01*
X97961000Y-120960000D01*
X99763000Y-120960000D01*
X99763000Y-122762000D01*
X99763000Y-122762000D01*
G37*
G36*
X101512442Y-120966518D02*
X101578627Y-120973037D01*
X101691853Y-121007384D01*
X101748467Y-121024557D01*
X101887087Y-121098652D01*
X101904991Y-121108222D01*
X101940729Y-121137552D01*
X102042186Y-121220814D01*
X102125448Y-121322271D01*
X102154778Y-121358009D01*
X102154779Y-121358011D01*
X102238443Y-121514533D01*
X102241125Y-121523375D01*
X102289963Y-121684373D01*
X102307359Y-121861000D01*
X102289963Y-122037627D01*
X102260965Y-122133221D01*
X102238443Y-122207467D01*
X102167503Y-122340185D01*
X102154778Y-122363991D01*
X102125448Y-122399729D01*
X102042186Y-122501186D01*
X101970294Y-122560185D01*
X101904991Y-122613778D01*
X101904989Y-122613779D01*
X101748467Y-122697443D01*
X101691853Y-122714616D01*
X101578627Y-122748963D01*
X101512442Y-122755482D01*
X101446260Y-122762000D01*
X101357740Y-122762000D01*
X101291558Y-122755482D01*
X101225373Y-122748963D01*
X101112147Y-122714616D01*
X101055533Y-122697443D01*
X100899011Y-122613779D01*
X100899009Y-122613778D01*
X100833706Y-122560185D01*
X100761814Y-122501186D01*
X100678552Y-122399729D01*
X100649222Y-122363991D01*
X100636497Y-122340185D01*
X100565557Y-122207467D01*
X100543035Y-122133221D01*
X100514037Y-122037627D01*
X100496641Y-121861000D01*
X100514037Y-121684373D01*
X100562875Y-121523375D01*
X100565557Y-121514533D01*
X100649221Y-121358011D01*
X100649222Y-121358009D01*
X100678552Y-121322271D01*
X100761814Y-121220814D01*
X100863271Y-121137552D01*
X100899009Y-121108222D01*
X100916913Y-121098652D01*
X101055533Y-121024557D01*
X101112147Y-121007384D01*
X101225373Y-120973037D01*
X101291558Y-120966518D01*
X101357740Y-120960000D01*
X101446260Y-120960000D01*
X101512442Y-120966518D01*
X101512442Y-120966518D01*
G37*
G36*
X104052442Y-120966518D02*
X104118627Y-120973037D01*
X104231853Y-121007384D01*
X104288467Y-121024557D01*
X104427087Y-121098652D01*
X104444991Y-121108222D01*
X104480729Y-121137552D01*
X104582186Y-121220814D01*
X104665448Y-121322271D01*
X104694778Y-121358009D01*
X104694779Y-121358011D01*
X104778443Y-121514533D01*
X104781125Y-121523375D01*
X104829963Y-121684373D01*
X104847359Y-121861000D01*
X104829963Y-122037627D01*
X104800965Y-122133221D01*
X104778443Y-122207467D01*
X104707503Y-122340185D01*
X104694778Y-122363991D01*
X104665448Y-122399729D01*
X104582186Y-122501186D01*
X104510294Y-122560185D01*
X104444991Y-122613778D01*
X104444989Y-122613779D01*
X104288467Y-122697443D01*
X104231853Y-122714616D01*
X104118627Y-122748963D01*
X104052442Y-122755482D01*
X103986260Y-122762000D01*
X103897740Y-122762000D01*
X103831558Y-122755482D01*
X103765373Y-122748963D01*
X103652147Y-122714616D01*
X103595533Y-122697443D01*
X103439011Y-122613779D01*
X103439009Y-122613778D01*
X103373706Y-122560185D01*
X103301814Y-122501186D01*
X103218552Y-122399729D01*
X103189222Y-122363991D01*
X103176497Y-122340185D01*
X103105557Y-122207467D01*
X103083035Y-122133221D01*
X103054037Y-122037627D01*
X103036641Y-121861000D01*
X103054037Y-121684373D01*
X103102875Y-121523375D01*
X103105557Y-121514533D01*
X103189221Y-121358011D01*
X103189222Y-121358009D01*
X103218552Y-121322271D01*
X103301814Y-121220814D01*
X103403271Y-121137552D01*
X103439009Y-121108222D01*
X103456913Y-121098652D01*
X103595533Y-121024557D01*
X103652147Y-121007384D01*
X103765373Y-120973037D01*
X103831558Y-120966518D01*
X103897740Y-120960000D01*
X103986260Y-120960000D01*
X104052442Y-120966518D01*
X104052442Y-120966518D01*
G37*
G36*
X122190443Y-120805519D02*
X122256627Y-120812037D01*
X122369853Y-120846384D01*
X122426467Y-120863557D01*
X122511500Y-120909009D01*
X122582991Y-120947222D01*
X122614446Y-120973037D01*
X122720186Y-121059814D01*
X122803448Y-121161271D01*
X122832778Y-121197009D01*
X122832779Y-121197011D01*
X122916443Y-121353533D01*
X122917801Y-121358011D01*
X122967963Y-121523373D01*
X122985359Y-121700000D01*
X122967963Y-121876627D01*
X122956326Y-121914989D01*
X122916443Y-122046467D01*
X122853203Y-122164779D01*
X122832778Y-122202991D01*
X122803448Y-122238729D01*
X122720186Y-122340186D01*
X122619289Y-122422989D01*
X122582991Y-122452778D01*
X122582989Y-122452779D01*
X122426467Y-122536443D01*
X122369853Y-122553616D01*
X122256627Y-122587963D01*
X122190443Y-122594481D01*
X122124260Y-122601000D01*
X122035740Y-122601000D01*
X121969557Y-122594481D01*
X121903373Y-122587963D01*
X121790147Y-122553616D01*
X121733533Y-122536443D01*
X121577011Y-122452779D01*
X121577009Y-122452778D01*
X121540711Y-122422989D01*
X121439814Y-122340186D01*
X121356552Y-122238729D01*
X121327222Y-122202991D01*
X121306797Y-122164779D01*
X121243557Y-122046467D01*
X121203674Y-121914989D01*
X121192037Y-121876627D01*
X121174641Y-121700000D01*
X121192037Y-121523373D01*
X121242199Y-121358011D01*
X121243557Y-121353533D01*
X121327221Y-121197011D01*
X121327222Y-121197009D01*
X121356552Y-121161271D01*
X121439814Y-121059814D01*
X121545554Y-120973037D01*
X121577009Y-120947222D01*
X121648500Y-120909009D01*
X121733533Y-120863557D01*
X121790147Y-120846384D01*
X121903373Y-120812037D01*
X121969557Y-120805519D01*
X122035740Y-120799000D01*
X122124260Y-120799000D01*
X122190443Y-120805519D01*
X122190443Y-120805519D01*
G37*
G36*
X117901000Y-122601000D02*
X116099000Y-122601000D01*
X116099000Y-120799000D01*
X117901000Y-120799000D01*
X117901000Y-122601000D01*
X117901000Y-122601000D01*
G37*
G36*
X119650443Y-120805519D02*
X119716627Y-120812037D01*
X119829853Y-120846384D01*
X119886467Y-120863557D01*
X119971500Y-120909009D01*
X120042991Y-120947222D01*
X120074446Y-120973037D01*
X120180186Y-121059814D01*
X120263448Y-121161271D01*
X120292778Y-121197009D01*
X120292779Y-121197011D01*
X120376443Y-121353533D01*
X120377801Y-121358011D01*
X120427963Y-121523373D01*
X120445359Y-121700000D01*
X120427963Y-121876627D01*
X120416326Y-121914989D01*
X120376443Y-122046467D01*
X120313203Y-122164779D01*
X120292778Y-122202991D01*
X120263448Y-122238729D01*
X120180186Y-122340186D01*
X120079289Y-122422989D01*
X120042991Y-122452778D01*
X120042989Y-122452779D01*
X119886467Y-122536443D01*
X119829853Y-122553616D01*
X119716627Y-122587963D01*
X119650443Y-122594481D01*
X119584260Y-122601000D01*
X119495740Y-122601000D01*
X119429557Y-122594481D01*
X119363373Y-122587963D01*
X119250147Y-122553616D01*
X119193533Y-122536443D01*
X119037011Y-122452779D01*
X119037009Y-122452778D01*
X119000711Y-122422989D01*
X118899814Y-122340186D01*
X118816552Y-122238729D01*
X118787222Y-122202991D01*
X118766797Y-122164779D01*
X118703557Y-122046467D01*
X118663674Y-121914989D01*
X118652037Y-121876627D01*
X118634641Y-121700000D01*
X118652037Y-121523373D01*
X118702199Y-121358011D01*
X118703557Y-121353533D01*
X118787221Y-121197011D01*
X118787222Y-121197009D01*
X118816552Y-121161271D01*
X118899814Y-121059814D01*
X119005554Y-120973037D01*
X119037009Y-120947222D01*
X119108500Y-120909009D01*
X119193533Y-120863557D01*
X119250147Y-120846384D01*
X119363373Y-120812037D01*
X119429557Y-120805519D01*
X119495740Y-120799000D01*
X119584260Y-120799000D01*
X119650443Y-120805519D01*
X119650443Y-120805519D01*
G37*
G36*
X129650442Y-120517518D02*
X129716627Y-120524037D01*
X129829853Y-120558384D01*
X129886467Y-120575557D01*
X129950556Y-120609814D01*
X130042991Y-120659222D01*
X130078729Y-120688552D01*
X130180186Y-120771814D01*
X130255476Y-120863557D01*
X130292778Y-120909009D01*
X130292779Y-120909011D01*
X130376443Y-121065533D01*
X130376443Y-121065534D01*
X130427963Y-121235373D01*
X130445359Y-121412000D01*
X130427963Y-121588627D01*
X130398919Y-121684373D01*
X130376443Y-121758467D01*
X130321637Y-121861000D01*
X130292778Y-121914991D01*
X130288667Y-121920000D01*
X130180186Y-122052186D01*
X130081443Y-122133221D01*
X130042991Y-122164778D01*
X130042989Y-122164779D01*
X129886467Y-122248443D01*
X129829853Y-122265616D01*
X129716627Y-122299963D01*
X129650442Y-122306482D01*
X129584260Y-122313000D01*
X129495740Y-122313000D01*
X129429558Y-122306482D01*
X129363373Y-122299963D01*
X129250147Y-122265616D01*
X129193533Y-122248443D01*
X129037011Y-122164779D01*
X129037009Y-122164778D01*
X128998557Y-122133221D01*
X128899814Y-122052186D01*
X128791333Y-121920000D01*
X128787222Y-121914991D01*
X128758363Y-121861000D01*
X128703557Y-121758467D01*
X128681081Y-121684373D01*
X128652037Y-121588627D01*
X128634641Y-121412000D01*
X128652037Y-121235373D01*
X128703557Y-121065534D01*
X128703557Y-121065533D01*
X128787221Y-120909011D01*
X128787222Y-120909009D01*
X128824524Y-120863557D01*
X128899814Y-120771814D01*
X129001271Y-120688552D01*
X129037009Y-120659222D01*
X129129444Y-120609814D01*
X129193533Y-120575557D01*
X129250147Y-120558384D01*
X129363373Y-120524037D01*
X129429558Y-120517518D01*
X129495740Y-120511000D01*
X129584260Y-120511000D01*
X129650442Y-120517518D01*
X129650442Y-120517518D01*
G37*
G36*
X127901000Y-122313000D02*
X126099000Y-122313000D01*
X126099000Y-120511000D01*
X127901000Y-120511000D01*
X127901000Y-122313000D01*
X127901000Y-122313000D01*
G37*
G36*
X190000443Y-120355519D02*
X190066627Y-120362037D01*
X190179853Y-120396384D01*
X190236467Y-120413557D01*
X190375087Y-120487652D01*
X190392991Y-120497222D01*
X190409779Y-120511000D01*
X190530186Y-120609814D01*
X190570733Y-120659222D01*
X190642778Y-120747009D01*
X190642779Y-120747011D01*
X190726443Y-120903533D01*
X190739695Y-120947221D01*
X190777963Y-121073373D01*
X190795359Y-121250000D01*
X190777963Y-121426627D01*
X190751297Y-121514533D01*
X190726443Y-121596467D01*
X190652348Y-121735087D01*
X190642778Y-121752991D01*
X190613448Y-121788729D01*
X190530186Y-121890186D01*
X190428729Y-121973448D01*
X190392991Y-122002778D01*
X190392989Y-122002779D01*
X190236467Y-122086443D01*
X190202894Y-122096627D01*
X190066627Y-122137963D01*
X190000442Y-122144482D01*
X189934260Y-122151000D01*
X189845740Y-122151000D01*
X189779558Y-122144482D01*
X189713373Y-122137963D01*
X189577106Y-122096627D01*
X189543533Y-122086443D01*
X189387011Y-122002779D01*
X189387009Y-122002778D01*
X189351271Y-121973448D01*
X189249814Y-121890186D01*
X189166552Y-121788729D01*
X189137222Y-121752991D01*
X189127652Y-121735087D01*
X189053557Y-121596467D01*
X189028703Y-121514533D01*
X189002037Y-121426627D01*
X188984641Y-121250000D01*
X189002037Y-121073373D01*
X189040305Y-120947221D01*
X189053557Y-120903533D01*
X189137221Y-120747011D01*
X189137222Y-120747009D01*
X189209267Y-120659222D01*
X189249814Y-120609814D01*
X189370221Y-120511000D01*
X189387009Y-120497222D01*
X189404913Y-120487652D01*
X189543533Y-120413557D01*
X189600147Y-120396384D01*
X189713373Y-120362037D01*
X189779557Y-120355519D01*
X189845740Y-120349000D01*
X189934260Y-120349000D01*
X190000443Y-120355519D01*
X190000443Y-120355519D01*
G37*
G36*
X187460443Y-120355519D02*
X187526627Y-120362037D01*
X187639853Y-120396384D01*
X187696467Y-120413557D01*
X187835087Y-120487652D01*
X187852991Y-120497222D01*
X187869779Y-120511000D01*
X187990186Y-120609814D01*
X188030733Y-120659222D01*
X188102778Y-120747009D01*
X188102779Y-120747011D01*
X188186443Y-120903533D01*
X188199695Y-120947221D01*
X188237963Y-121073373D01*
X188255359Y-121250000D01*
X188237963Y-121426627D01*
X188211297Y-121514533D01*
X188186443Y-121596467D01*
X188112348Y-121735087D01*
X188102778Y-121752991D01*
X188073448Y-121788729D01*
X187990186Y-121890186D01*
X187888729Y-121973448D01*
X187852991Y-122002778D01*
X187852989Y-122002779D01*
X187696467Y-122086443D01*
X187662894Y-122096627D01*
X187526627Y-122137963D01*
X187460442Y-122144482D01*
X187394260Y-122151000D01*
X187305740Y-122151000D01*
X187239558Y-122144482D01*
X187173373Y-122137963D01*
X187037106Y-122096627D01*
X187003533Y-122086443D01*
X186847011Y-122002779D01*
X186847009Y-122002778D01*
X186811271Y-121973448D01*
X186709814Y-121890186D01*
X186626552Y-121788729D01*
X186597222Y-121752991D01*
X186587652Y-121735087D01*
X186513557Y-121596467D01*
X186488703Y-121514533D01*
X186462037Y-121426627D01*
X186444641Y-121250000D01*
X186462037Y-121073373D01*
X186500305Y-120947221D01*
X186513557Y-120903533D01*
X186597221Y-120747011D01*
X186597222Y-120747009D01*
X186669267Y-120659222D01*
X186709814Y-120609814D01*
X186830221Y-120511000D01*
X186847009Y-120497222D01*
X186864913Y-120487652D01*
X187003533Y-120413557D01*
X187060147Y-120396384D01*
X187173373Y-120362037D01*
X187239557Y-120355519D01*
X187305740Y-120349000D01*
X187394260Y-120349000D01*
X187460443Y-120355519D01*
X187460443Y-120355519D01*
G37*
G36*
X184920443Y-120355519D02*
X184986627Y-120362037D01*
X185099853Y-120396384D01*
X185156467Y-120413557D01*
X185295087Y-120487652D01*
X185312991Y-120497222D01*
X185329779Y-120511000D01*
X185450186Y-120609814D01*
X185490733Y-120659222D01*
X185562778Y-120747009D01*
X185562779Y-120747011D01*
X185646443Y-120903533D01*
X185659695Y-120947221D01*
X185697963Y-121073373D01*
X185715359Y-121250000D01*
X185697963Y-121426627D01*
X185671297Y-121514533D01*
X185646443Y-121596467D01*
X185572348Y-121735087D01*
X185562778Y-121752991D01*
X185533448Y-121788729D01*
X185450186Y-121890186D01*
X185348729Y-121973448D01*
X185312991Y-122002778D01*
X185312989Y-122002779D01*
X185156467Y-122086443D01*
X185122894Y-122096627D01*
X184986627Y-122137963D01*
X184920442Y-122144482D01*
X184854260Y-122151000D01*
X184765740Y-122151000D01*
X184699558Y-122144482D01*
X184633373Y-122137963D01*
X184497106Y-122096627D01*
X184463533Y-122086443D01*
X184307011Y-122002779D01*
X184307009Y-122002778D01*
X184271271Y-121973448D01*
X184169814Y-121890186D01*
X184086552Y-121788729D01*
X184057222Y-121752991D01*
X184047652Y-121735087D01*
X183973557Y-121596467D01*
X183948703Y-121514533D01*
X183922037Y-121426627D01*
X183904641Y-121250000D01*
X183922037Y-121073373D01*
X183960305Y-120947221D01*
X183973557Y-120903533D01*
X184057221Y-120747011D01*
X184057222Y-120747009D01*
X184129267Y-120659222D01*
X184169814Y-120609814D01*
X184290221Y-120511000D01*
X184307009Y-120497222D01*
X184324913Y-120487652D01*
X184463533Y-120413557D01*
X184520147Y-120396384D01*
X184633373Y-120362037D01*
X184699557Y-120355519D01*
X184765740Y-120349000D01*
X184854260Y-120349000D01*
X184920443Y-120355519D01*
X184920443Y-120355519D01*
G37*
G36*
X183171000Y-122151000D02*
X181369000Y-122151000D01*
X181369000Y-120349000D01*
X183171000Y-120349000D01*
X183171000Y-122151000D01*
X183171000Y-122151000D01*
G37*
G36*
X243914527Y-114124736D02*
X244014410Y-114144604D01*
X244296674Y-114261521D01*
X244550705Y-114431259D01*
X244766741Y-114647295D01*
X244936479Y-114901326D01*
X245040946Y-115153533D01*
X245053396Y-115183591D01*
X245113000Y-115483238D01*
X245113000Y-115788762D01*
X245083096Y-115939100D01*
X245053396Y-116088410D01*
X244936479Y-116370674D01*
X244766741Y-116624705D01*
X244550705Y-116840741D01*
X244296674Y-117010479D01*
X244014410Y-117127396D01*
X243914527Y-117147264D01*
X243714762Y-117187000D01*
X243409238Y-117187000D01*
X243209473Y-117147264D01*
X243109590Y-117127396D01*
X242827326Y-117010479D01*
X242573295Y-116840741D01*
X242357259Y-116624705D01*
X242187521Y-116370674D01*
X242070604Y-116088410D01*
X242040904Y-115939100D01*
X242011000Y-115788762D01*
X242011000Y-115483238D01*
X242070604Y-115183591D01*
X242083054Y-115153533D01*
X242187521Y-114901326D01*
X242357259Y-114647295D01*
X242573295Y-114431259D01*
X242827326Y-114261521D01*
X243109590Y-114144604D01*
X243209473Y-114124736D01*
X243409238Y-114085000D01*
X243714762Y-114085000D01*
X243914527Y-114124736D01*
X243914527Y-114124736D01*
G37*
G36*
X223914527Y-114124736D02*
X224014410Y-114144604D01*
X224296674Y-114261521D01*
X224550705Y-114431259D01*
X224766741Y-114647295D01*
X224936479Y-114901326D01*
X225040946Y-115153533D01*
X225053396Y-115183591D01*
X225113000Y-115483238D01*
X225113000Y-115788762D01*
X225083096Y-115939100D01*
X225053396Y-116088410D01*
X224936479Y-116370674D01*
X224766741Y-116624705D01*
X224550705Y-116840741D01*
X224296674Y-117010479D01*
X224014410Y-117127396D01*
X223914527Y-117147264D01*
X223714762Y-117187000D01*
X223409238Y-117187000D01*
X223209473Y-117147264D01*
X223109590Y-117127396D01*
X222827326Y-117010479D01*
X222573295Y-116840741D01*
X222357259Y-116624705D01*
X222187521Y-116370674D01*
X222070604Y-116088410D01*
X222040904Y-115939100D01*
X222011000Y-115788762D01*
X222011000Y-115483238D01*
X222070604Y-115183591D01*
X222083054Y-115153533D01*
X222187521Y-114901326D01*
X222357259Y-114647295D01*
X222573295Y-114431259D01*
X222827326Y-114261521D01*
X223109590Y-114144604D01*
X223209473Y-114124736D01*
X223409238Y-114085000D01*
X223714762Y-114085000D01*
X223914527Y-114124736D01*
X223914527Y-114124736D01*
G37*
G36*
X191250443Y-114605519D02*
X191316627Y-114612037D01*
X191429853Y-114646384D01*
X191486467Y-114663557D01*
X191587767Y-114717704D01*
X191642991Y-114747222D01*
X191678729Y-114776552D01*
X191780186Y-114859814D01*
X191843530Y-114937000D01*
X191892778Y-114997009D01*
X191892779Y-114997011D01*
X191976443Y-115153533D01*
X191985561Y-115183591D01*
X192027963Y-115323373D01*
X192045359Y-115500000D01*
X192027963Y-115676627D01*
X191995323Y-115784228D01*
X191976443Y-115846467D01*
X191926929Y-115939100D01*
X191892778Y-116002991D01*
X191863448Y-116038729D01*
X191780186Y-116140186D01*
X191678729Y-116223448D01*
X191642991Y-116252778D01*
X191642989Y-116252779D01*
X191486467Y-116336443D01*
X191429853Y-116353616D01*
X191316627Y-116387963D01*
X191250443Y-116394481D01*
X191184260Y-116401000D01*
X191095740Y-116401000D01*
X191029557Y-116394481D01*
X190963373Y-116387963D01*
X190850147Y-116353616D01*
X190793533Y-116336443D01*
X190637011Y-116252779D01*
X190637009Y-116252778D01*
X190601271Y-116223448D01*
X190499814Y-116140186D01*
X190416552Y-116038729D01*
X190387222Y-116002991D01*
X190353071Y-115939100D01*
X190303557Y-115846467D01*
X190284677Y-115784228D01*
X190252037Y-115676627D01*
X190234641Y-115500000D01*
X190252037Y-115323373D01*
X190294439Y-115183591D01*
X190303557Y-115153533D01*
X190387221Y-114997011D01*
X190387222Y-114997009D01*
X190436470Y-114937000D01*
X190499814Y-114859814D01*
X190601271Y-114776552D01*
X190637009Y-114747222D01*
X190692233Y-114717704D01*
X190793533Y-114663557D01*
X190850147Y-114646384D01*
X190963373Y-114612037D01*
X191029557Y-114605519D01*
X191095740Y-114599000D01*
X191184260Y-114599000D01*
X191250443Y-114605519D01*
X191250443Y-114605519D01*
G37*
G36*
X189501000Y-116401000D02*
X187699000Y-116401000D01*
X187699000Y-114599000D01*
X189501000Y-114599000D01*
X189501000Y-116401000D01*
X189501000Y-116401000D01*
G37*
G36*
X200560228Y-114717703D02*
X200715100Y-114781853D01*
X200854481Y-114874985D01*
X200973015Y-114993519D01*
X201066147Y-115132900D01*
X201130297Y-115287772D01*
X201163000Y-115452184D01*
X201163000Y-115619816D01*
X201130297Y-115784228D01*
X201066147Y-115939100D01*
X200973015Y-116078481D01*
X200854481Y-116197015D01*
X200715100Y-116290147D01*
X200560228Y-116354297D01*
X200395816Y-116387000D01*
X200228184Y-116387000D01*
X200063772Y-116354297D01*
X199908900Y-116290147D01*
X199769519Y-116197015D01*
X199650985Y-116078481D01*
X199557853Y-115939100D01*
X199493703Y-115784228D01*
X199461000Y-115619816D01*
X199461000Y-115452184D01*
X199493703Y-115287772D01*
X199557853Y-115132900D01*
X199650985Y-114993519D01*
X199769519Y-114874985D01*
X199908900Y-114781853D01*
X200063772Y-114717703D01*
X200228184Y-114685000D01*
X200395816Y-114685000D01*
X200560228Y-114717703D01*
X200560228Y-114717703D01*
G37*
G36*
X198663000Y-116387000D02*
X196961000Y-116387000D01*
X196961000Y-114685000D01*
X198663000Y-114685000D01*
X198663000Y-116387000D01*
X198663000Y-116387000D01*
G37*
G36*
X216613000Y-114937000D02*
X214911000Y-114937000D01*
X214911000Y-113235000D01*
X216613000Y-113235000D01*
X216613000Y-114937000D01*
X216613000Y-114937000D01*
G37*
G36*
X216010228Y-110767703D02*
X216165100Y-110831853D01*
X216304481Y-110924985D01*
X216423015Y-111043519D01*
X216516147Y-111182900D01*
X216580297Y-111337772D01*
X216613000Y-111502184D01*
X216613000Y-111669816D01*
X216580297Y-111834228D01*
X216516147Y-111989100D01*
X216423015Y-112128481D01*
X216304481Y-112247015D01*
X216165100Y-112340147D01*
X216010228Y-112404297D01*
X215845816Y-112437000D01*
X215678184Y-112437000D01*
X215513772Y-112404297D01*
X215358900Y-112340147D01*
X215219519Y-112247015D01*
X215100985Y-112128481D01*
X215007853Y-111989100D01*
X214943703Y-111834228D01*
X214911000Y-111669816D01*
X214911000Y-111502184D01*
X214943703Y-111337772D01*
X215007853Y-111182900D01*
X215100985Y-111043519D01*
X215219519Y-110924985D01*
X215358900Y-110831853D01*
X215513772Y-110767703D01*
X215678184Y-110735000D01*
X215845816Y-110735000D01*
X216010228Y-110767703D01*
X216010228Y-110767703D01*
G37*
G36*
X223914527Y-109124736D02*
X224014410Y-109144604D01*
X224296674Y-109261521D01*
X224550705Y-109431259D01*
X224766741Y-109647295D01*
X224936479Y-109901326D01*
X225053396Y-110183590D01*
X225053396Y-110183591D01*
X225113000Y-110483238D01*
X225113000Y-110788762D01*
X225104428Y-110831854D01*
X225053396Y-111088410D01*
X224936479Y-111370674D01*
X224766741Y-111624705D01*
X224550705Y-111840741D01*
X224296674Y-112010479D01*
X224014410Y-112127396D01*
X223914527Y-112147264D01*
X223714762Y-112187000D01*
X223409238Y-112187000D01*
X223209473Y-112147264D01*
X223109590Y-112127396D01*
X222827326Y-112010479D01*
X222573295Y-111840741D01*
X222357259Y-111624705D01*
X222187521Y-111370674D01*
X222070604Y-111088410D01*
X222019572Y-110831854D01*
X222011000Y-110788762D01*
X222011000Y-110483238D01*
X222070604Y-110183591D01*
X222070604Y-110183590D01*
X222187521Y-109901326D01*
X222357259Y-109647295D01*
X222573295Y-109431259D01*
X222827326Y-109261521D01*
X223109590Y-109144604D01*
X223209473Y-109124736D01*
X223409238Y-109085000D01*
X223714762Y-109085000D01*
X223914527Y-109124736D01*
X223914527Y-109124736D01*
G37*
G36*
X243914527Y-109124736D02*
X244014410Y-109144604D01*
X244296674Y-109261521D01*
X244550705Y-109431259D01*
X244766741Y-109647295D01*
X244936479Y-109901326D01*
X245053396Y-110183590D01*
X245053396Y-110183591D01*
X245113000Y-110483238D01*
X245113000Y-110788762D01*
X245104428Y-110831854D01*
X245053396Y-111088410D01*
X244936479Y-111370674D01*
X244766741Y-111624705D01*
X244550705Y-111840741D01*
X244296674Y-112010479D01*
X244014410Y-112127396D01*
X243914527Y-112147264D01*
X243714762Y-112187000D01*
X243409238Y-112187000D01*
X243209473Y-112147264D01*
X243109590Y-112127396D01*
X242827326Y-112010479D01*
X242573295Y-111840741D01*
X242357259Y-111624705D01*
X242187521Y-111370674D01*
X242070604Y-111088410D01*
X242019572Y-110831854D01*
X242011000Y-110788762D01*
X242011000Y-110483238D01*
X242070604Y-110183591D01*
X242070604Y-110183590D01*
X242187521Y-109901326D01*
X242357259Y-109647295D01*
X242573295Y-109431259D01*
X242827326Y-109261521D01*
X243109590Y-109144604D01*
X243209473Y-109124736D01*
X243409238Y-109085000D01*
X243714762Y-109085000D01*
X243914527Y-109124736D01*
X243914527Y-109124736D01*
G37*
G36*
X144197721Y-110106174D02*
X144297995Y-110147709D01*
X144388245Y-110208012D01*
X144464988Y-110284755D01*
X144525291Y-110375005D01*
X144566826Y-110475279D01*
X144588000Y-110581730D01*
X144588000Y-110690270D01*
X144566826Y-110796721D01*
X144525291Y-110896995D01*
X144464988Y-110987245D01*
X144388245Y-111063988D01*
X144297995Y-111124291D01*
X144197721Y-111165826D01*
X144091270Y-111187000D01*
X143982730Y-111187000D01*
X143876279Y-111165826D01*
X143776005Y-111124291D01*
X143685755Y-111063988D01*
X143609012Y-110987245D01*
X143548709Y-110896995D01*
X143507174Y-110796721D01*
X143486000Y-110690270D01*
X143486000Y-110581730D01*
X143507174Y-110475279D01*
X143548709Y-110375005D01*
X143609012Y-110284755D01*
X143685755Y-110208012D01*
X143776005Y-110147709D01*
X143876279Y-110106174D01*
X143982730Y-110085000D01*
X144091270Y-110085000D01*
X144197721Y-110106174D01*
X144197721Y-110106174D01*
G37*
G36*
X181713000Y-110737000D02*
X179911000Y-110737000D01*
X179911000Y-108935000D01*
X181713000Y-108935000D01*
X181713000Y-110737000D01*
X181713000Y-110737000D01*
G37*
G36*
X183462442Y-108941518D02*
X183528627Y-108948037D01*
X183618432Y-108975279D01*
X183698467Y-108999557D01*
X183837087Y-109073652D01*
X183854991Y-109083222D01*
X183857157Y-109085000D01*
X183992186Y-109195814D01*
X184074997Y-109296721D01*
X184104778Y-109333009D01*
X184104779Y-109333011D01*
X184188443Y-109489533D01*
X184188443Y-109489534D01*
X184239963Y-109659373D01*
X184257359Y-109836000D01*
X184239963Y-110012627D01*
X184205616Y-110125853D01*
X184188443Y-110182467D01*
X184114348Y-110321087D01*
X184104778Y-110338991D01*
X184075448Y-110374729D01*
X183992186Y-110476186D01*
X183890729Y-110559448D01*
X183854991Y-110588778D01*
X183854989Y-110588779D01*
X183698467Y-110672443D01*
X183641853Y-110689616D01*
X183528627Y-110723963D01*
X183462442Y-110730482D01*
X183396260Y-110737000D01*
X183307740Y-110737000D01*
X183241558Y-110730482D01*
X183175373Y-110723963D01*
X183062147Y-110689616D01*
X183005533Y-110672443D01*
X182849011Y-110588779D01*
X182849009Y-110588778D01*
X182813271Y-110559448D01*
X182711814Y-110476186D01*
X182628552Y-110374729D01*
X182599222Y-110338991D01*
X182589652Y-110321087D01*
X182515557Y-110182467D01*
X182498384Y-110125853D01*
X182464037Y-110012627D01*
X182446641Y-109836000D01*
X182464037Y-109659373D01*
X182515557Y-109489534D01*
X182515557Y-109489533D01*
X182599221Y-109333011D01*
X182599222Y-109333009D01*
X182629003Y-109296721D01*
X182711814Y-109195814D01*
X182846843Y-109085000D01*
X182849009Y-109083222D01*
X182866913Y-109073652D01*
X183005533Y-108999557D01*
X183085568Y-108975279D01*
X183175373Y-108948037D01*
X183241558Y-108941518D01*
X183307740Y-108935000D01*
X183396260Y-108935000D01*
X183462442Y-108941518D01*
X183462442Y-108941518D01*
G37*
G36*
X188542442Y-108941518D02*
X188608627Y-108948037D01*
X188698432Y-108975279D01*
X188778467Y-108999557D01*
X188917087Y-109073652D01*
X188934991Y-109083222D01*
X188937157Y-109085000D01*
X189072186Y-109195814D01*
X189154997Y-109296721D01*
X189184778Y-109333009D01*
X189184779Y-109333011D01*
X189268443Y-109489533D01*
X189268443Y-109489534D01*
X189319963Y-109659373D01*
X189337359Y-109836000D01*
X189319963Y-110012627D01*
X189285616Y-110125853D01*
X189268443Y-110182467D01*
X189194348Y-110321087D01*
X189184778Y-110338991D01*
X189155448Y-110374729D01*
X189072186Y-110476186D01*
X188970729Y-110559448D01*
X188934991Y-110588778D01*
X188934989Y-110588779D01*
X188778467Y-110672443D01*
X188721853Y-110689616D01*
X188608627Y-110723963D01*
X188542442Y-110730482D01*
X188476260Y-110737000D01*
X188387740Y-110737000D01*
X188321558Y-110730482D01*
X188255373Y-110723963D01*
X188142147Y-110689616D01*
X188085533Y-110672443D01*
X187929011Y-110588779D01*
X187929009Y-110588778D01*
X187893271Y-110559448D01*
X187791814Y-110476186D01*
X187708552Y-110374729D01*
X187679222Y-110338991D01*
X187669652Y-110321087D01*
X187595557Y-110182467D01*
X187578384Y-110125853D01*
X187544037Y-110012627D01*
X187526641Y-109836000D01*
X187544037Y-109659373D01*
X187595557Y-109489534D01*
X187595557Y-109489533D01*
X187679221Y-109333011D01*
X187679222Y-109333009D01*
X187709003Y-109296721D01*
X187791814Y-109195814D01*
X187926843Y-109085000D01*
X187929009Y-109083222D01*
X187946913Y-109073652D01*
X188085533Y-108999557D01*
X188165568Y-108975279D01*
X188255373Y-108948037D01*
X188321558Y-108941518D01*
X188387740Y-108935000D01*
X188476260Y-108935000D01*
X188542442Y-108941518D01*
X188542442Y-108941518D01*
G37*
G36*
X186002442Y-108941518D02*
X186068627Y-108948037D01*
X186158432Y-108975279D01*
X186238467Y-108999557D01*
X186377087Y-109073652D01*
X186394991Y-109083222D01*
X186397157Y-109085000D01*
X186532186Y-109195814D01*
X186614997Y-109296721D01*
X186644778Y-109333009D01*
X186644779Y-109333011D01*
X186728443Y-109489533D01*
X186728443Y-109489534D01*
X186779963Y-109659373D01*
X186797359Y-109836000D01*
X186779963Y-110012627D01*
X186745616Y-110125853D01*
X186728443Y-110182467D01*
X186654348Y-110321087D01*
X186644778Y-110338991D01*
X186615448Y-110374729D01*
X186532186Y-110476186D01*
X186430729Y-110559448D01*
X186394991Y-110588778D01*
X186394989Y-110588779D01*
X186238467Y-110672443D01*
X186181853Y-110689616D01*
X186068627Y-110723963D01*
X186002442Y-110730482D01*
X185936260Y-110737000D01*
X185847740Y-110737000D01*
X185781558Y-110730482D01*
X185715373Y-110723963D01*
X185602147Y-110689616D01*
X185545533Y-110672443D01*
X185389011Y-110588779D01*
X185389009Y-110588778D01*
X185353271Y-110559448D01*
X185251814Y-110476186D01*
X185168552Y-110374729D01*
X185139222Y-110338991D01*
X185129652Y-110321087D01*
X185055557Y-110182467D01*
X185038384Y-110125853D01*
X185004037Y-110012627D01*
X184986641Y-109836000D01*
X185004037Y-109659373D01*
X185055557Y-109489534D01*
X185055557Y-109489533D01*
X185139221Y-109333011D01*
X185139222Y-109333009D01*
X185169003Y-109296721D01*
X185251814Y-109195814D01*
X185386843Y-109085000D01*
X185389009Y-109083222D01*
X185406913Y-109073652D01*
X185545533Y-108999557D01*
X185625568Y-108975279D01*
X185715373Y-108948037D01*
X185781558Y-108941518D01*
X185847740Y-108935000D01*
X185936260Y-108935000D01*
X186002442Y-108941518D01*
X186002442Y-108941518D01*
G37*
G36*
X144197721Y-108606174D02*
X144297995Y-108647709D01*
X144388245Y-108708012D01*
X144464988Y-108784755D01*
X144525291Y-108875005D01*
X144566826Y-108975279D01*
X144588000Y-109081730D01*
X144588000Y-109190270D01*
X144566826Y-109296721D01*
X144525291Y-109396995D01*
X144464988Y-109487245D01*
X144388245Y-109563988D01*
X144297995Y-109624291D01*
X144197721Y-109665826D01*
X144091270Y-109687000D01*
X143982730Y-109687000D01*
X143876279Y-109665826D01*
X143776005Y-109624291D01*
X143685755Y-109563988D01*
X143609012Y-109487245D01*
X143548709Y-109396995D01*
X143507174Y-109296721D01*
X143486000Y-109190270D01*
X143486000Y-109081730D01*
X143507174Y-108975279D01*
X143548709Y-108875005D01*
X143609012Y-108784755D01*
X143685755Y-108708012D01*
X143776005Y-108647709D01*
X143876279Y-108606174D01*
X143982730Y-108585000D01*
X144091270Y-108585000D01*
X144197721Y-108606174D01*
X144197721Y-108606174D01*
G37*
G36*
X199647442Y-106616518D02*
X199713627Y-106623037D01*
X199826853Y-106657384D01*
X199883467Y-106674557D01*
X200022087Y-106748652D01*
X200039991Y-106758222D01*
X200075729Y-106787552D01*
X200177186Y-106870814D01*
X200260448Y-106972271D01*
X200289778Y-107008009D01*
X200289779Y-107008011D01*
X200373443Y-107164533D01*
X200373443Y-107164534D01*
X200424963Y-107334373D01*
X200442359Y-107511000D01*
X200424963Y-107687627D01*
X200390616Y-107800853D01*
X200373443Y-107857467D01*
X200299348Y-107996087D01*
X200289778Y-108013991D01*
X200260448Y-108049729D01*
X200177186Y-108151186D01*
X200075729Y-108234448D01*
X200039991Y-108263778D01*
X200039989Y-108263779D01*
X199883467Y-108347443D01*
X199826853Y-108364616D01*
X199713627Y-108398963D01*
X199647442Y-108405482D01*
X199581260Y-108412000D01*
X199492740Y-108412000D01*
X199426558Y-108405482D01*
X199360373Y-108398963D01*
X199247147Y-108364616D01*
X199190533Y-108347443D01*
X199034011Y-108263779D01*
X199034009Y-108263778D01*
X198998271Y-108234448D01*
X198896814Y-108151186D01*
X198813552Y-108049729D01*
X198784222Y-108013991D01*
X198774652Y-107996087D01*
X198700557Y-107857467D01*
X198683384Y-107800853D01*
X198649037Y-107687627D01*
X198631641Y-107511000D01*
X198649037Y-107334373D01*
X198700557Y-107164534D01*
X198700557Y-107164533D01*
X198784221Y-107008011D01*
X198784222Y-107008009D01*
X198813552Y-106972271D01*
X198896814Y-106870814D01*
X198998271Y-106787552D01*
X199034009Y-106758222D01*
X199051913Y-106748652D01*
X199190533Y-106674557D01*
X199247147Y-106657384D01*
X199360373Y-106623037D01*
X199426558Y-106616518D01*
X199492740Y-106610000D01*
X199581260Y-106610000D01*
X199647442Y-106616518D01*
X199647442Y-106616518D01*
G37*
G36*
X213138000Y-108412000D02*
X211336000Y-108412000D01*
X211336000Y-106610000D01*
X213138000Y-106610000D01*
X213138000Y-108412000D01*
X213138000Y-108412000D01*
G37*
G36*
X209807442Y-106616518D02*
X209873627Y-106623037D01*
X209986853Y-106657384D01*
X210043467Y-106674557D01*
X210182087Y-106748652D01*
X210199991Y-106758222D01*
X210235729Y-106787552D01*
X210337186Y-106870814D01*
X210420448Y-106972271D01*
X210449778Y-107008009D01*
X210449779Y-107008011D01*
X210533443Y-107164533D01*
X210533443Y-107164534D01*
X210584963Y-107334373D01*
X210602359Y-107511000D01*
X210584963Y-107687627D01*
X210550616Y-107800853D01*
X210533443Y-107857467D01*
X210459348Y-107996087D01*
X210449778Y-108013991D01*
X210420448Y-108049729D01*
X210337186Y-108151186D01*
X210235729Y-108234448D01*
X210199991Y-108263778D01*
X210199989Y-108263779D01*
X210043467Y-108347443D01*
X209986853Y-108364616D01*
X209873627Y-108398963D01*
X209807442Y-108405482D01*
X209741260Y-108412000D01*
X209652740Y-108412000D01*
X209586558Y-108405482D01*
X209520373Y-108398963D01*
X209407147Y-108364616D01*
X209350533Y-108347443D01*
X209194011Y-108263779D01*
X209194009Y-108263778D01*
X209158271Y-108234448D01*
X209056814Y-108151186D01*
X208973552Y-108049729D01*
X208944222Y-108013991D01*
X208934652Y-107996087D01*
X208860557Y-107857467D01*
X208843384Y-107800853D01*
X208809037Y-107687627D01*
X208791641Y-107511000D01*
X208809037Y-107334373D01*
X208860557Y-107164534D01*
X208860557Y-107164533D01*
X208944221Y-107008011D01*
X208944222Y-107008009D01*
X208973552Y-106972271D01*
X209056814Y-106870814D01*
X209158271Y-106787552D01*
X209194009Y-106758222D01*
X209211913Y-106748652D01*
X209350533Y-106674557D01*
X209407147Y-106657384D01*
X209520373Y-106623037D01*
X209586558Y-106616518D01*
X209652740Y-106610000D01*
X209741260Y-106610000D01*
X209807442Y-106616518D01*
X209807442Y-106616518D01*
G37*
G36*
X207267442Y-106616518D02*
X207333627Y-106623037D01*
X207446853Y-106657384D01*
X207503467Y-106674557D01*
X207642087Y-106748652D01*
X207659991Y-106758222D01*
X207695729Y-106787552D01*
X207797186Y-106870814D01*
X207880448Y-106972271D01*
X207909778Y-107008009D01*
X207909779Y-107008011D01*
X207993443Y-107164533D01*
X207993443Y-107164534D01*
X208044963Y-107334373D01*
X208062359Y-107511000D01*
X208044963Y-107687627D01*
X208010616Y-107800853D01*
X207993443Y-107857467D01*
X207919348Y-107996087D01*
X207909778Y-108013991D01*
X207880448Y-108049729D01*
X207797186Y-108151186D01*
X207695729Y-108234448D01*
X207659991Y-108263778D01*
X207659989Y-108263779D01*
X207503467Y-108347443D01*
X207446853Y-108364616D01*
X207333627Y-108398963D01*
X207267442Y-108405482D01*
X207201260Y-108412000D01*
X207112740Y-108412000D01*
X207046558Y-108405482D01*
X206980373Y-108398963D01*
X206867147Y-108364616D01*
X206810533Y-108347443D01*
X206654011Y-108263779D01*
X206654009Y-108263778D01*
X206618271Y-108234448D01*
X206516814Y-108151186D01*
X206433552Y-108049729D01*
X206404222Y-108013991D01*
X206394652Y-107996087D01*
X206320557Y-107857467D01*
X206303384Y-107800853D01*
X206269037Y-107687627D01*
X206251641Y-107511000D01*
X206269037Y-107334373D01*
X206320557Y-107164534D01*
X206320557Y-107164533D01*
X206404221Y-107008011D01*
X206404222Y-107008009D01*
X206433552Y-106972271D01*
X206516814Y-106870814D01*
X206618271Y-106787552D01*
X206654009Y-106758222D01*
X206671913Y-106748652D01*
X206810533Y-106674557D01*
X206867147Y-106657384D01*
X206980373Y-106623037D01*
X207046558Y-106616518D01*
X207112740Y-106610000D01*
X207201260Y-106610000D01*
X207267442Y-106616518D01*
X207267442Y-106616518D01*
G37*
G36*
X204727442Y-106616518D02*
X204793627Y-106623037D01*
X204906853Y-106657384D01*
X204963467Y-106674557D01*
X205102087Y-106748652D01*
X205119991Y-106758222D01*
X205155729Y-106787552D01*
X205257186Y-106870814D01*
X205340448Y-106972271D01*
X205369778Y-107008009D01*
X205369779Y-107008011D01*
X205453443Y-107164533D01*
X205453443Y-107164534D01*
X205504963Y-107334373D01*
X205522359Y-107511000D01*
X205504963Y-107687627D01*
X205470616Y-107800853D01*
X205453443Y-107857467D01*
X205379348Y-107996087D01*
X205369778Y-108013991D01*
X205340448Y-108049729D01*
X205257186Y-108151186D01*
X205155729Y-108234448D01*
X205119991Y-108263778D01*
X205119989Y-108263779D01*
X204963467Y-108347443D01*
X204906853Y-108364616D01*
X204793627Y-108398963D01*
X204727442Y-108405482D01*
X204661260Y-108412000D01*
X204572740Y-108412000D01*
X204506558Y-108405482D01*
X204440373Y-108398963D01*
X204327147Y-108364616D01*
X204270533Y-108347443D01*
X204114011Y-108263779D01*
X204114009Y-108263778D01*
X204078271Y-108234448D01*
X203976814Y-108151186D01*
X203893552Y-108049729D01*
X203864222Y-108013991D01*
X203854652Y-107996087D01*
X203780557Y-107857467D01*
X203763384Y-107800853D01*
X203729037Y-107687627D01*
X203711641Y-107511000D01*
X203729037Y-107334373D01*
X203780557Y-107164534D01*
X203780557Y-107164533D01*
X203864221Y-107008011D01*
X203864222Y-107008009D01*
X203893552Y-106972271D01*
X203976814Y-106870814D01*
X204078271Y-106787552D01*
X204114009Y-106758222D01*
X204131913Y-106748652D01*
X204270533Y-106674557D01*
X204327147Y-106657384D01*
X204440373Y-106623037D01*
X204506558Y-106616518D01*
X204572740Y-106610000D01*
X204661260Y-106610000D01*
X204727442Y-106616518D01*
X204727442Y-106616518D01*
G37*
G36*
X202187442Y-106616518D02*
X202253627Y-106623037D01*
X202366853Y-106657384D01*
X202423467Y-106674557D01*
X202562087Y-106748652D01*
X202579991Y-106758222D01*
X202615729Y-106787552D01*
X202717186Y-106870814D01*
X202800448Y-106972271D01*
X202829778Y-107008009D01*
X202829779Y-107008011D01*
X202913443Y-107164533D01*
X202913443Y-107164534D01*
X202964963Y-107334373D01*
X202982359Y-107511000D01*
X202964963Y-107687627D01*
X202930616Y-107800853D01*
X202913443Y-107857467D01*
X202839348Y-107996087D01*
X202829778Y-108013991D01*
X202800448Y-108049729D01*
X202717186Y-108151186D01*
X202615729Y-108234448D01*
X202579991Y-108263778D01*
X202579989Y-108263779D01*
X202423467Y-108347443D01*
X202366853Y-108364616D01*
X202253627Y-108398963D01*
X202187442Y-108405482D01*
X202121260Y-108412000D01*
X202032740Y-108412000D01*
X201966558Y-108405482D01*
X201900373Y-108398963D01*
X201787147Y-108364616D01*
X201730533Y-108347443D01*
X201574011Y-108263779D01*
X201574009Y-108263778D01*
X201538271Y-108234448D01*
X201436814Y-108151186D01*
X201353552Y-108049729D01*
X201324222Y-108013991D01*
X201314652Y-107996087D01*
X201240557Y-107857467D01*
X201223384Y-107800853D01*
X201189037Y-107687627D01*
X201171641Y-107511000D01*
X201189037Y-107334373D01*
X201240557Y-107164534D01*
X201240557Y-107164533D01*
X201324221Y-107008011D01*
X201324222Y-107008009D01*
X201353552Y-106972271D01*
X201436814Y-106870814D01*
X201538271Y-106787552D01*
X201574009Y-106758222D01*
X201591913Y-106748652D01*
X201730533Y-106674557D01*
X201787147Y-106657384D01*
X201900373Y-106623037D01*
X201966558Y-106616518D01*
X202032740Y-106610000D01*
X202121260Y-106610000D01*
X202187442Y-106616518D01*
X202187442Y-106616518D01*
G37*
G36*
X52772903Y-35843213D02*
X52995177Y-35887426D01*
X53413932Y-36060880D01*
X53790802Y-36312696D01*
X54111304Y-36633198D01*
X54363120Y-37010068D01*
X54526099Y-37403534D01*
X54536574Y-37428824D01*
X54625000Y-37873370D01*
X54625000Y-38326630D01*
X54620552Y-38348991D01*
X54536574Y-38771177D01*
X54363120Y-39189932D01*
X54111304Y-39566802D01*
X53790802Y-39887304D01*
X53413932Y-40139120D01*
X52995177Y-40312574D01*
X52772903Y-40356787D01*
X52550630Y-40401000D01*
X52097370Y-40401000D01*
X51875097Y-40356787D01*
X51652823Y-40312574D01*
X51234068Y-40139120D01*
X50857198Y-39887304D01*
X50536696Y-39566802D01*
X50284880Y-39189932D01*
X50111426Y-38771177D01*
X50027448Y-38348991D01*
X50023000Y-38326630D01*
X50023000Y-37873370D01*
X50111426Y-37428824D01*
X50121901Y-37403534D01*
X50284880Y-37010068D01*
X50536696Y-36633198D01*
X50857198Y-36312696D01*
X51234068Y-36060880D01*
X51652823Y-35887426D01*
X51875097Y-35843213D01*
X52097370Y-35799000D01*
X52550630Y-35799000D01*
X52772903Y-35843213D01*
X52772903Y-35843213D01*
G37*
G36*
X247248903Y-35543213D02*
X247471177Y-35587426D01*
X247889932Y-35760880D01*
X248266802Y-36012696D01*
X248587304Y-36333198D01*
X248839120Y-36710068D01*
X249012574Y-37128823D01*
X249012574Y-37128824D01*
X249101000Y-37573370D01*
X249101000Y-38026630D01*
X249068013Y-38192466D01*
X249012574Y-38471177D01*
X248839120Y-38889932D01*
X248587304Y-39266802D01*
X248266802Y-39587304D01*
X247889932Y-39839120D01*
X247471177Y-40012574D01*
X247248903Y-40056787D01*
X247026630Y-40101000D01*
X246573370Y-40101000D01*
X246351097Y-40056787D01*
X246128823Y-40012574D01*
X245710068Y-39839120D01*
X245333198Y-39587304D01*
X245012696Y-39266802D01*
X244760880Y-38889932D01*
X244587426Y-38471177D01*
X244531987Y-38192466D01*
X244499000Y-38026630D01*
X244499000Y-37573370D01*
X244587426Y-37128824D01*
X244587426Y-37128823D01*
X244760880Y-36710068D01*
X245012696Y-36333198D01*
X245333198Y-36012696D01*
X245710068Y-35760880D01*
X246128823Y-35587426D01*
X246351097Y-35543213D01*
X246573370Y-35499000D01*
X247026630Y-35499000D01*
X247248903Y-35543213D01*
X247248903Y-35543213D01*
G37*
G36*
X152891443Y-36951519D02*
X152957627Y-36958037D01*
X153070853Y-36992384D01*
X153127467Y-37009557D01*
X153266087Y-37083652D01*
X153283991Y-37093222D01*
X153304208Y-37109814D01*
X153421186Y-37205814D01*
X153504448Y-37307271D01*
X153533778Y-37343009D01*
X153533779Y-37343011D01*
X153617443Y-37499533D01*
X153617443Y-37499534D01*
X153668963Y-37669373D01*
X153686359Y-37846000D01*
X153668963Y-38022627D01*
X153646564Y-38096466D01*
X153617443Y-38192467D01*
X153545731Y-38326629D01*
X153533778Y-38348991D01*
X153504448Y-38384729D01*
X153421186Y-38486186D01*
X153319729Y-38569448D01*
X153283991Y-38598778D01*
X153283989Y-38598779D01*
X153127467Y-38682443D01*
X153070853Y-38699616D01*
X152957627Y-38733963D01*
X152891443Y-38740481D01*
X152825260Y-38747000D01*
X152736740Y-38747000D01*
X152670557Y-38740481D01*
X152604373Y-38733963D01*
X152491147Y-38699616D01*
X152434533Y-38682443D01*
X152278011Y-38598779D01*
X152278009Y-38598778D01*
X152242271Y-38569448D01*
X152140814Y-38486186D01*
X152057552Y-38384729D01*
X152028222Y-38348991D01*
X152016269Y-38326629D01*
X151944557Y-38192467D01*
X151915436Y-38096466D01*
X151893037Y-38022627D01*
X151875641Y-37846000D01*
X151893037Y-37669373D01*
X151944557Y-37499534D01*
X151944557Y-37499533D01*
X152028221Y-37343011D01*
X152028222Y-37343009D01*
X152057552Y-37307271D01*
X152140814Y-37205814D01*
X152257792Y-37109814D01*
X152278009Y-37093222D01*
X152295913Y-37083652D01*
X152434533Y-37009557D01*
X152491147Y-36992384D01*
X152604373Y-36958037D01*
X152670557Y-36951519D01*
X152736740Y-36945000D01*
X152825260Y-36945000D01*
X152891443Y-36951519D01*
X152891443Y-36951519D01*
G37*
G36*
X96058943Y-36951519D02*
X96125127Y-36958037D01*
X96238353Y-36992384D01*
X96294967Y-37009557D01*
X96433587Y-37083652D01*
X96451491Y-37093222D01*
X96471708Y-37109814D01*
X96588686Y-37205814D01*
X96671948Y-37307271D01*
X96701278Y-37343009D01*
X96701279Y-37343011D01*
X96784943Y-37499533D01*
X96784943Y-37499534D01*
X96836463Y-37669373D01*
X96853859Y-37846000D01*
X96836463Y-38022627D01*
X96814064Y-38096466D01*
X96784943Y-38192467D01*
X96713231Y-38326629D01*
X96701278Y-38348991D01*
X96671948Y-38384729D01*
X96588686Y-38486186D01*
X96487229Y-38569448D01*
X96451491Y-38598778D01*
X96451489Y-38598779D01*
X96294967Y-38682443D01*
X96238353Y-38699616D01*
X96125127Y-38733963D01*
X96058943Y-38740481D01*
X95992760Y-38747000D01*
X95904240Y-38747000D01*
X95838057Y-38740481D01*
X95771873Y-38733963D01*
X95658647Y-38699616D01*
X95602033Y-38682443D01*
X95445511Y-38598779D01*
X95445509Y-38598778D01*
X95409771Y-38569448D01*
X95308314Y-38486186D01*
X95225052Y-38384729D01*
X95195722Y-38348991D01*
X95183769Y-38326629D01*
X95112057Y-38192467D01*
X95082936Y-38096466D01*
X95060537Y-38022627D01*
X95043141Y-37846000D01*
X95060537Y-37669373D01*
X95112057Y-37499534D01*
X95112057Y-37499533D01*
X95195721Y-37343011D01*
X95195722Y-37343009D01*
X95225052Y-37307271D01*
X95308314Y-37205814D01*
X95425292Y-37109814D01*
X95445509Y-37093222D01*
X95463413Y-37083652D01*
X95602033Y-37009557D01*
X95658647Y-36992384D01*
X95771873Y-36958037D01*
X95838057Y-36951519D01*
X95904240Y-36945000D01*
X95992760Y-36945000D01*
X96058943Y-36951519D01*
X96058943Y-36951519D01*
G37*
G36*
X189403943Y-36951519D02*
X189470127Y-36958037D01*
X189583353Y-36992384D01*
X189639967Y-37009557D01*
X189778587Y-37083652D01*
X189796491Y-37093222D01*
X189816708Y-37109814D01*
X189933686Y-37205814D01*
X190016948Y-37307271D01*
X190046278Y-37343009D01*
X190046279Y-37343011D01*
X190129943Y-37499533D01*
X190129943Y-37499534D01*
X190181463Y-37669373D01*
X190198859Y-37846000D01*
X190181463Y-38022627D01*
X190159064Y-38096466D01*
X190129943Y-38192467D01*
X190058231Y-38326629D01*
X190046278Y-38348991D01*
X190016948Y-38384729D01*
X189933686Y-38486186D01*
X189832229Y-38569448D01*
X189796491Y-38598778D01*
X189796489Y-38598779D01*
X189639967Y-38682443D01*
X189583353Y-38699616D01*
X189470127Y-38733963D01*
X189403943Y-38740481D01*
X189337760Y-38747000D01*
X189249240Y-38747000D01*
X189183057Y-38740481D01*
X189116873Y-38733963D01*
X189003647Y-38699616D01*
X188947033Y-38682443D01*
X188790511Y-38598779D01*
X188790509Y-38598778D01*
X188754771Y-38569448D01*
X188653314Y-38486186D01*
X188570052Y-38384729D01*
X188540722Y-38348991D01*
X188528769Y-38326629D01*
X188457057Y-38192467D01*
X188427936Y-38096466D01*
X188405537Y-38022627D01*
X188388141Y-37846000D01*
X188405537Y-37669373D01*
X188457057Y-37499534D01*
X188457057Y-37499533D01*
X188540721Y-37343011D01*
X188540722Y-37343009D01*
X188570052Y-37307271D01*
X188653314Y-37205814D01*
X188770292Y-37109814D01*
X188790509Y-37093222D01*
X188808413Y-37083652D01*
X188947033Y-37009557D01*
X189003647Y-36992384D01*
X189116873Y-36958037D01*
X189183058Y-36951518D01*
X189249240Y-36945000D01*
X189337760Y-36945000D01*
X189403943Y-36951519D01*
X189403943Y-36951519D01*
G37*
G36*
X205596443Y-36951519D02*
X205662627Y-36958037D01*
X205775853Y-36992384D01*
X205832467Y-37009557D01*
X205971087Y-37083652D01*
X205988991Y-37093222D01*
X206009208Y-37109814D01*
X206126186Y-37205814D01*
X206209448Y-37307271D01*
X206238778Y-37343009D01*
X206238779Y-37343011D01*
X206322443Y-37499533D01*
X206322443Y-37499534D01*
X206373963Y-37669373D01*
X206391359Y-37846000D01*
X206373963Y-38022627D01*
X206351564Y-38096466D01*
X206322443Y-38192467D01*
X206250731Y-38326629D01*
X206238778Y-38348991D01*
X206209448Y-38384729D01*
X206126186Y-38486186D01*
X206024729Y-38569448D01*
X205988991Y-38598778D01*
X205988989Y-38598779D01*
X205832467Y-38682443D01*
X205775853Y-38699616D01*
X205662627Y-38733963D01*
X205596443Y-38740481D01*
X205530260Y-38747000D01*
X205441740Y-38747000D01*
X205375557Y-38740481D01*
X205309373Y-38733963D01*
X205196147Y-38699616D01*
X205139533Y-38682443D01*
X204983011Y-38598779D01*
X204983009Y-38598778D01*
X204947271Y-38569448D01*
X204845814Y-38486186D01*
X204762552Y-38384729D01*
X204733222Y-38348991D01*
X204721269Y-38326629D01*
X204649557Y-38192467D01*
X204620436Y-38096466D01*
X204598037Y-38022627D01*
X204580641Y-37846000D01*
X204598037Y-37669373D01*
X204649557Y-37499534D01*
X204649557Y-37499533D01*
X204733221Y-37343011D01*
X204733222Y-37343009D01*
X204762552Y-37307271D01*
X204845814Y-37205814D01*
X204962792Y-37109814D01*
X204983009Y-37093222D01*
X205000913Y-37083652D01*
X205139533Y-37009557D01*
X205196147Y-36992384D01*
X205309373Y-36958037D01*
X205375558Y-36951518D01*
X205441740Y-36945000D01*
X205530260Y-36945000D01*
X205596443Y-36951519D01*
X205596443Y-36951519D01*
G37*
G36*
X208136443Y-36951519D02*
X208202627Y-36958037D01*
X208315853Y-36992384D01*
X208372467Y-37009557D01*
X208511087Y-37083652D01*
X208528991Y-37093222D01*
X208549208Y-37109814D01*
X208666186Y-37205814D01*
X208749448Y-37307271D01*
X208778778Y-37343009D01*
X208778779Y-37343011D01*
X208862443Y-37499533D01*
X208862443Y-37499534D01*
X208913963Y-37669373D01*
X208931359Y-37846000D01*
X208913963Y-38022627D01*
X208891564Y-38096466D01*
X208862443Y-38192467D01*
X208790731Y-38326629D01*
X208778778Y-38348991D01*
X208749448Y-38384729D01*
X208666186Y-38486186D01*
X208564729Y-38569448D01*
X208528991Y-38598778D01*
X208528989Y-38598779D01*
X208372467Y-38682443D01*
X208315853Y-38699616D01*
X208202627Y-38733963D01*
X208136443Y-38740481D01*
X208070260Y-38747000D01*
X207981740Y-38747000D01*
X207915557Y-38740481D01*
X207849373Y-38733963D01*
X207736147Y-38699616D01*
X207679533Y-38682443D01*
X207523011Y-38598779D01*
X207523009Y-38598778D01*
X207487271Y-38569448D01*
X207385814Y-38486186D01*
X207302552Y-38384729D01*
X207273222Y-38348991D01*
X207261269Y-38326629D01*
X207189557Y-38192467D01*
X207160436Y-38096466D01*
X207138037Y-38022627D01*
X207120641Y-37846000D01*
X207138037Y-37669373D01*
X207189557Y-37499534D01*
X207189557Y-37499533D01*
X207273221Y-37343011D01*
X207273222Y-37343009D01*
X207302552Y-37307271D01*
X207385814Y-37205814D01*
X207502792Y-37109814D01*
X207523009Y-37093222D01*
X207540913Y-37083652D01*
X207679533Y-37009557D01*
X207736147Y-36992384D01*
X207849373Y-36958037D01*
X207915558Y-36951518D01*
X207981740Y-36945000D01*
X208070260Y-36945000D01*
X208136443Y-36951519D01*
X208136443Y-36951519D01*
G37*
G36*
X210676443Y-36951519D02*
X210742627Y-36958037D01*
X210855853Y-36992384D01*
X210912467Y-37009557D01*
X211051087Y-37083652D01*
X211068991Y-37093222D01*
X211089208Y-37109814D01*
X211206186Y-37205814D01*
X211289448Y-37307271D01*
X211318778Y-37343009D01*
X211318779Y-37343011D01*
X211402443Y-37499533D01*
X211402443Y-37499534D01*
X211453963Y-37669373D01*
X211471359Y-37846000D01*
X211453963Y-38022627D01*
X211431564Y-38096466D01*
X211402443Y-38192467D01*
X211330731Y-38326629D01*
X211318778Y-38348991D01*
X211289448Y-38384729D01*
X211206186Y-38486186D01*
X211104729Y-38569448D01*
X211068991Y-38598778D01*
X211068989Y-38598779D01*
X210912467Y-38682443D01*
X210855853Y-38699616D01*
X210742627Y-38733963D01*
X210676443Y-38740481D01*
X210610260Y-38747000D01*
X210521740Y-38747000D01*
X210455557Y-38740481D01*
X210389373Y-38733963D01*
X210276147Y-38699616D01*
X210219533Y-38682443D01*
X210063011Y-38598779D01*
X210063009Y-38598778D01*
X210027271Y-38569448D01*
X209925814Y-38486186D01*
X209842552Y-38384729D01*
X209813222Y-38348991D01*
X209801269Y-38326629D01*
X209729557Y-38192467D01*
X209700436Y-38096466D01*
X209678037Y-38022627D01*
X209660641Y-37846000D01*
X209678037Y-37669373D01*
X209729557Y-37499534D01*
X209729557Y-37499533D01*
X209813221Y-37343011D01*
X209813222Y-37343009D01*
X209842552Y-37307271D01*
X209925814Y-37205814D01*
X210042792Y-37109814D01*
X210063009Y-37093222D01*
X210080913Y-37083652D01*
X210219533Y-37009557D01*
X210276147Y-36992384D01*
X210389373Y-36958037D01*
X210455558Y-36951518D01*
X210521740Y-36945000D01*
X210610260Y-36945000D01*
X210676443Y-36951519D01*
X210676443Y-36951519D01*
G37*
G36*
X98598943Y-36951519D02*
X98665127Y-36958037D01*
X98778353Y-36992384D01*
X98834967Y-37009557D01*
X98973587Y-37083652D01*
X98991491Y-37093222D01*
X99011708Y-37109814D01*
X99128686Y-37205814D01*
X99211948Y-37307271D01*
X99241278Y-37343009D01*
X99241279Y-37343011D01*
X99324943Y-37499533D01*
X99324943Y-37499534D01*
X99376463Y-37669373D01*
X99393859Y-37846000D01*
X99376463Y-38022627D01*
X99354064Y-38096466D01*
X99324943Y-38192467D01*
X99253231Y-38326629D01*
X99241278Y-38348991D01*
X99211948Y-38384729D01*
X99128686Y-38486186D01*
X99027229Y-38569448D01*
X98991491Y-38598778D01*
X98991489Y-38598779D01*
X98834967Y-38682443D01*
X98778353Y-38699616D01*
X98665127Y-38733963D01*
X98598943Y-38740481D01*
X98532760Y-38747000D01*
X98444240Y-38747000D01*
X98378057Y-38740481D01*
X98311873Y-38733963D01*
X98198647Y-38699616D01*
X98142033Y-38682443D01*
X97985511Y-38598779D01*
X97985509Y-38598778D01*
X97949771Y-38569448D01*
X97848314Y-38486186D01*
X97765052Y-38384729D01*
X97735722Y-38348991D01*
X97723769Y-38326629D01*
X97652057Y-38192467D01*
X97622936Y-38096466D01*
X97600537Y-38022627D01*
X97583141Y-37846000D01*
X97600537Y-37669373D01*
X97652057Y-37499534D01*
X97652057Y-37499533D01*
X97735721Y-37343011D01*
X97735722Y-37343009D01*
X97765052Y-37307271D01*
X97848314Y-37205814D01*
X97965292Y-37109814D01*
X97985509Y-37093222D01*
X98003413Y-37083652D01*
X98142033Y-37009557D01*
X98198647Y-36992384D01*
X98311873Y-36958037D01*
X98378057Y-36951519D01*
X98444240Y-36945000D01*
X98532760Y-36945000D01*
X98598943Y-36951519D01*
X98598943Y-36951519D01*
G37*
G36*
X213216443Y-36951519D02*
X213282627Y-36958037D01*
X213395853Y-36992384D01*
X213452467Y-37009557D01*
X213591087Y-37083652D01*
X213608991Y-37093222D01*
X213629208Y-37109814D01*
X213746186Y-37205814D01*
X213829448Y-37307271D01*
X213858778Y-37343009D01*
X213858779Y-37343011D01*
X213942443Y-37499533D01*
X213942443Y-37499534D01*
X213993963Y-37669373D01*
X214011359Y-37846000D01*
X213993963Y-38022627D01*
X213971564Y-38096466D01*
X213942443Y-38192467D01*
X213870731Y-38326629D01*
X213858778Y-38348991D01*
X213829448Y-38384729D01*
X213746186Y-38486186D01*
X213644729Y-38569448D01*
X213608991Y-38598778D01*
X213608989Y-38598779D01*
X213452467Y-38682443D01*
X213395853Y-38699616D01*
X213282627Y-38733963D01*
X213216443Y-38740481D01*
X213150260Y-38747000D01*
X213061740Y-38747000D01*
X212995557Y-38740481D01*
X212929373Y-38733963D01*
X212816147Y-38699616D01*
X212759533Y-38682443D01*
X212603011Y-38598779D01*
X212603009Y-38598778D01*
X212567271Y-38569448D01*
X212465814Y-38486186D01*
X212382552Y-38384729D01*
X212353222Y-38348991D01*
X212341269Y-38326629D01*
X212269557Y-38192467D01*
X212240436Y-38096466D01*
X212218037Y-38022627D01*
X212200641Y-37846000D01*
X212218037Y-37669373D01*
X212269557Y-37499534D01*
X212269557Y-37499533D01*
X212353221Y-37343011D01*
X212353222Y-37343009D01*
X212382552Y-37307271D01*
X212465814Y-37205814D01*
X212582792Y-37109814D01*
X212603009Y-37093222D01*
X212620913Y-37083652D01*
X212759533Y-37009557D01*
X212816147Y-36992384D01*
X212929373Y-36958037D01*
X212995558Y-36951518D01*
X213061740Y-36945000D01*
X213150260Y-36945000D01*
X213216443Y-36951519D01*
X213216443Y-36951519D01*
G37*
G36*
X215756443Y-36951519D02*
X215822627Y-36958037D01*
X215935853Y-36992384D01*
X215992467Y-37009557D01*
X216131087Y-37083652D01*
X216148991Y-37093222D01*
X216169208Y-37109814D01*
X216286186Y-37205814D01*
X216369448Y-37307271D01*
X216398778Y-37343009D01*
X216398779Y-37343011D01*
X216482443Y-37499533D01*
X216482443Y-37499534D01*
X216533963Y-37669373D01*
X216551359Y-37846000D01*
X216533963Y-38022627D01*
X216511564Y-38096466D01*
X216482443Y-38192467D01*
X216410731Y-38326629D01*
X216398778Y-38348991D01*
X216369448Y-38384729D01*
X216286186Y-38486186D01*
X216184729Y-38569448D01*
X216148991Y-38598778D01*
X216148989Y-38598779D01*
X215992467Y-38682443D01*
X215935853Y-38699616D01*
X215822627Y-38733963D01*
X215756443Y-38740481D01*
X215690260Y-38747000D01*
X215601740Y-38747000D01*
X215535557Y-38740481D01*
X215469373Y-38733963D01*
X215356147Y-38699616D01*
X215299533Y-38682443D01*
X215143011Y-38598779D01*
X215143009Y-38598778D01*
X215107271Y-38569448D01*
X215005814Y-38486186D01*
X214922552Y-38384729D01*
X214893222Y-38348991D01*
X214881269Y-38326629D01*
X214809557Y-38192467D01*
X214780436Y-38096466D01*
X214758037Y-38022627D01*
X214740641Y-37846000D01*
X214758037Y-37669373D01*
X214809557Y-37499534D01*
X214809557Y-37499533D01*
X214893221Y-37343011D01*
X214893222Y-37343009D01*
X214922552Y-37307271D01*
X215005814Y-37205814D01*
X215122792Y-37109814D01*
X215143009Y-37093222D01*
X215160913Y-37083652D01*
X215299533Y-37009557D01*
X215356147Y-36992384D01*
X215469373Y-36958037D01*
X215535558Y-36951518D01*
X215601740Y-36945000D01*
X215690260Y-36945000D01*
X215756443Y-36951519D01*
X215756443Y-36951519D01*
G37*
G36*
X218296443Y-36951519D02*
X218362627Y-36958037D01*
X218475853Y-36992384D01*
X218532467Y-37009557D01*
X218671087Y-37083652D01*
X218688991Y-37093222D01*
X218709208Y-37109814D01*
X218826186Y-37205814D01*
X218909448Y-37307271D01*
X218938778Y-37343009D01*
X218938779Y-37343011D01*
X219022443Y-37499533D01*
X219022443Y-37499534D01*
X219073963Y-37669373D01*
X219091359Y-37846000D01*
X219073963Y-38022627D01*
X219051564Y-38096466D01*
X219022443Y-38192467D01*
X218950731Y-38326629D01*
X218938778Y-38348991D01*
X218909448Y-38384729D01*
X218826186Y-38486186D01*
X218724729Y-38569448D01*
X218688991Y-38598778D01*
X218688989Y-38598779D01*
X218532467Y-38682443D01*
X218475853Y-38699616D01*
X218362627Y-38733963D01*
X218296443Y-38740481D01*
X218230260Y-38747000D01*
X218141740Y-38747000D01*
X218075557Y-38740481D01*
X218009373Y-38733963D01*
X217896147Y-38699616D01*
X217839533Y-38682443D01*
X217683011Y-38598779D01*
X217683009Y-38598778D01*
X217647271Y-38569448D01*
X217545814Y-38486186D01*
X217462552Y-38384729D01*
X217433222Y-38348991D01*
X217421269Y-38326629D01*
X217349557Y-38192467D01*
X217320436Y-38096466D01*
X217298037Y-38022627D01*
X217280641Y-37846000D01*
X217298037Y-37669373D01*
X217349557Y-37499534D01*
X217349557Y-37499533D01*
X217433221Y-37343011D01*
X217433222Y-37343009D01*
X217462552Y-37307271D01*
X217545814Y-37205814D01*
X217662792Y-37109814D01*
X217683009Y-37093222D01*
X217700913Y-37083652D01*
X217839533Y-37009557D01*
X217896147Y-36992384D01*
X218009373Y-36958037D01*
X218075558Y-36951518D01*
X218141740Y-36945000D01*
X218230260Y-36945000D01*
X218296443Y-36951519D01*
X218296443Y-36951519D01*
G37*
G36*
X220836443Y-36951519D02*
X220902627Y-36958037D01*
X221015853Y-36992384D01*
X221072467Y-37009557D01*
X221211087Y-37083652D01*
X221228991Y-37093222D01*
X221249208Y-37109814D01*
X221366186Y-37205814D01*
X221449448Y-37307271D01*
X221478778Y-37343009D01*
X221478779Y-37343011D01*
X221562443Y-37499533D01*
X221562443Y-37499534D01*
X221613963Y-37669373D01*
X221631359Y-37846000D01*
X221613963Y-38022627D01*
X221591564Y-38096466D01*
X221562443Y-38192467D01*
X221490731Y-38326629D01*
X221478778Y-38348991D01*
X221449448Y-38384729D01*
X221366186Y-38486186D01*
X221264729Y-38569448D01*
X221228991Y-38598778D01*
X221228989Y-38598779D01*
X221072467Y-38682443D01*
X221015853Y-38699616D01*
X220902627Y-38733963D01*
X220836443Y-38740481D01*
X220770260Y-38747000D01*
X220681740Y-38747000D01*
X220615557Y-38740481D01*
X220549373Y-38733963D01*
X220436147Y-38699616D01*
X220379533Y-38682443D01*
X220223011Y-38598779D01*
X220223009Y-38598778D01*
X220187271Y-38569448D01*
X220085814Y-38486186D01*
X220002552Y-38384729D01*
X219973222Y-38348991D01*
X219961269Y-38326629D01*
X219889557Y-38192467D01*
X219860436Y-38096466D01*
X219838037Y-38022627D01*
X219820641Y-37846000D01*
X219838037Y-37669373D01*
X219889557Y-37499534D01*
X219889557Y-37499533D01*
X219973221Y-37343011D01*
X219973222Y-37343009D01*
X220002552Y-37307271D01*
X220085814Y-37205814D01*
X220202792Y-37109814D01*
X220223009Y-37093222D01*
X220240913Y-37083652D01*
X220379533Y-37009557D01*
X220436147Y-36992384D01*
X220549373Y-36958037D01*
X220615558Y-36951518D01*
X220681740Y-36945000D01*
X220770260Y-36945000D01*
X220836443Y-36951519D01*
X220836443Y-36951519D01*
G37*
G36*
X223376443Y-36951519D02*
X223442627Y-36958037D01*
X223555853Y-36992384D01*
X223612467Y-37009557D01*
X223751087Y-37083652D01*
X223768991Y-37093222D01*
X223789208Y-37109814D01*
X223906186Y-37205814D01*
X223989448Y-37307271D01*
X224018778Y-37343009D01*
X224018779Y-37343011D01*
X224102443Y-37499533D01*
X224102443Y-37499534D01*
X224153963Y-37669373D01*
X224171359Y-37846000D01*
X224153963Y-38022627D01*
X224131564Y-38096466D01*
X224102443Y-38192467D01*
X224030731Y-38326629D01*
X224018778Y-38348991D01*
X223989448Y-38384729D01*
X223906186Y-38486186D01*
X223804729Y-38569448D01*
X223768991Y-38598778D01*
X223768989Y-38598779D01*
X223612467Y-38682443D01*
X223555853Y-38699616D01*
X223442627Y-38733963D01*
X223376443Y-38740481D01*
X223310260Y-38747000D01*
X223221740Y-38747000D01*
X223155557Y-38740481D01*
X223089373Y-38733963D01*
X222976147Y-38699616D01*
X222919533Y-38682443D01*
X222763011Y-38598779D01*
X222763009Y-38598778D01*
X222727271Y-38569448D01*
X222625814Y-38486186D01*
X222542552Y-38384729D01*
X222513222Y-38348991D01*
X222501269Y-38326629D01*
X222429557Y-38192467D01*
X222400436Y-38096466D01*
X222378037Y-38022627D01*
X222360641Y-37846000D01*
X222378037Y-37669373D01*
X222429557Y-37499534D01*
X222429557Y-37499533D01*
X222513221Y-37343011D01*
X222513222Y-37343009D01*
X222542552Y-37307271D01*
X222625814Y-37205814D01*
X222742792Y-37109814D01*
X222763009Y-37093222D01*
X222780913Y-37083652D01*
X222919533Y-37009557D01*
X222976147Y-36992384D01*
X223089373Y-36958037D01*
X223155558Y-36951518D01*
X223221740Y-36945000D01*
X223310260Y-36945000D01*
X223376443Y-36951519D01*
X223376443Y-36951519D01*
G37*
G36*
X225916443Y-36951519D02*
X225982627Y-36958037D01*
X226095853Y-36992384D01*
X226152467Y-37009557D01*
X226291087Y-37083652D01*
X226308991Y-37093222D01*
X226329208Y-37109814D01*
X226446186Y-37205814D01*
X226529448Y-37307271D01*
X226558778Y-37343009D01*
X226558779Y-37343011D01*
X226642443Y-37499533D01*
X226642443Y-37499534D01*
X226693963Y-37669373D01*
X226711359Y-37846000D01*
X226693963Y-38022627D01*
X226671564Y-38096466D01*
X226642443Y-38192467D01*
X226570731Y-38326629D01*
X226558778Y-38348991D01*
X226529448Y-38384729D01*
X226446186Y-38486186D01*
X226344729Y-38569448D01*
X226308991Y-38598778D01*
X226308989Y-38598779D01*
X226152467Y-38682443D01*
X226095853Y-38699616D01*
X225982627Y-38733963D01*
X225916443Y-38740481D01*
X225850260Y-38747000D01*
X225761740Y-38747000D01*
X225695557Y-38740481D01*
X225629373Y-38733963D01*
X225516147Y-38699616D01*
X225459533Y-38682443D01*
X225303011Y-38598779D01*
X225303009Y-38598778D01*
X225267271Y-38569448D01*
X225165814Y-38486186D01*
X225082552Y-38384729D01*
X225053222Y-38348991D01*
X225041269Y-38326629D01*
X224969557Y-38192467D01*
X224940436Y-38096466D01*
X224918037Y-38022627D01*
X224900641Y-37846000D01*
X224918037Y-37669373D01*
X224969557Y-37499534D01*
X224969557Y-37499533D01*
X225053221Y-37343011D01*
X225053222Y-37343009D01*
X225082552Y-37307271D01*
X225165814Y-37205814D01*
X225282792Y-37109814D01*
X225303009Y-37093222D01*
X225320913Y-37083652D01*
X225459533Y-37009557D01*
X225516147Y-36992384D01*
X225629373Y-36958037D01*
X225695558Y-36951518D01*
X225761740Y-36945000D01*
X225850260Y-36945000D01*
X225916443Y-36951519D01*
X225916443Y-36951519D01*
G37*
G36*
X203847000Y-38747000D02*
X202045000Y-38747000D01*
X202045000Y-36945000D01*
X203847000Y-36945000D01*
X203847000Y-38747000D01*
X203847000Y-38747000D01*
G37*
G36*
X186863943Y-36951519D02*
X186930127Y-36958037D01*
X187043353Y-36992384D01*
X187099967Y-37009557D01*
X187238587Y-37083652D01*
X187256491Y-37093222D01*
X187276708Y-37109814D01*
X187393686Y-37205814D01*
X187476948Y-37307271D01*
X187506278Y-37343009D01*
X187506279Y-37343011D01*
X187589943Y-37499533D01*
X187589943Y-37499534D01*
X187641463Y-37669373D01*
X187658859Y-37846000D01*
X187641463Y-38022627D01*
X187619064Y-38096466D01*
X187589943Y-38192467D01*
X187518231Y-38326629D01*
X187506278Y-38348991D01*
X187476948Y-38384729D01*
X187393686Y-38486186D01*
X187292229Y-38569448D01*
X187256491Y-38598778D01*
X187256489Y-38598779D01*
X187099967Y-38682443D01*
X187043353Y-38699616D01*
X186930127Y-38733963D01*
X186863943Y-38740481D01*
X186797760Y-38747000D01*
X186709240Y-38747000D01*
X186643057Y-38740481D01*
X186576873Y-38733963D01*
X186463647Y-38699616D01*
X186407033Y-38682443D01*
X186250511Y-38598779D01*
X186250509Y-38598778D01*
X186214771Y-38569448D01*
X186113314Y-38486186D01*
X186030052Y-38384729D01*
X186000722Y-38348991D01*
X185988769Y-38326629D01*
X185917057Y-38192467D01*
X185887936Y-38096466D01*
X185865537Y-38022627D01*
X185848141Y-37846000D01*
X185865537Y-37669373D01*
X185917057Y-37499534D01*
X185917057Y-37499533D01*
X186000721Y-37343011D01*
X186000722Y-37343009D01*
X186030052Y-37307271D01*
X186113314Y-37205814D01*
X186230292Y-37109814D01*
X186250509Y-37093222D01*
X186268413Y-37083652D01*
X186407033Y-37009557D01*
X186463647Y-36992384D01*
X186576873Y-36958037D01*
X186643058Y-36951518D01*
X186709240Y-36945000D01*
X186797760Y-36945000D01*
X186863943Y-36951519D01*
X186863943Y-36951519D01*
G37*
G36*
X184323943Y-36951519D02*
X184390127Y-36958037D01*
X184503353Y-36992384D01*
X184559967Y-37009557D01*
X184698587Y-37083652D01*
X184716491Y-37093222D01*
X184736708Y-37109814D01*
X184853686Y-37205814D01*
X184936948Y-37307271D01*
X184966278Y-37343009D01*
X184966279Y-37343011D01*
X185049943Y-37499533D01*
X185049943Y-37499534D01*
X185101463Y-37669373D01*
X185118859Y-37846000D01*
X185101463Y-38022627D01*
X185079064Y-38096466D01*
X185049943Y-38192467D01*
X184978231Y-38326629D01*
X184966278Y-38348991D01*
X184936948Y-38384729D01*
X184853686Y-38486186D01*
X184752229Y-38569448D01*
X184716491Y-38598778D01*
X184716489Y-38598779D01*
X184559967Y-38682443D01*
X184503353Y-38699616D01*
X184390127Y-38733963D01*
X184323943Y-38740481D01*
X184257760Y-38747000D01*
X184169240Y-38747000D01*
X184103057Y-38740481D01*
X184036873Y-38733963D01*
X183923647Y-38699616D01*
X183867033Y-38682443D01*
X183710511Y-38598779D01*
X183710509Y-38598778D01*
X183674771Y-38569448D01*
X183573314Y-38486186D01*
X183490052Y-38384729D01*
X183460722Y-38348991D01*
X183448769Y-38326629D01*
X183377057Y-38192467D01*
X183347936Y-38096466D01*
X183325537Y-38022627D01*
X183308141Y-37846000D01*
X183325537Y-37669373D01*
X183377057Y-37499534D01*
X183377057Y-37499533D01*
X183460721Y-37343011D01*
X183460722Y-37343009D01*
X183490052Y-37307271D01*
X183573314Y-37205814D01*
X183690292Y-37109814D01*
X183710509Y-37093222D01*
X183728413Y-37083652D01*
X183867033Y-37009557D01*
X183923647Y-36992384D01*
X184036873Y-36958037D01*
X184103058Y-36951518D01*
X184169240Y-36945000D01*
X184257760Y-36945000D01*
X184323943Y-36951519D01*
X184323943Y-36951519D01*
G37*
G36*
X181783943Y-36951519D02*
X181850127Y-36958037D01*
X181963353Y-36992384D01*
X182019967Y-37009557D01*
X182158587Y-37083652D01*
X182176491Y-37093222D01*
X182196708Y-37109814D01*
X182313686Y-37205814D01*
X182396948Y-37307271D01*
X182426278Y-37343009D01*
X182426279Y-37343011D01*
X182509943Y-37499533D01*
X182509943Y-37499534D01*
X182561463Y-37669373D01*
X182578859Y-37846000D01*
X182561463Y-38022627D01*
X182539064Y-38096466D01*
X182509943Y-38192467D01*
X182438231Y-38326629D01*
X182426278Y-38348991D01*
X182396948Y-38384729D01*
X182313686Y-38486186D01*
X182212229Y-38569448D01*
X182176491Y-38598778D01*
X182176489Y-38598779D01*
X182019967Y-38682443D01*
X181963353Y-38699616D01*
X181850127Y-38733963D01*
X181783943Y-38740481D01*
X181717760Y-38747000D01*
X181629240Y-38747000D01*
X181563057Y-38740481D01*
X181496873Y-38733963D01*
X181383647Y-38699616D01*
X181327033Y-38682443D01*
X181170511Y-38598779D01*
X181170509Y-38598778D01*
X181134771Y-38569448D01*
X181033314Y-38486186D01*
X180950052Y-38384729D01*
X180920722Y-38348991D01*
X180908769Y-38326629D01*
X180837057Y-38192467D01*
X180807936Y-38096466D01*
X180785537Y-38022627D01*
X180768141Y-37846000D01*
X180785537Y-37669373D01*
X180837057Y-37499534D01*
X180837057Y-37499533D01*
X180920721Y-37343011D01*
X180920722Y-37343009D01*
X180950052Y-37307271D01*
X181033314Y-37205814D01*
X181150292Y-37109814D01*
X181170509Y-37093222D01*
X181188413Y-37083652D01*
X181327033Y-37009557D01*
X181383647Y-36992384D01*
X181496873Y-36958037D01*
X181563058Y-36951518D01*
X181629240Y-36945000D01*
X181717760Y-36945000D01*
X181783943Y-36951519D01*
X181783943Y-36951519D01*
G37*
G36*
X179243943Y-36951519D02*
X179310127Y-36958037D01*
X179423353Y-36992384D01*
X179479967Y-37009557D01*
X179618587Y-37083652D01*
X179636491Y-37093222D01*
X179656708Y-37109814D01*
X179773686Y-37205814D01*
X179856948Y-37307271D01*
X179886278Y-37343009D01*
X179886279Y-37343011D01*
X179969943Y-37499533D01*
X179969943Y-37499534D01*
X180021463Y-37669373D01*
X180038859Y-37846000D01*
X180021463Y-38022627D01*
X179999064Y-38096466D01*
X179969943Y-38192467D01*
X179898231Y-38326629D01*
X179886278Y-38348991D01*
X179856948Y-38384729D01*
X179773686Y-38486186D01*
X179672229Y-38569448D01*
X179636491Y-38598778D01*
X179636489Y-38598779D01*
X179479967Y-38682443D01*
X179423353Y-38699616D01*
X179310127Y-38733963D01*
X179243943Y-38740481D01*
X179177760Y-38747000D01*
X179089240Y-38747000D01*
X179023057Y-38740481D01*
X178956873Y-38733963D01*
X178843647Y-38699616D01*
X178787033Y-38682443D01*
X178630511Y-38598779D01*
X178630509Y-38598778D01*
X178594771Y-38569448D01*
X178493314Y-38486186D01*
X178410052Y-38384729D01*
X178380722Y-38348991D01*
X178368769Y-38326629D01*
X178297057Y-38192467D01*
X178267936Y-38096466D01*
X178245537Y-38022627D01*
X178228141Y-37846000D01*
X178245537Y-37669373D01*
X178297057Y-37499534D01*
X178297057Y-37499533D01*
X178380721Y-37343011D01*
X178380722Y-37343009D01*
X178410052Y-37307271D01*
X178493314Y-37205814D01*
X178610292Y-37109814D01*
X178630509Y-37093222D01*
X178648413Y-37083652D01*
X178787033Y-37009557D01*
X178843647Y-36992384D01*
X178956873Y-36958037D01*
X179023058Y-36951518D01*
X179089240Y-36945000D01*
X179177760Y-36945000D01*
X179243943Y-36951519D01*
X179243943Y-36951519D01*
G37*
G36*
X176703943Y-36951519D02*
X176770127Y-36958037D01*
X176883353Y-36992384D01*
X176939967Y-37009557D01*
X177078587Y-37083652D01*
X177096491Y-37093222D01*
X177116708Y-37109814D01*
X177233686Y-37205814D01*
X177316948Y-37307271D01*
X177346278Y-37343009D01*
X177346279Y-37343011D01*
X177429943Y-37499533D01*
X177429943Y-37499534D01*
X177481463Y-37669373D01*
X177498859Y-37846000D01*
X177481463Y-38022627D01*
X177459064Y-38096466D01*
X177429943Y-38192467D01*
X177358231Y-38326629D01*
X177346278Y-38348991D01*
X177316948Y-38384729D01*
X177233686Y-38486186D01*
X177132229Y-38569448D01*
X177096491Y-38598778D01*
X177096489Y-38598779D01*
X176939967Y-38682443D01*
X176883353Y-38699616D01*
X176770127Y-38733963D01*
X176703943Y-38740481D01*
X176637760Y-38747000D01*
X176549240Y-38747000D01*
X176483057Y-38740481D01*
X176416873Y-38733963D01*
X176303647Y-38699616D01*
X176247033Y-38682443D01*
X176090511Y-38598779D01*
X176090509Y-38598778D01*
X176054771Y-38569448D01*
X175953314Y-38486186D01*
X175870052Y-38384729D01*
X175840722Y-38348991D01*
X175828769Y-38326629D01*
X175757057Y-38192467D01*
X175727936Y-38096466D01*
X175705537Y-38022627D01*
X175688141Y-37846000D01*
X175705537Y-37669373D01*
X175757057Y-37499534D01*
X175757057Y-37499533D01*
X175840721Y-37343011D01*
X175840722Y-37343009D01*
X175870052Y-37307271D01*
X175953314Y-37205814D01*
X176070292Y-37109814D01*
X176090509Y-37093222D01*
X176108413Y-37083652D01*
X176247033Y-37009557D01*
X176303647Y-36992384D01*
X176416873Y-36958037D01*
X176483058Y-36951518D01*
X176549240Y-36945000D01*
X176637760Y-36945000D01*
X176703943Y-36951519D01*
X176703943Y-36951519D01*
G37*
G36*
X174163943Y-36951519D02*
X174230127Y-36958037D01*
X174343353Y-36992384D01*
X174399967Y-37009557D01*
X174538587Y-37083652D01*
X174556491Y-37093222D01*
X174576708Y-37109814D01*
X174693686Y-37205814D01*
X174776948Y-37307271D01*
X174806278Y-37343009D01*
X174806279Y-37343011D01*
X174889943Y-37499533D01*
X174889943Y-37499534D01*
X174941463Y-37669373D01*
X174958859Y-37846000D01*
X174941463Y-38022627D01*
X174919064Y-38096466D01*
X174889943Y-38192467D01*
X174818231Y-38326629D01*
X174806278Y-38348991D01*
X174776948Y-38384729D01*
X174693686Y-38486186D01*
X174592229Y-38569448D01*
X174556491Y-38598778D01*
X174556489Y-38598779D01*
X174399967Y-38682443D01*
X174343353Y-38699616D01*
X174230127Y-38733963D01*
X174163943Y-38740481D01*
X174097760Y-38747000D01*
X174009240Y-38747000D01*
X173943057Y-38740481D01*
X173876873Y-38733963D01*
X173763647Y-38699616D01*
X173707033Y-38682443D01*
X173550511Y-38598779D01*
X173550509Y-38598778D01*
X173514771Y-38569448D01*
X173413314Y-38486186D01*
X173330052Y-38384729D01*
X173300722Y-38348991D01*
X173288769Y-38326629D01*
X173217057Y-38192467D01*
X173187936Y-38096466D01*
X173165537Y-38022627D01*
X173148141Y-37846000D01*
X173165537Y-37669373D01*
X173217057Y-37499534D01*
X173217057Y-37499533D01*
X173300721Y-37343011D01*
X173300722Y-37343009D01*
X173330052Y-37307271D01*
X173413314Y-37205814D01*
X173530292Y-37109814D01*
X173550509Y-37093222D01*
X173568413Y-37083652D01*
X173707033Y-37009557D01*
X173763647Y-36992384D01*
X173876873Y-36958037D01*
X173943058Y-36951518D01*
X174009240Y-36945000D01*
X174097760Y-36945000D01*
X174163943Y-36951519D01*
X174163943Y-36951519D01*
G37*
G36*
X171623943Y-36951519D02*
X171690127Y-36958037D01*
X171803353Y-36992384D01*
X171859967Y-37009557D01*
X171998587Y-37083652D01*
X172016491Y-37093222D01*
X172036708Y-37109814D01*
X172153686Y-37205814D01*
X172236948Y-37307271D01*
X172266278Y-37343009D01*
X172266279Y-37343011D01*
X172349943Y-37499533D01*
X172349943Y-37499534D01*
X172401463Y-37669373D01*
X172418859Y-37846000D01*
X172401463Y-38022627D01*
X172379064Y-38096466D01*
X172349943Y-38192467D01*
X172278231Y-38326629D01*
X172266278Y-38348991D01*
X172236948Y-38384729D01*
X172153686Y-38486186D01*
X172052229Y-38569448D01*
X172016491Y-38598778D01*
X172016489Y-38598779D01*
X171859967Y-38682443D01*
X171803353Y-38699616D01*
X171690127Y-38733963D01*
X171623943Y-38740481D01*
X171557760Y-38747000D01*
X171469240Y-38747000D01*
X171403057Y-38740481D01*
X171336873Y-38733963D01*
X171223647Y-38699616D01*
X171167033Y-38682443D01*
X171010511Y-38598779D01*
X171010509Y-38598778D01*
X170974771Y-38569448D01*
X170873314Y-38486186D01*
X170790052Y-38384729D01*
X170760722Y-38348991D01*
X170748769Y-38326629D01*
X170677057Y-38192467D01*
X170647936Y-38096466D01*
X170625537Y-38022627D01*
X170608141Y-37846000D01*
X170625537Y-37669373D01*
X170677057Y-37499534D01*
X170677057Y-37499533D01*
X170760721Y-37343011D01*
X170760722Y-37343009D01*
X170790052Y-37307271D01*
X170873314Y-37205814D01*
X170990292Y-37109814D01*
X171010509Y-37093222D01*
X171028413Y-37083652D01*
X171167033Y-37009557D01*
X171223647Y-36992384D01*
X171336873Y-36958037D01*
X171403058Y-36951518D01*
X171469240Y-36945000D01*
X171557760Y-36945000D01*
X171623943Y-36951519D01*
X171623943Y-36951519D01*
G37*
G36*
X169083943Y-36951519D02*
X169150127Y-36958037D01*
X169263353Y-36992384D01*
X169319967Y-37009557D01*
X169458587Y-37083652D01*
X169476491Y-37093222D01*
X169496708Y-37109814D01*
X169613686Y-37205814D01*
X169696948Y-37307271D01*
X169726278Y-37343009D01*
X169726279Y-37343011D01*
X169809943Y-37499533D01*
X169809943Y-37499534D01*
X169861463Y-37669373D01*
X169878859Y-37846000D01*
X169861463Y-38022627D01*
X169839064Y-38096466D01*
X169809943Y-38192467D01*
X169738231Y-38326629D01*
X169726278Y-38348991D01*
X169696948Y-38384729D01*
X169613686Y-38486186D01*
X169512229Y-38569448D01*
X169476491Y-38598778D01*
X169476489Y-38598779D01*
X169319967Y-38682443D01*
X169263353Y-38699616D01*
X169150127Y-38733963D01*
X169083943Y-38740481D01*
X169017760Y-38747000D01*
X168929240Y-38747000D01*
X168863057Y-38740481D01*
X168796873Y-38733963D01*
X168683647Y-38699616D01*
X168627033Y-38682443D01*
X168470511Y-38598779D01*
X168470509Y-38598778D01*
X168434771Y-38569448D01*
X168333314Y-38486186D01*
X168250052Y-38384729D01*
X168220722Y-38348991D01*
X168208769Y-38326629D01*
X168137057Y-38192467D01*
X168107936Y-38096466D01*
X168085537Y-38022627D01*
X168068141Y-37846000D01*
X168085537Y-37669373D01*
X168137057Y-37499534D01*
X168137057Y-37499533D01*
X168220721Y-37343011D01*
X168220722Y-37343009D01*
X168250052Y-37307271D01*
X168333314Y-37205814D01*
X168450292Y-37109814D01*
X168470509Y-37093222D01*
X168488413Y-37083652D01*
X168627033Y-37009557D01*
X168683647Y-36992384D01*
X168796873Y-36958037D01*
X168863058Y-36951518D01*
X168929240Y-36945000D01*
X169017760Y-36945000D01*
X169083943Y-36951519D01*
X169083943Y-36951519D01*
G37*
G36*
X167334500Y-38747000D02*
X165532500Y-38747000D01*
X165532500Y-36945000D01*
X167334500Y-36945000D01*
X167334500Y-38747000D01*
X167334500Y-38747000D01*
G37*
G36*
X62340443Y-36951519D02*
X62406627Y-36958037D01*
X62519853Y-36992384D01*
X62576467Y-37009557D01*
X62715087Y-37083652D01*
X62732991Y-37093222D01*
X62753208Y-37109814D01*
X62870186Y-37205814D01*
X62953448Y-37307271D01*
X62982778Y-37343009D01*
X62982779Y-37343011D01*
X63066443Y-37499533D01*
X63066443Y-37499534D01*
X63117963Y-37669373D01*
X63135359Y-37846000D01*
X63117963Y-38022627D01*
X63095564Y-38096466D01*
X63066443Y-38192467D01*
X62994731Y-38326629D01*
X62982778Y-38348991D01*
X62953448Y-38384729D01*
X62870186Y-38486186D01*
X62768729Y-38569448D01*
X62732991Y-38598778D01*
X62732989Y-38598779D01*
X62576467Y-38682443D01*
X62519853Y-38699616D01*
X62406627Y-38733963D01*
X62340443Y-38740481D01*
X62274260Y-38747000D01*
X62185740Y-38747000D01*
X62119557Y-38740481D01*
X62053373Y-38733963D01*
X61940147Y-38699616D01*
X61883533Y-38682443D01*
X61727011Y-38598779D01*
X61727009Y-38598778D01*
X61691271Y-38569448D01*
X61589814Y-38486186D01*
X61506552Y-38384729D01*
X61477222Y-38348991D01*
X61465269Y-38326629D01*
X61393557Y-38192467D01*
X61364436Y-38096466D01*
X61342037Y-38022627D01*
X61324641Y-37846000D01*
X61342037Y-37669373D01*
X61393557Y-37499534D01*
X61393557Y-37499533D01*
X61477221Y-37343011D01*
X61477222Y-37343009D01*
X61506552Y-37307271D01*
X61589814Y-37205814D01*
X61706792Y-37109814D01*
X61727009Y-37093222D01*
X61744913Y-37083652D01*
X61883533Y-37009557D01*
X61940147Y-36992384D01*
X62053373Y-36958037D01*
X62119557Y-36951519D01*
X62185740Y-36945000D01*
X62274260Y-36945000D01*
X62340443Y-36951519D01*
X62340443Y-36951519D01*
G37*
G36*
X60591000Y-38747000D02*
X58789000Y-38747000D01*
X58789000Y-36945000D01*
X60591000Y-36945000D01*
X60591000Y-38747000D01*
X60591000Y-38747000D01*
G37*
G36*
X103678943Y-36951519D02*
X103745127Y-36958037D01*
X103858353Y-36992384D01*
X103914967Y-37009557D01*
X104053587Y-37083652D01*
X104071491Y-37093222D01*
X104091708Y-37109814D01*
X104208686Y-37205814D01*
X104291948Y-37307271D01*
X104321278Y-37343009D01*
X104321279Y-37343011D01*
X104404943Y-37499533D01*
X104404943Y-37499534D01*
X104456463Y-37669373D01*
X104473859Y-37846000D01*
X104456463Y-38022627D01*
X104434064Y-38096466D01*
X104404943Y-38192467D01*
X104333231Y-38326629D01*
X104321278Y-38348991D01*
X104291948Y-38384729D01*
X104208686Y-38486186D01*
X104107229Y-38569448D01*
X104071491Y-38598778D01*
X104071489Y-38598779D01*
X103914967Y-38682443D01*
X103858353Y-38699616D01*
X103745127Y-38733963D01*
X103678943Y-38740481D01*
X103612760Y-38747000D01*
X103524240Y-38747000D01*
X103458057Y-38740481D01*
X103391873Y-38733963D01*
X103278647Y-38699616D01*
X103222033Y-38682443D01*
X103065511Y-38598779D01*
X103065509Y-38598778D01*
X103029771Y-38569448D01*
X102928314Y-38486186D01*
X102845052Y-38384729D01*
X102815722Y-38348991D01*
X102803769Y-38326629D01*
X102732057Y-38192467D01*
X102702936Y-38096466D01*
X102680537Y-38022627D01*
X102663141Y-37846000D01*
X102680537Y-37669373D01*
X102732057Y-37499534D01*
X102732057Y-37499533D01*
X102815721Y-37343011D01*
X102815722Y-37343009D01*
X102845052Y-37307271D01*
X102928314Y-37205814D01*
X103045292Y-37109814D01*
X103065509Y-37093222D01*
X103083413Y-37083652D01*
X103222033Y-37009557D01*
X103278647Y-36992384D01*
X103391873Y-36958037D01*
X103458057Y-36951519D01*
X103524240Y-36945000D01*
X103612760Y-36945000D01*
X103678943Y-36951519D01*
X103678943Y-36951519D01*
G37*
G36*
X69960443Y-36951519D02*
X70026627Y-36958037D01*
X70139853Y-36992384D01*
X70196467Y-37009557D01*
X70335087Y-37083652D01*
X70352991Y-37093222D01*
X70373208Y-37109814D01*
X70490186Y-37205814D01*
X70573448Y-37307271D01*
X70602778Y-37343009D01*
X70602779Y-37343011D01*
X70686443Y-37499533D01*
X70686443Y-37499534D01*
X70737963Y-37669373D01*
X70755359Y-37846000D01*
X70737963Y-38022627D01*
X70715564Y-38096466D01*
X70686443Y-38192467D01*
X70614731Y-38326629D01*
X70602778Y-38348991D01*
X70573448Y-38384729D01*
X70490186Y-38486186D01*
X70388729Y-38569448D01*
X70352991Y-38598778D01*
X70352989Y-38598779D01*
X70196467Y-38682443D01*
X70139853Y-38699616D01*
X70026627Y-38733963D01*
X69960443Y-38740481D01*
X69894260Y-38747000D01*
X69805740Y-38747000D01*
X69739557Y-38740481D01*
X69673373Y-38733963D01*
X69560147Y-38699616D01*
X69503533Y-38682443D01*
X69347011Y-38598779D01*
X69347009Y-38598778D01*
X69311271Y-38569448D01*
X69209814Y-38486186D01*
X69126552Y-38384729D01*
X69097222Y-38348991D01*
X69085269Y-38326629D01*
X69013557Y-38192467D01*
X68984436Y-38096466D01*
X68962037Y-38022627D01*
X68944641Y-37846000D01*
X68962037Y-37669373D01*
X69013557Y-37499534D01*
X69013557Y-37499533D01*
X69097221Y-37343011D01*
X69097222Y-37343009D01*
X69126552Y-37307271D01*
X69209814Y-37205814D01*
X69326792Y-37109814D01*
X69347009Y-37093222D01*
X69364913Y-37083652D01*
X69503533Y-37009557D01*
X69560147Y-36992384D01*
X69673373Y-36958037D01*
X69739557Y-36951519D01*
X69805740Y-36945000D01*
X69894260Y-36945000D01*
X69960443Y-36951519D01*
X69960443Y-36951519D01*
G37*
G36*
X82660443Y-36951519D02*
X82726627Y-36958037D01*
X82839853Y-36992384D01*
X82896467Y-37009557D01*
X83035087Y-37083652D01*
X83052991Y-37093222D01*
X83073208Y-37109814D01*
X83190186Y-37205814D01*
X83273448Y-37307271D01*
X83302778Y-37343009D01*
X83302779Y-37343011D01*
X83386443Y-37499533D01*
X83386443Y-37499534D01*
X83437963Y-37669373D01*
X83455359Y-37846000D01*
X83437963Y-38022627D01*
X83415564Y-38096466D01*
X83386443Y-38192467D01*
X83314731Y-38326629D01*
X83302778Y-38348991D01*
X83273448Y-38384729D01*
X83190186Y-38486186D01*
X83088729Y-38569448D01*
X83052991Y-38598778D01*
X83052989Y-38598779D01*
X82896467Y-38682443D01*
X82839853Y-38699616D01*
X82726627Y-38733963D01*
X82660443Y-38740481D01*
X82594260Y-38747000D01*
X82505740Y-38747000D01*
X82439557Y-38740481D01*
X82373373Y-38733963D01*
X82260147Y-38699616D01*
X82203533Y-38682443D01*
X82047011Y-38598779D01*
X82047009Y-38598778D01*
X82011271Y-38569448D01*
X81909814Y-38486186D01*
X81826552Y-38384729D01*
X81797222Y-38348991D01*
X81785269Y-38326629D01*
X81713557Y-38192467D01*
X81684436Y-38096466D01*
X81662037Y-38022627D01*
X81644641Y-37846000D01*
X81662037Y-37669373D01*
X81713557Y-37499534D01*
X81713557Y-37499533D01*
X81797221Y-37343011D01*
X81797222Y-37343009D01*
X81826552Y-37307271D01*
X81909814Y-37205814D01*
X82026792Y-37109814D01*
X82047009Y-37093222D01*
X82064913Y-37083652D01*
X82203533Y-37009557D01*
X82260147Y-36992384D01*
X82373373Y-36958037D01*
X82439557Y-36951519D01*
X82505740Y-36945000D01*
X82594260Y-36945000D01*
X82660443Y-36951519D01*
X82660443Y-36951519D01*
G37*
G36*
X80120443Y-36951519D02*
X80186627Y-36958037D01*
X80299853Y-36992384D01*
X80356467Y-37009557D01*
X80495087Y-37083652D01*
X80512991Y-37093222D01*
X80533208Y-37109814D01*
X80650186Y-37205814D01*
X80733448Y-37307271D01*
X80762778Y-37343009D01*
X80762779Y-37343011D01*
X80846443Y-37499533D01*
X80846443Y-37499534D01*
X80897963Y-37669373D01*
X80915359Y-37846000D01*
X80897963Y-38022627D01*
X80875564Y-38096466D01*
X80846443Y-38192467D01*
X80774731Y-38326629D01*
X80762778Y-38348991D01*
X80733448Y-38384729D01*
X80650186Y-38486186D01*
X80548729Y-38569448D01*
X80512991Y-38598778D01*
X80512989Y-38598779D01*
X80356467Y-38682443D01*
X80299853Y-38699616D01*
X80186627Y-38733963D01*
X80120443Y-38740481D01*
X80054260Y-38747000D01*
X79965740Y-38747000D01*
X79899557Y-38740481D01*
X79833373Y-38733963D01*
X79720147Y-38699616D01*
X79663533Y-38682443D01*
X79507011Y-38598779D01*
X79507009Y-38598778D01*
X79471271Y-38569448D01*
X79369814Y-38486186D01*
X79286552Y-38384729D01*
X79257222Y-38348991D01*
X79245269Y-38326629D01*
X79173557Y-38192467D01*
X79144436Y-38096466D01*
X79122037Y-38022627D01*
X79104641Y-37846000D01*
X79122037Y-37669373D01*
X79173557Y-37499534D01*
X79173557Y-37499533D01*
X79257221Y-37343011D01*
X79257222Y-37343009D01*
X79286552Y-37307271D01*
X79369814Y-37205814D01*
X79486792Y-37109814D01*
X79507009Y-37093222D01*
X79524913Y-37083652D01*
X79663533Y-37009557D01*
X79720147Y-36992384D01*
X79833373Y-36958037D01*
X79899557Y-36951519D01*
X79965740Y-36945000D01*
X80054260Y-36945000D01*
X80120443Y-36951519D01*
X80120443Y-36951519D01*
G37*
G36*
X77580443Y-36951519D02*
X77646627Y-36958037D01*
X77759853Y-36992384D01*
X77816467Y-37009557D01*
X77955087Y-37083652D01*
X77972991Y-37093222D01*
X77993208Y-37109814D01*
X78110186Y-37205814D01*
X78193448Y-37307271D01*
X78222778Y-37343009D01*
X78222779Y-37343011D01*
X78306443Y-37499533D01*
X78306443Y-37499534D01*
X78357963Y-37669373D01*
X78375359Y-37846000D01*
X78357963Y-38022627D01*
X78335564Y-38096466D01*
X78306443Y-38192467D01*
X78234731Y-38326629D01*
X78222778Y-38348991D01*
X78193448Y-38384729D01*
X78110186Y-38486186D01*
X78008729Y-38569448D01*
X77972991Y-38598778D01*
X77972989Y-38598779D01*
X77816467Y-38682443D01*
X77759853Y-38699616D01*
X77646627Y-38733963D01*
X77580443Y-38740481D01*
X77514260Y-38747000D01*
X77425740Y-38747000D01*
X77359557Y-38740481D01*
X77293373Y-38733963D01*
X77180147Y-38699616D01*
X77123533Y-38682443D01*
X76967011Y-38598779D01*
X76967009Y-38598778D01*
X76931271Y-38569448D01*
X76829814Y-38486186D01*
X76746552Y-38384729D01*
X76717222Y-38348991D01*
X76705269Y-38326629D01*
X76633557Y-38192467D01*
X76604436Y-38096466D01*
X76582037Y-38022627D01*
X76564641Y-37846000D01*
X76582037Y-37669373D01*
X76633557Y-37499534D01*
X76633557Y-37499533D01*
X76717221Y-37343011D01*
X76717222Y-37343009D01*
X76746552Y-37307271D01*
X76829814Y-37205814D01*
X76946792Y-37109814D01*
X76967009Y-37093222D01*
X76984913Y-37083652D01*
X77123533Y-37009557D01*
X77180147Y-36992384D01*
X77293373Y-36958037D01*
X77359557Y-36951519D01*
X77425740Y-36945000D01*
X77514260Y-36945000D01*
X77580443Y-36951519D01*
X77580443Y-36951519D01*
G37*
G36*
X75040443Y-36951519D02*
X75106627Y-36958037D01*
X75219853Y-36992384D01*
X75276467Y-37009557D01*
X75415087Y-37083652D01*
X75432991Y-37093222D01*
X75453208Y-37109814D01*
X75570186Y-37205814D01*
X75653448Y-37307271D01*
X75682778Y-37343009D01*
X75682779Y-37343011D01*
X75766443Y-37499533D01*
X75766443Y-37499534D01*
X75817963Y-37669373D01*
X75835359Y-37846000D01*
X75817963Y-38022627D01*
X75795564Y-38096466D01*
X75766443Y-38192467D01*
X75694731Y-38326629D01*
X75682778Y-38348991D01*
X75653448Y-38384729D01*
X75570186Y-38486186D01*
X75468729Y-38569448D01*
X75432991Y-38598778D01*
X75432989Y-38598779D01*
X75276467Y-38682443D01*
X75219853Y-38699616D01*
X75106627Y-38733963D01*
X75040443Y-38740481D01*
X74974260Y-38747000D01*
X74885740Y-38747000D01*
X74819557Y-38740481D01*
X74753373Y-38733963D01*
X74640147Y-38699616D01*
X74583533Y-38682443D01*
X74427011Y-38598779D01*
X74427009Y-38598778D01*
X74391271Y-38569448D01*
X74289814Y-38486186D01*
X74206552Y-38384729D01*
X74177222Y-38348991D01*
X74165269Y-38326629D01*
X74093557Y-38192467D01*
X74064436Y-38096466D01*
X74042037Y-38022627D01*
X74024641Y-37846000D01*
X74042037Y-37669373D01*
X74093557Y-37499534D01*
X74093557Y-37499533D01*
X74177221Y-37343011D01*
X74177222Y-37343009D01*
X74206552Y-37307271D01*
X74289814Y-37205814D01*
X74406792Y-37109814D01*
X74427009Y-37093222D01*
X74444913Y-37083652D01*
X74583533Y-37009557D01*
X74640147Y-36992384D01*
X74753373Y-36958037D01*
X74819557Y-36951519D01*
X74885740Y-36945000D01*
X74974260Y-36945000D01*
X75040443Y-36951519D01*
X75040443Y-36951519D01*
G37*
G36*
X72500443Y-36951519D02*
X72566627Y-36958037D01*
X72679853Y-36992384D01*
X72736467Y-37009557D01*
X72875087Y-37083652D01*
X72892991Y-37093222D01*
X72913208Y-37109814D01*
X73030186Y-37205814D01*
X73113448Y-37307271D01*
X73142778Y-37343009D01*
X73142779Y-37343011D01*
X73226443Y-37499533D01*
X73226443Y-37499534D01*
X73277963Y-37669373D01*
X73295359Y-37846000D01*
X73277963Y-38022627D01*
X73255564Y-38096466D01*
X73226443Y-38192467D01*
X73154731Y-38326629D01*
X73142778Y-38348991D01*
X73113448Y-38384729D01*
X73030186Y-38486186D01*
X72928729Y-38569448D01*
X72892991Y-38598778D01*
X72892989Y-38598779D01*
X72736467Y-38682443D01*
X72679853Y-38699616D01*
X72566627Y-38733963D01*
X72500443Y-38740481D01*
X72434260Y-38747000D01*
X72345740Y-38747000D01*
X72279557Y-38740481D01*
X72213373Y-38733963D01*
X72100147Y-38699616D01*
X72043533Y-38682443D01*
X71887011Y-38598779D01*
X71887009Y-38598778D01*
X71851271Y-38569448D01*
X71749814Y-38486186D01*
X71666552Y-38384729D01*
X71637222Y-38348991D01*
X71625269Y-38326629D01*
X71553557Y-38192467D01*
X71524436Y-38096466D01*
X71502037Y-38022627D01*
X71484641Y-37846000D01*
X71502037Y-37669373D01*
X71553557Y-37499534D01*
X71553557Y-37499533D01*
X71637221Y-37343011D01*
X71637222Y-37343009D01*
X71666552Y-37307271D01*
X71749814Y-37205814D01*
X71866792Y-37109814D01*
X71887009Y-37093222D01*
X71904913Y-37083652D01*
X72043533Y-37009557D01*
X72100147Y-36992384D01*
X72213373Y-36958037D01*
X72279557Y-36951519D01*
X72345740Y-36945000D01*
X72434260Y-36945000D01*
X72500443Y-36951519D01*
X72500443Y-36951519D01*
G37*
G36*
X64880443Y-36951519D02*
X64946627Y-36958037D01*
X65059853Y-36992384D01*
X65116467Y-37009557D01*
X65255087Y-37083652D01*
X65272991Y-37093222D01*
X65293208Y-37109814D01*
X65410186Y-37205814D01*
X65493448Y-37307271D01*
X65522778Y-37343009D01*
X65522779Y-37343011D01*
X65606443Y-37499533D01*
X65606443Y-37499534D01*
X65657963Y-37669373D01*
X65675359Y-37846000D01*
X65657963Y-38022627D01*
X65635564Y-38096466D01*
X65606443Y-38192467D01*
X65534731Y-38326629D01*
X65522778Y-38348991D01*
X65493448Y-38384729D01*
X65410186Y-38486186D01*
X65308729Y-38569448D01*
X65272991Y-38598778D01*
X65272989Y-38598779D01*
X65116467Y-38682443D01*
X65059853Y-38699616D01*
X64946627Y-38733963D01*
X64880443Y-38740481D01*
X64814260Y-38747000D01*
X64725740Y-38747000D01*
X64659557Y-38740481D01*
X64593373Y-38733963D01*
X64480147Y-38699616D01*
X64423533Y-38682443D01*
X64267011Y-38598779D01*
X64267009Y-38598778D01*
X64231271Y-38569448D01*
X64129814Y-38486186D01*
X64046552Y-38384729D01*
X64017222Y-38348991D01*
X64005269Y-38326629D01*
X63933557Y-38192467D01*
X63904436Y-38096466D01*
X63882037Y-38022627D01*
X63864641Y-37846000D01*
X63882037Y-37669373D01*
X63933557Y-37499534D01*
X63933557Y-37499533D01*
X64017221Y-37343011D01*
X64017222Y-37343009D01*
X64046552Y-37307271D01*
X64129814Y-37205814D01*
X64246792Y-37109814D01*
X64267009Y-37093222D01*
X64284913Y-37083652D01*
X64423533Y-37009557D01*
X64480147Y-36992384D01*
X64593373Y-36958037D01*
X64659557Y-36951519D01*
X64725740Y-36945000D01*
X64814260Y-36945000D01*
X64880443Y-36951519D01*
X64880443Y-36951519D01*
G37*
G36*
X67420443Y-36951519D02*
X67486627Y-36958037D01*
X67599853Y-36992384D01*
X67656467Y-37009557D01*
X67795087Y-37083652D01*
X67812991Y-37093222D01*
X67833208Y-37109814D01*
X67950186Y-37205814D01*
X68033448Y-37307271D01*
X68062778Y-37343009D01*
X68062779Y-37343011D01*
X68146443Y-37499533D01*
X68146443Y-37499534D01*
X68197963Y-37669373D01*
X68215359Y-37846000D01*
X68197963Y-38022627D01*
X68175564Y-38096466D01*
X68146443Y-38192467D01*
X68074731Y-38326629D01*
X68062778Y-38348991D01*
X68033448Y-38384729D01*
X67950186Y-38486186D01*
X67848729Y-38569448D01*
X67812991Y-38598778D01*
X67812989Y-38598779D01*
X67656467Y-38682443D01*
X67599853Y-38699616D01*
X67486627Y-38733963D01*
X67420443Y-38740481D01*
X67354260Y-38747000D01*
X67265740Y-38747000D01*
X67199557Y-38740481D01*
X67133373Y-38733963D01*
X67020147Y-38699616D01*
X66963533Y-38682443D01*
X66807011Y-38598779D01*
X66807009Y-38598778D01*
X66771271Y-38569448D01*
X66669814Y-38486186D01*
X66586552Y-38384729D01*
X66557222Y-38348991D01*
X66545269Y-38326629D01*
X66473557Y-38192467D01*
X66444436Y-38096466D01*
X66422037Y-38022627D01*
X66404641Y-37846000D01*
X66422037Y-37669373D01*
X66473557Y-37499534D01*
X66473557Y-37499533D01*
X66557221Y-37343011D01*
X66557222Y-37343009D01*
X66586552Y-37307271D01*
X66669814Y-37205814D01*
X66786792Y-37109814D01*
X66807009Y-37093222D01*
X66824913Y-37083652D01*
X66963533Y-37009557D01*
X67020147Y-36992384D01*
X67133373Y-36958037D01*
X67199557Y-36951519D01*
X67265740Y-36945000D01*
X67354260Y-36945000D01*
X67420443Y-36951519D01*
X67420443Y-36951519D01*
G37*
G36*
X94309500Y-38747000D02*
X92507500Y-38747000D01*
X92507500Y-36945000D01*
X94309500Y-36945000D01*
X94309500Y-38747000D01*
X94309500Y-38747000D01*
G37*
G36*
X116378943Y-36951519D02*
X116445127Y-36958037D01*
X116558353Y-36992384D01*
X116614967Y-37009557D01*
X116753587Y-37083652D01*
X116771491Y-37093222D01*
X116791708Y-37109814D01*
X116908686Y-37205814D01*
X116991948Y-37307271D01*
X117021278Y-37343009D01*
X117021279Y-37343011D01*
X117104943Y-37499533D01*
X117104943Y-37499534D01*
X117156463Y-37669373D01*
X117173859Y-37846000D01*
X117156463Y-38022627D01*
X117134064Y-38096466D01*
X117104943Y-38192467D01*
X117033231Y-38326629D01*
X117021278Y-38348991D01*
X116991948Y-38384729D01*
X116908686Y-38486186D01*
X116807229Y-38569448D01*
X116771491Y-38598778D01*
X116771489Y-38598779D01*
X116614967Y-38682443D01*
X116558353Y-38699616D01*
X116445127Y-38733963D01*
X116378943Y-38740481D01*
X116312760Y-38747000D01*
X116224240Y-38747000D01*
X116158057Y-38740481D01*
X116091873Y-38733963D01*
X115978647Y-38699616D01*
X115922033Y-38682443D01*
X115765511Y-38598779D01*
X115765509Y-38598778D01*
X115729771Y-38569448D01*
X115628314Y-38486186D01*
X115545052Y-38384729D01*
X115515722Y-38348991D01*
X115503769Y-38326629D01*
X115432057Y-38192467D01*
X115402936Y-38096466D01*
X115380537Y-38022627D01*
X115363141Y-37846000D01*
X115380537Y-37669373D01*
X115432057Y-37499534D01*
X115432057Y-37499533D01*
X115515721Y-37343011D01*
X115515722Y-37343009D01*
X115545052Y-37307271D01*
X115628314Y-37205814D01*
X115745292Y-37109814D01*
X115765509Y-37093222D01*
X115783413Y-37083652D01*
X115922033Y-37009557D01*
X115978647Y-36992384D01*
X116091873Y-36958037D01*
X116158057Y-36951519D01*
X116224240Y-36945000D01*
X116312760Y-36945000D01*
X116378943Y-36951519D01*
X116378943Y-36951519D01*
G37*
G36*
X132571443Y-36951519D02*
X132637627Y-36958037D01*
X132750853Y-36992384D01*
X132807467Y-37009557D01*
X132946087Y-37083652D01*
X132963991Y-37093222D01*
X132984208Y-37109814D01*
X133101186Y-37205814D01*
X133184448Y-37307271D01*
X133213778Y-37343009D01*
X133213779Y-37343011D01*
X133297443Y-37499533D01*
X133297443Y-37499534D01*
X133348963Y-37669373D01*
X133366359Y-37846000D01*
X133348963Y-38022627D01*
X133326564Y-38096466D01*
X133297443Y-38192467D01*
X133225731Y-38326629D01*
X133213778Y-38348991D01*
X133184448Y-38384729D01*
X133101186Y-38486186D01*
X132999729Y-38569448D01*
X132963991Y-38598778D01*
X132963989Y-38598779D01*
X132807467Y-38682443D01*
X132750853Y-38699616D01*
X132637627Y-38733963D01*
X132571443Y-38740481D01*
X132505260Y-38747000D01*
X132416740Y-38747000D01*
X132350557Y-38740481D01*
X132284373Y-38733963D01*
X132171147Y-38699616D01*
X132114533Y-38682443D01*
X131958011Y-38598779D01*
X131958009Y-38598778D01*
X131922271Y-38569448D01*
X131820814Y-38486186D01*
X131737552Y-38384729D01*
X131708222Y-38348991D01*
X131696269Y-38326629D01*
X131624557Y-38192467D01*
X131595436Y-38096466D01*
X131573037Y-38022627D01*
X131555641Y-37846000D01*
X131573037Y-37669373D01*
X131624557Y-37499534D01*
X131624557Y-37499533D01*
X131708221Y-37343011D01*
X131708222Y-37343009D01*
X131737552Y-37307271D01*
X131820814Y-37205814D01*
X131937792Y-37109814D01*
X131958009Y-37093222D01*
X131975913Y-37083652D01*
X132114533Y-37009557D01*
X132171147Y-36992384D01*
X132284373Y-36958037D01*
X132350557Y-36951519D01*
X132416740Y-36945000D01*
X132505260Y-36945000D01*
X132571443Y-36951519D01*
X132571443Y-36951519D01*
G37*
G36*
X135111443Y-36951519D02*
X135177627Y-36958037D01*
X135290853Y-36992384D01*
X135347467Y-37009557D01*
X135486087Y-37083652D01*
X135503991Y-37093222D01*
X135524208Y-37109814D01*
X135641186Y-37205814D01*
X135724448Y-37307271D01*
X135753778Y-37343009D01*
X135753779Y-37343011D01*
X135837443Y-37499533D01*
X135837443Y-37499534D01*
X135888963Y-37669373D01*
X135906359Y-37846000D01*
X135888963Y-38022627D01*
X135866564Y-38096466D01*
X135837443Y-38192467D01*
X135765731Y-38326629D01*
X135753778Y-38348991D01*
X135724448Y-38384729D01*
X135641186Y-38486186D01*
X135539729Y-38569448D01*
X135503991Y-38598778D01*
X135503989Y-38598779D01*
X135347467Y-38682443D01*
X135290853Y-38699616D01*
X135177627Y-38733963D01*
X135111443Y-38740481D01*
X135045260Y-38747000D01*
X134956740Y-38747000D01*
X134890557Y-38740481D01*
X134824373Y-38733963D01*
X134711147Y-38699616D01*
X134654533Y-38682443D01*
X134498011Y-38598779D01*
X134498009Y-38598778D01*
X134462271Y-38569448D01*
X134360814Y-38486186D01*
X134277552Y-38384729D01*
X134248222Y-38348991D01*
X134236269Y-38326629D01*
X134164557Y-38192467D01*
X134135436Y-38096466D01*
X134113037Y-38022627D01*
X134095641Y-37846000D01*
X134113037Y-37669373D01*
X134164557Y-37499534D01*
X134164557Y-37499533D01*
X134248221Y-37343011D01*
X134248222Y-37343009D01*
X134277552Y-37307271D01*
X134360814Y-37205814D01*
X134477792Y-37109814D01*
X134498009Y-37093222D01*
X134515913Y-37083652D01*
X134654533Y-37009557D01*
X134711147Y-36992384D01*
X134824373Y-36958037D01*
X134890557Y-36951519D01*
X134956740Y-36945000D01*
X135045260Y-36945000D01*
X135111443Y-36951519D01*
X135111443Y-36951519D01*
G37*
G36*
X137651443Y-36951519D02*
X137717627Y-36958037D01*
X137830853Y-36992384D01*
X137887467Y-37009557D01*
X138026087Y-37083652D01*
X138043991Y-37093222D01*
X138064208Y-37109814D01*
X138181186Y-37205814D01*
X138264448Y-37307271D01*
X138293778Y-37343009D01*
X138293779Y-37343011D01*
X138377443Y-37499533D01*
X138377443Y-37499534D01*
X138428963Y-37669373D01*
X138446359Y-37846000D01*
X138428963Y-38022627D01*
X138406564Y-38096466D01*
X138377443Y-38192467D01*
X138305731Y-38326629D01*
X138293778Y-38348991D01*
X138264448Y-38384729D01*
X138181186Y-38486186D01*
X138079729Y-38569448D01*
X138043991Y-38598778D01*
X138043989Y-38598779D01*
X137887467Y-38682443D01*
X137830853Y-38699616D01*
X137717627Y-38733963D01*
X137651443Y-38740481D01*
X137585260Y-38747000D01*
X137496740Y-38747000D01*
X137430557Y-38740481D01*
X137364373Y-38733963D01*
X137251147Y-38699616D01*
X137194533Y-38682443D01*
X137038011Y-38598779D01*
X137038009Y-38598778D01*
X137002271Y-38569448D01*
X136900814Y-38486186D01*
X136817552Y-38384729D01*
X136788222Y-38348991D01*
X136776269Y-38326629D01*
X136704557Y-38192467D01*
X136675436Y-38096466D01*
X136653037Y-38022627D01*
X136635641Y-37846000D01*
X136653037Y-37669373D01*
X136704557Y-37499534D01*
X136704557Y-37499533D01*
X136788221Y-37343011D01*
X136788222Y-37343009D01*
X136817552Y-37307271D01*
X136900814Y-37205814D01*
X137017792Y-37109814D01*
X137038009Y-37093222D01*
X137055913Y-37083652D01*
X137194533Y-37009557D01*
X137251147Y-36992384D01*
X137364373Y-36958037D01*
X137430557Y-36951519D01*
X137496740Y-36945000D01*
X137585260Y-36945000D01*
X137651443Y-36951519D01*
X137651443Y-36951519D01*
G37*
G36*
X140191443Y-36951519D02*
X140257627Y-36958037D01*
X140370853Y-36992384D01*
X140427467Y-37009557D01*
X140566087Y-37083652D01*
X140583991Y-37093222D01*
X140604208Y-37109814D01*
X140721186Y-37205814D01*
X140804448Y-37307271D01*
X140833778Y-37343009D01*
X140833779Y-37343011D01*
X140917443Y-37499533D01*
X140917443Y-37499534D01*
X140968963Y-37669373D01*
X140986359Y-37846000D01*
X140968963Y-38022627D01*
X140946564Y-38096466D01*
X140917443Y-38192467D01*
X140845731Y-38326629D01*
X140833778Y-38348991D01*
X140804448Y-38384729D01*
X140721186Y-38486186D01*
X140619729Y-38569448D01*
X140583991Y-38598778D01*
X140583989Y-38598779D01*
X140427467Y-38682443D01*
X140370853Y-38699616D01*
X140257627Y-38733963D01*
X140191443Y-38740481D01*
X140125260Y-38747000D01*
X140036740Y-38747000D01*
X139970557Y-38740481D01*
X139904373Y-38733963D01*
X139791147Y-38699616D01*
X139734533Y-38682443D01*
X139578011Y-38598779D01*
X139578009Y-38598778D01*
X139542271Y-38569448D01*
X139440814Y-38486186D01*
X139357552Y-38384729D01*
X139328222Y-38348991D01*
X139316269Y-38326629D01*
X139244557Y-38192467D01*
X139215436Y-38096466D01*
X139193037Y-38022627D01*
X139175641Y-37846000D01*
X139193037Y-37669373D01*
X139244557Y-37499534D01*
X139244557Y-37499533D01*
X139328221Y-37343011D01*
X139328222Y-37343009D01*
X139357552Y-37307271D01*
X139440814Y-37205814D01*
X139557792Y-37109814D01*
X139578009Y-37093222D01*
X139595913Y-37083652D01*
X139734533Y-37009557D01*
X139791147Y-36992384D01*
X139904373Y-36958037D01*
X139970557Y-36951519D01*
X140036740Y-36945000D01*
X140125260Y-36945000D01*
X140191443Y-36951519D01*
X140191443Y-36951519D01*
G37*
G36*
X142731443Y-36951519D02*
X142797627Y-36958037D01*
X142910853Y-36992384D01*
X142967467Y-37009557D01*
X143106087Y-37083652D01*
X143123991Y-37093222D01*
X143144208Y-37109814D01*
X143261186Y-37205814D01*
X143344448Y-37307271D01*
X143373778Y-37343009D01*
X143373779Y-37343011D01*
X143457443Y-37499533D01*
X143457443Y-37499534D01*
X143508963Y-37669373D01*
X143526359Y-37846000D01*
X143508963Y-38022627D01*
X143486564Y-38096466D01*
X143457443Y-38192467D01*
X143385731Y-38326629D01*
X143373778Y-38348991D01*
X143344448Y-38384729D01*
X143261186Y-38486186D01*
X143159729Y-38569448D01*
X143123991Y-38598778D01*
X143123989Y-38598779D01*
X142967467Y-38682443D01*
X142910853Y-38699616D01*
X142797627Y-38733963D01*
X142731443Y-38740481D01*
X142665260Y-38747000D01*
X142576740Y-38747000D01*
X142510557Y-38740481D01*
X142444373Y-38733963D01*
X142331147Y-38699616D01*
X142274533Y-38682443D01*
X142118011Y-38598779D01*
X142118009Y-38598778D01*
X142082271Y-38569448D01*
X141980814Y-38486186D01*
X141897552Y-38384729D01*
X141868222Y-38348991D01*
X141856269Y-38326629D01*
X141784557Y-38192467D01*
X141755436Y-38096466D01*
X141733037Y-38022627D01*
X141715641Y-37846000D01*
X141733037Y-37669373D01*
X141784557Y-37499534D01*
X141784557Y-37499533D01*
X141868221Y-37343011D01*
X141868222Y-37343009D01*
X141897552Y-37307271D01*
X141980814Y-37205814D01*
X142097792Y-37109814D01*
X142118009Y-37093222D01*
X142135913Y-37083652D01*
X142274533Y-37009557D01*
X142331147Y-36992384D01*
X142444373Y-36958037D01*
X142510557Y-36951519D01*
X142576740Y-36945000D01*
X142665260Y-36945000D01*
X142731443Y-36951519D01*
X142731443Y-36951519D01*
G37*
G36*
X145271443Y-36951519D02*
X145337627Y-36958037D01*
X145450853Y-36992384D01*
X145507467Y-37009557D01*
X145646087Y-37083652D01*
X145663991Y-37093222D01*
X145684208Y-37109814D01*
X145801186Y-37205814D01*
X145884448Y-37307271D01*
X145913778Y-37343009D01*
X145913779Y-37343011D01*
X145997443Y-37499533D01*
X145997443Y-37499534D01*
X146048963Y-37669373D01*
X146066359Y-37846000D01*
X146048963Y-38022627D01*
X146026564Y-38096466D01*
X145997443Y-38192467D01*
X145925731Y-38326629D01*
X145913778Y-38348991D01*
X145884448Y-38384729D01*
X145801186Y-38486186D01*
X145699729Y-38569448D01*
X145663991Y-38598778D01*
X145663989Y-38598779D01*
X145507467Y-38682443D01*
X145450853Y-38699616D01*
X145337627Y-38733963D01*
X145271443Y-38740481D01*
X145205260Y-38747000D01*
X145116740Y-38747000D01*
X145050557Y-38740481D01*
X144984373Y-38733963D01*
X144871147Y-38699616D01*
X144814533Y-38682443D01*
X144658011Y-38598779D01*
X144658009Y-38598778D01*
X144622271Y-38569448D01*
X144520814Y-38486186D01*
X144437552Y-38384729D01*
X144408222Y-38348991D01*
X144396269Y-38326629D01*
X144324557Y-38192467D01*
X144295436Y-38096466D01*
X144273037Y-38022627D01*
X144255641Y-37846000D01*
X144273037Y-37669373D01*
X144324557Y-37499534D01*
X144324557Y-37499533D01*
X144408221Y-37343011D01*
X144408222Y-37343009D01*
X144437552Y-37307271D01*
X144520814Y-37205814D01*
X144637792Y-37109814D01*
X144658009Y-37093222D01*
X144675913Y-37083652D01*
X144814533Y-37009557D01*
X144871147Y-36992384D01*
X144984373Y-36958037D01*
X145050557Y-36951519D01*
X145116740Y-36945000D01*
X145205260Y-36945000D01*
X145271443Y-36951519D01*
X145271443Y-36951519D01*
G37*
G36*
X147811443Y-36951519D02*
X147877627Y-36958037D01*
X147990853Y-36992384D01*
X148047467Y-37009557D01*
X148186087Y-37083652D01*
X148203991Y-37093222D01*
X148224208Y-37109814D01*
X148341186Y-37205814D01*
X148424448Y-37307271D01*
X148453778Y-37343009D01*
X148453779Y-37343011D01*
X148537443Y-37499533D01*
X148537443Y-37499534D01*
X148588963Y-37669373D01*
X148606359Y-37846000D01*
X148588963Y-38022627D01*
X148566564Y-38096466D01*
X148537443Y-38192467D01*
X148465731Y-38326629D01*
X148453778Y-38348991D01*
X148424448Y-38384729D01*
X148341186Y-38486186D01*
X148239729Y-38569448D01*
X148203991Y-38598778D01*
X148203989Y-38598779D01*
X148047467Y-38682443D01*
X147990853Y-38699616D01*
X147877627Y-38733963D01*
X147811443Y-38740481D01*
X147745260Y-38747000D01*
X147656740Y-38747000D01*
X147590557Y-38740481D01*
X147524373Y-38733963D01*
X147411147Y-38699616D01*
X147354533Y-38682443D01*
X147198011Y-38598779D01*
X147198009Y-38598778D01*
X147162271Y-38569448D01*
X147060814Y-38486186D01*
X146977552Y-38384729D01*
X146948222Y-38348991D01*
X146936269Y-38326629D01*
X146864557Y-38192467D01*
X146835436Y-38096466D01*
X146813037Y-38022627D01*
X146795641Y-37846000D01*
X146813037Y-37669373D01*
X146864557Y-37499534D01*
X146864557Y-37499533D01*
X146948221Y-37343011D01*
X146948222Y-37343009D01*
X146977552Y-37307271D01*
X147060814Y-37205814D01*
X147177792Y-37109814D01*
X147198009Y-37093222D01*
X147215913Y-37083652D01*
X147354533Y-37009557D01*
X147411147Y-36992384D01*
X147524373Y-36958037D01*
X147590557Y-36951519D01*
X147656740Y-36945000D01*
X147745260Y-36945000D01*
X147811443Y-36951519D01*
X147811443Y-36951519D01*
G37*
G36*
X150351443Y-36951519D02*
X150417627Y-36958037D01*
X150530853Y-36992384D01*
X150587467Y-37009557D01*
X150726087Y-37083652D01*
X150743991Y-37093222D01*
X150764208Y-37109814D01*
X150881186Y-37205814D01*
X150964448Y-37307271D01*
X150993778Y-37343009D01*
X150993779Y-37343011D01*
X151077443Y-37499533D01*
X151077443Y-37499534D01*
X151128963Y-37669373D01*
X151146359Y-37846000D01*
X151128963Y-38022627D01*
X151106564Y-38096466D01*
X151077443Y-38192467D01*
X151005731Y-38326629D01*
X150993778Y-38348991D01*
X150964448Y-38384729D01*
X150881186Y-38486186D01*
X150779729Y-38569448D01*
X150743991Y-38598778D01*
X150743989Y-38598779D01*
X150587467Y-38682443D01*
X150530853Y-38699616D01*
X150417627Y-38733963D01*
X150351443Y-38740481D01*
X150285260Y-38747000D01*
X150196740Y-38747000D01*
X150130557Y-38740481D01*
X150064373Y-38733963D01*
X149951147Y-38699616D01*
X149894533Y-38682443D01*
X149738011Y-38598779D01*
X149738009Y-38598778D01*
X149702271Y-38569448D01*
X149600814Y-38486186D01*
X149517552Y-38384729D01*
X149488222Y-38348991D01*
X149476269Y-38326629D01*
X149404557Y-38192467D01*
X149375436Y-38096466D01*
X149353037Y-38022627D01*
X149335641Y-37846000D01*
X149353037Y-37669373D01*
X149404557Y-37499534D01*
X149404557Y-37499533D01*
X149488221Y-37343011D01*
X149488222Y-37343009D01*
X149517552Y-37307271D01*
X149600814Y-37205814D01*
X149717792Y-37109814D01*
X149738009Y-37093222D01*
X149755913Y-37083652D01*
X149894533Y-37009557D01*
X149951147Y-36992384D01*
X150064373Y-36958037D01*
X150130557Y-36951519D01*
X150196740Y-36945000D01*
X150285260Y-36945000D01*
X150351443Y-36951519D01*
X150351443Y-36951519D01*
G37*
G36*
X130822000Y-38747000D02*
X129020000Y-38747000D01*
X129020000Y-36945000D01*
X130822000Y-36945000D01*
X130822000Y-38747000D01*
X130822000Y-38747000D01*
G37*
G36*
X113838943Y-36951519D02*
X113905127Y-36958037D01*
X114018353Y-36992384D01*
X114074967Y-37009557D01*
X114213587Y-37083652D01*
X114231491Y-37093222D01*
X114251708Y-37109814D01*
X114368686Y-37205814D01*
X114451948Y-37307271D01*
X114481278Y-37343009D01*
X114481279Y-37343011D01*
X114564943Y-37499533D01*
X114564943Y-37499534D01*
X114616463Y-37669373D01*
X114633859Y-37846000D01*
X114616463Y-38022627D01*
X114594064Y-38096466D01*
X114564943Y-38192467D01*
X114493231Y-38326629D01*
X114481278Y-38348991D01*
X114451948Y-38384729D01*
X114368686Y-38486186D01*
X114267229Y-38569448D01*
X114231491Y-38598778D01*
X114231489Y-38598779D01*
X114074967Y-38682443D01*
X114018353Y-38699616D01*
X113905127Y-38733963D01*
X113838943Y-38740481D01*
X113772760Y-38747000D01*
X113684240Y-38747000D01*
X113618057Y-38740481D01*
X113551873Y-38733963D01*
X113438647Y-38699616D01*
X113382033Y-38682443D01*
X113225511Y-38598779D01*
X113225509Y-38598778D01*
X113189771Y-38569448D01*
X113088314Y-38486186D01*
X113005052Y-38384729D01*
X112975722Y-38348991D01*
X112963769Y-38326629D01*
X112892057Y-38192467D01*
X112862936Y-38096466D01*
X112840537Y-38022627D01*
X112823141Y-37846000D01*
X112840537Y-37669373D01*
X112892057Y-37499534D01*
X112892057Y-37499533D01*
X112975721Y-37343011D01*
X112975722Y-37343009D01*
X113005052Y-37307271D01*
X113088314Y-37205814D01*
X113205292Y-37109814D01*
X113225509Y-37093222D01*
X113243413Y-37083652D01*
X113382033Y-37009557D01*
X113438647Y-36992384D01*
X113551873Y-36958037D01*
X113618057Y-36951519D01*
X113684240Y-36945000D01*
X113772760Y-36945000D01*
X113838943Y-36951519D01*
X113838943Y-36951519D01*
G37*
G36*
X111298943Y-36951519D02*
X111365127Y-36958037D01*
X111478353Y-36992384D01*
X111534967Y-37009557D01*
X111673587Y-37083652D01*
X111691491Y-37093222D01*
X111711708Y-37109814D01*
X111828686Y-37205814D01*
X111911948Y-37307271D01*
X111941278Y-37343009D01*
X111941279Y-37343011D01*
X112024943Y-37499533D01*
X112024943Y-37499534D01*
X112076463Y-37669373D01*
X112093859Y-37846000D01*
X112076463Y-38022627D01*
X112054064Y-38096466D01*
X112024943Y-38192467D01*
X111953231Y-38326629D01*
X111941278Y-38348991D01*
X111911948Y-38384729D01*
X111828686Y-38486186D01*
X111727229Y-38569448D01*
X111691491Y-38598778D01*
X111691489Y-38598779D01*
X111534967Y-38682443D01*
X111478353Y-38699616D01*
X111365127Y-38733963D01*
X111298943Y-38740481D01*
X111232760Y-38747000D01*
X111144240Y-38747000D01*
X111078057Y-38740481D01*
X111011873Y-38733963D01*
X110898647Y-38699616D01*
X110842033Y-38682443D01*
X110685511Y-38598779D01*
X110685509Y-38598778D01*
X110649771Y-38569448D01*
X110548314Y-38486186D01*
X110465052Y-38384729D01*
X110435722Y-38348991D01*
X110423769Y-38326629D01*
X110352057Y-38192467D01*
X110322936Y-38096466D01*
X110300537Y-38022627D01*
X110283141Y-37846000D01*
X110300537Y-37669373D01*
X110352057Y-37499534D01*
X110352057Y-37499533D01*
X110435721Y-37343011D01*
X110435722Y-37343009D01*
X110465052Y-37307271D01*
X110548314Y-37205814D01*
X110665292Y-37109814D01*
X110685509Y-37093222D01*
X110703413Y-37083652D01*
X110842033Y-37009557D01*
X110898647Y-36992384D01*
X111011873Y-36958037D01*
X111078057Y-36951519D01*
X111144240Y-36945000D01*
X111232760Y-36945000D01*
X111298943Y-36951519D01*
X111298943Y-36951519D01*
G37*
G36*
X108758943Y-36951519D02*
X108825127Y-36958037D01*
X108938353Y-36992384D01*
X108994967Y-37009557D01*
X109133587Y-37083652D01*
X109151491Y-37093222D01*
X109171708Y-37109814D01*
X109288686Y-37205814D01*
X109371948Y-37307271D01*
X109401278Y-37343009D01*
X109401279Y-37343011D01*
X109484943Y-37499533D01*
X109484943Y-37499534D01*
X109536463Y-37669373D01*
X109553859Y-37846000D01*
X109536463Y-38022627D01*
X109514064Y-38096466D01*
X109484943Y-38192467D01*
X109413231Y-38326629D01*
X109401278Y-38348991D01*
X109371948Y-38384729D01*
X109288686Y-38486186D01*
X109187229Y-38569448D01*
X109151491Y-38598778D01*
X109151489Y-38598779D01*
X108994967Y-38682443D01*
X108938353Y-38699616D01*
X108825127Y-38733963D01*
X108758943Y-38740481D01*
X108692760Y-38747000D01*
X108604240Y-38747000D01*
X108538057Y-38740481D01*
X108471873Y-38733963D01*
X108358647Y-38699616D01*
X108302033Y-38682443D01*
X108145511Y-38598779D01*
X108145509Y-38598778D01*
X108109771Y-38569448D01*
X108008314Y-38486186D01*
X107925052Y-38384729D01*
X107895722Y-38348991D01*
X107883769Y-38326629D01*
X107812057Y-38192467D01*
X107782936Y-38096466D01*
X107760537Y-38022627D01*
X107743141Y-37846000D01*
X107760537Y-37669373D01*
X107812057Y-37499534D01*
X107812057Y-37499533D01*
X107895721Y-37343011D01*
X107895722Y-37343009D01*
X107925052Y-37307271D01*
X108008314Y-37205814D01*
X108125292Y-37109814D01*
X108145509Y-37093222D01*
X108163413Y-37083652D01*
X108302033Y-37009557D01*
X108358647Y-36992384D01*
X108471873Y-36958037D01*
X108538057Y-36951519D01*
X108604240Y-36945000D01*
X108692760Y-36945000D01*
X108758943Y-36951519D01*
X108758943Y-36951519D01*
G37*
G36*
X106218943Y-36951519D02*
X106285127Y-36958037D01*
X106398353Y-36992384D01*
X106454967Y-37009557D01*
X106593587Y-37083652D01*
X106611491Y-37093222D01*
X106631708Y-37109814D01*
X106748686Y-37205814D01*
X106831948Y-37307271D01*
X106861278Y-37343009D01*
X106861279Y-37343011D01*
X106944943Y-37499533D01*
X106944943Y-37499534D01*
X106996463Y-37669373D01*
X107013859Y-37846000D01*
X106996463Y-38022627D01*
X106974064Y-38096466D01*
X106944943Y-38192467D01*
X106873231Y-38326629D01*
X106861278Y-38348991D01*
X106831948Y-38384729D01*
X106748686Y-38486186D01*
X106647229Y-38569448D01*
X106611491Y-38598778D01*
X106611489Y-38598779D01*
X106454967Y-38682443D01*
X106398353Y-38699616D01*
X106285127Y-38733963D01*
X106218943Y-38740481D01*
X106152760Y-38747000D01*
X106064240Y-38747000D01*
X105998057Y-38740481D01*
X105931873Y-38733963D01*
X105818647Y-38699616D01*
X105762033Y-38682443D01*
X105605511Y-38598779D01*
X105605509Y-38598778D01*
X105569771Y-38569448D01*
X105468314Y-38486186D01*
X105385052Y-38384729D01*
X105355722Y-38348991D01*
X105343769Y-38326629D01*
X105272057Y-38192467D01*
X105242936Y-38096466D01*
X105220537Y-38022627D01*
X105203141Y-37846000D01*
X105220537Y-37669373D01*
X105272057Y-37499534D01*
X105272057Y-37499533D01*
X105355721Y-37343011D01*
X105355722Y-37343009D01*
X105385052Y-37307271D01*
X105468314Y-37205814D01*
X105585292Y-37109814D01*
X105605509Y-37093222D01*
X105623413Y-37083652D01*
X105762033Y-37009557D01*
X105818647Y-36992384D01*
X105931873Y-36958037D01*
X105998057Y-36951519D01*
X106064240Y-36945000D01*
X106152760Y-36945000D01*
X106218943Y-36951519D01*
X106218943Y-36951519D01*
G37*
G36*
X101138943Y-36951519D02*
X101205127Y-36958037D01*
X101318353Y-36992384D01*
X101374967Y-37009557D01*
X101513587Y-37083652D01*
X101531491Y-37093222D01*
X101551708Y-37109814D01*
X101668686Y-37205814D01*
X101751948Y-37307271D01*
X101781278Y-37343009D01*
X101781279Y-37343011D01*
X101864943Y-37499533D01*
X101864943Y-37499534D01*
X101916463Y-37669373D01*
X101933859Y-37846000D01*
X101916463Y-38022627D01*
X101894064Y-38096466D01*
X101864943Y-38192467D01*
X101793231Y-38326629D01*
X101781278Y-38348991D01*
X101751948Y-38384729D01*
X101668686Y-38486186D01*
X101567229Y-38569448D01*
X101531491Y-38598778D01*
X101531489Y-38598779D01*
X101374967Y-38682443D01*
X101318353Y-38699616D01*
X101205127Y-38733963D01*
X101138943Y-38740481D01*
X101072760Y-38747000D01*
X100984240Y-38747000D01*
X100918057Y-38740481D01*
X100851873Y-38733963D01*
X100738647Y-38699616D01*
X100682033Y-38682443D01*
X100525511Y-38598779D01*
X100525509Y-38598778D01*
X100489771Y-38569448D01*
X100388314Y-38486186D01*
X100305052Y-38384729D01*
X100275722Y-38348991D01*
X100263769Y-38326629D01*
X100192057Y-38192467D01*
X100162936Y-38096466D01*
X100140537Y-38022627D01*
X100123141Y-37846000D01*
X100140537Y-37669373D01*
X100192057Y-37499534D01*
X100192057Y-37499533D01*
X100275721Y-37343011D01*
X100275722Y-37343009D01*
X100305052Y-37307271D01*
X100388314Y-37205814D01*
X100505292Y-37109814D01*
X100525509Y-37093222D01*
X100543413Y-37083652D01*
X100682033Y-37009557D01*
X100738647Y-36992384D01*
X100851873Y-36958037D01*
X100918057Y-36951519D01*
X100984240Y-36945000D01*
X101072760Y-36945000D01*
X101138943Y-36951519D01*
X101138943Y-36951519D01*
G37*
G36*
X239301000Y-38651000D02*
X237499000Y-38651000D01*
X237499000Y-36849000D01*
X239301000Y-36849000D01*
X239301000Y-38651000D01*
X239301000Y-38651000D01*
G37*
G36*
X235970443Y-36855519D02*
X236036627Y-36862037D01*
X236149853Y-36896384D01*
X236206467Y-36913557D01*
X236289682Y-36958037D01*
X236362991Y-36997222D01*
X236378645Y-37010069D01*
X236500186Y-37109814D01*
X236578970Y-37205814D01*
X236612778Y-37247009D01*
X236612779Y-37247011D01*
X236696443Y-37403533D01*
X236696443Y-37403534D01*
X236747963Y-37573373D01*
X236765359Y-37750000D01*
X236747963Y-37926627D01*
X236718842Y-38022625D01*
X236696443Y-38096467D01*
X236645130Y-38192466D01*
X236612778Y-38252991D01*
X236583448Y-38288729D01*
X236500186Y-38390186D01*
X236401498Y-38471176D01*
X236362991Y-38502778D01*
X236362989Y-38502779D01*
X236206467Y-38586443D01*
X236165803Y-38598778D01*
X236036627Y-38637963D01*
X235970442Y-38644482D01*
X235904260Y-38651000D01*
X235815740Y-38651000D01*
X235749558Y-38644482D01*
X235683373Y-38637963D01*
X235554197Y-38598778D01*
X235513533Y-38586443D01*
X235357011Y-38502779D01*
X235357009Y-38502778D01*
X235318502Y-38471176D01*
X235219814Y-38390186D01*
X235136552Y-38288729D01*
X235107222Y-38252991D01*
X235074870Y-38192466D01*
X235023557Y-38096467D01*
X235001158Y-38022625D01*
X234972037Y-37926627D01*
X234954641Y-37750000D01*
X234972037Y-37573373D01*
X235023557Y-37403534D01*
X235023557Y-37403533D01*
X235107221Y-37247011D01*
X235107222Y-37247009D01*
X235141030Y-37205814D01*
X235219814Y-37109814D01*
X235341355Y-37010069D01*
X235357009Y-36997222D01*
X235430318Y-36958037D01*
X235513533Y-36913557D01*
X235570147Y-36896384D01*
X235683373Y-36862037D01*
X235749557Y-36855519D01*
X235815740Y-36849000D01*
X235904260Y-36849000D01*
X235970443Y-36855519D01*
X235970443Y-36855519D01*
G37*
M02*
