%TF.GenerationSoftware,KiCad,Pcbnew,(5.0.1)-4*%
%TF.CreationDate,2018-12-18T14:51:31-07:00*%
%TF.ProjectId,SprinklerControllerSTM,537072696E6B6C6572436F6E74726F6C,rev?*%
%TF.SameCoordinates,Original*%
%TF.FileFunction,Other,User*%
%FSLAX46Y46*%
G04 Gerber Fmt 4.6, Leading zero omitted, Abs format (unit mm)*
G04 Created by KiCad (PCBNEW (5.0.1)-4) date 12/18/2018 2:51:31 PM*
%MOMM*%
%LPD*%
G01*
G04 APERTURE LIST*
%ADD10C,0.050000*%
%ADD11C,0.150000*%
G04 APERTURE END LIST*
D10*
X144730000Y-132420000D02*
X144730000Y-133880000D01*
X144730000Y-133880000D02*
X141770000Y-133880000D01*
X141770000Y-133880000D02*
X141770000Y-132420000D01*
X141770000Y-132420000D02*
X144730000Y-132420000D01*
X203000000Y-140200000D02*
X203000000Y-131400000D01*
X195800000Y-140200000D02*
X203000000Y-140200000D01*
X195800000Y-131400000D02*
X195800000Y-140200000D01*
X203000000Y-131400000D02*
X195800000Y-131400000D01*
X145762000Y-122686000D02*
X145762000Y-119286000D01*
X145762000Y-119286000D02*
X141562000Y-119286000D01*
X141562000Y-119286000D02*
X141562000Y-122686000D01*
X141562000Y-122686000D02*
X145762000Y-122686000D01*
X178112000Y-140386000D02*
X174112000Y-140386000D01*
X178112000Y-142686000D02*
X174112000Y-142686000D01*
X178112000Y-140386000D02*
X178112000Y-142686000D01*
X174112000Y-142686000D02*
X174112000Y-140386000D01*
X131852000Y-105188000D02*
X141352000Y-105188000D01*
X131852000Y-109188000D02*
X131852000Y-105188000D01*
X141352000Y-109188000D02*
X131852000Y-109188000D01*
X141352000Y-105188000D02*
X141352000Y-109188000D01*
X111220000Y-106960000D02*
X111220000Y-116460000D01*
X107220000Y-106960000D02*
X111220000Y-106960000D01*
X107220000Y-116460000D02*
X107220000Y-106960000D01*
X111220000Y-116460000D02*
X107220000Y-116460000D01*
X119602000Y-106960000D02*
X119602000Y-116460000D01*
X115602000Y-106960000D02*
X119602000Y-106960000D01*
X115602000Y-116460000D02*
X115602000Y-106960000D01*
X119602000Y-116460000D02*
X115602000Y-116460000D01*
X127222000Y-116460000D02*
X123222000Y-116460000D01*
X123222000Y-116460000D02*
X123222000Y-106960000D01*
X123222000Y-106960000D02*
X127222000Y-106960000D01*
X127222000Y-106960000D02*
X127222000Y-116460000D01*
X207412000Y-118536000D02*
X209712000Y-118536000D01*
X209712000Y-122536000D02*
X207412000Y-122536000D01*
X207412000Y-122536000D02*
X207412000Y-118536000D01*
X209712000Y-122536000D02*
X209712000Y-118536000D01*
X203650000Y-131500000D02*
X203650000Y-135100000D01*
X203650000Y-135100000D02*
X207250000Y-135100000D01*
X207250000Y-135100000D02*
X207250000Y-131500000D01*
X207250000Y-131500000D02*
X203650000Y-131500000D01*
X101200000Y-144200000D02*
X117500000Y-144200000D01*
X117500000Y-144200000D02*
X117500000Y-140600000D01*
X117500000Y-140600000D02*
X101200000Y-140600000D01*
X101200000Y-140600000D02*
X101200000Y-144200000D01*
X88400000Y-144186000D02*
X99600000Y-144186000D01*
X99600000Y-144186000D02*
X99600000Y-140586000D01*
X99600000Y-140586000D02*
X88400000Y-140586000D01*
X88400000Y-140586000D02*
X88400000Y-144186000D01*
X180470000Y-123050000D02*
X191670000Y-123050000D01*
X191670000Y-123050000D02*
X191670000Y-119450000D01*
X191670000Y-119450000D02*
X180470000Y-119450000D01*
X180470000Y-119450000D02*
X180470000Y-123050000D01*
X82560330Y-123146000D02*
X81100330Y-123146000D01*
X81100330Y-123146000D02*
X81100330Y-120186000D01*
X81100330Y-120186000D02*
X82560330Y-120186000D01*
X82560330Y-120186000D02*
X82560330Y-123146000D01*
X80316664Y-120186000D02*
X80316664Y-123146000D01*
X78856664Y-120186000D02*
X80316664Y-120186000D01*
X78856664Y-123146000D02*
X78856664Y-120186000D01*
X80316664Y-123146000D02*
X78856664Y-123146000D01*
X78072998Y-123146000D02*
X76612998Y-123146000D01*
X76612998Y-123146000D02*
X76612998Y-120186000D01*
X76612998Y-120186000D02*
X78072998Y-120186000D01*
X78072998Y-120186000D02*
X78072998Y-123146000D01*
X75829332Y-120186000D02*
X75829332Y-123146000D01*
X74369332Y-120186000D02*
X75829332Y-120186000D01*
X74369332Y-123146000D02*
X74369332Y-120186000D01*
X75829332Y-123146000D02*
X74369332Y-123146000D01*
X73585666Y-123146000D02*
X72125666Y-123146000D01*
X72125666Y-123146000D02*
X72125666Y-120186000D01*
X72125666Y-120186000D02*
X73585666Y-120186000D01*
X73585666Y-120186000D02*
X73585666Y-123146000D01*
X71342000Y-120186000D02*
X71342000Y-123146000D01*
X69882000Y-120186000D02*
X71342000Y-120186000D01*
X69882000Y-123146000D02*
X69882000Y-120186000D01*
X71342000Y-123146000D02*
X69882000Y-123146000D01*
X84804000Y-123146000D02*
X83344000Y-123146000D01*
X83344000Y-123146000D02*
X83344000Y-120186000D01*
X83344000Y-120186000D02*
X84804000Y-120186000D01*
X84804000Y-120186000D02*
X84804000Y-123146000D01*
X57956000Y-135160000D02*
X60916000Y-135160000D01*
X57956000Y-136620000D02*
X57956000Y-135160000D01*
X60916000Y-136620000D02*
X57956000Y-136620000D01*
X60916000Y-135160000D02*
X60916000Y-136620000D01*
X60916000Y-129064000D02*
X60916000Y-130524000D01*
X60916000Y-130524000D02*
X57956000Y-130524000D01*
X57956000Y-130524000D02*
X57956000Y-129064000D01*
X57956000Y-129064000D02*
X60916000Y-129064000D01*
X57956000Y-131096000D02*
X60916000Y-131096000D01*
X57956000Y-132556000D02*
X57956000Y-131096000D01*
X60916000Y-132556000D02*
X57956000Y-132556000D01*
X60916000Y-131096000D02*
X60916000Y-132556000D01*
X60916000Y-133128000D02*
X60916000Y-134588000D01*
X60916000Y-134588000D02*
X57956000Y-134588000D01*
X57956000Y-134588000D02*
X57956000Y-133128000D01*
X57956000Y-133128000D02*
X60916000Y-133128000D01*
X49662000Y-138088000D02*
X55462000Y-138088000D01*
X55462000Y-138088000D02*
X55462000Y-127088000D01*
X55462000Y-127088000D02*
X49662000Y-127088000D01*
X49662000Y-127088000D02*
X49662000Y-138088000D01*
X71174000Y-145024000D02*
X71174000Y-127324000D01*
X86874000Y-145024000D02*
X71174000Y-145024000D01*
X86874000Y-127324000D02*
X86874000Y-145024000D01*
X71174000Y-127324000D02*
X86874000Y-127324000D01*
D11*
X240562000Y-119136000D02*
X240562000Y-107136000D01*
X246562000Y-119136000D02*
X240562000Y-119136000D01*
X246562000Y-107136000D02*
X246562000Y-119136000D01*
X240562000Y-107136000D02*
X246562000Y-107136000D01*
X226562000Y-107136000D02*
X220562000Y-107136000D01*
X226562000Y-119136000D02*
X226562000Y-107136000D01*
X220562000Y-119136000D02*
X226562000Y-119136000D01*
X220562000Y-107136000D02*
X220562000Y-119136000D01*
D10*
X54824000Y-38100000D02*
G75*
G03X54824000Y-38100000I-2500000J0D01*
G01*
X50802000Y-83896000D02*
X50802000Y-95996000D01*
X59002000Y-83896000D02*
X50802000Y-83896000D01*
X59002000Y-95996000D02*
X59002000Y-83896000D01*
X50802000Y-95996000D02*
X59002000Y-95996000D01*
X99178840Y-82316000D02*
X107378840Y-82316000D01*
X107378840Y-82316000D02*
X107378840Y-70216000D01*
X107378840Y-70216000D02*
X99178840Y-70216000D01*
X99178840Y-70216000D02*
X99178840Y-82316000D01*
X118484629Y-83896000D02*
X118484629Y-95996000D01*
X126684629Y-83896000D02*
X118484629Y-83896000D01*
X126684629Y-95996000D02*
X126684629Y-83896000D01*
X118484629Y-95996000D02*
X126684629Y-95996000D01*
X108815682Y-95996000D02*
X117015682Y-95996000D01*
X117015682Y-95996000D02*
X117015682Y-83896000D01*
X117015682Y-83896000D02*
X108815682Y-83896000D01*
X108815682Y-83896000D02*
X108815682Y-95996000D01*
X99146735Y-83896000D02*
X99146735Y-95996000D01*
X107346735Y-83896000D02*
X99146735Y-83896000D01*
X107346735Y-95996000D02*
X107346735Y-83896000D01*
X99146735Y-95996000D02*
X107346735Y-95996000D01*
X89477788Y-95996000D02*
X97677788Y-95996000D01*
X97677788Y-95996000D02*
X97677788Y-83896000D01*
X97677788Y-83896000D02*
X89477788Y-83896000D01*
X89477788Y-83896000D02*
X89477788Y-95996000D01*
X234582000Y-70216000D02*
X234582000Y-82316000D01*
X242782000Y-70216000D02*
X234582000Y-70216000D01*
X242782000Y-82316000D02*
X242782000Y-70216000D01*
X234582000Y-82316000D02*
X242782000Y-82316000D01*
X224854624Y-82316000D02*
X233054624Y-82316000D01*
X233054624Y-82316000D02*
X233054624Y-70216000D01*
X233054624Y-70216000D02*
X224854624Y-70216000D01*
X224854624Y-70216000D02*
X224854624Y-82316000D01*
X215187256Y-70216000D02*
X215187256Y-82316000D01*
X223387256Y-70216000D02*
X215187256Y-70216000D01*
X223387256Y-82316000D02*
X223387256Y-70216000D01*
X215187256Y-82316000D02*
X223387256Y-82316000D01*
X60470947Y-95996000D02*
X68670947Y-95996000D01*
X68670947Y-95996000D02*
X68670947Y-83896000D01*
X68670947Y-83896000D02*
X60470947Y-83896000D01*
X60470947Y-83896000D02*
X60470947Y-95996000D01*
X205519888Y-70216000D02*
X205519888Y-82316000D01*
X213719888Y-70216000D02*
X205519888Y-70216000D01*
X213719888Y-82316000D02*
X213719888Y-70216000D01*
X205519888Y-82316000D02*
X213719888Y-82316000D01*
X234582000Y-95876000D02*
X242782000Y-95876000D01*
X242782000Y-95876000D02*
X242782000Y-83776000D01*
X242782000Y-83776000D02*
X234582000Y-83776000D01*
X234582000Y-83776000D02*
X234582000Y-95876000D01*
X224843046Y-83776000D02*
X224843046Y-95876000D01*
X233043046Y-83776000D02*
X224843046Y-83776000D01*
X233043046Y-95876000D02*
X233043046Y-83776000D01*
X224843046Y-95876000D02*
X233043046Y-95876000D01*
X215174099Y-95876000D02*
X223374099Y-95876000D01*
X223374099Y-95876000D02*
X223374099Y-83776000D01*
X223374099Y-83776000D02*
X215174099Y-83776000D01*
X215174099Y-83776000D02*
X215174099Y-95876000D01*
X205505152Y-83776000D02*
X205505152Y-95876000D01*
X213705152Y-83776000D02*
X205505152Y-83776000D01*
X213705152Y-95876000D02*
X213705152Y-83776000D01*
X205505152Y-95876000D02*
X213705152Y-95876000D01*
X79844104Y-82316000D02*
X88044104Y-82316000D01*
X88044104Y-82316000D02*
X88044104Y-70216000D01*
X88044104Y-70216000D02*
X79844104Y-70216000D01*
X79844104Y-70216000D02*
X79844104Y-82316000D01*
X70176736Y-70216000D02*
X70176736Y-82316000D01*
X78376736Y-70216000D02*
X70176736Y-70216000D01*
X78376736Y-82316000D02*
X78376736Y-70216000D01*
X70176736Y-82316000D02*
X78376736Y-82316000D01*
X60509368Y-82316000D02*
X68709368Y-82316000D01*
X68709368Y-82316000D02*
X68709368Y-70216000D01*
X68709368Y-70216000D02*
X60509368Y-70216000D01*
X60509368Y-70216000D02*
X60509368Y-82316000D01*
X50812000Y-70216000D02*
X50812000Y-82316000D01*
X59012000Y-70216000D02*
X50812000Y-70216000D01*
X59012000Y-82316000D02*
X59012000Y-70216000D01*
X50812000Y-82316000D02*
X59012000Y-82316000D01*
X70139894Y-95996000D02*
X78339894Y-95996000D01*
X78339894Y-95996000D02*
X78339894Y-83896000D01*
X78339894Y-83896000D02*
X70139894Y-83896000D01*
X70139894Y-83896000D02*
X70139894Y-95996000D01*
X89511472Y-70216000D02*
X89511472Y-82316000D01*
X97711472Y-70216000D02*
X89511472Y-70216000D01*
X97711472Y-82316000D02*
X97711472Y-70216000D01*
X89511472Y-82316000D02*
X97711472Y-82316000D01*
X195852520Y-82316000D02*
X204052520Y-82316000D01*
X204052520Y-82316000D02*
X204052520Y-70216000D01*
X204052520Y-70216000D02*
X195852520Y-70216000D01*
X195852520Y-70216000D02*
X195852520Y-82316000D01*
X157183048Y-70216000D02*
X157183048Y-82316000D01*
X165383048Y-70216000D02*
X157183048Y-70216000D01*
X165383048Y-82316000D02*
X165383048Y-70216000D01*
X157183048Y-82316000D02*
X165383048Y-82316000D01*
X147515680Y-82316000D02*
X155715680Y-82316000D01*
X155715680Y-82316000D02*
X155715680Y-70216000D01*
X155715680Y-70216000D02*
X147515680Y-70216000D01*
X147515680Y-70216000D02*
X147515680Y-82316000D01*
X137848312Y-70216000D02*
X137848312Y-82316000D01*
X146048312Y-70216000D02*
X137848312Y-70216000D01*
X146048312Y-82316000D02*
X146048312Y-70216000D01*
X137848312Y-82316000D02*
X146048312Y-82316000D01*
X128180944Y-82316000D02*
X136380944Y-82316000D01*
X136380944Y-82316000D02*
X136380944Y-70216000D01*
X136380944Y-70216000D02*
X128180944Y-70216000D01*
X128180944Y-70216000D02*
X128180944Y-82316000D01*
X157160417Y-83896000D02*
X157160417Y-95996000D01*
X165360417Y-83896000D02*
X157160417Y-83896000D01*
X165360417Y-95996000D02*
X165360417Y-83896000D01*
X157160417Y-95996000D02*
X165360417Y-95996000D01*
X147491470Y-95996000D02*
X155691470Y-95996000D01*
X155691470Y-95996000D02*
X155691470Y-83896000D01*
X155691470Y-83896000D02*
X147491470Y-83896000D01*
X147491470Y-83896000D02*
X147491470Y-95996000D01*
X137822523Y-83896000D02*
X137822523Y-95996000D01*
X146022523Y-83896000D02*
X137822523Y-83896000D01*
X146022523Y-95996000D02*
X146022523Y-83896000D01*
X137822523Y-95996000D02*
X146022523Y-95996000D01*
X128153576Y-95996000D02*
X136353576Y-95996000D01*
X136353576Y-95996000D02*
X136353576Y-83896000D01*
X136353576Y-83896000D02*
X128153576Y-83896000D01*
X128153576Y-83896000D02*
X128153576Y-95996000D01*
X186185152Y-70216000D02*
X186185152Y-82316000D01*
X194385152Y-70216000D02*
X186185152Y-70216000D01*
X194385152Y-82316000D02*
X194385152Y-70216000D01*
X186185152Y-82316000D02*
X194385152Y-82316000D01*
X176517784Y-82316000D02*
X184717784Y-82316000D01*
X184717784Y-82316000D02*
X184717784Y-70216000D01*
X184717784Y-70216000D02*
X176517784Y-70216000D01*
X176517784Y-70216000D02*
X176517784Y-82316000D01*
X166850416Y-70216000D02*
X166850416Y-82316000D01*
X175050416Y-70216000D02*
X166850416Y-70216000D01*
X175050416Y-82316000D02*
X175050416Y-70216000D01*
X166850416Y-82316000D02*
X175050416Y-82316000D01*
X195836205Y-95876000D02*
X204036205Y-95876000D01*
X204036205Y-95876000D02*
X204036205Y-83776000D01*
X204036205Y-83776000D02*
X195836205Y-83776000D01*
X195836205Y-83776000D02*
X195836205Y-95876000D01*
X186167258Y-83646000D02*
X186167258Y-95746000D01*
X194367258Y-83646000D02*
X186167258Y-83646000D01*
X194367258Y-95746000D02*
X194367258Y-83646000D01*
X186167258Y-95746000D02*
X194367258Y-95746000D01*
X176498311Y-95746000D02*
X184698311Y-95746000D01*
X184698311Y-95746000D02*
X184698311Y-83646000D01*
X184698311Y-83646000D02*
X176498311Y-83646000D01*
X176498311Y-83646000D02*
X176498311Y-95746000D01*
X166829364Y-83646000D02*
X166829364Y-95746000D01*
X175029364Y-83646000D02*
X166829364Y-83646000D01*
X175029364Y-95746000D02*
X175029364Y-83646000D01*
X166829364Y-95746000D02*
X175029364Y-95746000D01*
X118513576Y-82316000D02*
X126713576Y-82316000D01*
X126713576Y-82316000D02*
X126713576Y-70216000D01*
X126713576Y-70216000D02*
X118513576Y-70216000D01*
X118513576Y-70216000D02*
X118513576Y-82316000D01*
X79808841Y-83896000D02*
X79808841Y-95996000D01*
X88008841Y-83896000D02*
X79808841Y-83896000D01*
X88008841Y-95996000D02*
X88008841Y-83896000D01*
X79808841Y-95996000D02*
X88008841Y-95996000D01*
X108846208Y-82316000D02*
X117046208Y-82316000D01*
X117046208Y-82316000D02*
X117046208Y-70216000D01*
X117046208Y-70216000D02*
X108846208Y-70216000D01*
X108846208Y-70216000D02*
X108846208Y-82316000D01*
X87100000Y-123720000D02*
X95750000Y-123720000D01*
X95750000Y-123720000D02*
X95750000Y-120120000D01*
X95750000Y-120120000D02*
X87100000Y-120120000D01*
X87100000Y-120120000D02*
X87100000Y-123720000D01*
X51476982Y-113069482D02*
G75*
G03X50146000Y-117094000I5419018J-4024518D01*
G01*
X51463142Y-121118710D02*
G75*
G02X51246000Y-121314000I-3717142J3914710D01*
G01*
X51475040Y-113069612D02*
G75*
G03X51246000Y-112874000I-3729040J-4134388D01*
G01*
X51476982Y-121118518D02*
G75*
G02X50146000Y-117094000I5419018J4024518D01*
G01*
X52846000Y-124344000D02*
G75*
G02X50796000Y-122394000I-50000J2000000D01*
G01*
X50813565Y-122607125D02*
G75*
G02X51246000Y-121314000I1482435J223125D01*
G01*
X50813565Y-111580875D02*
G75*
G03X51246000Y-112874000I1482435J-223125D01*
G01*
X52846000Y-109844000D02*
G75*
G03X50796000Y-111794000I-50000J-2000000D01*
G01*
X54746000Y-109844000D02*
X52796000Y-109844000D01*
X54746000Y-124344000D02*
X52796000Y-124344000D01*
X59046000Y-124344000D02*
X60696000Y-124344000D01*
X60696000Y-124344000D02*
X63296000Y-121744000D01*
X63296000Y-121744000D02*
X64246000Y-121744000D01*
X64246000Y-112444000D02*
X64246000Y-121744000D01*
X63296000Y-112444000D02*
X64246000Y-112444000D01*
X60696000Y-109844000D02*
X63296000Y-112444000D01*
X59046000Y-109844000D02*
X60696000Y-109844000D01*
X59046000Y-109844000D02*
X59046000Y-106944000D01*
X59046000Y-106944000D02*
X54746000Y-106944000D01*
X54746000Y-106944000D02*
X54746000Y-109844000D01*
X59046000Y-124344000D02*
X59046000Y-127244000D01*
X59046000Y-127244000D02*
X54746000Y-127244000D01*
X54746000Y-127244000D02*
X54746000Y-124344000D01*
X97062000Y-123661000D02*
X105712000Y-123661000D01*
X105712000Y-123661000D02*
X105712000Y-120061000D01*
X105712000Y-120061000D02*
X97062000Y-120061000D01*
X97062000Y-120061000D02*
X97062000Y-123661000D01*
X119932000Y-113506000D02*
X119932000Y-112046000D01*
X119932000Y-112046000D02*
X122892000Y-112046000D01*
X122892000Y-112046000D02*
X122892000Y-113506000D01*
X122892000Y-113506000D02*
X119932000Y-113506000D01*
X115018000Y-114268000D02*
X112058000Y-114268000D01*
X115018000Y-112808000D02*
X115018000Y-114268000D01*
X112058000Y-112808000D02*
X115018000Y-112808000D01*
X112058000Y-114268000D02*
X112058000Y-112808000D01*
X127806000Y-113506000D02*
X127806000Y-112046000D01*
X127806000Y-112046000D02*
X130766000Y-112046000D01*
X130766000Y-112046000D02*
X130766000Y-113506000D01*
X130766000Y-113506000D02*
X127806000Y-113506000D01*
X130766000Y-108744000D02*
X130766000Y-110204000D01*
X130766000Y-110204000D02*
X127806000Y-110204000D01*
X127806000Y-110204000D02*
X127806000Y-108744000D01*
X127806000Y-108744000D02*
X130766000Y-108744000D01*
X112058000Y-108744000D02*
X115018000Y-108744000D01*
X112058000Y-110204000D02*
X112058000Y-108744000D01*
X115018000Y-110204000D02*
X112058000Y-110204000D01*
X115018000Y-108744000D02*
X115018000Y-110204000D01*
X122892000Y-108744000D02*
X122892000Y-110204000D01*
X122892000Y-110204000D02*
X119932000Y-110204000D01*
X119932000Y-110204000D02*
X119932000Y-108744000D01*
X119932000Y-108744000D02*
X122892000Y-108744000D01*
X125200000Y-123212000D02*
X131350000Y-123212000D01*
X131350000Y-123212000D02*
X131350000Y-119612000D01*
X131350000Y-119612000D02*
X125200000Y-119612000D01*
X125200000Y-119612000D02*
X125200000Y-123212000D01*
X174600000Y-130350000D02*
X188350000Y-130350000D01*
X188350000Y-130350000D02*
X188350000Y-126750000D01*
X188350000Y-126750000D02*
X174600000Y-126750000D01*
X174600000Y-126750000D02*
X174600000Y-130350000D01*
X214037000Y-105711000D02*
X197737000Y-105711000D01*
X197737000Y-105711000D02*
X197737000Y-109311000D01*
X197737000Y-109311000D02*
X214037000Y-109311000D01*
X214037000Y-109311000D02*
X214037000Y-105711000D01*
X157696993Y-101946000D02*
X160656993Y-101946000D01*
X157696993Y-103406000D02*
X157696993Y-101946000D01*
X160656993Y-103406000D02*
X157696993Y-103406000D01*
X160656993Y-101946000D02*
X160656993Y-103406000D01*
X150999935Y-101946000D02*
X150999935Y-103406000D01*
X150999935Y-103406000D02*
X148039935Y-103406000D01*
X148039935Y-103406000D02*
X148039935Y-101946000D01*
X148039935Y-101946000D02*
X150999935Y-101946000D01*
X138382877Y-101946000D02*
X141342877Y-101946000D01*
X138382877Y-103406000D02*
X138382877Y-101946000D01*
X141342877Y-103406000D02*
X138382877Y-103406000D01*
X141342877Y-101946000D02*
X141342877Y-103406000D01*
X131685819Y-101946000D02*
X131685819Y-103406000D01*
X131685819Y-103406000D02*
X128725819Y-103406000D01*
X128725819Y-103406000D02*
X128725819Y-101946000D01*
X128725819Y-101946000D02*
X131685819Y-101946000D01*
X126857290Y-103406000D02*
X123897290Y-103406000D01*
X126857290Y-101946000D02*
X126857290Y-103406000D01*
X123897290Y-101946000D02*
X126857290Y-101946000D01*
X123897290Y-103406000D02*
X123897290Y-101946000D01*
X114240232Y-103406000D02*
X114240232Y-101946000D01*
X114240232Y-101946000D02*
X117200232Y-101946000D01*
X117200232Y-101946000D02*
X117200232Y-103406000D01*
X117200232Y-103406000D02*
X114240232Y-103406000D01*
X107543174Y-103406000D02*
X104583174Y-103406000D01*
X107543174Y-101946000D02*
X107543174Y-103406000D01*
X104583174Y-101946000D02*
X107543174Y-101946000D01*
X104583174Y-103406000D02*
X104583174Y-101946000D01*
X97886116Y-101946000D02*
X97886116Y-103406000D01*
X97886116Y-103406000D02*
X94926116Y-103406000D01*
X94926116Y-103406000D02*
X94926116Y-101946000D01*
X94926116Y-101946000D02*
X97886116Y-101946000D01*
X119068761Y-101946000D02*
X122028761Y-101946000D01*
X119068761Y-103406000D02*
X119068761Y-101946000D01*
X122028761Y-103406000D02*
X119068761Y-103406000D01*
X122028761Y-101946000D02*
X122028761Y-103406000D01*
X112371703Y-101946000D02*
X112371703Y-103406000D01*
X112371703Y-103406000D02*
X109411703Y-103406000D01*
X109411703Y-103406000D02*
X109411703Y-101946000D01*
X109411703Y-101946000D02*
X112371703Y-101946000D01*
X90097587Y-101946000D02*
X93057587Y-101946000D01*
X90097587Y-103406000D02*
X90097587Y-101946000D01*
X93057587Y-103406000D02*
X90097587Y-103406000D01*
X93057587Y-101946000D02*
X93057587Y-103406000D01*
X85269058Y-103406000D02*
X85269058Y-101946000D01*
X85269058Y-101946000D02*
X88229058Y-101946000D01*
X88229058Y-101946000D02*
X88229058Y-103406000D01*
X88229058Y-103406000D02*
X85269058Y-103406000D01*
X78572000Y-103406000D02*
X75612000Y-103406000D01*
X78572000Y-101946000D02*
X78572000Y-103406000D01*
X75612000Y-101946000D02*
X78572000Y-101946000D01*
X75612000Y-103406000D02*
X75612000Y-101946000D01*
X65252000Y-103406000D02*
X65252000Y-101946000D01*
X65252000Y-101946000D02*
X68212000Y-101946000D01*
X68212000Y-101946000D02*
X68212000Y-103406000D01*
X68212000Y-103406000D02*
X65252000Y-103406000D01*
X58172000Y-103406000D02*
X55212000Y-103406000D01*
X58172000Y-101946000D02*
X58172000Y-103406000D01*
X55212000Y-101946000D02*
X58172000Y-101946000D01*
X55212000Y-103406000D02*
X55212000Y-101946000D01*
X83400529Y-101946000D02*
X83400529Y-103406000D01*
X83400529Y-103406000D02*
X80440529Y-103406000D01*
X80440529Y-103406000D02*
X80440529Y-101946000D01*
X80440529Y-101946000D02*
X83400529Y-101946000D01*
X71002000Y-101946000D02*
X73962000Y-101946000D01*
X71002000Y-103406000D02*
X71002000Y-101946000D01*
X73962000Y-103406000D02*
X71002000Y-103406000D01*
X73962000Y-101946000D02*
X73962000Y-103406000D01*
X53762000Y-101946000D02*
X53762000Y-103406000D01*
X53762000Y-103406000D02*
X50802000Y-103406000D01*
X50802000Y-103406000D02*
X50802000Y-101946000D01*
X50802000Y-101946000D02*
X53762000Y-101946000D01*
X146171406Y-103406000D02*
X143211406Y-103406000D01*
X146171406Y-101946000D02*
X146171406Y-103406000D01*
X143211406Y-101946000D02*
X146171406Y-101946000D01*
X143211406Y-103406000D02*
X143211406Y-101946000D01*
X102714645Y-101946000D02*
X102714645Y-103406000D01*
X102714645Y-103406000D02*
X99754645Y-103406000D01*
X99754645Y-103406000D02*
X99754645Y-101946000D01*
X99754645Y-101946000D02*
X102714645Y-101946000D01*
X242742000Y-103406000D02*
X239782000Y-103406000D01*
X242742000Y-101946000D02*
X242742000Y-103406000D01*
X239782000Y-101946000D02*
X242742000Y-101946000D01*
X239782000Y-103406000D02*
X239782000Y-101946000D01*
X230124928Y-103406000D02*
X230124928Y-101946000D01*
X230124928Y-101946000D02*
X233084928Y-101946000D01*
X233084928Y-101946000D02*
X233084928Y-103406000D01*
X233084928Y-103406000D02*
X230124928Y-103406000D01*
X223427870Y-103406000D02*
X220467870Y-103406000D01*
X223427870Y-101946000D02*
X223427870Y-103406000D01*
X220467870Y-101946000D02*
X223427870Y-101946000D01*
X220467870Y-103406000D02*
X220467870Y-101946000D01*
X210810812Y-103406000D02*
X210810812Y-101946000D01*
X210810812Y-101946000D02*
X213770812Y-101946000D01*
X213770812Y-101946000D02*
X213770812Y-103406000D01*
X213770812Y-103406000D02*
X210810812Y-103406000D01*
X234953457Y-101946000D02*
X237913457Y-101946000D01*
X234953457Y-103406000D02*
X234953457Y-101946000D01*
X237913457Y-103406000D02*
X234953457Y-103406000D01*
X237913457Y-101946000D02*
X237913457Y-103406000D01*
X228256399Y-101946000D02*
X228256399Y-103406000D01*
X228256399Y-103406000D02*
X225296399Y-103406000D01*
X225296399Y-103406000D02*
X225296399Y-101946000D01*
X225296399Y-101946000D02*
X228256399Y-101946000D01*
X215639341Y-101946000D02*
X218599341Y-101946000D01*
X215639341Y-103406000D02*
X215639341Y-101946000D01*
X218599341Y-103406000D02*
X215639341Y-103406000D01*
X218599341Y-101946000D02*
X218599341Y-103406000D01*
X208942283Y-101946000D02*
X208942283Y-103406000D01*
X208942283Y-103406000D02*
X205982283Y-103406000D01*
X205982283Y-103406000D02*
X205982283Y-101946000D01*
X205982283Y-101946000D02*
X208942283Y-101946000D01*
X204113754Y-103406000D02*
X201153754Y-103406000D01*
X204113754Y-101946000D02*
X204113754Y-103406000D01*
X201153754Y-101946000D02*
X204113754Y-101946000D01*
X201153754Y-103406000D02*
X201153754Y-101946000D01*
X191496696Y-103406000D02*
X191496696Y-101946000D01*
X191496696Y-101946000D02*
X194456696Y-101946000D01*
X194456696Y-101946000D02*
X194456696Y-103406000D01*
X194456696Y-103406000D02*
X191496696Y-103406000D01*
X175142580Y-103406000D02*
X172182580Y-103406000D01*
X175142580Y-101946000D02*
X175142580Y-103406000D01*
X172182580Y-101946000D02*
X175142580Y-101946000D01*
X172182580Y-103406000D02*
X172182580Y-101946000D01*
X199285225Y-101946000D02*
X199285225Y-103406000D01*
X199285225Y-103406000D02*
X196325225Y-103406000D01*
X196325225Y-103406000D02*
X196325225Y-101946000D01*
X196325225Y-101946000D02*
X199285225Y-101946000D01*
X186668167Y-101946000D02*
X189628167Y-101946000D01*
X186668167Y-103406000D02*
X186668167Y-101946000D01*
X189628167Y-103406000D02*
X186668167Y-103406000D01*
X189628167Y-101946000D02*
X189628167Y-103406000D01*
X179971109Y-101946000D02*
X179971109Y-103406000D01*
X179971109Y-103406000D02*
X177011109Y-103406000D01*
X177011109Y-103406000D02*
X177011109Y-101946000D01*
X177011109Y-101946000D02*
X179971109Y-101946000D01*
X167354051Y-101946000D02*
X170314051Y-101946000D01*
X167354051Y-103406000D02*
X167354051Y-101946000D01*
X170314051Y-103406000D02*
X167354051Y-103406000D01*
X170314051Y-101946000D02*
X170314051Y-103406000D01*
X162525522Y-103406000D02*
X162525522Y-101946000D01*
X162525522Y-101946000D02*
X165485522Y-101946000D01*
X165485522Y-101946000D02*
X165485522Y-103406000D01*
X165485522Y-103406000D02*
X162525522Y-103406000D01*
X60432000Y-101946000D02*
X63392000Y-101946000D01*
X60432000Y-103406000D02*
X60432000Y-101946000D01*
X63392000Y-103406000D02*
X60432000Y-103406000D01*
X63392000Y-101946000D02*
X63392000Y-103406000D01*
X152868464Y-103406000D02*
X152868464Y-101946000D01*
X152868464Y-101946000D02*
X155828464Y-101946000D01*
X155828464Y-101946000D02*
X155828464Y-103406000D01*
X155828464Y-103406000D02*
X152868464Y-103406000D01*
X136514348Y-103406000D02*
X133554348Y-103406000D01*
X136514348Y-101946000D02*
X136514348Y-103406000D01*
X133554348Y-101946000D02*
X136514348Y-101946000D01*
X133554348Y-103406000D02*
X133554348Y-101946000D01*
X181839638Y-103406000D02*
X181839638Y-101946000D01*
X181839638Y-101946000D02*
X184799638Y-101946000D01*
X184799638Y-101946000D02*
X184799638Y-103406000D01*
X184799638Y-103406000D02*
X181839638Y-103406000D01*
X192187001Y-110071001D02*
X195147001Y-110071001D01*
X192187001Y-111531001D02*
X192187001Y-110071001D01*
X195147001Y-111531001D02*
X192187001Y-111531001D01*
X195147001Y-110071001D02*
X195147001Y-111531001D01*
X195192000Y-108031000D02*
X195192000Y-109491000D01*
X195192000Y-109491000D02*
X192232000Y-109491000D01*
X192232000Y-109491000D02*
X192232000Y-108031000D01*
X192232000Y-108031000D02*
X195192000Y-108031000D01*
X179012000Y-111636000D02*
X190212000Y-111636000D01*
X190212000Y-111636000D02*
X190212000Y-108036000D01*
X190212000Y-108036000D02*
X179012000Y-108036000D01*
X179012000Y-108036000D02*
X179012000Y-111636000D01*
X141782000Y-106481000D02*
X144742000Y-106481000D01*
X141782000Y-107941000D02*
X141782000Y-106481000D01*
X144742000Y-107941000D02*
X141782000Y-107941000D01*
X144742000Y-106481000D02*
X144742000Y-107941000D01*
X145067000Y-113481000D02*
X145067000Y-114941000D01*
X145067000Y-114941000D02*
X142107000Y-114941000D01*
X142107000Y-114941000D02*
X142107000Y-113481000D01*
X142107000Y-113481000D02*
X145067000Y-113481000D01*
X145537000Y-109886000D02*
G75*
G03X145537000Y-109886000I-1500000J0D01*
G01*
X115200000Y-123500000D02*
X123850000Y-123500000D01*
X123850000Y-123500000D02*
X123850000Y-119900000D01*
X123850000Y-119900000D02*
X115200000Y-119900000D01*
X115200000Y-119900000D02*
X115200000Y-123500000D01*
X123717000Y-144186000D02*
X140017000Y-144186000D01*
X140017000Y-144186000D02*
X140017000Y-140586000D01*
X140017000Y-140586000D02*
X123717000Y-140586000D01*
X123717000Y-140586000D02*
X123717000Y-144186000D01*
X135667000Y-109252000D02*
X135667000Y-110712000D01*
X135667000Y-110712000D02*
X132707000Y-110712000D01*
X132707000Y-110712000D02*
X132707000Y-109252000D01*
X132707000Y-109252000D02*
X135667000Y-109252000D01*
X141782000Y-125856000D02*
X144742000Y-125856000D01*
X141782000Y-127316000D02*
X141782000Y-125856000D01*
X144742000Y-127316000D02*
X141782000Y-127316000D01*
X144742000Y-125856000D02*
X144742000Y-127316000D01*
X167332000Y-111716000D02*
X167332000Y-110256000D01*
X167332000Y-110256000D02*
X170292000Y-110256000D01*
X170292000Y-110256000D02*
X170292000Y-111716000D01*
X170292000Y-111716000D02*
X167332000Y-111716000D01*
X186800000Y-113700000D02*
X186800000Y-117300000D01*
X192950000Y-113700000D02*
X186800000Y-113700000D01*
X192950000Y-117300000D02*
X192950000Y-113700000D01*
X186800000Y-117300000D02*
X192950000Y-117300000D01*
X246162000Y-133436000D02*
G75*
G03X246162000Y-133436000I-3400000J0D01*
G01*
X152257000Y-111541000D02*
X152257000Y-110081000D01*
X152257000Y-110081000D02*
X155217000Y-110081000D01*
X155217000Y-110081000D02*
X155217000Y-111541000D01*
X155217000Y-111541000D02*
X152257000Y-111541000D01*
X193612000Y-135386000D02*
G75*
G03X193612000Y-135386000I-3400000J0D01*
G01*
X192262000Y-130686000D02*
X192262000Y-124536000D01*
X192262000Y-124536000D02*
X188662000Y-124536000D01*
X188662000Y-124536000D02*
X188662000Y-130686000D01*
X188662000Y-130686000D02*
X192262000Y-130686000D01*
X72506805Y-100535359D02*
X72506805Y-97575359D01*
X73966805Y-100535359D02*
X72506805Y-100535359D01*
X73966805Y-97575359D02*
X73966805Y-100535359D01*
X72506805Y-97575359D02*
X73966805Y-97575359D01*
X241322000Y-97575359D02*
X242782000Y-97575359D01*
X242782000Y-97575359D02*
X242782000Y-100535359D01*
X242782000Y-100535359D02*
X241322000Y-100535359D01*
X241322000Y-100535359D02*
X241322000Y-97575359D01*
X231675375Y-100535359D02*
X231675375Y-97575359D01*
X233135375Y-100535359D02*
X231675375Y-100535359D01*
X233135375Y-97575359D02*
X233135375Y-100535359D01*
X231675375Y-97575359D02*
X233135375Y-97575359D01*
X222028795Y-97575359D02*
X223488795Y-97575359D01*
X223488795Y-97575359D02*
X223488795Y-100535359D01*
X223488795Y-100535359D02*
X222028795Y-100535359D01*
X222028795Y-100535359D02*
X222028795Y-97575359D01*
X212382215Y-100535359D02*
X212382215Y-97575359D01*
X213842215Y-100535359D02*
X212382215Y-100535359D01*
X213842215Y-97575359D02*
X213842215Y-100535359D01*
X212382215Y-97575359D02*
X213842215Y-97575359D01*
X236498665Y-97575359D02*
X237958665Y-97575359D01*
X237958665Y-97575359D02*
X237958665Y-100535359D01*
X237958665Y-100535359D02*
X236498665Y-100535359D01*
X236498665Y-100535359D02*
X236498665Y-97575359D01*
X226852085Y-100535359D02*
X226852085Y-97575359D01*
X228312085Y-100535359D02*
X226852085Y-100535359D01*
X228312085Y-97575359D02*
X228312085Y-100535359D01*
X226852085Y-97575359D02*
X228312085Y-97575359D01*
X111093125Y-97575359D02*
X112553125Y-97575359D01*
X112553125Y-97575359D02*
X112553125Y-100535359D01*
X112553125Y-100535359D02*
X111093125Y-100535359D01*
X111093125Y-100535359D02*
X111093125Y-97575359D01*
X120739705Y-100535359D02*
X120739705Y-97575359D01*
X122199705Y-100535359D02*
X120739705Y-100535359D01*
X122199705Y-97575359D02*
X122199705Y-100535359D01*
X120739705Y-97575359D02*
X122199705Y-97575359D01*
X96623255Y-97575359D02*
X98083255Y-97575359D01*
X98083255Y-97575359D02*
X98083255Y-100535359D01*
X98083255Y-100535359D02*
X96623255Y-100535359D01*
X96623255Y-100535359D02*
X96623255Y-97575359D01*
X106269835Y-100535359D02*
X106269835Y-97575359D01*
X107729835Y-100535359D02*
X106269835Y-100535359D01*
X107729835Y-97575359D02*
X107729835Y-100535359D01*
X106269835Y-97575359D02*
X107729835Y-97575359D01*
X115916415Y-97575359D02*
X117376415Y-97575359D01*
X117376415Y-97575359D02*
X117376415Y-100535359D01*
X117376415Y-100535359D02*
X115916415Y-100535359D01*
X115916415Y-100535359D02*
X115916415Y-97575359D01*
X125562995Y-100535359D02*
X125562995Y-97575359D01*
X127022995Y-100535359D02*
X125562995Y-100535359D01*
X127022995Y-97575359D02*
X127022995Y-100535359D01*
X125562995Y-97575359D02*
X127022995Y-97575359D01*
X130386285Y-97575359D02*
X131846285Y-97575359D01*
X131846285Y-97575359D02*
X131846285Y-100535359D01*
X131846285Y-100535359D02*
X130386285Y-100535359D01*
X130386285Y-100535359D02*
X130386285Y-97575359D01*
X140032865Y-100535359D02*
X140032865Y-97575359D01*
X141492865Y-100535359D02*
X140032865Y-100535359D01*
X141492865Y-97575359D02*
X141492865Y-100535359D01*
X140032865Y-97575359D02*
X141492865Y-97575359D01*
X82153385Y-97575359D02*
X83613385Y-97575359D01*
X83613385Y-97575359D02*
X83613385Y-100535359D01*
X83613385Y-100535359D02*
X82153385Y-100535359D01*
X82153385Y-100535359D02*
X82153385Y-97575359D01*
X58036935Y-100535359D02*
X58036935Y-97575359D01*
X59496935Y-100535359D02*
X58036935Y-100535359D01*
X59496935Y-97575359D02*
X59496935Y-100535359D01*
X58036935Y-97575359D02*
X59496935Y-97575359D01*
X67683515Y-97575359D02*
X69143515Y-97575359D01*
X69143515Y-97575359D02*
X69143515Y-100535359D01*
X69143515Y-100535359D02*
X67683515Y-100535359D01*
X67683515Y-100535359D02*
X67683515Y-97575359D01*
X77330095Y-100535359D02*
X77330095Y-97575359D01*
X78790095Y-100535359D02*
X77330095Y-100535359D01*
X78790095Y-97575359D02*
X78790095Y-100535359D01*
X77330095Y-97575359D02*
X78790095Y-97575359D01*
X91799965Y-97575359D02*
X93259965Y-97575359D01*
X93259965Y-97575359D02*
X93259965Y-100535359D01*
X93259965Y-100535359D02*
X91799965Y-100535359D01*
X91799965Y-100535359D02*
X91799965Y-97575359D01*
X101446545Y-100535359D02*
X101446545Y-97575359D01*
X102906545Y-100535359D02*
X101446545Y-100535359D01*
X102906545Y-97575359D02*
X102906545Y-100535359D01*
X101446545Y-97575359D02*
X102906545Y-97575359D01*
X62860225Y-97575359D02*
X64320225Y-97575359D01*
X64320225Y-97575359D02*
X64320225Y-100535359D01*
X64320225Y-100535359D02*
X62860225Y-100535359D01*
X62860225Y-100535359D02*
X62860225Y-97575359D01*
X86976675Y-100535359D02*
X86976675Y-97575359D01*
X88436675Y-100535359D02*
X86976675Y-100535359D01*
X88436675Y-97575359D02*
X88436675Y-100535359D01*
X86976675Y-97575359D02*
X88436675Y-97575359D01*
X207558925Y-97575359D02*
X209018925Y-97575359D01*
X209018925Y-97575359D02*
X209018925Y-100535359D01*
X209018925Y-100535359D02*
X207558925Y-100535359D01*
X207558925Y-100535359D02*
X207558925Y-97575359D01*
X202735635Y-100535359D02*
X202735635Y-97575359D01*
X204195635Y-100535359D02*
X202735635Y-100535359D01*
X204195635Y-97575359D02*
X204195635Y-100535359D01*
X202735635Y-97575359D02*
X204195635Y-97575359D01*
X193089055Y-97575359D02*
X194549055Y-97575359D01*
X194549055Y-97575359D02*
X194549055Y-100535359D01*
X194549055Y-100535359D02*
X193089055Y-100535359D01*
X193089055Y-100535359D02*
X193089055Y-97575359D01*
X183442475Y-100535359D02*
X183442475Y-97575359D01*
X184902475Y-100535359D02*
X183442475Y-100535359D01*
X184902475Y-97575359D02*
X184902475Y-100535359D01*
X183442475Y-97575359D02*
X184902475Y-97575359D01*
X173795895Y-97575359D02*
X175255895Y-97575359D01*
X175255895Y-97575359D02*
X175255895Y-100535359D01*
X175255895Y-100535359D02*
X173795895Y-100535359D01*
X173795895Y-100535359D02*
X173795895Y-97575359D01*
X197912345Y-100535359D02*
X197912345Y-97575359D01*
X199372345Y-100535359D02*
X197912345Y-100535359D01*
X199372345Y-97575359D02*
X199372345Y-100535359D01*
X197912345Y-97575359D02*
X199372345Y-97575359D01*
X188265765Y-97575359D02*
X189725765Y-97575359D01*
X189725765Y-97575359D02*
X189725765Y-100535359D01*
X189725765Y-100535359D02*
X188265765Y-100535359D01*
X188265765Y-100535359D02*
X188265765Y-97575359D01*
X149679445Y-100535359D02*
X149679445Y-97575359D01*
X151139445Y-100535359D02*
X149679445Y-100535359D01*
X151139445Y-97575359D02*
X151139445Y-100535359D01*
X149679445Y-97575359D02*
X151139445Y-97575359D01*
X159326025Y-97575359D02*
X160786025Y-97575359D01*
X160786025Y-97575359D02*
X160786025Y-100535359D01*
X160786025Y-100535359D02*
X159326025Y-100535359D01*
X159326025Y-100535359D02*
X159326025Y-97575359D01*
X135209575Y-100535359D02*
X135209575Y-97575359D01*
X136669575Y-100535359D02*
X135209575Y-100535359D01*
X136669575Y-97575359D02*
X136669575Y-100535359D01*
X135209575Y-97575359D02*
X136669575Y-97575359D01*
X144856155Y-97575359D02*
X146316155Y-97575359D01*
X146316155Y-97575359D02*
X146316155Y-100535359D01*
X146316155Y-100535359D02*
X144856155Y-100535359D01*
X144856155Y-100535359D02*
X144856155Y-97575359D01*
X154502735Y-100535359D02*
X154502735Y-97575359D01*
X155962735Y-100535359D02*
X154502735Y-100535359D01*
X155962735Y-97575359D02*
X155962735Y-100535359D01*
X154502735Y-97575359D02*
X155962735Y-97575359D01*
X164149315Y-97575359D02*
X165609315Y-97575359D01*
X165609315Y-97575359D02*
X165609315Y-100535359D01*
X165609315Y-100535359D02*
X164149315Y-100535359D01*
X164149315Y-100535359D02*
X164149315Y-97575359D01*
X178619185Y-100535359D02*
X178619185Y-97575359D01*
X180079185Y-100535359D02*
X178619185Y-100535359D01*
X180079185Y-97575359D02*
X180079185Y-100535359D01*
X178619185Y-97575359D02*
X180079185Y-97575359D01*
X168972605Y-97575359D02*
X170432605Y-97575359D01*
X170432605Y-97575359D02*
X170432605Y-100535359D01*
X170432605Y-100535359D02*
X168972605Y-100535359D01*
X168972605Y-100535359D02*
X168972605Y-97575359D01*
X50802000Y-100535359D02*
X50802000Y-97575359D01*
X52262000Y-100535359D02*
X50802000Y-100535359D01*
X52262000Y-97575359D02*
X52262000Y-100535359D01*
X50802000Y-97575359D02*
X52262000Y-97575359D01*
X217205505Y-97575359D02*
X218665505Y-97575359D01*
X218665505Y-97575359D02*
X218665505Y-100535359D01*
X218665505Y-100535359D02*
X217205505Y-100535359D01*
X217205505Y-100535359D02*
X217205505Y-97575359D01*
X192882000Y-126606000D02*
X194342000Y-126606000D01*
X194342000Y-126606000D02*
X194342000Y-129566000D01*
X194342000Y-129566000D02*
X192882000Y-129566000D01*
X192882000Y-129566000D02*
X192882000Y-126606000D01*
X142132000Y-115456000D02*
X145092000Y-115456000D01*
X142132000Y-116916000D02*
X142132000Y-115456000D01*
X145092000Y-116916000D02*
X142132000Y-116916000D01*
X145092000Y-115456000D02*
X145092000Y-116916000D01*
X174882000Y-140266000D02*
X174882000Y-138806000D01*
X174882000Y-138806000D02*
X177842000Y-138806000D01*
X177842000Y-138806000D02*
X177842000Y-140266000D01*
X177842000Y-140266000D02*
X174882000Y-140266000D01*
X170832000Y-138856000D02*
X167872000Y-138856000D01*
X170832000Y-137396000D02*
X170832000Y-138856000D01*
X167872000Y-137396000D02*
X170832000Y-137396000D01*
X167872000Y-138856000D02*
X167872000Y-137396000D01*
X167462000Y-135426000D02*
X167462000Y-136886000D01*
X167462000Y-136886000D02*
X164502000Y-136886000D01*
X164502000Y-136886000D02*
X164502000Y-135426000D01*
X164502000Y-135426000D02*
X167462000Y-135426000D01*
X181532000Y-142276000D02*
X178572000Y-142276000D01*
X181532000Y-140816000D02*
X181532000Y-142276000D01*
X178572000Y-140816000D02*
X181532000Y-140816000D01*
X178572000Y-142276000D02*
X178572000Y-140816000D01*
X182667000Y-134481000D02*
X182667000Y-137441000D01*
X181207000Y-134481000D02*
X182667000Y-134481000D01*
X181207000Y-137441000D02*
X181207000Y-134481000D01*
X182667000Y-137441000D02*
X181207000Y-137441000D01*
X145217000Y-122706000D02*
X145217000Y-124166000D01*
X145217000Y-124166000D02*
X142257000Y-124166000D01*
X142257000Y-124166000D02*
X142257000Y-122706000D01*
X142257000Y-122706000D02*
X145217000Y-122706000D01*
X169242000Y-132181000D02*
X169242000Y-133641000D01*
X169242000Y-133641000D02*
X166282000Y-133641000D01*
X166282000Y-133641000D02*
X166282000Y-132181000D01*
X166282000Y-132181000D02*
X169242000Y-132181000D01*
X154357000Y-133656000D02*
X157317000Y-133656000D01*
X154357000Y-135116000D02*
X154357000Y-133656000D01*
X157317000Y-135116000D02*
X154357000Y-135116000D01*
X157317000Y-133656000D02*
X157317000Y-135116000D01*
X145067000Y-117431000D02*
X145067000Y-118891000D01*
X145067000Y-118891000D02*
X142107000Y-118891000D01*
X142107000Y-118891000D02*
X142107000Y-117431000D01*
X142107000Y-117431000D02*
X145067000Y-117431000D01*
X191502000Y-142726000D02*
X186802000Y-142726000D01*
X186802000Y-142726000D02*
X186802000Y-140426000D01*
X186802000Y-140426000D02*
X191502000Y-140426000D01*
X191502000Y-142726000D02*
X191502000Y-140426000D01*
X151862000Y-113036000D02*
X151862000Y-130836000D01*
X169662000Y-113036000D02*
X169662000Y-130836000D01*
X151862000Y-113036000D02*
X169662000Y-113036000D01*
X151862000Y-130836000D02*
X169662000Y-130836000D01*
X136582500Y-109270000D02*
X139542500Y-109270000D01*
X136582500Y-110730000D02*
X136582500Y-109270000D01*
X139542500Y-110730000D02*
X136582500Y-110730000D01*
X139542500Y-109270000D02*
X139542500Y-110730000D01*
X170822000Y-135426000D02*
X170822000Y-136886000D01*
X170822000Y-136886000D02*
X167862000Y-136886000D01*
X167862000Y-136886000D02*
X167862000Y-135426000D01*
X167862000Y-135426000D02*
X170822000Y-135426000D01*
X179842000Y-134506000D02*
X179842000Y-137466000D01*
X178382000Y-134506000D02*
X179842000Y-134506000D01*
X178382000Y-137466000D02*
X178382000Y-134506000D01*
X179842000Y-137466000D02*
X178382000Y-137466000D01*
X164582000Y-138856000D02*
X164582000Y-137396000D01*
X164582000Y-137396000D02*
X167542000Y-137396000D01*
X167542000Y-137396000D02*
X167542000Y-138856000D01*
X167542000Y-138856000D02*
X164582000Y-138856000D01*
X186102000Y-140686000D02*
X186102000Y-142586000D01*
X186102000Y-142586000D02*
X182742000Y-142586000D01*
X182742000Y-142586000D02*
X182742000Y-140686000D01*
X182742000Y-140686000D02*
X186102000Y-140686000D01*
X173637000Y-134236000D02*
X177437000Y-134236000D01*
X177437000Y-137636000D02*
X173637000Y-137636000D01*
X173637000Y-134236000D02*
X173637000Y-137636000D01*
X177437000Y-137636000D02*
X177437000Y-134236000D01*
X173292000Y-145450000D02*
X173292000Y-139650000D01*
X173292000Y-139650000D02*
X162292000Y-139650000D01*
X162292000Y-139650000D02*
X162292000Y-145450000D01*
X162292000Y-145450000D02*
X173292000Y-145450000D01*
X143162000Y-144186000D02*
X159462000Y-144186000D01*
X159462000Y-144186000D02*
X159462000Y-140586000D01*
X159462000Y-140586000D02*
X143162000Y-140586000D01*
X143162000Y-140586000D02*
X143162000Y-144186000D01*
X244612000Y-120836000D02*
X244612000Y-128536000D01*
X240812000Y-120836000D02*
X244612000Y-120836000D01*
X240812000Y-128536000D02*
X240812000Y-120836000D01*
X244612000Y-128536000D02*
X240812000Y-128536000D01*
X238762000Y-130936000D02*
X234262000Y-130936000D01*
X238762000Y-126836000D02*
X238762000Y-130936000D01*
X234262000Y-126836000D02*
X238762000Y-126836000D01*
X234262000Y-130936000D02*
X234262000Y-126836000D01*
X249642000Y-142494000D02*
G75*
G03X249642000Y-142494000I-2500000J0D01*
G01*
X249300000Y-37800000D02*
G75*
G03X249300000Y-37800000I-2500000J0D01*
G01*
X55078000Y-142240000D02*
G75*
G03X55078000Y-142240000I-2500000J0D01*
G01*
X95513000Y-139007000D02*
X99213000Y-139007000D01*
X95513000Y-132607000D02*
X99213000Y-132607000D01*
X95513000Y-139007000D02*
X95513000Y-132607000D01*
X99213000Y-139007000D02*
X99213000Y-132607000D01*
X91223000Y-134315000D02*
X91223000Y-135775000D01*
X91223000Y-135775000D02*
X88263000Y-135775000D01*
X88263000Y-135775000D02*
X88263000Y-134315000D01*
X88263000Y-134315000D02*
X91223000Y-134315000D01*
X99681000Y-134073000D02*
X101141000Y-134073000D01*
X101141000Y-134073000D02*
X101141000Y-137033000D01*
X101141000Y-137033000D02*
X99681000Y-137033000D01*
X99681000Y-137033000D02*
X99681000Y-134073000D01*
X88237500Y-137363000D02*
X91197500Y-137363000D01*
X88237500Y-138823000D02*
X88237500Y-137363000D01*
X91197500Y-138823000D02*
X88237500Y-138823000D01*
X91197500Y-137363000D02*
X91197500Y-138823000D01*
X108317000Y-134073000D02*
X109777000Y-134073000D01*
X109777000Y-134073000D02*
X109777000Y-137033000D01*
X109777000Y-137033000D02*
X108317000Y-137033000D01*
X108317000Y-137033000D02*
X108317000Y-134073000D01*
X234862000Y-139836000D02*
X234862000Y-143436000D01*
X241012000Y-139836000D02*
X234862000Y-139836000D01*
X241012000Y-143436000D02*
X241012000Y-139836000D01*
X234862000Y-143436000D02*
X241012000Y-143436000D01*
X204412000Y-130636000D02*
X210562000Y-130636000D01*
X210562000Y-130636000D02*
X210562000Y-127036000D01*
X210562000Y-127036000D02*
X204412000Y-127036000D01*
X204412000Y-127036000D02*
X204412000Y-130636000D01*
X103641000Y-138957000D02*
X107341000Y-138957000D01*
X103641000Y-132657000D02*
X107341000Y-132657000D01*
X103641000Y-138957000D02*
X103641000Y-132657000D01*
X107341000Y-138957000D02*
X107341000Y-132657000D01*
X202912000Y-129336000D02*
X202912000Y-120536000D01*
X195712000Y-129336000D02*
X202912000Y-129336000D01*
X195712000Y-120536000D02*
X195712000Y-129336000D01*
X202912000Y-120536000D02*
X195712000Y-120536000D01*
X203532000Y-115206000D02*
X204992000Y-115206000D01*
X204992000Y-115206000D02*
X204992000Y-118166000D01*
X204992000Y-118166000D02*
X203532000Y-118166000D01*
X203532000Y-118166000D02*
X203532000Y-115206000D01*
X202462000Y-115536000D02*
G75*
G03X202462000Y-115536000I-3400000J0D01*
G01*
X233442000Y-122906000D02*
X233442000Y-124366000D01*
X233442000Y-124366000D02*
X230482000Y-124366000D01*
X230482000Y-124366000D02*
X230482000Y-122906000D01*
X230482000Y-122906000D02*
X233442000Y-122906000D01*
X235462000Y-114806000D02*
X230062000Y-114806000D01*
X235462000Y-122266000D02*
X230062000Y-122266000D01*
X235462000Y-114806000D02*
X235462000Y-122266000D01*
X230062000Y-114806000D02*
X230062000Y-122266000D01*
X65271870Y-100535359D02*
X65271870Y-97575359D01*
X66731870Y-100535359D02*
X65271870Y-100535359D01*
X66731870Y-97575359D02*
X66731870Y-100535359D01*
X65271870Y-97575359D02*
X66731870Y-97575359D01*
X60764105Y-62516000D02*
X63724105Y-62516000D01*
X60764105Y-63976000D02*
X60764105Y-62516000D01*
X63724105Y-63976000D02*
X60764105Y-63976000D01*
X63724105Y-62516000D02*
X63724105Y-63976000D01*
X57890000Y-39646000D02*
X84340000Y-39646000D01*
X84340000Y-39646000D02*
X84340000Y-27296000D01*
X84340000Y-27296000D02*
X57890000Y-27296000D01*
X57890000Y-27296000D02*
X57890000Y-39646000D01*
X145660945Y-52141000D02*
X138460945Y-52141000D01*
X138460945Y-52141000D02*
X138460945Y-60941000D01*
X138460945Y-60941000D02*
X145660945Y-60941000D01*
X145660945Y-60941000D02*
X145660945Y-52141000D01*
X99612525Y-41841000D02*
X99612525Y-50641000D01*
X106812525Y-41841000D02*
X99612525Y-41841000D01*
X106812525Y-50641000D02*
X106812525Y-41841000D01*
X99612525Y-50641000D02*
X106812525Y-50641000D01*
X242782000Y-52141000D02*
X235582000Y-52141000D01*
X235582000Y-52141000D02*
X235582000Y-60941000D01*
X235582000Y-60941000D02*
X242782000Y-60941000D01*
X242782000Y-60941000D02*
X242782000Y-52141000D01*
X233069890Y-60941000D02*
X233069890Y-52141000D01*
X225869890Y-60941000D02*
X233069890Y-60941000D01*
X225869890Y-52141000D02*
X225869890Y-60941000D01*
X233069890Y-52141000D02*
X225869890Y-52141000D01*
X223357785Y-52141000D02*
X216157785Y-52141000D01*
X216157785Y-52141000D02*
X216157785Y-60941000D01*
X216157785Y-60941000D02*
X223357785Y-60941000D01*
X223357785Y-60941000D02*
X223357785Y-52141000D01*
X213645680Y-60941000D02*
X213645680Y-52141000D01*
X206445680Y-60941000D02*
X213645680Y-60941000D01*
X206445680Y-52141000D02*
X206445680Y-60941000D01*
X213645680Y-52141000D02*
X206445680Y-52141000D01*
X235582000Y-50641000D02*
X242782000Y-50641000D01*
X242782000Y-50641000D02*
X242782000Y-41841000D01*
X242782000Y-41841000D02*
X235582000Y-41841000D01*
X235582000Y-41841000D02*
X235582000Y-50641000D01*
X225869890Y-41841000D02*
X225869890Y-50641000D01*
X233069890Y-41841000D02*
X225869890Y-41841000D01*
X233069890Y-50641000D02*
X233069890Y-41841000D01*
X225869890Y-50641000D02*
X233069890Y-50641000D01*
X67964105Y-52141000D02*
X60764105Y-52141000D01*
X60764105Y-52141000D02*
X60764105Y-60941000D01*
X60764105Y-60941000D02*
X67964105Y-60941000D01*
X67964105Y-60941000D02*
X67964105Y-52141000D01*
X216157785Y-41841000D02*
X216157785Y-50641000D01*
X223357785Y-41841000D02*
X216157785Y-41841000D01*
X223357785Y-50641000D02*
X223357785Y-41841000D01*
X216157785Y-50641000D02*
X223357785Y-50641000D01*
X155373050Y-52141000D02*
X148173050Y-52141000D01*
X148173050Y-52141000D02*
X148173050Y-60941000D01*
X148173050Y-60941000D02*
X155373050Y-60941000D01*
X155373050Y-60941000D02*
X155373050Y-52141000D01*
X165085155Y-60941000D02*
X165085155Y-52141000D01*
X157885155Y-60941000D02*
X165085155Y-60941000D01*
X157885155Y-52141000D02*
X157885155Y-60941000D01*
X165085155Y-52141000D02*
X157885155Y-52141000D01*
X58252000Y-52141000D02*
X51052000Y-52141000D01*
X51052000Y-52141000D02*
X51052000Y-60941000D01*
X51052000Y-60941000D02*
X58252000Y-60941000D01*
X58252000Y-60941000D02*
X58252000Y-52141000D01*
X77676210Y-60941000D02*
X77676210Y-52141000D01*
X70476210Y-60941000D02*
X77676210Y-60941000D01*
X70476210Y-52141000D02*
X70476210Y-60941000D01*
X77676210Y-52141000D02*
X70476210Y-52141000D01*
X87388315Y-52141000D02*
X80188315Y-52141000D01*
X80188315Y-52141000D02*
X80188315Y-60941000D01*
X80188315Y-60941000D02*
X87388315Y-60941000D01*
X87388315Y-60941000D02*
X87388315Y-52141000D01*
X80188315Y-41841000D02*
X80188315Y-50641000D01*
X87388315Y-41841000D02*
X80188315Y-41841000D01*
X87388315Y-50641000D02*
X87388315Y-41841000D01*
X80188315Y-50641000D02*
X87388315Y-50641000D01*
X60764105Y-50641000D02*
X67964105Y-50641000D01*
X67964105Y-50641000D02*
X67964105Y-41841000D01*
X67964105Y-41841000D02*
X60764105Y-41841000D01*
X60764105Y-41841000D02*
X60764105Y-50641000D01*
X135948840Y-60941000D02*
X135948840Y-52141000D01*
X128748840Y-60941000D02*
X135948840Y-60941000D01*
X128748840Y-52141000D02*
X128748840Y-60941000D01*
X135948840Y-52141000D02*
X128748840Y-52141000D01*
X206445680Y-50641000D02*
X213645680Y-50641000D01*
X213645680Y-50641000D02*
X213645680Y-41841000D01*
X213645680Y-41841000D02*
X206445680Y-41841000D01*
X206445680Y-41841000D02*
X206445680Y-50641000D01*
X89900420Y-41841000D02*
X89900420Y-50641000D01*
X97100420Y-41841000D02*
X89900420Y-41841000D01*
X97100420Y-50641000D02*
X97100420Y-41841000D01*
X89900420Y-50641000D02*
X97100420Y-50641000D01*
X177309365Y-50641000D02*
X184509365Y-50641000D01*
X184509365Y-50641000D02*
X184509365Y-41841000D01*
X184509365Y-41841000D02*
X177309365Y-41841000D01*
X177309365Y-41841000D02*
X177309365Y-50641000D01*
X157885155Y-41841000D02*
X157885155Y-50641000D01*
X165085155Y-41841000D02*
X157885155Y-41841000D01*
X165085155Y-50641000D02*
X165085155Y-41841000D01*
X157885155Y-50641000D02*
X165085155Y-50641000D01*
X138460945Y-50641000D02*
X145660945Y-50641000D01*
X145660945Y-50641000D02*
X145660945Y-41841000D01*
X145660945Y-41841000D02*
X138460945Y-41841000D01*
X138460945Y-41841000D02*
X138460945Y-50641000D01*
X128748840Y-41841000D02*
X128748840Y-50641000D01*
X135948840Y-41841000D02*
X128748840Y-41841000D01*
X135948840Y-50641000D02*
X135948840Y-41841000D01*
X128748840Y-50641000D02*
X135948840Y-50641000D01*
X203933575Y-52141000D02*
X196733575Y-52141000D01*
X196733575Y-52141000D02*
X196733575Y-60941000D01*
X196733575Y-60941000D02*
X203933575Y-60941000D01*
X203933575Y-60941000D02*
X203933575Y-52141000D01*
X194221470Y-60941000D02*
X194221470Y-52141000D01*
X187021470Y-60941000D02*
X194221470Y-60941000D01*
X187021470Y-52141000D02*
X187021470Y-60941000D01*
X194221470Y-52141000D02*
X187021470Y-52141000D01*
X70476210Y-50641000D02*
X77676210Y-50641000D01*
X77676210Y-50641000D02*
X77676210Y-41841000D01*
X77676210Y-41841000D02*
X70476210Y-41841000D01*
X70476210Y-41841000D02*
X70476210Y-50641000D01*
X174797260Y-60941000D02*
X174797260Y-52141000D01*
X167597260Y-60941000D02*
X174797260Y-60941000D01*
X167597260Y-52141000D02*
X167597260Y-60941000D01*
X174797260Y-52141000D02*
X167597260Y-52141000D01*
X196733575Y-50641000D02*
X203933575Y-50641000D01*
X203933575Y-50641000D02*
X203933575Y-41841000D01*
X203933575Y-41841000D02*
X196733575Y-41841000D01*
X196733575Y-41841000D02*
X196733575Y-50641000D01*
X187021470Y-41841000D02*
X187021470Y-50641000D01*
X194221470Y-41841000D02*
X187021470Y-41841000D01*
X194221470Y-50641000D02*
X194221470Y-41841000D01*
X187021470Y-50641000D02*
X194221470Y-50641000D01*
X51052000Y-50641000D02*
X58252000Y-50641000D01*
X58252000Y-50641000D02*
X58252000Y-41841000D01*
X58252000Y-41841000D02*
X51052000Y-41841000D01*
X51052000Y-41841000D02*
X51052000Y-50641000D01*
X184509365Y-60941000D02*
X184509365Y-52141000D01*
X177309365Y-60941000D02*
X184509365Y-60941000D01*
X177309365Y-52141000D02*
X177309365Y-60941000D01*
X184509365Y-52141000D02*
X177309365Y-52141000D01*
X109324630Y-50641000D02*
X116524630Y-50641000D01*
X116524630Y-50641000D02*
X116524630Y-41841000D01*
X116524630Y-41841000D02*
X109324630Y-41841000D01*
X109324630Y-41841000D02*
X109324630Y-50641000D01*
X119036735Y-41841000D02*
X119036735Y-50641000D01*
X126236735Y-41841000D02*
X119036735Y-41841000D01*
X126236735Y-50641000D02*
X126236735Y-41841000D01*
X119036735Y-50641000D02*
X126236735Y-50641000D01*
X97100420Y-52141000D02*
X89900420Y-52141000D01*
X89900420Y-52141000D02*
X89900420Y-60941000D01*
X89900420Y-60941000D02*
X97100420Y-60941000D01*
X97100420Y-60941000D02*
X97100420Y-52141000D01*
X106812525Y-60941000D02*
X106812525Y-52141000D01*
X99612525Y-60941000D02*
X106812525Y-60941000D01*
X99612525Y-52141000D02*
X99612525Y-60941000D01*
X106812525Y-52141000D02*
X99612525Y-52141000D01*
X116524630Y-52141000D02*
X109324630Y-52141000D01*
X109324630Y-52141000D02*
X109324630Y-60941000D01*
X109324630Y-60941000D02*
X116524630Y-60941000D01*
X116524630Y-60941000D02*
X116524630Y-52141000D01*
X126236735Y-60941000D02*
X126236735Y-52141000D01*
X119036735Y-60941000D02*
X126236735Y-60941000D01*
X119036735Y-52141000D02*
X119036735Y-60941000D01*
X126236735Y-52141000D02*
X119036735Y-52141000D01*
X148173050Y-50641000D02*
X155373050Y-50641000D01*
X155373050Y-50641000D02*
X155373050Y-41841000D01*
X155373050Y-41841000D02*
X148173050Y-41841000D01*
X148173050Y-41841000D02*
X148173050Y-50641000D01*
X167597260Y-41841000D02*
X167597260Y-50641000D01*
X174797260Y-41841000D02*
X167597260Y-41841000D01*
X174797260Y-50641000D02*
X174797260Y-41841000D01*
X167597260Y-50641000D02*
X174797260Y-50641000D01*
X205582000Y-115206000D02*
X207042000Y-115206000D01*
X207042000Y-115206000D02*
X207042000Y-118166000D01*
X207042000Y-118166000D02*
X205582000Y-118166000D01*
X205582000Y-118166000D02*
X205582000Y-115206000D01*
X219162000Y-112836000D02*
G75*
G03X219162000Y-112836000I-3400000J0D01*
G01*
X220862000Y-124686000D02*
X227012000Y-124686000D01*
X227012000Y-124686000D02*
X227012000Y-121086000D01*
X227012000Y-121086000D02*
X220862000Y-121086000D01*
X220862000Y-121086000D02*
X220862000Y-124686000D01*
X211182000Y-142666000D02*
X211182000Y-141206000D01*
X211182000Y-141206000D02*
X214142000Y-141206000D01*
X214142000Y-141206000D02*
X214142000Y-142666000D01*
X214142000Y-142666000D02*
X211182000Y-142666000D01*
X237042000Y-132356000D02*
X237042000Y-135316000D01*
X235582000Y-132356000D02*
X237042000Y-132356000D01*
X235582000Y-135316000D02*
X235582000Y-132356000D01*
X237042000Y-135316000D02*
X235582000Y-135316000D01*
X233882000Y-124366000D02*
X233882000Y-122906000D01*
X233882000Y-122906000D02*
X236842000Y-122906000D01*
X236842000Y-122906000D02*
X236842000Y-124366000D01*
X236842000Y-124366000D02*
X233882000Y-124366000D01*
X208612000Y-139516000D02*
X214012000Y-139516000D01*
X208612000Y-132056000D02*
X214012000Y-132056000D01*
X208612000Y-139516000D02*
X208612000Y-132056000D01*
X214012000Y-139516000D02*
X214012000Y-132056000D01*
X210442000Y-142666000D02*
X207482000Y-142666000D01*
X210442000Y-141206000D02*
X210442000Y-142666000D01*
X207482000Y-141206000D02*
X210442000Y-141206000D01*
X207482000Y-142666000D02*
X207482000Y-141206000D01*
X207832000Y-115206000D02*
X209292000Y-115206000D01*
X209292000Y-115206000D02*
X209292000Y-118166000D01*
X209292000Y-118166000D02*
X207832000Y-118166000D01*
X207832000Y-118166000D02*
X207832000Y-115206000D01*
X216582000Y-126356000D02*
X219542000Y-126356000D01*
X216582000Y-127816000D02*
X216582000Y-126356000D01*
X219542000Y-127816000D02*
X216582000Y-127816000D01*
X219542000Y-126356000D02*
X219542000Y-127816000D01*
X215792000Y-126356000D02*
X215792000Y-127816000D01*
X215792000Y-127816000D02*
X212832000Y-127816000D01*
X212832000Y-127816000D02*
X212832000Y-126356000D01*
X212832000Y-126356000D02*
X215792000Y-126356000D01*
D11*
X219182000Y-123836000D02*
X219182000Y-118836000D01*
X219182000Y-118836000D02*
X210682000Y-118836000D01*
X210682000Y-118836000D02*
X210682000Y-123836000D01*
X210682000Y-123836000D02*
X219182000Y-123836000D01*
X233158211Y-134986000D02*
G75*
G03X233158211Y-134986000I-8246211J0D01*
G01*
D10*
X239820000Y-65056000D02*
X242780000Y-65056000D01*
X239820000Y-66516000D02*
X239820000Y-65056000D01*
X242780000Y-66516000D02*
X239820000Y-66516000D01*
X242780000Y-65056000D02*
X242780000Y-66516000D01*
X136100000Y-65056000D02*
X136100000Y-66516000D01*
X136100000Y-66516000D02*
X133140000Y-66516000D01*
X133140000Y-66516000D02*
X133140000Y-65056000D01*
X133140000Y-65056000D02*
X136100000Y-65056000D01*
X92666000Y-66516000D02*
X89706000Y-66516000D01*
X92666000Y-65056000D02*
X92666000Y-66516000D01*
X89706000Y-65056000D02*
X92666000Y-65056000D01*
X89706000Y-66516000D02*
X89706000Y-65056000D01*
X99358000Y-66516000D02*
X99358000Y-65056000D01*
X99358000Y-65056000D02*
X102318000Y-65056000D01*
X102318000Y-65056000D02*
X102318000Y-66516000D01*
X102318000Y-66516000D02*
X99358000Y-66516000D01*
X111970000Y-66516000D02*
X109010000Y-66516000D01*
X111970000Y-65056000D02*
X111970000Y-66516000D01*
X109010000Y-65056000D02*
X111970000Y-65056000D01*
X109010000Y-66516000D02*
X109010000Y-65056000D01*
X118916000Y-66516000D02*
X118916000Y-65056000D01*
X118916000Y-65056000D02*
X121876000Y-65056000D01*
X121876000Y-65056000D02*
X121876000Y-66516000D01*
X121876000Y-66516000D02*
X118916000Y-66516000D01*
X94024000Y-65056000D02*
X96984000Y-65056000D01*
X94024000Y-66516000D02*
X94024000Y-65056000D01*
X96984000Y-66516000D02*
X94024000Y-66516000D01*
X96984000Y-65056000D02*
X96984000Y-66516000D01*
X106890000Y-65056000D02*
X106890000Y-66516000D01*
X106890000Y-66516000D02*
X103930000Y-66516000D01*
X103930000Y-66516000D02*
X103930000Y-65056000D01*
X103930000Y-65056000D02*
X106890000Y-65056000D01*
X113582000Y-65056000D02*
X116542000Y-65056000D01*
X113582000Y-66516000D02*
X113582000Y-65056000D01*
X116542000Y-66516000D02*
X113582000Y-66516000D01*
X116542000Y-65056000D02*
X116542000Y-66516000D01*
X128568000Y-66516000D02*
X128568000Y-65056000D01*
X128568000Y-65056000D02*
X131528000Y-65056000D01*
X131528000Y-65056000D02*
X131528000Y-66516000D01*
X131528000Y-66516000D02*
X128568000Y-66516000D01*
X160738000Y-66516000D02*
X157778000Y-66516000D01*
X160738000Y-65056000D02*
X160738000Y-66516000D01*
X157778000Y-65056000D02*
X160738000Y-65056000D01*
X157778000Y-66516000D02*
X157778000Y-65056000D01*
X80308000Y-66516000D02*
X80308000Y-65056000D01*
X80308000Y-65056000D02*
X83268000Y-65056000D01*
X83268000Y-65056000D02*
X83268000Y-66516000D01*
X83268000Y-66516000D02*
X80308000Y-66516000D01*
X180296000Y-66516000D02*
X177336000Y-66516000D01*
X180296000Y-65056000D02*
X180296000Y-66516000D01*
X177336000Y-65056000D02*
X180296000Y-65056000D01*
X177336000Y-66516000D02*
X177336000Y-65056000D01*
X186988000Y-66516000D02*
X186988000Y-65056000D01*
X186988000Y-65056000D02*
X189948000Y-65056000D01*
X189948000Y-65056000D02*
X189948000Y-66516000D01*
X189948000Y-66516000D02*
X186988000Y-66516000D01*
X199600000Y-66516000D02*
X196640000Y-66516000D01*
X199600000Y-65056000D02*
X199600000Y-66516000D01*
X196640000Y-65056000D02*
X199600000Y-65056000D01*
X196640000Y-66516000D02*
X196640000Y-65056000D01*
X174962000Y-65056000D02*
X174962000Y-66516000D01*
X174962000Y-66516000D02*
X172002000Y-66516000D01*
X172002000Y-66516000D02*
X172002000Y-65056000D01*
X172002000Y-65056000D02*
X174962000Y-65056000D01*
X181654000Y-65056000D02*
X184614000Y-65056000D01*
X181654000Y-66516000D02*
X181654000Y-65056000D01*
X184614000Y-66516000D02*
X181654000Y-66516000D01*
X184614000Y-65056000D02*
X184614000Y-66516000D01*
X194266000Y-65056000D02*
X194266000Y-66516000D01*
X194266000Y-66516000D02*
X191306000Y-66516000D01*
X191306000Y-66516000D02*
X191306000Y-65056000D01*
X191306000Y-65056000D02*
X194266000Y-65056000D01*
X200958000Y-65056000D02*
X203918000Y-65056000D01*
X200958000Y-66516000D02*
X200958000Y-65056000D01*
X203918000Y-66516000D02*
X200958000Y-66516000D01*
X203918000Y-65056000D02*
X203918000Y-66516000D01*
X147872000Y-66516000D02*
X147872000Y-65056000D01*
X147872000Y-65056000D02*
X150832000Y-65056000D01*
X150832000Y-65056000D02*
X150832000Y-66516000D01*
X150832000Y-66516000D02*
X147872000Y-66516000D01*
X141180000Y-66516000D02*
X138220000Y-66516000D01*
X141180000Y-65056000D02*
X141180000Y-66516000D01*
X138220000Y-65056000D02*
X141180000Y-65056000D01*
X138220000Y-66516000D02*
X138220000Y-65056000D01*
X233128000Y-65056000D02*
X233128000Y-66516000D01*
X233128000Y-66516000D02*
X230168000Y-66516000D01*
X230168000Y-66516000D02*
X230168000Y-65056000D01*
X230168000Y-65056000D02*
X233128000Y-65056000D01*
X123488000Y-65056000D02*
X126448000Y-65056000D01*
X123488000Y-66516000D02*
X123488000Y-65056000D01*
X126448000Y-66516000D02*
X123488000Y-66516000D01*
X126448000Y-65056000D02*
X126448000Y-66516000D01*
X167684000Y-66516000D02*
X167684000Y-65056000D01*
X167684000Y-65056000D02*
X170644000Y-65056000D01*
X170644000Y-65056000D02*
X170644000Y-66516000D01*
X170644000Y-66516000D02*
X167684000Y-66516000D01*
X51052000Y-66516000D02*
X51052000Y-65056000D01*
X51052000Y-65056000D02*
X54012000Y-65056000D01*
X54012000Y-65056000D02*
X54012000Y-66516000D01*
X54012000Y-66516000D02*
X51052000Y-66516000D01*
X152444000Y-65056000D02*
X155404000Y-65056000D01*
X152444000Y-66516000D02*
X152444000Y-65056000D01*
X155404000Y-66516000D02*
X152444000Y-66516000D01*
X155404000Y-65056000D02*
X155404000Y-66516000D01*
X63724105Y-66516000D02*
X60764105Y-66516000D01*
X63724105Y-65056000D02*
X63724105Y-66516000D01*
X60764105Y-65056000D02*
X63724105Y-65056000D01*
X60764105Y-66516000D02*
X60764105Y-65056000D01*
X223476000Y-65056000D02*
X223476000Y-66516000D01*
X223476000Y-66516000D02*
X220516000Y-66516000D01*
X220516000Y-66516000D02*
X220516000Y-65056000D01*
X220516000Y-65056000D02*
X223476000Y-65056000D01*
X162096000Y-65056000D02*
X165056000Y-65056000D01*
X162096000Y-66516000D02*
X162096000Y-65056000D01*
X165056000Y-66516000D02*
X162096000Y-66516000D01*
X165056000Y-65056000D02*
X165056000Y-66516000D01*
X58252000Y-65056000D02*
X58252000Y-66516000D01*
X58252000Y-66516000D02*
X55292000Y-66516000D01*
X55292000Y-66516000D02*
X55292000Y-65056000D01*
X55292000Y-65056000D02*
X58252000Y-65056000D01*
X65068000Y-65056000D02*
X68028000Y-65056000D01*
X65068000Y-66516000D02*
X65068000Y-65056000D01*
X68028000Y-66516000D02*
X65068000Y-66516000D01*
X68028000Y-65056000D02*
X68028000Y-66516000D01*
X77680000Y-65056000D02*
X77680000Y-66516000D01*
X77680000Y-66516000D02*
X74720000Y-66516000D01*
X74720000Y-66516000D02*
X74720000Y-65056000D01*
X74720000Y-65056000D02*
X77680000Y-65056000D01*
X84372000Y-65056000D02*
X87332000Y-65056000D01*
X84372000Y-66516000D02*
X84372000Y-65056000D01*
X87332000Y-66516000D02*
X84372000Y-66516000D01*
X87332000Y-65056000D02*
X87332000Y-66516000D01*
X145752000Y-65056000D02*
X145752000Y-66516000D01*
X145752000Y-66516000D02*
X142792000Y-66516000D01*
X142792000Y-66516000D02*
X142792000Y-65056000D01*
X142792000Y-65056000D02*
X145752000Y-65056000D01*
X209252000Y-66516000D02*
X206292000Y-66516000D01*
X209252000Y-65056000D02*
X209252000Y-66516000D01*
X206292000Y-65056000D02*
X209252000Y-65056000D01*
X206292000Y-66516000D02*
X206292000Y-65056000D01*
X216198000Y-66516000D02*
X216198000Y-65056000D01*
X216198000Y-65056000D02*
X219158000Y-65056000D01*
X219158000Y-65056000D02*
X219158000Y-66516000D01*
X219158000Y-66516000D02*
X216198000Y-66516000D01*
X228810000Y-66516000D02*
X225850000Y-66516000D01*
X228810000Y-65056000D02*
X228810000Y-66516000D01*
X225850000Y-65056000D02*
X228810000Y-65056000D01*
X225850000Y-66516000D02*
X225850000Y-65056000D01*
X235502000Y-66516000D02*
X235502000Y-65056000D01*
X235502000Y-65056000D02*
X238462000Y-65056000D01*
X238462000Y-65056000D02*
X238462000Y-66516000D01*
X238462000Y-66516000D02*
X235502000Y-66516000D01*
X210610000Y-65056000D02*
X213570000Y-65056000D01*
X210610000Y-66516000D02*
X210610000Y-65056000D01*
X213570000Y-66516000D02*
X210610000Y-66516000D01*
X213570000Y-65056000D02*
X213570000Y-66516000D01*
X73362000Y-66516000D02*
X70402000Y-66516000D01*
X73362000Y-65056000D02*
X73362000Y-66516000D01*
X70402000Y-65056000D02*
X73362000Y-65056000D01*
X70402000Y-66516000D02*
X70402000Y-65056000D01*
X240200000Y-35950000D02*
X234050000Y-35950000D01*
X234050000Y-35950000D02*
X234050000Y-39550000D01*
X234050000Y-39550000D02*
X240200000Y-39550000D01*
X240200000Y-39550000D02*
X240200000Y-35950000D01*
X201146000Y-39646000D02*
X227596000Y-39646000D01*
X227596000Y-39646000D02*
X227596000Y-27296000D01*
X227596000Y-27296000D02*
X201146000Y-27296000D01*
X201146000Y-27296000D02*
X201146000Y-39646000D01*
X164633500Y-27296000D02*
X164633500Y-39646000D01*
X191083500Y-27296000D02*
X164633500Y-27296000D01*
X191083500Y-39646000D02*
X191083500Y-27296000D01*
X164633500Y-39646000D02*
X191083500Y-39646000D01*
X128121000Y-39646000D02*
X154571000Y-39646000D01*
X154571000Y-39646000D02*
X154571000Y-27296000D01*
X154571000Y-27296000D02*
X128121000Y-27296000D01*
X128121000Y-27296000D02*
X128121000Y-39646000D01*
X91608500Y-27296000D02*
X91608500Y-39646000D01*
X118058500Y-27296000D02*
X91608500Y-27296000D01*
X118058500Y-39646000D02*
X118058500Y-27296000D01*
X91608500Y-39646000D02*
X118058500Y-39646000D01*
X70095160Y-100535359D02*
X70095160Y-97575359D01*
X71555160Y-100535359D02*
X70095160Y-100535359D01*
X71555160Y-97575359D02*
X71555160Y-100535359D01*
X70095160Y-97575359D02*
X71555160Y-97575359D01*
X54012000Y-62516000D02*
X54012000Y-63976000D01*
X54012000Y-63976000D02*
X51052000Y-63976000D01*
X51052000Y-63976000D02*
X51052000Y-62516000D01*
X51052000Y-62516000D02*
X54012000Y-62516000D01*
X51052000Y-69056000D02*
X51052000Y-67596000D01*
X51052000Y-67596000D02*
X54012000Y-67596000D01*
X54012000Y-67596000D02*
X54012000Y-69056000D01*
X54012000Y-69056000D02*
X51052000Y-69056000D01*
X53213645Y-97575359D02*
X54673645Y-97575359D01*
X54673645Y-97575359D02*
X54673645Y-100535359D01*
X54673645Y-100535359D02*
X53213645Y-100535359D01*
X53213645Y-100535359D02*
X53213645Y-97575359D01*
X73362000Y-69056000D02*
X70402000Y-69056000D01*
X73362000Y-67596000D02*
X73362000Y-69056000D01*
X70402000Y-67596000D02*
X73362000Y-67596000D01*
X70402000Y-69056000D02*
X70402000Y-67596000D01*
X102318000Y-69056000D02*
X99358000Y-69056000D01*
X102318000Y-67596000D02*
X102318000Y-69056000D01*
X99358000Y-67596000D02*
X102318000Y-67596000D01*
X99358000Y-69056000D02*
X99358000Y-67596000D01*
X60764105Y-69056000D02*
X60764105Y-67596000D01*
X60764105Y-67596000D02*
X63724105Y-67596000D01*
X63724105Y-67596000D02*
X63724105Y-69056000D01*
X63724105Y-69056000D02*
X60764105Y-69056000D01*
X60448580Y-97575359D02*
X61908580Y-97575359D01*
X61908580Y-97575359D02*
X61908580Y-100535359D01*
X61908580Y-100535359D02*
X60448580Y-100535359D01*
X60448580Y-100535359D02*
X60448580Y-97575359D01*
X142444510Y-100535359D02*
X142444510Y-97575359D01*
X143904510Y-100535359D02*
X142444510Y-100535359D01*
X143904510Y-97575359D02*
X143904510Y-100535359D01*
X142444510Y-97575359D02*
X143904510Y-97575359D01*
X142792000Y-67596000D02*
X145752000Y-67596000D01*
X142792000Y-69056000D02*
X142792000Y-67596000D01*
X145752000Y-69056000D02*
X142792000Y-69056000D01*
X145752000Y-67596000D02*
X145752000Y-69056000D01*
X145752000Y-64196000D02*
X142792000Y-64196000D01*
X145752000Y-62736000D02*
X145752000Y-64196000D01*
X142792000Y-62736000D02*
X145752000Y-62736000D01*
X142792000Y-64196000D02*
X142792000Y-62736000D01*
X152091090Y-97575359D02*
X153551090Y-97575359D01*
X153551090Y-97575359D02*
X153551090Y-100535359D01*
X153551090Y-100535359D02*
X152091090Y-100535359D01*
X152091090Y-100535359D02*
X152091090Y-97575359D01*
X155404000Y-67596000D02*
X155404000Y-69056000D01*
X155404000Y-69056000D02*
X152444000Y-69056000D01*
X152444000Y-69056000D02*
X152444000Y-67596000D01*
X152444000Y-67596000D02*
X155404000Y-67596000D01*
X152444000Y-64196000D02*
X152444000Y-62736000D01*
X152444000Y-62736000D02*
X155404000Y-62736000D01*
X155404000Y-62736000D02*
X155404000Y-64196000D01*
X155404000Y-64196000D02*
X152444000Y-64196000D01*
X161737670Y-100535359D02*
X161737670Y-97575359D01*
X163197670Y-100535359D02*
X161737670Y-100535359D01*
X163197670Y-97575359D02*
X163197670Y-100535359D01*
X161737670Y-97575359D02*
X163197670Y-97575359D01*
X162096000Y-67596000D02*
X165056000Y-67596000D01*
X162096000Y-69056000D02*
X162096000Y-67596000D01*
X165056000Y-69056000D02*
X162096000Y-69056000D01*
X165056000Y-67596000D02*
X165056000Y-69056000D01*
X132797930Y-100535359D02*
X132797930Y-97575359D01*
X134257930Y-100535359D02*
X132797930Y-100535359D01*
X134257930Y-97575359D02*
X134257930Y-100535359D01*
X132797930Y-97575359D02*
X134257930Y-97575359D01*
X160738000Y-62736000D02*
X160738000Y-64196000D01*
X160738000Y-64196000D02*
X157778000Y-64196000D01*
X157778000Y-64196000D02*
X157778000Y-62736000D01*
X157778000Y-62736000D02*
X160738000Y-62736000D01*
X157778000Y-69056000D02*
X157778000Y-67596000D01*
X157778000Y-67596000D02*
X160738000Y-67596000D01*
X160738000Y-67596000D02*
X160738000Y-69056000D01*
X160738000Y-69056000D02*
X157778000Y-69056000D01*
X156914380Y-97575359D02*
X158374380Y-97575359D01*
X158374380Y-97575359D02*
X158374380Y-100535359D01*
X158374380Y-100535359D02*
X156914380Y-100535359D01*
X156914380Y-100535359D02*
X156914380Y-97575359D01*
X147842500Y-62736000D02*
X150802500Y-62736000D01*
X147842500Y-64196000D02*
X147842500Y-62736000D01*
X150802500Y-64196000D02*
X147842500Y-64196000D01*
X150802500Y-62736000D02*
X150802500Y-64196000D01*
X150832000Y-69056000D02*
X147872000Y-69056000D01*
X150832000Y-67596000D02*
X150832000Y-69056000D01*
X147872000Y-67596000D02*
X150832000Y-67596000D01*
X147872000Y-69056000D02*
X147872000Y-67596000D01*
X133140000Y-67596000D02*
X136100000Y-67596000D01*
X133140000Y-69056000D02*
X133140000Y-67596000D01*
X136100000Y-69056000D02*
X133140000Y-69056000D01*
X136100000Y-67596000D02*
X136100000Y-69056000D01*
X126597375Y-64196000D02*
X123637375Y-64196000D01*
X126597375Y-62736000D02*
X126597375Y-64196000D01*
X123637375Y-62736000D02*
X126597375Y-62736000D01*
X123637375Y-64196000D02*
X123637375Y-62736000D01*
X123488000Y-67596000D02*
X126448000Y-67596000D01*
X123488000Y-69056000D02*
X123488000Y-67596000D01*
X126448000Y-69056000D02*
X123488000Y-69056000D01*
X126448000Y-67596000D02*
X126448000Y-69056000D01*
X123151350Y-100535359D02*
X123151350Y-97575359D01*
X124611350Y-100535359D02*
X123151350Y-100535359D01*
X124611350Y-97575359D02*
X124611350Y-100535359D01*
X123151350Y-97575359D02*
X124611350Y-97575359D01*
X113582000Y-64230000D02*
X113582000Y-62770000D01*
X113582000Y-62770000D02*
X116542000Y-62770000D01*
X116542000Y-62770000D02*
X116542000Y-64230000D01*
X116542000Y-64230000D02*
X113582000Y-64230000D01*
X116542000Y-67596000D02*
X116542000Y-69056000D01*
X116542000Y-69056000D02*
X113582000Y-69056000D01*
X113582000Y-69056000D02*
X113582000Y-67596000D01*
X113582000Y-67596000D02*
X116542000Y-67596000D01*
X113504770Y-97575359D02*
X114964770Y-97575359D01*
X114964770Y-97575359D02*
X114964770Y-100535359D01*
X114964770Y-100535359D02*
X113504770Y-100535359D01*
X113504770Y-100535359D02*
X113504770Y-97575359D01*
X106890000Y-64196000D02*
X103930000Y-64196000D01*
X106890000Y-62736000D02*
X106890000Y-64196000D01*
X103930000Y-62736000D02*
X106890000Y-62736000D01*
X103930000Y-64196000D02*
X103930000Y-62736000D01*
X102392250Y-62736000D02*
X102392250Y-64196000D01*
X102392250Y-64196000D02*
X99432250Y-64196000D01*
X99432250Y-64196000D02*
X99432250Y-62736000D01*
X99432250Y-62736000D02*
X102392250Y-62736000D01*
X103858190Y-100535359D02*
X103858190Y-97575359D01*
X105318190Y-100535359D02*
X103858190Y-100535359D01*
X105318190Y-97575359D02*
X105318190Y-100535359D01*
X103858190Y-97575359D02*
X105318190Y-97575359D01*
X133140000Y-64196000D02*
X133140000Y-62736000D01*
X133140000Y-62736000D02*
X136100000Y-62736000D01*
X136100000Y-62736000D02*
X136100000Y-64196000D01*
X136100000Y-64196000D02*
X133140000Y-64196000D01*
X96984000Y-67596000D02*
X96984000Y-69056000D01*
X96984000Y-69056000D02*
X94024000Y-69056000D01*
X94024000Y-69056000D02*
X94024000Y-67596000D01*
X94024000Y-67596000D02*
X96984000Y-67596000D01*
X94211610Y-97575359D02*
X95671610Y-97575359D01*
X95671610Y-97575359D02*
X95671610Y-100535359D01*
X95671610Y-100535359D02*
X94211610Y-100535359D01*
X94211610Y-100535359D02*
X94211610Y-97575359D01*
X118916000Y-62736000D02*
X121876000Y-62736000D01*
X118916000Y-64196000D02*
X118916000Y-62736000D01*
X121876000Y-64196000D02*
X118916000Y-64196000D01*
X121876000Y-62736000D02*
X121876000Y-64196000D01*
X118328060Y-100535359D02*
X118328060Y-97575359D01*
X119788060Y-100535359D02*
X118328060Y-100535359D01*
X119788060Y-97575359D02*
X119788060Y-100535359D01*
X118328060Y-97575359D02*
X119788060Y-97575359D01*
X112074300Y-62736000D02*
X112074300Y-64196000D01*
X112074300Y-64196000D02*
X109114300Y-64196000D01*
X109114300Y-64196000D02*
X109114300Y-62736000D01*
X109114300Y-62736000D02*
X112074300Y-62736000D01*
X109010000Y-69056000D02*
X109010000Y-67596000D01*
X109010000Y-67596000D02*
X111970000Y-67596000D01*
X111970000Y-67596000D02*
X111970000Y-69056000D01*
X111970000Y-69056000D02*
X109010000Y-69056000D01*
X103930000Y-67596000D02*
X106890000Y-67596000D01*
X103930000Y-69056000D02*
X103930000Y-67596000D01*
X106890000Y-69056000D02*
X103930000Y-69056000D01*
X106890000Y-67596000D02*
X106890000Y-69056000D01*
X229263730Y-100535359D02*
X229263730Y-97575359D01*
X230723730Y-100535359D02*
X229263730Y-100535359D01*
X230723730Y-97575359D02*
X230723730Y-100535359D01*
X229263730Y-97575359D02*
X230723730Y-97575359D01*
X94024000Y-64230000D02*
X94024000Y-62770000D01*
X94024000Y-62770000D02*
X96984000Y-62770000D01*
X96984000Y-62770000D02*
X96984000Y-64230000D01*
X96984000Y-64230000D02*
X94024000Y-64230000D01*
X99034900Y-100535359D02*
X99034900Y-97575359D01*
X100494900Y-100535359D02*
X99034900Y-100535359D01*
X100494900Y-97575359D02*
X100494900Y-100535359D01*
X99034900Y-97575359D02*
X100494900Y-97575359D01*
X92710200Y-62736000D02*
X92710200Y-64196000D01*
X92710200Y-64196000D02*
X89750200Y-64196000D01*
X89750200Y-64196000D02*
X89750200Y-62736000D01*
X89750200Y-62736000D02*
X92710200Y-62736000D01*
X89706000Y-69056000D02*
X89706000Y-67596000D01*
X89706000Y-67596000D02*
X92666000Y-67596000D01*
X92666000Y-67596000D02*
X92666000Y-69056000D01*
X92666000Y-69056000D02*
X89706000Y-69056000D01*
X89388320Y-97575359D02*
X90848320Y-97575359D01*
X90848320Y-97575359D02*
X90848320Y-100535359D01*
X90848320Y-100535359D02*
X89388320Y-100535359D01*
X89388320Y-100535359D02*
X89388320Y-97575359D01*
X242782000Y-64196000D02*
X239822000Y-64196000D01*
X242782000Y-62736000D02*
X242782000Y-64196000D01*
X239822000Y-62736000D02*
X242782000Y-62736000D01*
X239822000Y-64196000D02*
X239822000Y-62736000D01*
X239820000Y-67596000D02*
X242780000Y-67596000D01*
X239820000Y-69056000D02*
X239820000Y-67596000D01*
X242780000Y-69056000D02*
X239820000Y-69056000D01*
X242780000Y-67596000D02*
X242780000Y-69056000D01*
X238910310Y-100535359D02*
X238910310Y-97575359D01*
X240370310Y-100535359D02*
X238910310Y-100535359D01*
X240370310Y-97575359D02*
X240370310Y-100535359D01*
X238910310Y-97575359D02*
X240370310Y-97575359D01*
X230139925Y-64196000D02*
X230139925Y-62736000D01*
X230139925Y-62736000D02*
X233099925Y-62736000D01*
X233099925Y-62736000D02*
X233099925Y-64196000D01*
X233099925Y-64196000D02*
X230139925Y-64196000D01*
X166560960Y-97575359D02*
X168020960Y-97575359D01*
X168020960Y-97575359D02*
X168020960Y-100535359D01*
X168020960Y-100535359D02*
X166560960Y-100535359D01*
X166560960Y-100535359D02*
X166560960Y-97575359D01*
X138220000Y-62770000D02*
X141180000Y-62770000D01*
X138220000Y-64230000D02*
X138220000Y-62770000D01*
X141180000Y-64230000D02*
X138220000Y-64230000D01*
X141180000Y-62770000D02*
X141180000Y-64230000D01*
X141180000Y-69056000D02*
X138220000Y-69056000D01*
X141180000Y-67596000D02*
X141180000Y-69056000D01*
X138220000Y-67596000D02*
X141180000Y-67596000D01*
X138220000Y-69056000D02*
X138220000Y-67596000D01*
X137621220Y-100535359D02*
X137621220Y-97575359D01*
X139081220Y-100535359D02*
X137621220Y-100535359D01*
X139081220Y-97575359D02*
X139081220Y-100535359D01*
X137621220Y-97575359D02*
X139081220Y-97575359D01*
X131438400Y-62736000D02*
X131438400Y-64196000D01*
X131438400Y-64196000D02*
X128478400Y-64196000D01*
X128478400Y-64196000D02*
X128478400Y-62736000D01*
X128478400Y-62736000D02*
X131438400Y-62736000D01*
X128568000Y-69056000D02*
X128568000Y-67596000D01*
X128568000Y-67596000D02*
X131528000Y-67596000D01*
X131528000Y-67596000D02*
X131528000Y-69056000D01*
X131528000Y-69056000D02*
X128568000Y-69056000D01*
X127974640Y-97575359D02*
X129434640Y-97575359D01*
X129434640Y-97575359D02*
X129434640Y-100535359D01*
X129434640Y-100535359D02*
X127974640Y-100535359D01*
X127974640Y-100535359D02*
X127974640Y-97575359D01*
X203918000Y-64196000D02*
X200958000Y-64196000D01*
X203918000Y-62736000D02*
X203918000Y-64196000D01*
X200958000Y-62736000D02*
X203918000Y-62736000D01*
X200958000Y-64196000D02*
X200958000Y-62736000D01*
X200958000Y-67596000D02*
X203918000Y-67596000D01*
X200958000Y-69056000D02*
X200958000Y-67596000D01*
X203918000Y-69056000D02*
X200958000Y-69056000D01*
X203918000Y-67596000D02*
X203918000Y-69056000D01*
X118916000Y-69056000D02*
X118916000Y-67596000D01*
X118916000Y-67596000D02*
X121876000Y-67596000D01*
X121876000Y-67596000D02*
X121876000Y-69056000D01*
X121876000Y-69056000D02*
X118916000Y-69056000D01*
X162096000Y-64230000D02*
X162096000Y-62770000D01*
X162096000Y-62770000D02*
X165056000Y-62770000D01*
X165056000Y-62770000D02*
X165056000Y-64230000D01*
X165056000Y-64230000D02*
X162096000Y-64230000D01*
X147267800Y-100535359D02*
X147267800Y-97575359D01*
X148727800Y-100535359D02*
X147267800Y-100535359D01*
X148727800Y-97575359D02*
X148727800Y-100535359D01*
X147267800Y-97575359D02*
X148727800Y-97575359D01*
X191306000Y-67596000D02*
X194266000Y-67596000D01*
X191306000Y-69056000D02*
X191306000Y-67596000D01*
X194266000Y-69056000D02*
X191306000Y-69056000D01*
X194266000Y-67596000D02*
X194266000Y-69056000D01*
X190677410Y-100535359D02*
X190677410Y-97575359D01*
X192137410Y-100535359D02*
X190677410Y-100535359D01*
X192137410Y-97575359D02*
X192137410Y-100535359D01*
X190677410Y-97575359D02*
X192137410Y-97575359D01*
X181654000Y-64230000D02*
X181654000Y-62770000D01*
X181654000Y-62770000D02*
X184614000Y-62770000D01*
X184614000Y-62770000D02*
X184614000Y-64230000D01*
X184614000Y-64230000D02*
X181654000Y-64230000D01*
X167658500Y-69056000D02*
X167658500Y-67596000D01*
X167658500Y-67596000D02*
X170618500Y-67596000D01*
X170618500Y-67596000D02*
X170618500Y-69056000D01*
X170618500Y-69056000D02*
X167658500Y-69056000D01*
X181030830Y-97575359D02*
X182490830Y-97575359D01*
X182490830Y-97575359D02*
X182490830Y-100535359D01*
X182490830Y-100535359D02*
X181030830Y-100535359D01*
X181030830Y-100535359D02*
X181030830Y-97575359D01*
X175007625Y-64196000D02*
X172047625Y-64196000D01*
X175007625Y-62736000D02*
X175007625Y-64196000D01*
X172047625Y-62736000D02*
X175007625Y-62736000D01*
X172047625Y-64196000D02*
X172047625Y-62736000D01*
X172002000Y-67596000D02*
X174962000Y-67596000D01*
X172002000Y-69056000D02*
X172002000Y-67596000D01*
X174962000Y-69056000D02*
X172002000Y-69056000D01*
X174962000Y-67596000D02*
X174962000Y-69056000D01*
X171384250Y-100535359D02*
X171384250Y-97575359D01*
X172844250Y-100535359D02*
X171384250Y-100535359D01*
X172844250Y-97575359D02*
X172844250Y-100535359D01*
X171384250Y-97575359D02*
X172844250Y-97575359D01*
X199600000Y-62736000D02*
X199600000Y-64196000D01*
X199600000Y-64196000D02*
X196640000Y-64196000D01*
X196640000Y-64196000D02*
X196640000Y-62736000D01*
X196640000Y-62736000D02*
X199600000Y-62736000D01*
X108681480Y-100535359D02*
X108681480Y-97575359D01*
X110141480Y-100535359D02*
X108681480Y-100535359D01*
X110141480Y-97575359D02*
X110141480Y-100535359D01*
X108681480Y-97575359D02*
X110141480Y-97575359D01*
X195500700Y-97575359D02*
X196960700Y-97575359D01*
X196960700Y-97575359D02*
X196960700Y-100535359D01*
X196960700Y-100535359D02*
X195500700Y-100535359D01*
X195500700Y-100535359D02*
X195500700Y-97575359D01*
X186988000Y-62736000D02*
X189948000Y-62736000D01*
X186988000Y-64196000D02*
X186988000Y-62736000D01*
X189948000Y-64196000D02*
X186988000Y-64196000D01*
X189948000Y-62736000D02*
X189948000Y-64196000D01*
X189948000Y-69056000D02*
X186988000Y-69056000D01*
X189948000Y-67596000D02*
X189948000Y-69056000D01*
X186988000Y-67596000D02*
X189948000Y-67596000D01*
X186988000Y-69056000D02*
X186988000Y-67596000D01*
X185854120Y-100535359D02*
X185854120Y-97575359D01*
X187314120Y-100535359D02*
X185854120Y-100535359D01*
X187314120Y-97575359D02*
X187314120Y-100535359D01*
X185854120Y-97575359D02*
X187314120Y-97575359D01*
X180296000Y-62736000D02*
X180296000Y-64196000D01*
X180296000Y-64196000D02*
X177336000Y-64196000D01*
X177336000Y-64196000D02*
X177336000Y-62736000D01*
X177336000Y-62736000D02*
X180296000Y-62736000D01*
X177336000Y-69056000D02*
X177336000Y-67596000D01*
X177336000Y-67596000D02*
X180296000Y-67596000D01*
X180296000Y-67596000D02*
X180296000Y-69056000D01*
X180296000Y-69056000D02*
X177336000Y-69056000D01*
X176207540Y-97575359D02*
X177667540Y-97575359D01*
X177667540Y-97575359D02*
X177667540Y-100535359D01*
X177667540Y-100535359D02*
X176207540Y-100535359D01*
X176207540Y-100535359D02*
X176207540Y-97575359D01*
X167684000Y-62736000D02*
X170644000Y-62736000D01*
X167684000Y-64196000D02*
X167684000Y-62736000D01*
X170644000Y-64196000D02*
X167684000Y-64196000D01*
X170644000Y-62736000D02*
X170644000Y-64196000D01*
X181654000Y-67596000D02*
X184614000Y-67596000D01*
X181654000Y-69056000D02*
X181654000Y-67596000D01*
X184614000Y-69056000D02*
X181654000Y-69056000D01*
X184614000Y-67596000D02*
X184614000Y-69056000D01*
X65068000Y-63976000D02*
X65068000Y-62516000D01*
X65068000Y-62516000D02*
X68028000Y-62516000D01*
X68028000Y-62516000D02*
X68028000Y-63976000D01*
X68028000Y-63976000D02*
X65068000Y-63976000D01*
X87332000Y-63976000D02*
X84372000Y-63976000D01*
X87332000Y-62516000D02*
X87332000Y-63976000D01*
X84372000Y-62516000D02*
X87332000Y-62516000D01*
X84372000Y-63976000D02*
X84372000Y-62516000D01*
X84372000Y-67596000D02*
X87332000Y-67596000D01*
X84372000Y-69056000D02*
X84372000Y-67596000D01*
X87332000Y-69056000D02*
X84372000Y-69056000D01*
X87332000Y-67596000D02*
X87332000Y-69056000D01*
X84565030Y-100535359D02*
X84565030Y-97575359D01*
X86025030Y-100535359D02*
X84565030Y-100535359D01*
X86025030Y-97575359D02*
X86025030Y-100535359D01*
X84565030Y-97575359D02*
X86025030Y-97575359D01*
X74720000Y-63976000D02*
X74720000Y-62516000D01*
X74720000Y-62516000D02*
X77680000Y-62516000D01*
X77680000Y-62516000D02*
X77680000Y-63976000D01*
X77680000Y-63976000D02*
X74720000Y-63976000D01*
X77680000Y-67596000D02*
X77680000Y-69056000D01*
X77680000Y-69056000D02*
X74720000Y-69056000D01*
X74720000Y-69056000D02*
X74720000Y-67596000D01*
X74720000Y-67596000D02*
X77680000Y-67596000D01*
X74918450Y-97575359D02*
X76378450Y-97575359D01*
X76378450Y-97575359D02*
X76378450Y-100535359D01*
X76378450Y-100535359D02*
X74918450Y-100535359D01*
X74918450Y-100535359D02*
X74918450Y-97575359D01*
X230168000Y-67596000D02*
X233128000Y-67596000D01*
X230168000Y-69056000D02*
X230168000Y-67596000D01*
X233128000Y-69056000D02*
X230168000Y-69056000D01*
X233128000Y-67596000D02*
X233128000Y-69056000D01*
X68028000Y-67596000D02*
X68028000Y-69056000D01*
X68028000Y-69056000D02*
X65068000Y-69056000D01*
X65068000Y-69056000D02*
X65068000Y-67596000D01*
X65068000Y-67596000D02*
X68028000Y-67596000D01*
X55292000Y-67596000D02*
X58252000Y-67596000D01*
X55292000Y-69056000D02*
X55292000Y-67596000D01*
X58252000Y-69056000D02*
X55292000Y-69056000D01*
X58252000Y-67596000D02*
X58252000Y-69056000D01*
X55625290Y-100535359D02*
X55625290Y-97575359D01*
X57085290Y-100535359D02*
X55625290Y-100535359D01*
X57085290Y-97575359D02*
X57085290Y-100535359D01*
X55625290Y-97575359D02*
X57085290Y-97575359D01*
X83268000Y-62516000D02*
X83268000Y-63976000D01*
X83268000Y-63976000D02*
X80308000Y-63976000D01*
X80308000Y-63976000D02*
X80308000Y-62516000D01*
X80308000Y-62516000D02*
X83268000Y-62516000D01*
X80308000Y-69056000D02*
X80308000Y-67596000D01*
X80308000Y-67596000D02*
X83268000Y-67596000D01*
X83268000Y-67596000D02*
X83268000Y-69056000D01*
X83268000Y-69056000D02*
X80308000Y-69056000D01*
X79741740Y-97575359D02*
X81201740Y-97575359D01*
X81201740Y-97575359D02*
X81201740Y-100535359D01*
X81201740Y-100535359D02*
X79741740Y-100535359D01*
X79741740Y-100535359D02*
X79741740Y-97575359D01*
X70402000Y-62516000D02*
X73362000Y-62516000D01*
X70402000Y-63976000D02*
X70402000Y-62516000D01*
X73362000Y-63976000D02*
X70402000Y-63976000D01*
X73362000Y-62516000D02*
X73362000Y-63976000D01*
X196640000Y-69056000D02*
X196640000Y-67596000D01*
X196640000Y-67596000D02*
X199600000Y-67596000D01*
X199600000Y-67596000D02*
X199600000Y-69056000D01*
X199600000Y-69056000D02*
X196640000Y-69056000D01*
X220516000Y-67596000D02*
X223476000Y-67596000D01*
X220516000Y-69056000D02*
X220516000Y-67596000D01*
X223476000Y-69056000D02*
X220516000Y-69056000D01*
X223476000Y-67596000D02*
X223476000Y-69056000D01*
X219617150Y-100535359D02*
X219617150Y-97575359D01*
X221077150Y-100535359D02*
X219617150Y-100535359D01*
X221077150Y-97575359D02*
X221077150Y-100535359D01*
X219617150Y-97575359D02*
X221077150Y-97575359D01*
X210610000Y-64196000D02*
X210610000Y-62736000D01*
X210610000Y-62736000D02*
X213570000Y-62736000D01*
X213570000Y-62736000D02*
X213570000Y-64196000D01*
X213570000Y-64196000D02*
X210610000Y-64196000D01*
X213570000Y-67596000D02*
X213570000Y-69056000D01*
X213570000Y-69056000D02*
X210610000Y-69056000D01*
X210610000Y-69056000D02*
X210610000Y-67596000D01*
X210610000Y-67596000D02*
X213570000Y-67596000D01*
X209970570Y-97575359D02*
X211430570Y-97575359D01*
X211430570Y-97575359D02*
X211430570Y-100535359D01*
X211430570Y-100535359D02*
X209970570Y-100535359D01*
X209970570Y-100535359D02*
X209970570Y-97575359D01*
X235502000Y-62736000D02*
X238462000Y-62736000D01*
X235502000Y-64196000D02*
X235502000Y-62736000D01*
X238462000Y-64196000D02*
X235502000Y-64196000D01*
X238462000Y-62736000D02*
X238462000Y-64196000D01*
X238462000Y-69056000D02*
X235502000Y-69056000D01*
X238462000Y-67596000D02*
X238462000Y-69056000D01*
X235502000Y-67596000D02*
X238462000Y-67596000D01*
X235502000Y-69056000D02*
X235502000Y-67596000D01*
X234087020Y-100535359D02*
X234087020Y-97575359D01*
X235547020Y-100535359D02*
X234087020Y-100535359D01*
X235547020Y-97575359D02*
X235547020Y-100535359D01*
X234087020Y-97575359D02*
X235547020Y-97575359D01*
X228810000Y-62736000D02*
X228810000Y-64196000D01*
X228810000Y-64196000D02*
X225850000Y-64196000D01*
X225850000Y-64196000D02*
X225850000Y-62736000D01*
X225850000Y-62736000D02*
X228810000Y-62736000D01*
X223417875Y-64196000D02*
X220457875Y-64196000D01*
X223417875Y-62736000D02*
X223417875Y-64196000D01*
X220457875Y-62736000D02*
X223417875Y-62736000D01*
X220457875Y-64196000D02*
X220457875Y-62736000D01*
X225850000Y-69056000D02*
X225850000Y-67596000D01*
X225850000Y-67596000D02*
X228810000Y-67596000D01*
X228810000Y-67596000D02*
X228810000Y-69056000D01*
X228810000Y-69056000D02*
X225850000Y-69056000D01*
X224440440Y-97575359D02*
X225900440Y-97575359D01*
X225900440Y-97575359D02*
X225900440Y-100535359D01*
X225900440Y-100535359D02*
X224440440Y-100535359D01*
X224440440Y-100535359D02*
X224440440Y-97575359D01*
X58252000Y-63976000D02*
X55292000Y-63976000D01*
X58252000Y-62516000D02*
X58252000Y-63976000D01*
X55292000Y-62516000D02*
X58252000Y-62516000D01*
X55292000Y-63976000D02*
X55292000Y-62516000D01*
X219158000Y-69056000D02*
X216198000Y-69056000D01*
X219158000Y-67596000D02*
X219158000Y-69056000D01*
X216198000Y-67596000D02*
X219158000Y-67596000D01*
X216198000Y-69056000D02*
X216198000Y-67596000D01*
X214793860Y-100535359D02*
X214793860Y-97575359D01*
X216253860Y-100535359D02*
X214793860Y-100535359D01*
X216253860Y-97575359D02*
X216253860Y-100535359D01*
X214793860Y-97575359D02*
X216253860Y-97575359D01*
X209252000Y-62736000D02*
X209252000Y-64196000D01*
X209252000Y-64196000D02*
X206292000Y-64196000D01*
X206292000Y-64196000D02*
X206292000Y-62736000D01*
X206292000Y-62736000D02*
X209252000Y-62736000D01*
X206292000Y-69056000D02*
X206292000Y-67596000D01*
X206292000Y-67596000D02*
X209252000Y-67596000D01*
X209252000Y-67596000D02*
X209252000Y-69056000D01*
X209252000Y-69056000D02*
X206292000Y-69056000D01*
X205147280Y-97575359D02*
X206607280Y-97575359D01*
X206607280Y-97575359D02*
X206607280Y-100535359D01*
X206607280Y-100535359D02*
X205147280Y-100535359D01*
X205147280Y-100535359D02*
X205147280Y-97575359D01*
X200323990Y-97575359D02*
X201783990Y-97575359D01*
X201783990Y-97575359D02*
X201783990Y-100535359D01*
X201783990Y-100535359D02*
X200323990Y-100535359D01*
X200323990Y-100535359D02*
X200323990Y-97575359D01*
X216198000Y-62770000D02*
X219158000Y-62770000D01*
X216198000Y-64230000D02*
X216198000Y-62770000D01*
X219158000Y-64230000D02*
X216198000Y-64230000D01*
X219158000Y-62770000D02*
X219158000Y-64230000D01*
X191411725Y-64196000D02*
X191411725Y-62736000D01*
X191411725Y-62736000D02*
X194371725Y-62736000D01*
X194371725Y-62736000D02*
X194371725Y-64196000D01*
X194371725Y-64196000D02*
X191411725Y-64196000D01*
M02*
