%TF.GenerationSoftware,KiCad,Pcbnew,(5.0.1)-4*%
%TF.CreationDate,2018-12-18T14:51:31-07:00*%
%TF.ProjectId,SprinklerControllerSTM,537072696E6B6C6572436F6E74726F6C,rev?*%
%TF.SameCoordinates,Original*%
%TF.FileFunction,Drawing*%
%FSLAX46Y46*%
G04 Gerber Fmt 4.6, Leading zero omitted, Abs format (unit mm)*
G04 Created by KiCad (PCBNEW (5.0.1)-4) date 12/18/2018 2:51:31 PM*
%MOMM*%
%LPD*%
G01*
G04 APERTURE LIST*
%ADD10C,0.100000*%
%ADD11C,0.150000*%
G04 APERTURE END LIST*
D10*
X74819000Y-133419000D02*
X73569000Y-134319000D01*
X74119000Y-133419000D02*
X73569000Y-133819000D01*
X76219000Y-133419000D02*
X73994000Y-135019000D01*
X73569000Y-134819000D02*
X75519000Y-133419000D01*
X72869000Y-135319000D02*
X73569000Y-134819000D01*
X72869000Y-134819000D02*
X73019000Y-134719000D01*
X72869000Y-135819000D02*
X73569000Y-135319000D01*
X72869000Y-136319000D02*
X73569000Y-135819000D01*
X72869000Y-136819000D02*
X73569000Y-136319000D01*
X72869000Y-137319000D02*
X73569000Y-136819000D01*
X72869000Y-137819000D02*
X73569000Y-137319000D01*
X72869000Y-138319000D02*
X73569000Y-137819000D01*
X72869000Y-138819000D02*
X73569000Y-138319000D01*
X72869000Y-139319000D02*
X73569000Y-138819000D01*
X72869000Y-139819000D02*
X73569000Y-139319000D01*
X72869000Y-140319000D02*
X73569000Y-139819000D01*
X72869000Y-140819000D02*
X73569000Y-140319000D01*
X72869000Y-141319000D02*
X73569000Y-140819000D01*
X72869000Y-141819000D02*
X73569000Y-141319000D01*
X72869000Y-142319000D02*
X73569000Y-141819000D01*
X72519000Y-136369000D02*
X71769000Y-136869000D01*
X72519000Y-135869000D02*
X71769000Y-136369000D01*
X72519000Y-135369000D02*
X71769000Y-135869000D01*
X72519000Y-134869000D02*
X71769000Y-135369000D01*
X72519000Y-134369000D02*
X71769000Y-134869000D01*
X72519000Y-133869000D02*
X71769000Y-134369000D01*
X72519000Y-133369000D02*
X71769000Y-133869000D01*
X72519000Y-132869000D02*
X71769000Y-133369000D01*
X72519000Y-132369000D02*
X71769000Y-132869000D01*
X72519000Y-131869000D02*
X71769000Y-132369000D01*
X72519000Y-131369000D02*
X71769000Y-131869000D01*
X72519000Y-130869000D02*
X71769000Y-131369000D01*
X72519000Y-130369000D02*
X71769000Y-130869000D01*
X72519000Y-129869000D02*
X71769000Y-130369000D01*
X72519000Y-129369000D02*
X71769000Y-129869000D01*
X72519000Y-128869000D02*
X71769000Y-129369000D01*
X82469000Y-143119000D02*
X81919000Y-144019000D01*
X82969000Y-143119000D02*
X82169000Y-144469000D01*
X83469000Y-143119000D02*
X82669000Y-144469000D01*
X83969000Y-143119000D02*
X83169000Y-144469000D01*
X84469000Y-143119000D02*
X83669000Y-144469000D01*
X71769000Y-136919000D02*
X71769000Y-128869000D01*
X72519000Y-136919000D02*
X71769000Y-136919000D01*
X72519000Y-128869000D02*
X72519000Y-136919000D01*
X71769000Y-128869000D02*
X72519000Y-128869000D01*
X72869000Y-142319000D02*
X72869000Y-134719000D01*
X73569000Y-142319000D02*
X72869000Y-142319000D01*
X73569000Y-133419000D02*
X73569000Y-142319000D01*
X72869000Y-134719000D02*
X73569000Y-134719000D01*
X81919000Y-144469000D02*
X81919000Y-143119000D01*
X84469000Y-144469000D02*
X81919000Y-144469000D01*
X84469000Y-143119000D02*
X84469000Y-144469000D01*
X81919000Y-143119000D02*
X84469000Y-143119000D01*
X82269000Y-135019000D02*
X73569000Y-135019000D01*
X82269000Y-133419000D02*
X82269000Y-135019000D01*
X73569000Y-133419000D02*
X82269000Y-133419000D01*
X76919000Y-133419000D02*
X74694000Y-135019000D01*
X77619000Y-133419000D02*
X75394000Y-135019000D01*
X78319000Y-133419000D02*
X76094000Y-135019000D01*
X79019000Y-133419000D02*
X76794000Y-135019000D01*
X79719000Y-133419000D02*
X77494000Y-135019000D01*
X80419000Y-133419000D02*
X78194000Y-135019000D01*
X81119000Y-133419000D02*
X78894000Y-135019000D01*
X81819000Y-133419000D02*
X79594000Y-135019000D01*
X82269000Y-133619000D02*
X80294000Y-135019000D01*
X82269000Y-134119000D02*
X80994000Y-135019000D01*
X82269000Y-134619000D02*
X81694000Y-135019000D01*
D11*
X63146000Y-117094000D02*
G75*
G03X63146000Y-117094000I-6250000J0D01*
G01*
M02*
