%TF.GenerationSoftware,KiCad,Pcbnew,(5.0.1)-4*%
%TF.CreationDate,2018-12-18T14:51:30-07:00*%
%TF.ProjectId,SprinklerControllerSTM,537072696E6B6C6572436F6E74726F6C,rev?*%
%TF.SameCoordinates,Original*%
%TF.FileFunction,Copper,L2,Bot,Signal*%
%TF.FilePolarity,Positive*%
%FSLAX46Y46*%
G04 Gerber Fmt 4.6, Leading zero omitted, Abs format (unit mm)*
G04 Created by KiCad (PCBNEW (5.0.1)-4) date 12/18/2018 2:51:30 PM*
%MOMM*%
%LPD*%
G01*
G04 APERTURE LIST*
%ADD10R,1.700000X1.700000*%
%ADD11O,1.700000X1.700000*%
%ADD12C,3.000000*%
%ADD13C,4.500000*%
%ADD14C,1.000000*%
%ADD15R,1.600000X1.600000*%
%ADD16C,1.600000*%
%ADD17C,0.800000*%
%ADD18C,0.250000*%
%ADD19C,1.000000*%
%ADD20C,2.000000*%
%ADD21C,0.254000*%
G04 APERTURE END LIST*
D10*
X205450000Y-133300000D03*
X103000000Y-142400000D03*
D11*
X105540000Y-142400000D03*
X108080000Y-142400000D03*
X110620000Y-142400000D03*
X113160000Y-142400000D03*
X115700000Y-142400000D03*
D10*
X90200000Y-142386000D03*
D11*
X92740000Y-142386000D03*
X95280000Y-142386000D03*
X97820000Y-142386000D03*
D10*
X182270000Y-121250000D03*
D11*
X184810000Y-121250000D03*
X187350000Y-121250000D03*
X189890000Y-121250000D03*
D12*
X243562000Y-115636000D03*
X243562000Y-110636000D03*
X223562000Y-110636000D03*
X223562000Y-115636000D03*
D13*
X52324000Y-38100000D03*
D10*
X88900000Y-121920000D03*
D11*
X91440000Y-121920000D03*
X93980000Y-121920000D03*
D10*
X98862000Y-121861000D03*
D11*
X101402000Y-121861000D03*
X103942000Y-121861000D03*
D10*
X127000000Y-121412000D03*
D11*
X129540000Y-121412000D03*
D10*
X176400000Y-128550000D03*
D11*
X178940000Y-128550000D03*
X181480000Y-128550000D03*
X184020000Y-128550000D03*
X186560000Y-128550000D03*
D10*
X212237000Y-107511000D03*
D11*
X209697000Y-107511000D03*
X207157000Y-107511000D03*
X204617000Y-107511000D03*
X202077000Y-107511000D03*
X199537000Y-107511000D03*
D10*
X180812000Y-109836000D03*
D11*
X183352000Y-109836000D03*
X185892000Y-109836000D03*
X188432000Y-109836000D03*
D14*
X144037000Y-110636000D03*
X144037000Y-109136000D03*
D10*
X117000000Y-121700000D03*
D11*
X119540000Y-121700000D03*
X122080000Y-121700000D03*
D10*
X125517000Y-142386000D03*
D11*
X128057000Y-142386000D03*
X130597000Y-142386000D03*
X133137000Y-142386000D03*
X135677000Y-142386000D03*
X138217000Y-142386000D03*
X191140000Y-115500000D03*
D10*
X188600000Y-115500000D03*
D15*
X242762000Y-132186000D03*
D16*
X242762000Y-134686000D03*
D15*
X190212000Y-134136000D03*
D16*
X190212000Y-136636000D03*
D10*
X190462000Y-128886000D03*
D11*
X190462000Y-126346000D03*
D10*
X144962000Y-142386000D03*
D11*
X147502000Y-142386000D03*
X150042000Y-142386000D03*
X152582000Y-142386000D03*
X155122000Y-142386000D03*
X157662000Y-142386000D03*
D13*
X247142000Y-142494000D03*
X246800000Y-37800000D03*
X52578000Y-142240000D03*
D11*
X239202000Y-141636000D03*
D10*
X236662000Y-141636000D03*
X206212000Y-128836000D03*
D11*
X208752000Y-128836000D03*
D15*
X197812000Y-115536000D03*
D16*
X200312000Y-115536000D03*
D10*
X59690000Y-37846000D03*
D11*
X62230000Y-37846000D03*
X64770000Y-37846000D03*
X67310000Y-37846000D03*
X69850000Y-37846000D03*
X72390000Y-37846000D03*
X74930000Y-37846000D03*
X77470000Y-37846000D03*
X80010000Y-37846000D03*
X82550000Y-37846000D03*
D15*
X215762000Y-114086000D03*
D16*
X215762000Y-111586000D03*
D10*
X222662000Y-122886000D03*
D11*
X225202000Y-122886000D03*
D10*
X238400000Y-37750000D03*
D11*
X235860000Y-37750000D03*
D10*
X202946000Y-37846000D03*
D11*
X205486000Y-37846000D03*
X208026000Y-37846000D03*
X210566000Y-37846000D03*
X213106000Y-37846000D03*
X215646000Y-37846000D03*
X218186000Y-37846000D03*
X220726000Y-37846000D03*
X223266000Y-37846000D03*
X225806000Y-37846000D03*
X189293500Y-37846000D03*
X186753500Y-37846000D03*
X184213500Y-37846000D03*
X181673500Y-37846000D03*
X179133500Y-37846000D03*
X176593500Y-37846000D03*
X174053500Y-37846000D03*
X171513500Y-37846000D03*
X168973500Y-37846000D03*
D10*
X166433500Y-37846000D03*
X129921000Y-37846000D03*
D11*
X132461000Y-37846000D03*
X135001000Y-37846000D03*
X137541000Y-37846000D03*
X140081000Y-37846000D03*
X142621000Y-37846000D03*
X145161000Y-37846000D03*
X147701000Y-37846000D03*
X150241000Y-37846000D03*
X152781000Y-37846000D03*
X116268500Y-37846000D03*
X113728500Y-37846000D03*
X111188500Y-37846000D03*
X108648500Y-37846000D03*
X106108500Y-37846000D03*
X103568500Y-37846000D03*
X101028500Y-37846000D03*
X98488500Y-37846000D03*
X95948500Y-37846000D03*
D10*
X93408500Y-37846000D03*
D17*
X175862000Y-138286000D03*
X208612000Y-114086000D03*
X206362000Y-114236000D03*
X196912000Y-117836000D03*
X196882000Y-130086000D03*
X181762000Y-138286000D03*
X145087000Y-140971000D03*
X160187000Y-137111000D03*
X160112000Y-141061000D03*
X121743868Y-140704132D03*
X191200000Y-140328000D03*
X192900000Y-139850000D03*
X88981000Y-143935000D03*
X171712000Y-136136000D03*
X173662000Y-136136000D03*
X231174500Y-125536000D03*
X236262000Y-125536000D03*
X213612000Y-125736000D03*
X207062000Y-125736000D03*
X205862000Y-125736000D03*
X201612000Y-125886000D03*
X169537000Y-112286000D03*
X142812000Y-111786000D03*
X162437000Y-143636000D03*
X173712000Y-143586000D03*
X193437000Y-131686000D03*
X138062000Y-111811000D03*
X133462000Y-111811000D03*
X188362000Y-112276000D03*
X200312000Y-112286000D03*
X155062000Y-111769551D03*
X60284000Y-117966000D03*
X157512000Y-122536000D03*
X160462000Y-122606000D03*
X167102000Y-117296000D03*
X86868000Y-143510000D03*
X70104000Y-142240000D03*
X83312000Y-125222000D03*
X76454000Y-125222000D03*
X70104000Y-125222000D03*
X72136000Y-125222000D03*
X183134000Y-136398000D03*
X177292000Y-135890000D03*
X165773500Y-134112000D03*
X130556000Y-111811000D03*
X116840000Y-111911000D03*
X123190000Y-111836000D03*
X109087000Y-111911000D03*
X114046000Y-111911000D03*
X125350000Y-111836000D03*
X103950000Y-111911000D03*
X104000000Y-125286000D03*
X109800000Y-125350000D03*
X188812000Y-132136000D03*
X161802000Y-117300000D03*
X100100000Y-143935000D03*
X189150000Y-141636000D03*
X70100000Y-144200000D03*
X109450000Y-143935000D03*
X176000000Y-144250000D03*
X114200000Y-125400000D03*
X204750000Y-141636000D03*
X234696000Y-97028000D03*
X239776000Y-97028000D03*
X232410000Y-97028000D03*
X236982000Y-97028000D03*
X242062000Y-97028000D03*
X222758000Y-97028000D03*
X227838000Y-97028000D03*
X220472000Y-97028000D03*
X225044000Y-97028000D03*
X230124000Y-97028000D03*
X210566000Y-97028000D03*
X215646000Y-97028000D03*
X208280000Y-97028000D03*
X212852000Y-97028000D03*
X217932000Y-97028000D03*
X198628000Y-97028000D03*
X203708000Y-97028000D03*
X196342000Y-97028000D03*
X200914000Y-97028000D03*
X205994000Y-97028000D03*
X186436000Y-97028000D03*
X191516000Y-97028000D03*
X184150000Y-97028000D03*
X188722000Y-97028000D03*
X193802000Y-97028000D03*
X174244000Y-97028000D03*
X179324000Y-97028000D03*
X171958000Y-97028000D03*
X176530000Y-97028000D03*
X181610000Y-97028000D03*
X162306000Y-97028000D03*
X167386000Y-97028000D03*
X160020000Y-97028000D03*
X164592000Y-97028000D03*
X169672000Y-97028000D03*
X150368000Y-97028000D03*
X155448000Y-97028000D03*
X148082000Y-97028000D03*
X152654000Y-97028000D03*
X157734000Y-97028000D03*
X138176000Y-97028000D03*
X143256000Y-97028000D03*
X135890000Y-97028000D03*
X140462000Y-97028000D03*
X145542000Y-97028000D03*
X126238000Y-97028000D03*
X131318000Y-97028000D03*
X123952000Y-97028000D03*
X128524000Y-97028000D03*
X133604000Y-97028000D03*
X114046000Y-97028000D03*
X119126000Y-97028000D03*
X111760000Y-97028000D03*
X121412000Y-97028000D03*
X102108000Y-97028000D03*
X107188000Y-97028000D03*
X99822000Y-97028000D03*
X104394000Y-97028000D03*
X109474000Y-97028000D03*
X90170000Y-97028000D03*
X95250000Y-97028000D03*
X87884000Y-97028000D03*
X92456000Y-97028000D03*
X97536000Y-97028000D03*
X77978000Y-97028000D03*
X83058000Y-97028000D03*
X75692000Y-97028000D03*
X80264000Y-97028000D03*
X85344000Y-97028000D03*
X66040000Y-97028000D03*
X71120000Y-97028000D03*
X63754000Y-97028000D03*
X68326000Y-97028000D03*
X73406000Y-97028000D03*
X204262000Y-113636000D03*
X168687000Y-115086000D03*
X158812000Y-115586000D03*
X234667000Y-119536000D03*
X199312000Y-119561000D03*
X97087000Y-131596998D03*
X101712000Y-131686000D03*
X108837000Y-131736000D03*
X104537000Y-131686000D03*
X194687000Y-115536000D03*
X53848000Y-97028000D03*
X56134000Y-97028000D03*
X58928000Y-97028000D03*
X61214000Y-97028000D03*
X116840000Y-97028000D03*
X78486000Y-131572000D03*
X184500000Y-115086000D03*
X182250000Y-115100000D03*
X144050000Y-131750000D03*
X52634986Y-99500863D03*
X117104999Y-131750000D03*
X237962000Y-116236000D03*
X210462000Y-136336000D03*
X218812000Y-136286000D03*
X54652000Y-46482000D03*
X93500420Y-46482000D03*
X83788315Y-46482000D03*
X74076210Y-46482000D03*
X64364105Y-46482000D03*
X103124000Y-46482000D03*
X112924630Y-46482000D03*
X122636735Y-46482000D03*
X132348840Y-46482000D03*
X141986000Y-46482000D03*
X151773050Y-46482000D03*
X161485155Y-46482000D03*
X171197260Y-46482000D03*
X181102000Y-46482000D03*
X190621470Y-46228000D03*
X200333575Y-46482000D03*
X210045680Y-46482000D03*
X219757785Y-46228000D03*
X229469890Y-46228000D03*
X239182000Y-46482000D03*
X54652000Y-56642000D03*
X245086990Y-56896000D03*
X239182000Y-56896000D03*
X229469890Y-56896000D03*
X219757785Y-56896000D03*
X210045680Y-56896000D03*
X200333575Y-56896000D03*
X190621470Y-56896000D03*
X180909365Y-56896000D03*
X171197260Y-56896000D03*
X161485155Y-56896000D03*
X151773050Y-56896000D03*
X142060945Y-56896000D03*
X132348840Y-56896000D03*
X122636735Y-56642000D03*
X112924630Y-56642000D03*
X103212525Y-56642000D03*
X93500420Y-56642000D03*
X83788315Y-56642000D03*
X74076210Y-56642000D03*
X64364105Y-56642000D03*
X244718000Y-46482000D03*
X244000000Y-56896000D03*
X155605615Y-123584036D03*
X232912000Y-124851000D03*
X204250000Y-123861000D03*
X154940000Y-55118000D03*
X150114000Y-55372000D03*
X213106000Y-55118000D03*
X207772000Y-55118000D03*
X222758000Y-55372000D03*
X217678000Y-55118000D03*
X232918000Y-55372000D03*
X227841381Y-55369574D03*
X242316000Y-55626000D03*
X237998000Y-55626000D03*
X86773315Y-55372000D03*
X81534000Y-55372000D03*
X76962000Y-55118000D03*
X72390000Y-54864000D03*
X68326000Y-55118000D03*
X61976000Y-55118000D03*
X58674000Y-55118000D03*
X52324000Y-55118000D03*
X125737385Y-55626000D03*
X120904000Y-55118000D03*
X164470155Y-55372000D03*
X160020000Y-55118000D03*
X135636000Y-55372000D03*
X131064000Y-55372000D03*
X145288000Y-55372000D03*
X140462000Y-55118000D03*
X203454000Y-55372000D03*
X198628000Y-55118000D03*
X193802000Y-55626000D03*
X188468000Y-55372000D03*
X183896000Y-55626000D03*
X179070000Y-55372000D03*
X115811990Y-55118000D03*
X111028360Y-55089454D03*
X106172000Y-55372000D03*
X101600000Y-55372000D03*
X96485420Y-55267166D03*
X91694000Y-55118000D03*
X174244000Y-55626000D03*
X169418000Y-55118000D03*
X237262000Y-133086000D03*
X211962000Y-134736000D03*
X156807001Y-106172000D03*
X112915682Y-99060000D03*
X176166129Y-108990129D03*
X240284000Y-103886000D03*
X174780805Y-108826875D03*
X230632000Y-103886000D03*
X174691369Y-106825369D03*
X220980000Y-103886000D03*
X177800000Y-108458000D03*
X214122000Y-106631060D03*
X175465805Y-109727101D03*
X236982000Y-103886000D03*
X174772000Y-107836000D03*
X225806000Y-104140000D03*
X181356000Y-104902000D03*
X217170000Y-103621020D03*
X209296000Y-102801000D03*
X171009317Y-126687542D03*
X194000000Y-125371000D03*
X195400000Y-102801000D03*
X148382632Y-107486000D03*
X65786000Y-103886000D03*
X56134000Y-103886000D03*
X150622000Y-126165413D03*
X132080000Y-125984000D03*
X131572000Y-107696000D03*
X150677000Y-107235001D03*
X82804000Y-103886000D03*
X149067632Y-106760369D03*
X73406000Y-103886000D03*
X147697632Y-108324664D03*
X62738000Y-103886000D03*
X53086000Y-103886000D03*
X146558000Y-120142000D03*
X146558000Y-108458000D03*
X159512000Y-121412000D03*
X155437001Y-106191447D03*
X103246735Y-99822000D03*
X150227000Y-108128402D03*
X76454000Y-104140000D03*
X173390953Y-127135000D03*
X195050000Y-127650000D03*
X150368000Y-104648000D03*
X86851558Y-100838000D03*
X160077000Y-106680000D03*
X137160000Y-97790000D03*
X160577000Y-105754125D03*
X141729500Y-97713000D03*
X159577000Y-107568824D03*
X132334000Y-97790000D03*
X174350000Y-105550000D03*
X201846254Y-101350000D03*
X167921369Y-107145369D03*
X192189196Y-100915000D03*
X159077000Y-108426712D03*
X127508000Y-97790000D03*
X157492001Y-105333000D03*
X115679780Y-98806000D03*
X156122001Y-105333000D03*
X106033200Y-99060000D03*
X154686000Y-105410000D03*
X98298000Y-100914999D03*
X158577000Y-109314266D03*
X122584629Y-98298000D03*
X151158465Y-105389231D03*
X93577788Y-100838000D03*
X236162000Y-135636000D03*
X230812000Y-135586000D03*
X218837000Y-128511000D03*
X228912000Y-128461000D03*
X157988000Y-131318000D03*
X99350000Y-130800000D03*
X97600000Y-140700000D03*
X151362000Y-139186000D03*
X92150000Y-135045000D03*
X95700000Y-135045000D03*
X92900000Y-139150000D03*
X95504000Y-133604000D03*
X158400000Y-133800000D03*
X91712000Y-138061000D03*
X103087000Y-138061000D03*
X150677000Y-135715999D03*
X104783869Y-135532869D03*
X105306000Y-140150000D03*
X110500000Y-140150000D03*
X160800000Y-133450000D03*
X181250000Y-133200000D03*
X154212000Y-129436000D03*
X95550000Y-128646000D03*
X152712000Y-128536000D03*
X94750000Y-127961000D03*
X174847000Y-137896002D03*
X172812000Y-137886000D03*
X172812000Y-134436000D03*
X176062000Y-133836000D03*
X150637000Y-122621000D03*
X136652000Y-122621000D03*
X166212000Y-139586000D03*
X182112000Y-139686000D03*
X164262000Y-138036000D03*
X174162000Y-138636000D03*
X170412000Y-125936000D03*
X176700000Y-125350000D03*
X175312000Y-125251000D03*
X167208940Y-125328177D03*
X170112000Y-133636000D03*
X173497000Y-135128000D03*
X152862000Y-112454551D03*
X192862000Y-112911000D03*
X168712000Y-129836000D03*
X156587000Y-135586000D03*
X139287000Y-116261000D03*
X98912000Y-116386000D03*
X140172000Y-112536000D03*
X168778641Y-134985303D03*
X129286000Y-116261000D03*
X121412000Y-116332000D03*
X113538000Y-116361000D03*
X94050000Y-116350000D03*
X168712000Y-131050000D03*
X199400000Y-135150000D03*
X169948505Y-117635489D03*
X184950000Y-117295999D03*
X164550000Y-122000000D03*
X186250000Y-118026000D03*
X161223436Y-139166000D03*
X154816172Y-139166000D03*
X161937000Y-138481000D03*
X147412000Y-138486000D03*
X103637000Y-136636000D03*
X127937000Y-138486000D03*
X162646839Y-136426000D03*
X152562000Y-136426000D03*
X105012000Y-136561000D03*
X133112000Y-136950999D03*
X105999000Y-136569000D03*
X163332483Y-137796000D03*
X150062000Y-137811000D03*
X130662000Y-137800999D03*
X106684000Y-134715990D03*
X161462711Y-134901000D03*
X120612000Y-140541001D03*
X159062000Y-140286000D03*
X135762000Y-140541001D03*
X159450000Y-128350000D03*
X145500000Y-131850000D03*
X157537000Y-115611000D03*
X101350000Y-113550000D03*
X150502836Y-119251000D03*
X145527000Y-114061000D03*
X145462000Y-115061000D03*
X149192000Y-119311010D03*
X167502000Y-113836000D03*
X191687000Y-110961000D03*
X179500000Y-113836000D03*
X168612000Y-109186000D03*
X191312000Y-108661000D03*
X156700000Y-118950000D03*
X195400000Y-117150000D03*
X161450000Y-132050000D03*
X183950000Y-132050000D03*
X162250000Y-128400000D03*
X186650000Y-130000000D03*
X172974000Y-128016000D03*
X171196000Y-130556000D03*
X178800000Y-130550000D03*
X209962000Y-124686000D03*
X177900000Y-124600000D03*
X209812001Y-112876000D03*
X180750000Y-113900000D03*
X175612000Y-121111000D03*
X207062000Y-121036000D03*
X172836289Y-122810288D03*
X202887000Y-118711000D03*
X157480000Y-137111000D03*
X137160000Y-136906000D03*
X135890000Y-123991000D03*
X127000000Y-124206000D03*
X159947000Y-131573326D03*
X133096000Y-124686000D03*
X129794000Y-124714000D03*
X136398000Y-132159010D03*
X62300000Y-118750000D03*
X88950000Y-118800000D03*
X149067632Y-117036000D03*
X145092000Y-117096000D03*
X91450000Y-117500000D03*
X166447000Y-118110000D03*
X63300000Y-119650000D03*
X166447000Y-119126000D03*
X62050000Y-124200000D03*
X149141910Y-124776494D03*
X134366000Y-124714000D03*
X132334000Y-110490000D03*
X119634000Y-110490000D03*
X128270000Y-123306000D03*
X149352000Y-123306000D03*
X148590000Y-123991000D03*
X139700000Y-123991000D03*
X138350000Y-115150000D03*
X112850000Y-115000000D03*
X138350000Y-124000000D03*
X173150000Y-111650000D03*
X202050000Y-111600000D03*
X166878000Y-121412000D03*
X164577000Y-123444000D03*
X160528000Y-127762000D03*
X73152000Y-130048000D03*
X157294469Y-127205849D03*
X75169000Y-126669000D03*
X156606038Y-127874928D03*
X77470000Y-129540000D03*
X157947000Y-128554045D03*
X79500000Y-130650000D03*
X155887000Y-128511000D03*
X80518000Y-130350000D03*
D18*
X183662000Y-140186000D02*
X181762000Y-138286000D01*
X175862000Y-137720315D02*
X175252685Y-137111000D01*
X175862000Y-138286000D02*
X175862000Y-137720315D01*
X175252685Y-137111000D02*
X160187000Y-137111000D01*
X145177000Y-141061000D02*
X145087000Y-140971000D01*
X160112000Y-141061000D02*
X145177000Y-141061000D01*
X122265738Y-141226002D02*
X121743868Y-140704132D01*
X144266313Y-141226002D02*
X122265738Y-141226002D01*
X145087000Y-140971000D02*
X144521315Y-140971000D01*
X144521315Y-140971000D02*
X144266313Y-141226002D01*
X185112000Y-140186000D02*
X184250000Y-140186000D01*
X184250000Y-140186000D02*
X183662000Y-140186000D01*
X184250000Y-140186000D02*
X191058000Y-140186000D01*
X191058000Y-140186000D02*
X191200000Y-140328000D01*
D19*
X175862000Y-138286000D02*
X181762000Y-138286000D01*
X182327685Y-138286000D02*
X183891685Y-139850000D01*
X181762000Y-138286000D02*
X182327685Y-138286000D01*
X204962000Y-130086000D02*
X206212000Y-128836000D01*
X196882000Y-130086000D02*
X204962000Y-130086000D01*
X206212000Y-128836000D02*
X208752000Y-128836000D01*
X197477685Y-117836000D02*
X197491685Y-117850000D01*
X196912000Y-117836000D02*
X197477685Y-117836000D01*
X205230802Y-114236000D02*
X206362000Y-114236000D01*
X201616802Y-117850000D02*
X205230802Y-114236000D01*
X197491685Y-117850000D02*
X201616802Y-117850000D01*
X208462000Y-114236000D02*
X208612000Y-114086000D01*
X206362000Y-114236000D02*
X208462000Y-114236000D01*
X208612000Y-114086000D02*
X215762000Y-114086000D01*
X183891685Y-139850000D02*
X192900000Y-139850000D01*
X80010000Y-37846000D02*
X82550000Y-37846000D01*
X82550000Y-37846000D02*
X84328000Y-37846000D01*
X84328000Y-37846000D02*
X85838001Y-39356001D01*
X116576420Y-39356001D02*
X116586000Y-39356001D01*
X116268500Y-39048081D02*
X116576420Y-39356001D01*
X116268500Y-37846000D02*
X116268500Y-39048081D01*
D20*
X225806000Y-37846000D02*
X225806000Y-39344000D01*
X225806000Y-39344000D02*
X224850000Y-40300000D01*
X86782000Y-40300000D02*
X84328000Y-37846000D01*
X84328000Y-37846000D02*
X80010000Y-37846000D01*
X116846000Y-37846000D02*
X119300000Y-40300000D01*
X113728500Y-37846000D02*
X116846000Y-37846000D01*
X119300000Y-40300000D02*
X86782000Y-40300000D01*
X155246000Y-37846000D02*
X157700000Y-40300000D01*
X150241000Y-37846000D02*
X155246000Y-37846000D01*
X157700000Y-40300000D02*
X119300000Y-40300000D01*
X191496000Y-37846000D02*
X193950000Y-40300000D01*
X186753500Y-37846000D02*
X191496000Y-37846000D01*
X224850000Y-40300000D02*
X193950000Y-40300000D01*
X193950000Y-40300000D02*
X157700000Y-40300000D01*
X223266000Y-37846000D02*
X225806000Y-37846000D01*
X225902000Y-37750000D02*
X225806000Y-37846000D01*
X235860000Y-37750000D02*
X225902000Y-37750000D01*
D18*
X88981000Y-143935000D02*
X100100000Y-143935000D01*
X171712000Y-136136000D02*
X173662000Y-136136000D01*
X231174500Y-125536000D02*
X236262000Y-125536000D01*
X219075802Y-125736000D02*
X213612000Y-125736000D01*
X231174500Y-125536000D02*
X219275802Y-125536000D01*
X219275802Y-125536000D02*
X219075802Y-125736000D01*
X213612000Y-125736000D02*
X207062000Y-125736000D01*
X207062000Y-125736000D02*
X205862000Y-125736000D01*
X201762000Y-125736000D02*
X201612000Y-125886000D01*
X205862000Y-125736000D02*
X201762000Y-125736000D01*
X203112000Y-141636000D02*
X195212000Y-141636000D01*
X169537000Y-112286000D02*
X169020551Y-111769551D01*
X155062000Y-111769551D02*
X142828449Y-111769551D01*
X142828449Y-111769551D02*
X142812000Y-111786000D01*
X188687000Y-132011000D02*
X188812000Y-132136000D01*
X173712000Y-143586000D02*
X180212000Y-143586000D01*
X180212000Y-143586000D02*
X180537000Y-143261000D01*
X188812000Y-132136000D02*
X192987000Y-132136000D01*
X192987000Y-132136000D02*
X193437000Y-131686000D01*
X142812000Y-111786000D02*
X138087000Y-111786000D01*
X138087000Y-111786000D02*
X138062000Y-111811000D01*
X129112000Y-111811000D02*
X129087000Y-111836000D01*
X138062000Y-111811000D02*
X133462000Y-111811000D01*
X100100000Y-143935000D02*
X109450000Y-143935000D01*
X113364000Y-143636000D02*
X162437000Y-143636000D01*
X170102685Y-112286000D02*
X170202685Y-112386000D01*
X169537000Y-112286000D02*
X170102685Y-112286000D01*
X188252000Y-112386000D02*
X188362000Y-112276000D01*
X187312000Y-112386000D02*
X188252000Y-112386000D01*
X187312000Y-112386000D02*
X187887000Y-112386000D01*
X170202685Y-112386000D02*
X187312000Y-112386000D01*
X188977686Y-112225999D02*
X198176999Y-112225999D01*
X188362000Y-112276000D02*
X188927685Y-112276000D01*
X188927685Y-112276000D02*
X188977686Y-112225999D01*
X198237000Y-112286000D02*
X200312000Y-112286000D01*
X198176999Y-112225999D02*
X198237000Y-112286000D01*
X117537000Y-111836000D02*
X117462000Y-111911000D01*
X169020551Y-111769551D02*
X155062000Y-111769551D01*
X157512000Y-122536000D02*
X160392000Y-122536000D01*
X160392000Y-122536000D02*
X160462000Y-122606000D01*
X52324000Y-38100000D02*
X52324000Y-41281980D01*
X246767980Y-37846000D02*
X248920000Y-39998020D01*
X248920000Y-39998020D02*
X248920000Y-125222000D01*
X248606000Y-125536000D02*
X236262000Y-125536000D01*
X248920000Y-125222000D02*
X248606000Y-125536000D01*
X80689000Y-143935000D02*
X80134001Y-144489999D01*
X87293000Y-143935000D02*
X86868000Y-143510000D01*
X87630000Y-143935000D02*
X87293000Y-143935000D01*
X88981000Y-143935000D02*
X87630000Y-143935000D01*
X69850000Y-142240000D02*
X70104000Y-142240000D01*
X100302000Y-125316000D02*
X83406000Y-125316000D01*
X83406000Y-125316000D02*
X83312000Y-125222000D01*
X83312000Y-125222000D02*
X76454000Y-125222000D01*
X76454000Y-125222000D02*
X72136000Y-125222000D01*
X72136000Y-125222000D02*
X70104000Y-125222000D01*
X190212000Y-136636000D02*
X183372000Y-136636000D01*
X183372000Y-136636000D02*
X183134000Y-136398000D01*
X183134000Y-136398000D02*
X177800000Y-136398000D01*
X177800000Y-136398000D02*
X177292000Y-135890000D01*
X171712000Y-135570315D02*
X171196000Y-135054315D01*
X171712000Y-136136000D02*
X171712000Y-135570315D01*
X168919140Y-134112000D02*
X165773500Y-134112000D01*
X169861455Y-135054315D02*
X168919140Y-134112000D01*
X171196000Y-135054315D02*
X169861455Y-135054315D01*
X60284000Y-117966000D02*
X54974000Y-117966000D01*
X129087000Y-111836000D02*
X125350000Y-111836000D01*
X133462000Y-111811000D02*
X130556000Y-111811000D01*
X130556000Y-111811000D02*
X129112000Y-111811000D01*
X117462000Y-111911000D02*
X116840000Y-111911000D01*
X116840000Y-111911000D02*
X114046000Y-111911000D01*
X125350000Y-111836000D02*
X123190000Y-111836000D01*
X123190000Y-111836000D02*
X117537000Y-111836000D01*
X100302000Y-125316000D02*
X100332000Y-125286000D01*
X105532000Y-125286000D02*
X105622000Y-125376000D01*
X114046000Y-111911000D02*
X109087000Y-111911000D01*
X109087000Y-111911000D02*
X103950000Y-111911000D01*
X100332000Y-125286000D02*
X104000000Y-125286000D01*
X109736000Y-125286000D02*
X109800000Y-125350000D01*
X105050000Y-125286000D02*
X109736000Y-125286000D01*
X105050000Y-125286000D02*
X105532000Y-125286000D01*
X104000000Y-125286000D02*
X105050000Y-125286000D01*
X161806000Y-117296000D02*
X167102000Y-117296000D01*
X161806000Y-117296000D02*
X161802000Y-117300000D01*
X195362000Y-141636000D02*
X189150000Y-141636000D01*
X70389999Y-144489999D02*
X70550000Y-144489999D01*
X70100000Y-144200000D02*
X70389999Y-144489999D01*
X70550000Y-144489999D02*
X80134001Y-144489999D01*
X54827999Y-144489999D02*
X70550000Y-144489999D01*
X113150000Y-143850000D02*
X113364000Y-143636000D01*
X109450000Y-143935000D02*
X109995081Y-143935000D01*
D19*
X52578000Y-142240000D02*
X54588990Y-144250990D01*
D18*
X54588990Y-144250990D02*
X54827999Y-144489999D01*
D19*
X54588990Y-144250990D02*
X66599010Y-144250990D01*
X66599010Y-144250990D02*
X66600000Y-144250000D01*
X161950000Y-144250000D02*
X162600000Y-144250000D01*
X246056000Y-142494000D02*
X247142000Y-142494000D01*
X244300000Y-144250000D02*
X246056000Y-142494000D01*
X240060000Y-142494000D02*
X239202000Y-141636000D01*
X247142000Y-142494000D02*
X240060000Y-142494000D01*
X239202000Y-141636000D02*
X236662000Y-141636000D01*
X203112000Y-141636000D02*
X189264000Y-141636000D01*
X187314000Y-143586000D02*
X173712000Y-143586000D01*
X189264000Y-141636000D02*
X187314000Y-143586000D01*
X157650000Y-143600081D02*
X157650000Y-144250000D01*
X157662000Y-143588081D02*
X157650000Y-143600081D01*
X157662000Y-142386000D02*
X157662000Y-143588081D01*
X138250000Y-144250000D02*
X157650000Y-144250000D01*
X157650000Y-144250000D02*
X161950000Y-144250000D01*
X138217000Y-144217000D02*
X138250000Y-144250000D01*
X138217000Y-142386000D02*
X138217000Y-144217000D01*
X161950000Y-144250000D02*
X176000000Y-144250000D01*
X176000000Y-144250000D02*
X244300000Y-144250000D01*
X60284000Y-117966000D02*
X50866000Y-117966000D01*
X50866000Y-117966000D02*
X50547010Y-118284990D01*
X50547010Y-118284990D02*
X50547010Y-137550000D01*
X50547010Y-140209010D02*
X52578000Y-142240000D01*
X50547010Y-137550000D02*
X50547010Y-140209010D01*
D18*
X50379096Y-125222000D02*
X50357096Y-125200000D01*
X70104000Y-125222000D02*
X50379096Y-125222000D01*
X50172010Y-113164010D02*
X50357096Y-125200000D01*
D19*
X109672000Y-125222000D02*
X109800000Y-125350000D01*
X83312000Y-125222000D02*
X109672000Y-125222000D01*
X137962000Y-111911000D02*
X138062000Y-111811000D01*
X103950000Y-111911000D02*
X137962000Y-111911000D01*
X50547010Y-118284990D02*
X50547010Y-98400000D01*
D18*
X50547010Y-98400000D02*
X50172010Y-113164010D01*
D19*
X50547010Y-43902990D02*
X50547010Y-98400000D01*
X50700000Y-43750000D02*
X50547010Y-43902990D01*
X52324000Y-41281980D02*
X50700000Y-42905980D01*
X50700000Y-42905980D02*
X50700000Y-43750000D01*
X109800000Y-125350000D02*
X114150000Y-125350000D01*
X114150000Y-125350000D02*
X114200000Y-125400000D01*
X50547010Y-125260001D02*
X50547010Y-125300000D01*
X75009197Y-125260001D02*
X50547010Y-125260001D01*
X75047198Y-125222000D02*
X75009197Y-125260001D01*
X83312000Y-125222000D02*
X75047198Y-125222000D01*
D18*
X50357096Y-125200000D02*
X50547010Y-125300000D01*
X50547010Y-125300000D02*
X50547010Y-137550000D01*
D19*
X236662000Y-141636000D02*
X204750000Y-141636000D01*
X204750000Y-141636000D02*
X203112000Y-141636000D01*
D18*
X80134001Y-144489999D02*
X80134001Y-144015999D01*
D19*
X79950000Y-144200000D02*
X80900000Y-143250000D01*
X70100000Y-144200000D02*
X79950000Y-144200000D01*
D18*
X80134001Y-144015999D02*
X80900000Y-143250000D01*
D19*
X80900000Y-143250000D02*
X80900000Y-143050000D01*
X80900000Y-143050000D02*
X81700000Y-142250000D01*
X85608000Y-142250000D02*
X86868000Y-143510000D01*
X81700000Y-142250000D02*
X85608000Y-142250000D01*
D18*
X234696000Y-97028000D02*
X236982000Y-97028000D01*
X232410000Y-97028000D02*
X234696000Y-97028000D01*
X236982000Y-97028000D02*
X239776000Y-97028000D01*
X239776000Y-97028000D02*
X242062000Y-97028000D01*
X222758000Y-97028000D02*
X225044000Y-97028000D01*
X220472000Y-97028000D02*
X222758000Y-97028000D01*
X225044000Y-97028000D02*
X227838000Y-97028000D01*
X227838000Y-97028000D02*
X230124000Y-97028000D01*
X210566000Y-97028000D02*
X212852000Y-97028000D01*
X208280000Y-97028000D02*
X210566000Y-97028000D01*
X212852000Y-97028000D02*
X215646000Y-97028000D01*
X215646000Y-97028000D02*
X217932000Y-97028000D01*
X198628000Y-97028000D02*
X200914000Y-97028000D01*
X196342000Y-97028000D02*
X198628000Y-97028000D01*
X200914000Y-97028000D02*
X203708000Y-97028000D01*
X203708000Y-97028000D02*
X205994000Y-97028000D01*
X186436000Y-97028000D02*
X188722000Y-97028000D01*
X184150000Y-97028000D02*
X186436000Y-97028000D01*
X188722000Y-97028000D02*
X191516000Y-97028000D01*
X191516000Y-97028000D02*
X193802000Y-97028000D01*
X174244000Y-97028000D02*
X176530000Y-97028000D01*
X171958000Y-97028000D02*
X174244000Y-97028000D01*
X176530000Y-97028000D02*
X179324000Y-97028000D01*
X179324000Y-97028000D02*
X181610000Y-97028000D01*
X162306000Y-97028000D02*
X164592000Y-97028000D01*
X160020000Y-97028000D02*
X162306000Y-97028000D01*
X164592000Y-97028000D02*
X167386000Y-97028000D01*
X167386000Y-97028000D02*
X169672000Y-97028000D01*
X150368000Y-97028000D02*
X152654000Y-97028000D01*
X148082000Y-97028000D02*
X150368000Y-97028000D01*
X152654000Y-97028000D02*
X155448000Y-97028000D01*
X155448000Y-97028000D02*
X157734000Y-97028000D01*
X138176000Y-97028000D02*
X140462000Y-97028000D01*
X135890000Y-97028000D02*
X138176000Y-97028000D01*
X140462000Y-97028000D02*
X143256000Y-97028000D01*
X143256000Y-97028000D02*
X145542000Y-97028000D01*
X126238000Y-97028000D02*
X128524000Y-97028000D01*
X123952000Y-97028000D02*
X126238000Y-97028000D01*
X128524000Y-97028000D02*
X131318000Y-97028000D01*
X131318000Y-97028000D02*
X133604000Y-97028000D01*
X111760000Y-97028000D02*
X114046000Y-97028000D01*
X119126000Y-97028000D02*
X121412000Y-97028000D01*
X102108000Y-97028000D02*
X104394000Y-97028000D01*
X99822000Y-97028000D02*
X102108000Y-97028000D01*
X104394000Y-97028000D02*
X107188000Y-97028000D01*
X107188000Y-97028000D02*
X109474000Y-97028000D01*
X90170000Y-97028000D02*
X92456000Y-97028000D01*
X87884000Y-97028000D02*
X90170000Y-97028000D01*
X92456000Y-97028000D02*
X95250000Y-97028000D01*
X95250000Y-97028000D02*
X97536000Y-97028000D01*
X77978000Y-97028000D02*
X80264000Y-97028000D01*
X75692000Y-97028000D02*
X77978000Y-97028000D01*
X80264000Y-97028000D02*
X83058000Y-97028000D01*
X83058000Y-97028000D02*
X85344000Y-97028000D01*
X66040000Y-97028000D02*
X68326000Y-97028000D01*
X63754000Y-97028000D02*
X66040000Y-97028000D01*
X68326000Y-97028000D02*
X71120000Y-97028000D01*
X71120000Y-97028000D02*
X73406000Y-97028000D01*
X197812000Y-114486000D02*
X197812000Y-115536000D01*
X198662000Y-113636000D02*
X197812000Y-114486000D01*
X204262000Y-113636000D02*
X198662000Y-113636000D01*
X190812000Y-115536000D02*
X190512000Y-115236000D01*
X190412000Y-115136000D02*
X190512000Y-115236000D01*
X159262000Y-115136000D02*
X158812000Y-115586000D01*
X199337000Y-119536000D02*
X199312000Y-119561000D01*
X234667000Y-119536000D02*
X199337000Y-119536000D01*
X97087000Y-131596998D02*
X96521315Y-131596998D01*
X108787000Y-131686000D02*
X108837000Y-131736000D01*
X101712000Y-131686000D02*
X104537000Y-131686000D01*
X104537000Y-131686000D02*
X108787000Y-131686000D01*
X194687000Y-115536000D02*
X190812000Y-115536000D01*
X53848000Y-97028000D02*
X56134000Y-97028000D01*
X56134000Y-97028000D02*
X58928000Y-97028000D01*
X58928000Y-97028000D02*
X61214000Y-97028000D01*
X232410000Y-97028000D02*
X230124000Y-97028000D01*
X220472000Y-97028000D02*
X217932000Y-97028000D01*
X208280000Y-97028000D02*
X205994000Y-97028000D01*
X196342000Y-97028000D02*
X193802000Y-97028000D01*
X184150000Y-97028000D02*
X181610000Y-97028000D01*
X171958000Y-97028000D02*
X169672000Y-97028000D01*
X160020000Y-97028000D02*
X157734000Y-97028000D01*
X148082000Y-97028000D02*
X145542000Y-97028000D01*
X135890000Y-97028000D02*
X133604000Y-97028000D01*
X123952000Y-97028000D02*
X121412000Y-97028000D01*
X99822000Y-97028000D02*
X97536000Y-97028000D01*
X87884000Y-97028000D02*
X85344000Y-97028000D01*
X73406000Y-97028000D02*
X75692000Y-97028000D01*
X61214000Y-97028000D02*
X63754000Y-97028000D01*
X109474000Y-97028000D02*
X111760000Y-97028000D01*
X114046000Y-97028000D02*
X116840000Y-97028000D01*
X116840000Y-97028000D02*
X119126000Y-97028000D01*
X78492001Y-131565999D02*
X78486000Y-131572000D01*
X96521315Y-131596998D02*
X96490316Y-131565999D01*
X96490316Y-131565999D02*
X78492001Y-131565999D01*
X176850000Y-115086000D02*
X177150000Y-115086000D01*
X168687000Y-115086000D02*
X176850000Y-115086000D01*
X176850000Y-115086000D02*
X184500000Y-115086000D01*
X138375990Y-131750000D02*
X138100000Y-131474010D01*
X144050000Y-131750000D02*
X138375990Y-131750000D01*
X133447990Y-131474010D02*
X138100000Y-131474010D01*
X112498000Y-131736000D02*
X112512000Y-131750000D01*
X108837000Y-131736000D02*
X112498000Y-131736000D01*
X112512000Y-131750000D02*
X113077685Y-131750000D01*
X101622998Y-131596998D02*
X101712000Y-131686000D01*
X97087000Y-131596998D02*
X101622998Y-131596998D01*
X132861802Y-131550000D02*
X133372000Y-131550000D01*
X132661802Y-131750000D02*
X132861802Y-131550000D01*
X133372000Y-131550000D02*
X133447990Y-131474010D01*
X53848000Y-97028000D02*
X53848000Y-98287849D01*
X53848000Y-98287849D02*
X52634986Y-99500863D01*
X112512000Y-131750000D02*
X117104999Y-131750000D01*
X117104999Y-131750000D02*
X132661802Y-131750000D01*
D19*
X197812000Y-115536000D02*
X194687000Y-115536000D01*
X191176000Y-115536000D02*
X191140000Y-115500000D01*
X194687000Y-115536000D02*
X191176000Y-115536000D01*
X191140000Y-115500000D02*
X188600000Y-115500000D01*
X184914000Y-115500000D02*
X184500000Y-115086000D01*
X188600000Y-115500000D02*
X184914000Y-115500000D01*
X182264000Y-115086000D02*
X182250000Y-115100000D01*
X184500000Y-115086000D02*
X182264000Y-115086000D01*
X168701000Y-115100000D02*
X168687000Y-115086000D01*
X182250000Y-115100000D02*
X168701000Y-115100000D01*
X159312000Y-115086000D02*
X158812000Y-115586000D01*
X168687000Y-115086000D02*
X159312000Y-115086000D01*
D18*
X242962000Y-116236000D02*
X243562000Y-115636000D01*
X237962000Y-116236000D02*
X242962000Y-116236000D01*
X210462000Y-136336000D02*
X218762000Y-136336000D01*
X218762000Y-136336000D02*
X218812000Y-136286000D01*
D20*
X244718000Y-46482000D02*
X54652000Y-46482000D01*
X55196001Y-57186001D02*
X54652000Y-56642000D01*
X243064801Y-57186001D02*
X55196001Y-57186001D01*
X243354802Y-56896000D02*
X243064801Y-57186001D01*
X244000000Y-56896000D02*
X243354802Y-56896000D01*
X244000000Y-56896000D02*
X245086990Y-56896000D01*
D18*
X229046315Y-124851000D02*
X232912000Y-124851000D01*
X229036315Y-124861000D02*
X229046315Y-124851000D01*
X218612000Y-124861000D02*
X229036315Y-124861000D01*
X217612000Y-123861000D02*
X218612000Y-124861000D01*
X155605615Y-123584036D02*
X162700036Y-123584036D01*
X162700036Y-123584036D02*
X163322000Y-124206000D01*
X163322000Y-124206000D02*
X167018036Y-124206000D01*
X167018036Y-124206000D02*
X167640000Y-123584036D01*
X167640000Y-123584036D02*
X181075234Y-123584036D01*
X181075234Y-123584036D02*
X181352198Y-123861000D01*
X204250000Y-123861000D02*
X217612000Y-123861000D01*
X181352198Y-123861000D02*
X204250000Y-123861000D01*
X154940000Y-55118000D02*
X150368000Y-55118000D01*
X150368000Y-55118000D02*
X150114000Y-55372000D01*
X213106000Y-55118000D02*
X207772000Y-55118000D01*
X222758000Y-55372000D02*
X217932000Y-55372000D01*
X217932000Y-55372000D02*
X217678000Y-55118000D01*
X232918000Y-55372000D02*
X227843807Y-55372000D01*
X227843807Y-55372000D02*
X227841381Y-55369574D01*
X242316000Y-55626000D02*
X237998000Y-55626000D01*
X86773315Y-55372000D02*
X81534000Y-55372000D01*
X76962000Y-55118000D02*
X72644000Y-55118000D01*
X72644000Y-55118000D02*
X72390000Y-54864000D01*
X68326000Y-55118000D02*
X61976000Y-55118000D01*
X58674000Y-55118000D02*
X52324000Y-55118000D01*
X125737385Y-55626000D02*
X125229385Y-55118000D01*
X125229385Y-55118000D02*
X120904000Y-55118000D01*
X164470155Y-55372000D02*
X160274000Y-55372000D01*
X160274000Y-55372000D02*
X160020000Y-55118000D01*
X135636000Y-55372000D02*
X131064000Y-55372000D01*
X145288000Y-55372000D02*
X140716000Y-55372000D01*
X140716000Y-55372000D02*
X140462000Y-55118000D01*
X203454000Y-55372000D02*
X198882000Y-55372000D01*
X198882000Y-55372000D02*
X198628000Y-55118000D01*
X193802000Y-55626000D02*
X188722000Y-55626000D01*
X188722000Y-55626000D02*
X188468000Y-55372000D01*
X183896000Y-55626000D02*
X179324000Y-55626000D01*
X179324000Y-55626000D02*
X179070000Y-55372000D01*
X115811990Y-55118000D02*
X111056906Y-55118000D01*
X111056906Y-55118000D02*
X111028360Y-55089454D01*
X106172000Y-55372000D02*
X101600000Y-55372000D01*
X96485420Y-55267166D02*
X91843166Y-55267166D01*
X91843166Y-55267166D02*
X91694000Y-55118000D01*
X174244000Y-55626000D02*
X173736000Y-55118000D01*
X173736000Y-55118000D02*
X169418000Y-55118000D01*
X238162000Y-132186000D02*
X242762000Y-132186000D01*
X237262000Y-133086000D02*
X238162000Y-132186000D01*
X237262000Y-133086000D02*
X213612000Y-133086000D01*
X213612000Y-133086000D02*
X211962000Y-134736000D01*
X156807001Y-106172000D02*
X156807001Y-103721001D01*
X155702002Y-102616002D02*
X155448002Y-102616002D01*
X155956000Y-102870000D02*
X155702002Y-102616002D01*
X155956000Y-102870000D02*
X155702000Y-102616000D01*
X156807001Y-103721001D02*
X155956000Y-102870000D01*
X155448002Y-102616002D02*
X153416000Y-100584000D01*
X114439682Y-100584000D02*
X112915682Y-99060000D01*
X153416000Y-100584000D02*
X114439682Y-100584000D01*
X176166129Y-108990129D02*
X177710248Y-107446010D01*
X190461670Y-107446010D02*
X191961620Y-105946060D01*
X177710248Y-107446010D02*
X190461670Y-107446010D01*
X238223940Y-105946060D02*
X240284000Y-103886000D01*
X232156000Y-105946060D02*
X238223940Y-105946060D01*
X232156000Y-105946060D02*
X232551940Y-105946060D01*
X191961620Y-105946060D02*
X232156000Y-105946060D01*
X174780805Y-108826875D02*
X177012000Y-106595680D01*
X189021683Y-106595680D02*
X189141325Y-106476038D01*
X177012000Y-106595680D02*
X189021683Y-106595680D01*
X189141325Y-106476038D02*
X190271962Y-106476038D01*
X190271962Y-106476038D02*
X191621960Y-105126040D01*
X191621960Y-105126040D02*
X229391960Y-105126040D01*
X229391960Y-105126040D02*
X230632000Y-103886000D01*
X175662000Y-106036000D02*
X176041980Y-105656020D01*
X175662000Y-106110666D02*
X175662000Y-106036000D01*
X188801662Y-105656020D02*
X190151662Y-104306020D01*
X176041980Y-105656020D02*
X188801662Y-105656020D01*
X175347296Y-106425370D02*
X175662000Y-106110666D01*
X175091368Y-106425370D02*
X175347296Y-106425370D01*
X174691369Y-106825369D02*
X175091368Y-106425370D01*
X220559980Y-104306020D02*
X220980000Y-103886000D01*
X218186000Y-104306020D02*
X220559980Y-104306020D01*
X218186000Y-104306020D02*
X218641980Y-104306020D01*
X190151662Y-104306020D02*
X218186000Y-104306020D01*
X178308000Y-107950000D02*
X190754000Y-107950000D01*
X177800000Y-108458000D02*
X178308000Y-107950000D01*
X213866939Y-106375999D02*
X214122000Y-106631060D01*
X190754000Y-107950000D02*
X192328001Y-106375999D01*
X192328001Y-106375999D02*
X213866939Y-106375999D01*
X175465805Y-109727101D02*
X175465805Y-108721715D01*
X175465805Y-108721715D02*
X177151520Y-107036000D01*
X190291840Y-107036000D02*
X191791790Y-105536050D01*
X177151520Y-107036000D02*
X190291840Y-107036000D01*
X235331950Y-105536050D02*
X236982000Y-103886000D01*
X228854000Y-105536050D02*
X235331950Y-105536050D01*
X228854000Y-105536050D02*
X229011950Y-105536050D01*
X191791790Y-105536050D02*
X228854000Y-105536050D01*
X175171999Y-107436001D02*
X175441999Y-107436001D01*
X174772000Y-107836000D02*
X175171999Y-107436001D01*
X176811970Y-106066030D02*
X189531970Y-106066030D01*
X175441999Y-107436001D02*
X176811970Y-106066030D01*
X190881970Y-104716030D02*
X225229970Y-104716030D01*
X189531970Y-106066030D02*
X190881970Y-104716030D01*
X225229970Y-104716030D02*
X225806000Y-104140000D01*
X181356000Y-104902000D02*
X188722000Y-104902000D01*
X188722000Y-104902000D02*
X190002980Y-103621020D01*
X190002980Y-103621020D02*
X217170000Y-103621020D01*
X171575002Y-126687542D02*
X171812544Y-126450000D01*
X171009317Y-126687542D02*
X171575002Y-126687542D01*
X171812544Y-126450000D02*
X178850000Y-126450000D01*
X178850000Y-126450000D02*
X178900000Y-126500000D01*
X195400000Y-102801000D02*
X209296000Y-102801000D01*
X188500000Y-126500000D02*
X188500000Y-125900000D01*
X178900000Y-126500000D02*
X188500000Y-126500000D01*
X193434315Y-125371000D02*
X194000000Y-125371000D01*
X193274314Y-125210999D02*
X193434315Y-125371000D01*
X189189001Y-125210999D02*
X193274314Y-125210999D01*
X188500000Y-125900000D02*
X189189001Y-125210999D01*
X148111999Y-106435999D02*
X68335999Y-106435999D01*
X148111999Y-107215367D02*
X148382632Y-107486000D01*
X148111999Y-106435999D02*
X148111999Y-107215367D01*
X68335999Y-106435999D02*
X65786000Y-103886000D01*
X59544001Y-107296001D02*
X56134000Y-103886000D01*
X150622000Y-126165413D02*
X132261413Y-126165413D01*
X132261413Y-126165413D02*
X132080000Y-125984000D01*
X131426001Y-107296001D02*
X59544001Y-107296001D01*
X131572000Y-107442000D02*
X131426001Y-107296001D01*
X131572000Y-107696000D02*
X131572000Y-107442000D01*
X83820000Y-104902000D02*
X82804000Y-103886000D01*
X150277001Y-106835002D02*
X150277001Y-106376096D01*
X150677000Y-107235001D02*
X150277001Y-106835002D01*
X150277001Y-106376096D02*
X148900897Y-104999992D01*
X148900897Y-104999992D02*
X100684190Y-104999992D01*
X100684190Y-104999992D02*
X100586198Y-104902000D01*
X100586198Y-104902000D02*
X83820000Y-104902000D01*
X73406000Y-105156000D02*
X74168000Y-105918000D01*
X73406000Y-103886000D02*
X73406000Y-105156000D01*
X148225263Y-105918000D02*
X149067632Y-106760369D01*
X108712000Y-105918000D02*
X148225263Y-105918000D01*
X108712000Y-105918000D02*
X109006737Y-105918000D01*
X74168000Y-105918000D02*
X108712000Y-105918000D01*
X146258968Y-106886000D02*
X147697632Y-108324664D01*
X65738000Y-106886000D02*
X62738000Y-103886000D01*
X104902000Y-106886000D02*
X65738000Y-106886000D01*
X104902000Y-106886000D02*
X104662000Y-106886000D01*
X146258968Y-106886000D02*
X104902000Y-106886000D01*
X57581001Y-108381001D02*
X53086000Y-103886000D01*
X147487010Y-121071010D02*
X146558000Y-120142000D01*
X150535010Y-121071010D02*
X147487010Y-121071010D01*
X134475802Y-108381001D02*
X57581001Y-108381001D01*
X134798802Y-108058001D02*
X134475802Y-108381001D01*
X146558000Y-108458000D02*
X146158001Y-108058001D01*
X146158001Y-108058001D02*
X134798802Y-108058001D01*
X150876000Y-121412000D02*
X150535010Y-121071010D01*
X159512000Y-121412000D02*
X150876000Y-121412000D01*
X155437001Y-106191447D02*
X155437001Y-103875001D01*
X155437001Y-103875001D02*
X154998020Y-103436020D01*
X105024735Y-101600000D02*
X103246735Y-99822000D01*
X154998020Y-103436020D02*
X154926179Y-103436020D01*
X154926179Y-103436020D02*
X153090159Y-101600000D01*
X153090159Y-101600000D02*
X105024735Y-101600000D01*
X77724000Y-105410000D02*
X76454000Y-104140000D01*
X148731065Y-105410000D02*
X77724000Y-105410000D01*
X149827001Y-106505936D02*
X148731065Y-105410000D01*
X150227000Y-108128402D02*
X149827001Y-107728403D01*
X149827001Y-107728403D02*
X149827001Y-106505936D01*
X173390953Y-127135000D02*
X188285000Y-127135000D01*
X195000000Y-127600000D02*
X195050000Y-127650000D01*
X188750000Y-127600000D02*
X195000000Y-127600000D01*
X188285000Y-127135000D02*
X188750000Y-127600000D01*
X150368000Y-104648000D02*
X150368000Y-103886000D01*
X150368000Y-103886000D02*
X149410020Y-102928020D01*
X88941578Y-102928020D02*
X86851558Y-100838000D01*
X149410020Y-102928020D02*
X88941578Y-102928020D01*
X159677001Y-106280001D02*
X159677001Y-102781001D01*
X160077000Y-106680000D02*
X159677001Y-106280001D01*
X157323990Y-100427990D02*
X157069990Y-100427990D01*
X157480000Y-100584000D02*
X157323990Y-100427990D01*
X157480000Y-100584000D02*
X159677001Y-102781001D01*
X157226000Y-100330000D02*
X157480000Y-100584000D01*
X157226000Y-100330000D02*
X156972000Y-100330000D01*
X156972000Y-100330000D02*
X154940000Y-98298000D01*
X137768001Y-98398001D02*
X137160000Y-97790000D01*
X154940000Y-98298000D02*
X154839999Y-98398001D01*
X154839999Y-98398001D02*
X137768001Y-98398001D01*
X160177001Y-105354126D02*
X160177001Y-102519001D01*
X160577000Y-105754125D02*
X160177001Y-105354126D01*
X160177001Y-102519001D02*
X156972000Y-99314000D01*
X156972000Y-99314000D02*
X156718000Y-99314000D01*
X156718000Y-99314000D02*
X155194000Y-97790000D01*
X141806500Y-97790000D02*
X141729500Y-97713000D01*
X142240000Y-97790000D02*
X141806500Y-97790000D01*
X142240000Y-97790000D02*
X141838004Y-97790000D01*
X155194000Y-97790000D02*
X142240000Y-97790000D01*
X159577000Y-107568824D02*
X159177001Y-107168825D01*
X159177001Y-107168825D02*
X159177001Y-103043001D01*
X159177001Y-103043001D02*
X156972000Y-100838000D01*
X156900159Y-100838000D02*
X154870170Y-98808011D01*
X156972000Y-100838000D02*
X156900159Y-100838000D01*
X133352011Y-98808011D02*
X132334000Y-97790000D01*
X154870170Y-98808011D02*
X133352011Y-98808011D01*
X201596253Y-101600001D02*
X201846254Y-101350000D01*
X189095102Y-101600001D02*
X201596253Y-101600001D01*
X187415093Y-103280010D02*
X189095102Y-101600001D01*
X176619990Y-103280010D02*
X187415093Y-103280010D01*
X174350000Y-105550000D02*
X176619990Y-103280010D01*
X167921369Y-106579684D02*
X171515053Y-102986000D01*
X167921369Y-107145369D02*
X167921369Y-106579684D01*
X173757348Y-102986000D02*
X173873348Y-102870000D01*
X171515053Y-102986000D02*
X173757348Y-102986000D01*
X173873348Y-102870000D02*
X187245262Y-102870000D01*
X187245262Y-102870000D02*
X189246459Y-100868803D01*
X192142999Y-100868803D02*
X192189196Y-100915000D01*
X189246459Y-100868803D02*
X192142999Y-100868803D01*
X129032000Y-99314000D02*
X127508000Y-97790000D01*
X129127979Y-99218021D02*
X129032000Y-99314000D01*
X159077000Y-108426712D02*
X158677001Y-108026713D01*
X158677001Y-108026713D02*
X158677001Y-103305001D01*
X158677001Y-103305001D02*
X156718000Y-101346000D01*
X156718000Y-101346000D02*
X156464000Y-101346000D01*
X156464000Y-101346000D02*
X154336021Y-99218021D01*
X154336021Y-99218021D02*
X129127979Y-99218021D01*
X157492001Y-104767315D02*
X157480000Y-104755314D01*
X157492001Y-105333000D02*
X157492001Y-104767315D01*
X157480000Y-104755314D02*
X157480000Y-103632000D01*
X157480000Y-103632000D02*
X156014020Y-102166020D01*
X155760020Y-102166020D02*
X153728018Y-100134018D01*
X156014020Y-102166020D02*
X155760020Y-102166020D01*
X117007798Y-100134018D02*
X115679780Y-98806000D01*
X153728018Y-100134018D02*
X117007798Y-100134018D01*
X156122001Y-105333000D02*
X156122001Y-103798001D01*
X155350010Y-103026010D02*
X155096010Y-103026010D01*
X156122001Y-103798001D02*
X155350010Y-103026010D01*
X155096010Y-103026010D02*
X153064010Y-100994010D01*
X107967210Y-100994010D02*
X106033200Y-99060000D01*
X153064010Y-100994010D02*
X107967210Y-100994010D01*
X154686000Y-104844315D02*
X154432000Y-104590315D01*
X154686000Y-105410000D02*
X154686000Y-104844315D01*
X154432000Y-104590315D02*
X154432000Y-103632000D01*
X154432000Y-103632000D02*
X152908000Y-102108000D01*
X152908000Y-102108000D02*
X99502649Y-102108000D01*
X99502649Y-102108000D02*
X98078013Y-100683364D01*
X158577000Y-109314266D02*
X158177001Y-108914267D01*
X158177001Y-108914267D02*
X158177001Y-103567001D01*
X158177001Y-103567001D02*
X156366010Y-101756010D01*
X156294169Y-101756010D02*
X154614159Y-100076000D01*
X156366010Y-101756010D02*
X156294169Y-101756010D01*
X154432000Y-100076000D02*
X153984031Y-99628031D01*
X154614159Y-100076000D02*
X154432000Y-100076000D01*
X124010637Y-99724008D02*
X122584629Y-98298000D01*
X153888054Y-99724008D02*
X124010637Y-99724008D01*
X153984031Y-99628031D02*
X153888054Y-99724008D01*
X151158465Y-105389231D02*
X151158465Y-104823546D01*
X151158465Y-105389231D02*
X151158465Y-103152465D01*
X151158465Y-103152465D02*
X150524010Y-102518010D01*
X98141990Y-101854000D02*
X98806000Y-102518010D01*
X94593788Y-101854000D02*
X98141990Y-101854000D01*
X150524010Y-102518010D02*
X98806000Y-102518010D01*
X94593788Y-101854000D02*
X93577788Y-100838000D01*
X241812000Y-135636000D02*
X242762000Y-134686000D01*
X236162000Y-135636000D02*
X241812000Y-135636000D01*
X236162000Y-135636000D02*
X230862000Y-135636000D01*
X230862000Y-135636000D02*
X230812000Y-135586000D01*
X228862000Y-128511000D02*
X228912000Y-128461000D01*
X218837000Y-128511000D02*
X228862000Y-128511000D01*
X157734000Y-131064000D02*
X157988000Y-131318000D01*
X109178802Y-131064000D02*
X157734000Y-131064000D01*
X108914802Y-130800000D02*
X99350000Y-130800000D01*
X109178802Y-131064000D02*
X108914802Y-130800000D01*
X98165685Y-140700000D02*
X98415685Y-140950000D01*
X97600000Y-140700000D02*
X98165685Y-140700000D01*
X111710000Y-140950000D02*
X113160000Y-142400000D01*
X98415685Y-140950000D02*
X111710000Y-140950000D01*
X92150000Y-135045000D02*
X95700000Y-135045000D01*
X92936000Y-139186000D02*
X92900000Y-139150000D01*
X151362000Y-139186000D02*
X92936000Y-139186000D01*
X157734000Y-133604000D02*
X95504000Y-133604000D01*
X158400000Y-133800000D02*
X158200000Y-133600000D01*
X157738000Y-133600000D02*
X157734000Y-133604000D01*
X158200000Y-133600000D02*
X157738000Y-133600000D01*
X91712000Y-138061000D02*
X103087000Y-138061000D01*
X104915748Y-135400990D02*
X104783869Y-135532869D01*
X106876990Y-135400990D02*
X104915748Y-135400990D01*
X106972010Y-135496010D02*
X106876990Y-135400990D01*
X142422010Y-135496010D02*
X106972010Y-135496010D01*
X142641999Y-135715999D02*
X150677000Y-135715999D01*
X142422010Y-135496010D02*
X142641999Y-135715999D01*
X105306000Y-140150000D02*
X110500000Y-140150000D01*
X172600000Y-132950999D02*
X172800000Y-133150999D01*
X161864686Y-132950999D02*
X172600000Y-132950999D01*
X161365685Y-133450000D02*
X161864686Y-132950999D01*
X160800000Y-133450000D02*
X161365685Y-133450000D01*
X181200999Y-133150999D02*
X181250000Y-133200000D01*
X177400000Y-133150999D02*
X181200999Y-133150999D01*
X177400000Y-133150999D02*
X177745001Y-133150999D01*
X172800000Y-133150999D02*
X177400000Y-133150999D01*
X154212000Y-129436000D02*
X151612000Y-129436000D01*
X151612000Y-129436000D02*
X150712000Y-128536000D01*
X95660000Y-128536000D02*
X95550000Y-128646000D01*
X150712000Y-128536000D02*
X95660000Y-128536000D01*
X152712000Y-128536000D02*
X152137000Y-127961000D01*
X152137000Y-127961000D02*
X94750000Y-127961000D01*
X174847000Y-137896002D02*
X172822002Y-137896002D01*
X172822002Y-137896002D02*
X172812000Y-137886000D01*
X172812000Y-134436000D02*
X175462000Y-134436000D01*
X175462000Y-134436000D02*
X176062000Y-133836000D01*
X150637000Y-122621000D02*
X136652000Y-122621000D01*
X166212000Y-139586000D02*
X182012000Y-139586000D01*
X182012000Y-139586000D02*
X182112000Y-139686000D01*
X164262000Y-138036000D02*
X164862000Y-138636000D01*
X164862000Y-138636000D02*
X174162000Y-138636000D01*
X176114000Y-125936000D02*
X176700000Y-125350000D01*
X170412000Y-125936000D02*
X176114000Y-125936000D01*
X175312000Y-125251000D02*
X167286117Y-125251000D01*
X167286117Y-125251000D02*
X167208940Y-125328177D01*
X170511999Y-134035999D02*
X170112000Y-133636000D01*
X170757525Y-134035999D02*
X170511999Y-134035999D01*
X171849526Y-135128000D02*
X170757525Y-134035999D01*
X173497000Y-135128000D02*
X171849526Y-135128000D01*
X153378450Y-112971001D02*
X171001999Y-112971001D01*
X152862000Y-112454551D02*
X153378450Y-112971001D01*
X171001999Y-112971001D02*
X171012000Y-112961000D01*
X171012000Y-112961000D02*
X192812000Y-112961000D01*
X192812000Y-112961000D02*
X192862000Y-112911000D01*
X124062000Y-116261000D02*
X123962000Y-116361000D01*
X108812000Y-116361000D02*
X108787000Y-116386000D01*
X109287000Y-116361000D02*
X108812000Y-116361000D01*
X109287000Y-116361000D02*
X108912000Y-116361000D01*
X108787000Y-116386000D02*
X98912000Y-116386000D01*
X143075802Y-112536000D02*
X140172000Y-112536000D01*
X152862000Y-112454551D02*
X143157251Y-112454551D01*
X143157251Y-112454551D02*
X143075802Y-112536000D01*
X168177944Y-135586000D02*
X168778641Y-134985303D01*
X167132000Y-135586000D02*
X168177944Y-135586000D01*
X167132000Y-135586000D02*
X167287000Y-135586000D01*
X156587000Y-135586000D02*
X167132000Y-135586000D01*
X98803000Y-121920000D02*
X98862000Y-121861000D01*
X129286000Y-116261000D02*
X124062000Y-116261000D01*
X139287000Y-116261000D02*
X129286000Y-116261000D01*
X123962000Y-116361000D02*
X113538000Y-116361000D01*
X113538000Y-116361000D02*
X109287000Y-116361000D01*
X98876000Y-116350000D02*
X98912000Y-116386000D01*
X94050000Y-116350000D02*
X98876000Y-116350000D01*
X188106999Y-131241001D02*
X189650000Y-129698000D01*
X169468686Y-131241001D02*
X188106999Y-131241001D01*
X169277685Y-131050000D02*
X169468686Y-131241001D01*
X168712000Y-131050000D02*
X169277685Y-131050000D01*
X189512000Y-129836000D02*
X189650000Y-129698000D01*
X189650000Y-129698000D02*
X190462000Y-128886000D01*
D19*
X191226000Y-135150000D02*
X190212000Y-134136000D01*
X199400000Y-135150000D02*
X191226000Y-135150000D01*
D18*
X169948505Y-117635489D02*
X177814511Y-117635489D01*
X178154001Y-117295999D02*
X184950000Y-117295999D01*
X177814511Y-117635489D02*
X178154001Y-117295999D01*
X164550000Y-122000000D02*
X167750000Y-118800000D01*
X167750000Y-118800000D02*
X175650000Y-118800000D01*
X175650000Y-118800000D02*
X176400000Y-118050000D01*
X186226000Y-118050000D02*
X186250000Y-118026000D01*
X185800000Y-118050000D02*
X186226000Y-118050000D01*
X185800000Y-118050000D02*
X186250000Y-118050000D01*
X176400000Y-118050000D02*
X185800000Y-118050000D01*
X161223436Y-139166000D02*
X154816172Y-139166000D01*
X150542000Y-138481000D02*
X161937000Y-138481000D01*
X150526999Y-138496001D02*
X150542000Y-138481000D01*
X147987686Y-138496001D02*
X150526999Y-138496001D01*
X147412000Y-138486000D02*
X147977685Y-138486000D01*
X147977685Y-138486000D02*
X147987686Y-138496001D01*
X105487000Y-138486000D02*
X103637000Y-136636000D01*
X107187000Y-138486000D02*
X105487000Y-138486000D01*
X107187000Y-138486000D02*
X106900000Y-138486000D01*
X147412000Y-138486000D02*
X127937000Y-138486000D01*
X127937000Y-138486000D02*
X107187000Y-138486000D01*
X162646839Y-136426000D02*
X152562000Y-136426000D01*
X105012000Y-136561000D02*
X105633761Y-135939239D01*
X105633761Y-135939239D02*
X105633761Y-135811000D01*
X105633761Y-135811000D02*
X106562000Y-135811000D01*
X106562000Y-135811000D02*
X106912000Y-136161000D01*
X106912000Y-136161000D02*
X106912000Y-136186000D01*
X106912000Y-136186000D02*
X107676999Y-136950999D01*
X107676999Y-136950999D02*
X133112000Y-136950999D01*
X151996315Y-136426000D02*
X152562000Y-136426000D01*
X151971314Y-136400999D02*
X151996315Y-136426000D01*
X142251000Y-136050000D02*
X142601999Y-136400999D01*
X134000000Y-136050000D02*
X142251000Y-136050000D01*
X142601999Y-136400999D02*
X151971314Y-136400999D01*
X133511999Y-136538001D02*
X134000000Y-136050000D01*
X133511999Y-136551000D02*
X133511999Y-136538001D01*
X133112000Y-136950999D02*
X133511999Y-136551000D01*
X163332483Y-137796000D02*
X150077000Y-137796000D01*
X150077000Y-137796000D02*
X150062000Y-137811000D01*
X107230999Y-137800999D02*
X105999000Y-136569000D01*
X149496315Y-137811000D02*
X149486314Y-137800999D01*
X150062000Y-137811000D02*
X149496315Y-137811000D01*
X149486314Y-137800999D02*
X130662000Y-137800999D01*
X130662000Y-137800999D02*
X107230999Y-137800999D01*
X150614990Y-134715990D02*
X106684000Y-134715990D01*
X150800000Y-134901000D02*
X150614990Y-134715990D01*
X150800000Y-134901000D02*
X161462711Y-134901000D01*
X122456999Y-142386000D02*
X125517000Y-142386000D01*
X120612000Y-140541001D02*
X122456999Y-142386000D01*
X159062000Y-140286000D02*
X136017001Y-140286000D01*
X136017001Y-140286000D02*
X135762000Y-140541001D01*
X145653001Y-132003001D02*
X145500000Y-131850000D01*
X158316801Y-132003001D02*
X145653001Y-132003001D01*
X159450000Y-128350000D02*
X159450000Y-130869802D01*
X159450000Y-130869802D02*
X158316801Y-132003001D01*
X157537000Y-115611000D02*
X151687000Y-115611000D01*
X151687000Y-115611000D02*
X149451999Y-113375999D01*
X123775999Y-113550000D02*
X123950000Y-113375999D01*
X101350000Y-113550000D02*
X123775999Y-113550000D01*
X149451999Y-113375999D02*
X123950000Y-113375999D01*
X150502836Y-119251000D02*
X150502836Y-116246995D01*
X146391990Y-114925990D02*
X145527000Y-114061000D01*
X149181831Y-114925990D02*
X146391990Y-114925990D01*
X150502836Y-116246995D02*
X149181831Y-114925990D01*
X145737000Y-115336000D02*
X145462000Y-115061000D01*
X149192000Y-119311010D02*
X149922000Y-118581010D01*
X149922000Y-118581010D02*
X149922000Y-116526000D01*
X149922000Y-116526000D02*
X148942000Y-115546000D01*
X145947000Y-115546000D02*
X145462000Y-115061000D01*
X148942000Y-115546000D02*
X145947000Y-115546000D01*
X184201999Y-110685999D02*
X183352000Y-109836000D01*
X184487001Y-110971001D02*
X184201999Y-110685999D01*
X191111314Y-110971001D02*
X184487001Y-110971001D01*
X191121315Y-110961000D02*
X191111314Y-110971001D01*
X191687000Y-110961000D02*
X191121315Y-110961000D01*
X167502000Y-113836000D02*
X179500000Y-113836000D01*
X169838102Y-110412102D02*
X178760898Y-110412102D01*
X168612000Y-109186000D02*
X169838102Y-110412102D01*
X178760898Y-110412102D02*
X179087000Y-110086000D01*
X179087000Y-110086000D02*
X179087000Y-108811000D01*
X179087000Y-108811000D02*
X179262000Y-108636000D01*
X184692000Y-108636000D02*
X185892000Y-109836000D01*
X179262000Y-108636000D02*
X184692000Y-108636000D01*
X190721315Y-108636000D02*
X184692000Y-108636000D01*
X190746315Y-108661000D02*
X190721315Y-108636000D01*
X191312000Y-108661000D02*
X190746315Y-108661000D01*
X156700000Y-118950000D02*
X156700000Y-116800000D01*
X195139992Y-117410008D02*
X195400000Y-117150000D01*
X188030168Y-117410008D02*
X195139992Y-117410008D01*
X187231159Y-116610999D02*
X188030168Y-117410008D01*
X156700000Y-116800000D02*
X156889001Y-116610999D01*
X156889001Y-116610999D02*
X187231159Y-116610999D01*
X161450000Y-132050000D02*
X183950000Y-132050000D01*
X186514999Y-129864999D02*
X186650000Y-130000000D01*
X171518801Y-129864999D02*
X186514999Y-129864999D01*
X162250000Y-128400000D02*
X170053802Y-128400000D01*
X170053802Y-128400000D02*
X171518801Y-129864999D01*
X173508000Y-128550000D02*
X176400000Y-128550000D01*
X172974000Y-128016000D02*
X173508000Y-128550000D01*
X171196000Y-130556000D02*
X178794000Y-130556000D01*
X178794000Y-130556000D02*
X178800000Y-130550000D01*
X186226802Y-124686000D02*
X209962000Y-124686000D01*
X186140802Y-124600000D02*
X186226802Y-124686000D01*
X177900000Y-124600000D02*
X186140802Y-124600000D01*
X187162000Y-113911000D02*
X196612000Y-113911000D01*
X196612000Y-113911000D02*
X196862000Y-113661000D01*
X197427685Y-113661000D02*
X198072685Y-113016000D01*
X196862000Y-113661000D02*
X197427685Y-113661000D01*
X204008198Y-112876000D02*
X209812001Y-112876000D01*
X198072685Y-113016000D02*
X203868198Y-113016000D01*
X203868198Y-113016000D02*
X204008198Y-112876000D01*
X187151000Y-113900000D02*
X187162000Y-113911000D01*
X180750000Y-113900000D02*
X187151000Y-113900000D01*
X205289000Y-120650000D02*
X205750000Y-121111000D01*
X206987000Y-121111000D02*
X207062000Y-121036000D01*
X205750000Y-121111000D02*
X206987000Y-121111000D01*
X177100000Y-119623000D02*
X177127000Y-119623000D01*
X175612000Y-121111000D02*
X177100000Y-119623000D01*
X177127000Y-119623000D02*
X177628990Y-119121010D01*
X177628990Y-119121010D02*
X195721010Y-119121010D01*
X195721010Y-119121010D02*
X197250000Y-120650000D01*
X197250000Y-120650000D02*
X205289000Y-120650000D01*
X176935577Y-118711000D02*
X202887000Y-118711000D01*
X172836289Y-122810288D02*
X176935577Y-118711000D01*
X137365000Y-137111000D02*
X137160000Y-136906000D01*
X157480000Y-137111000D02*
X137365000Y-137111000D01*
X127215000Y-123991000D02*
X127000000Y-124206000D01*
X135890000Y-123991000D02*
X127215000Y-123991000D01*
X159947000Y-131573326D02*
X158932326Y-132588000D01*
X129822000Y-124686000D02*
X129794000Y-124714000D01*
X130302000Y-124686000D02*
X129822000Y-124686000D01*
X130302000Y-124686000D02*
X130002000Y-124686000D01*
X133096000Y-124686000D02*
X130302000Y-124686000D01*
X158932326Y-132588000D02*
X137922000Y-132588000D01*
X137922000Y-132588000D02*
X136906000Y-132588000D01*
X137922000Y-132588000D02*
X136826990Y-132588000D01*
X136826990Y-132588000D02*
X136398000Y-132159010D01*
X62300000Y-118750000D02*
X88900000Y-118750000D01*
X88900000Y-118750000D02*
X88950000Y-118800000D01*
X149067632Y-117036000D02*
X145152000Y-117036000D01*
X145152000Y-117036000D02*
X145092000Y-117096000D01*
X99215802Y-117096000D02*
X145092000Y-117096000D01*
X98811802Y-117500000D02*
X99215802Y-117096000D01*
X91450000Y-117500000D02*
X98811802Y-117500000D01*
X164560989Y-119996011D02*
X166447000Y-118110000D01*
X147425813Y-119996011D02*
X164560989Y-119996011D01*
X146800000Y-119370198D02*
X147425813Y-119996011D01*
X145579802Y-119370198D02*
X146800000Y-119370198D01*
X145316000Y-119634000D02*
X145579802Y-119370198D01*
X113988315Y-119634000D02*
X145316000Y-119634000D01*
X113988315Y-119634000D02*
X113972315Y-119650000D01*
X113972315Y-119650000D02*
X63300000Y-119650000D01*
X158086803Y-122097001D02*
X159840801Y-122097001D01*
X163907000Y-121666000D02*
X166447000Y-119126000D01*
X157840801Y-121850999D02*
X158086803Y-122097001D01*
X159840801Y-122097001D02*
X160271802Y-121666000D01*
X149456206Y-125476000D02*
X153081207Y-121850999D01*
X132585802Y-125476000D02*
X149456206Y-125476000D01*
X131751199Y-125298999D02*
X132408801Y-125298999D01*
X153081207Y-121850999D02*
X157840801Y-121850999D01*
X160271802Y-121666000D02*
X163907000Y-121666000D01*
X122174000Y-124206000D02*
X123698000Y-125730000D01*
X123698000Y-125730000D02*
X131320198Y-125730000D01*
X132408801Y-125298999D02*
X132585802Y-125476000D01*
X131320198Y-125730000D02*
X131751199Y-125298999D01*
X62056000Y-124206000D02*
X62050000Y-124200000D01*
X64700000Y-124206000D02*
X62056000Y-124206000D01*
X64700000Y-124206000D02*
X122174000Y-124206000D01*
X64005802Y-124206000D02*
X64700000Y-124206000D01*
X149141910Y-124776494D02*
X134428494Y-124776494D01*
X134428494Y-124776494D02*
X134366000Y-124714000D01*
X132334000Y-110490000D02*
X119634000Y-110490000D01*
X149352000Y-123306000D02*
X128270000Y-123306000D01*
X138350000Y-115150000D02*
X113000000Y-115150000D01*
X113000000Y-115150000D02*
X112850000Y-115000000D01*
X140341000Y-124000000D02*
X140350000Y-123991000D01*
X138350000Y-124000000D02*
X140341000Y-124000000D01*
X148590000Y-123991000D02*
X140350000Y-123991000D01*
X140350000Y-123991000D02*
X139700000Y-123991000D01*
X173150000Y-111650000D02*
X178611990Y-111650000D01*
X178670991Y-111590999D02*
X188690801Y-111590999D01*
X178611990Y-111650000D02*
X178670991Y-111590999D01*
X188690801Y-111590999D02*
X188749802Y-111650000D01*
X199934198Y-111650000D02*
X199984198Y-111600000D01*
X188749802Y-111650000D02*
X199934198Y-111650000D01*
X199984198Y-111600000D02*
X202050000Y-111600000D01*
X166878000Y-121412000D02*
X164846000Y-123444000D01*
X164846000Y-123444000D02*
X164577000Y-123444000D01*
X160632001Y-131244525D02*
X160632001Y-132483999D01*
X160528000Y-127762000D02*
X160528000Y-131140524D01*
X160528000Y-131140524D02*
X160632001Y-131244525D01*
X160632001Y-132483999D02*
X160117990Y-132998010D01*
X160117990Y-132998010D02*
X139289990Y-132998010D01*
X73152000Y-130048000D02*
X75946000Y-132842000D01*
X75946000Y-132842000D02*
X81750000Y-132842000D01*
X81750000Y-132842000D02*
X82552198Y-132842000D01*
X136223198Y-132998010D02*
X139446000Y-132998010D01*
X136067188Y-132842000D02*
X136223198Y-132998010D01*
X81750000Y-132842000D02*
X136067188Y-132842000D01*
X157153539Y-127064919D02*
X157294469Y-127205849D01*
X155083081Y-127064919D02*
X157153539Y-127064919D01*
X154712000Y-127436000D02*
X155083081Y-127064919D01*
X153437000Y-127436000D02*
X154712000Y-127436000D01*
X75169000Y-126669000D02*
X78780802Y-126669000D01*
X78961802Y-126850000D02*
X127049587Y-126850000D01*
X78780802Y-126669000D02*
X78961802Y-126850000D01*
X127049587Y-126850000D02*
X127050000Y-126850413D01*
X127050000Y-126850413D02*
X152851413Y-126850413D01*
X152851413Y-126850413D02*
X153437000Y-127436000D01*
X156206039Y-127474929D02*
X155723071Y-127474929D01*
X156606038Y-127874928D02*
X156206039Y-127474929D01*
X155723071Y-127474929D02*
X154887000Y-128311000D01*
X152465802Y-127276000D02*
X90656000Y-127276000D01*
X153500802Y-128311000D02*
X152465802Y-127276000D01*
X154887000Y-128311000D02*
X153500802Y-128311000D01*
X90656000Y-127276000D02*
X88392000Y-129540000D01*
X88392000Y-129540000D02*
X77470000Y-129540000D01*
X157947000Y-128554045D02*
X157947000Y-129119730D01*
X157947000Y-129119730D02*
X156535719Y-130531011D01*
X79500000Y-130650000D02*
X79899999Y-131049999D01*
X79899999Y-131049999D02*
X92850000Y-131050000D01*
X92850000Y-131050000D02*
X93950000Y-129950000D01*
X150746160Y-129950000D02*
X151327171Y-130531011D01*
X93950000Y-129950000D02*
X150746160Y-129950000D01*
X151327171Y-130531011D02*
X153000000Y-130531011D01*
X156535719Y-130531011D02*
X153000000Y-130531011D01*
X153000000Y-130531011D02*
X151250000Y-130531011D01*
X93426999Y-129331001D02*
X92408000Y-130350000D01*
X92408000Y-130350000D02*
X80518000Y-130350000D01*
X100650000Y-129200000D02*
X96281001Y-129200000D01*
X100671000Y-129221000D02*
X100650000Y-129200000D01*
X96281001Y-129200000D02*
X96150000Y-129331001D01*
X150597000Y-129221000D02*
X100671000Y-129221000D01*
X151312000Y-129936000D02*
X150597000Y-129221000D01*
X155887000Y-128511000D02*
X155487001Y-128910999D01*
X155487001Y-128910999D02*
X155487001Y-129174801D01*
X155487001Y-129174801D02*
X154540801Y-130121001D01*
X154540801Y-130121001D02*
X152672001Y-130121001D01*
X152672001Y-130121001D02*
X152487000Y-129936000D01*
X96150000Y-129331001D02*
X93426999Y-129331001D01*
X152487000Y-129936000D02*
X151312000Y-129936000D01*
D21*
G36*
X56990674Y-108865477D02*
X57033072Y-108928930D01*
X57096525Y-108971328D01*
X57096527Y-108971330D01*
X57188448Y-109032749D01*
X57284464Y-109096905D01*
X57506149Y-109141001D01*
X57506153Y-109141001D01*
X57581000Y-109155889D01*
X57655847Y-109141001D01*
X134400955Y-109141001D01*
X134475802Y-109155889D01*
X134550649Y-109141001D01*
X134550654Y-109141001D01*
X134772339Y-109096905D01*
X135023731Y-108928930D01*
X135066133Y-108865471D01*
X135113603Y-108818001D01*
X142940204Y-108818001D01*
X142902000Y-108910234D01*
X142902000Y-109361766D01*
X143074793Y-109778926D01*
X143181867Y-109886000D01*
X143074793Y-109993074D01*
X142902000Y-110410234D01*
X142902000Y-110861766D01*
X143074793Y-111278926D01*
X143394074Y-111598207D01*
X143626669Y-111694551D01*
X143232097Y-111694551D01*
X143157250Y-111679663D01*
X143082403Y-111694551D01*
X143082399Y-111694551D01*
X142860714Y-111738647D01*
X142804811Y-111776000D01*
X140875711Y-111776000D01*
X140758280Y-111658569D01*
X140377874Y-111501000D01*
X139966126Y-111501000D01*
X139585720Y-111658569D01*
X139294569Y-111949720D01*
X139137000Y-112330126D01*
X139137000Y-112615999D01*
X124024848Y-112615999D01*
X123950000Y-112601111D01*
X123875152Y-112615999D01*
X123875148Y-112615999D01*
X123653463Y-112660095D01*
X123459047Y-112790000D01*
X102053711Y-112790000D01*
X101936280Y-112672569D01*
X101555874Y-112515000D01*
X101144126Y-112515000D01*
X100763720Y-112672569D01*
X100472569Y-112963720D01*
X100315000Y-113344126D01*
X100315000Y-113755874D01*
X100472569Y-114136280D01*
X100763720Y-114427431D01*
X101144126Y-114585000D01*
X101555874Y-114585000D01*
X101936280Y-114427431D01*
X102053711Y-114310000D01*
X112076289Y-114310000D01*
X111972569Y-114413720D01*
X111815000Y-114794126D01*
X111815000Y-115205874D01*
X111972569Y-115586280D01*
X111987289Y-115601000D01*
X108886846Y-115601000D01*
X108811999Y-115586112D01*
X108737152Y-115601000D01*
X108737148Y-115601000D01*
X108611465Y-115626000D01*
X99615711Y-115626000D01*
X99498280Y-115508569D01*
X99117874Y-115351000D01*
X98706126Y-115351000D01*
X98325720Y-115508569D01*
X98244289Y-115590000D01*
X94753711Y-115590000D01*
X94636280Y-115472569D01*
X94255874Y-115315000D01*
X93844126Y-115315000D01*
X93463720Y-115472569D01*
X93172569Y-115763720D01*
X93015000Y-116144126D01*
X93015000Y-116555874D01*
X93091267Y-116740000D01*
X92153711Y-116740000D01*
X92036280Y-116622569D01*
X91655874Y-116465000D01*
X91244126Y-116465000D01*
X90863720Y-116622569D01*
X90572569Y-116913720D01*
X90415000Y-117294126D01*
X90415000Y-117705874D01*
X90572569Y-118086280D01*
X90863720Y-118377431D01*
X91244126Y-118535000D01*
X91655874Y-118535000D01*
X92036280Y-118377431D01*
X92153711Y-118260000D01*
X98736955Y-118260000D01*
X98811802Y-118274888D01*
X98886649Y-118260000D01*
X98886654Y-118260000D01*
X99108339Y-118215904D01*
X99359731Y-118047929D01*
X99402133Y-117984470D01*
X99530603Y-117856000D01*
X144388289Y-117856000D01*
X144505720Y-117973431D01*
X144886126Y-118131000D01*
X145297874Y-118131000D01*
X145678280Y-117973431D01*
X145855711Y-117796000D01*
X148363921Y-117796000D01*
X148481352Y-117913431D01*
X148861758Y-118071000D01*
X149162000Y-118071000D01*
X149162000Y-118266208D01*
X149152198Y-118276010D01*
X148986126Y-118276010D01*
X148605720Y-118433579D01*
X148314569Y-118724730D01*
X148157000Y-119105136D01*
X148157000Y-119236011D01*
X147740615Y-119236011D01*
X147390331Y-118885728D01*
X147347929Y-118822269D01*
X147096537Y-118654294D01*
X146874852Y-118610198D01*
X146874847Y-118610198D01*
X146800000Y-118595310D01*
X146725153Y-118610198D01*
X145654648Y-118610198D01*
X145579801Y-118595310D01*
X145504954Y-118610198D01*
X145504950Y-118610198D01*
X145283265Y-118654294D01*
X145031873Y-118822269D01*
X144997307Y-118874000D01*
X114063161Y-118874000D01*
X113988314Y-118859112D01*
X113913467Y-118874000D01*
X113913463Y-118874000D01*
X113833026Y-118890000D01*
X89985000Y-118890000D01*
X89985000Y-118594126D01*
X89827431Y-118213720D01*
X89536280Y-117922569D01*
X89155874Y-117765000D01*
X88744126Y-117765000D01*
X88363720Y-117922569D01*
X88296289Y-117990000D01*
X63003711Y-117990000D01*
X62886280Y-117872569D01*
X62505874Y-117715000D01*
X62094126Y-117715000D01*
X61713720Y-117872569D01*
X61422569Y-118163720D01*
X61265000Y-118544126D01*
X61265000Y-118955874D01*
X61422569Y-119336280D01*
X61713720Y-119627431D01*
X62094126Y-119785000D01*
X62265000Y-119785000D01*
X62265000Y-119855874D01*
X62422569Y-120236280D01*
X62713720Y-120527431D01*
X63094126Y-120685000D01*
X63505874Y-120685000D01*
X63886280Y-120527431D01*
X64003711Y-120410000D01*
X97778528Y-120410000D01*
X97764235Y-120412843D01*
X97554191Y-120553191D01*
X97413843Y-120763235D01*
X97364560Y-121011000D01*
X97364560Y-122711000D01*
X97413843Y-122958765D01*
X97554191Y-123168809D01*
X97764235Y-123309157D01*
X98012000Y-123358440D01*
X99712000Y-123358440D01*
X99959765Y-123309157D01*
X100169809Y-123168809D01*
X100310157Y-122958765D01*
X100319184Y-122913381D01*
X100331375Y-122931625D01*
X100822582Y-123259839D01*
X101255744Y-123346000D01*
X101548256Y-123346000D01*
X101981418Y-123259839D01*
X102472625Y-122931625D01*
X102685843Y-122612522D01*
X102746817Y-122742358D01*
X103175076Y-123132645D01*
X103585110Y-123302476D01*
X103815000Y-123181155D01*
X103815000Y-121988000D01*
X104069000Y-121988000D01*
X104069000Y-123181155D01*
X104298890Y-123302476D01*
X104708924Y-123132645D01*
X105137183Y-122742358D01*
X105383486Y-122217892D01*
X105262819Y-121988000D01*
X104069000Y-121988000D01*
X103815000Y-121988000D01*
X103795000Y-121988000D01*
X103795000Y-121734000D01*
X103815000Y-121734000D01*
X103815000Y-121714000D01*
X104069000Y-121714000D01*
X104069000Y-121734000D01*
X105262819Y-121734000D01*
X105383486Y-121504108D01*
X105137183Y-120979642D01*
X104708924Y-120589355D01*
X104298890Y-120419524D01*
X104069002Y-120540844D01*
X104069002Y-120410000D01*
X113897468Y-120410000D01*
X113972315Y-120424888D01*
X114047162Y-120410000D01*
X114047167Y-120410000D01*
X114127604Y-120394000D01*
X115690982Y-120394000D01*
X115551843Y-120602235D01*
X115502560Y-120850000D01*
X115502560Y-122550000D01*
X115551843Y-122797765D01*
X115692191Y-123007809D01*
X115902235Y-123148157D01*
X116150000Y-123197440D01*
X117850000Y-123197440D01*
X118097765Y-123148157D01*
X118307809Y-123007809D01*
X118448157Y-122797765D01*
X118457184Y-122752381D01*
X118469375Y-122770625D01*
X118960582Y-123098839D01*
X119393744Y-123185000D01*
X119686256Y-123185000D01*
X120119418Y-123098839D01*
X120610625Y-122770625D01*
X120810000Y-122472239D01*
X121009375Y-122770625D01*
X121500582Y-123098839D01*
X121933744Y-123185000D01*
X122226256Y-123185000D01*
X122659418Y-123098839D01*
X123150625Y-122770625D01*
X123478839Y-122279418D01*
X123594092Y-121700000D01*
X123478839Y-121120582D01*
X123150625Y-120629375D01*
X122798361Y-120394000D01*
X125535977Y-120394000D01*
X125502560Y-120562000D01*
X125502560Y-122262000D01*
X125551843Y-122509765D01*
X125692191Y-122719809D01*
X125902235Y-122860157D01*
X126150000Y-122909440D01*
X127313985Y-122909440D01*
X127235000Y-123100126D01*
X127235000Y-123183064D01*
X127205874Y-123171000D01*
X126794126Y-123171000D01*
X126413720Y-123328569D01*
X126122569Y-123619720D01*
X125965000Y-124000126D01*
X125965000Y-124411874D01*
X126122569Y-124792280D01*
X126300289Y-124970000D01*
X124012803Y-124970000D01*
X122764331Y-123721530D01*
X122721929Y-123658071D01*
X122470537Y-123490096D01*
X122248852Y-123446000D01*
X122248847Y-123446000D01*
X122174000Y-123431112D01*
X122099153Y-123446000D01*
X62759711Y-123446000D01*
X62636280Y-123322569D01*
X62255874Y-123165000D01*
X61844126Y-123165000D01*
X61463720Y-123322569D01*
X61172569Y-123613720D01*
X61015000Y-123994126D01*
X61015000Y-124405874D01*
X61172569Y-124786280D01*
X61463720Y-125077431D01*
X61844126Y-125235000D01*
X62255874Y-125235000D01*
X62636280Y-125077431D01*
X62747711Y-124966000D01*
X121859199Y-124966000D01*
X122983197Y-126090000D01*
X79282230Y-126090000D01*
X79077339Y-125953096D01*
X78855654Y-125909000D01*
X78855649Y-125909000D01*
X78780802Y-125894112D01*
X78705955Y-125909000D01*
X75872711Y-125909000D01*
X75755280Y-125791569D01*
X75374874Y-125634000D01*
X74963126Y-125634000D01*
X74582720Y-125791569D01*
X74291569Y-126082720D01*
X74151343Y-126421256D01*
X69101213Y-126373006D01*
X69052522Y-126382208D01*
X69011059Y-126409344D01*
X68983137Y-126450280D01*
X68973003Y-126500855D01*
X69073003Y-141350855D01*
X69082997Y-141399390D01*
X69110804Y-141440405D01*
X69152190Y-141467657D01*
X69200000Y-141477000D01*
X70619320Y-141477000D01*
X70539348Y-144276000D01*
X54698418Y-144276000D01*
X54746013Y-144228405D01*
X54633469Y-144115861D01*
X55030169Y-143864625D01*
X55465227Y-142802554D01*
X55460730Y-141654838D01*
X55030169Y-140615375D01*
X54633467Y-140364138D01*
X52757605Y-142240000D01*
X52771748Y-142254143D01*
X52592143Y-142433748D01*
X52578000Y-142419605D01*
X52563858Y-142433748D01*
X52384253Y-142254143D01*
X52398395Y-142240000D01*
X52384253Y-142225858D01*
X52563858Y-142046253D01*
X52578000Y-142060395D01*
X54453862Y-140184533D01*
X54202625Y-139787831D01*
X53140554Y-139352773D01*
X51992838Y-139357270D01*
X50953375Y-139787831D01*
X50702139Y-140184531D01*
X50589595Y-140071987D01*
X50522000Y-140139582D01*
X50522000Y-121070000D01*
X87402560Y-121070000D01*
X87402560Y-122770000D01*
X87451843Y-123017765D01*
X87592191Y-123227809D01*
X87802235Y-123368157D01*
X88050000Y-123417440D01*
X89750000Y-123417440D01*
X89997765Y-123368157D01*
X90207809Y-123227809D01*
X90348157Y-123017765D01*
X90357184Y-122972381D01*
X90369375Y-122990625D01*
X90860582Y-123318839D01*
X91293744Y-123405000D01*
X91586256Y-123405000D01*
X92019418Y-123318839D01*
X92510625Y-122990625D01*
X92710000Y-122692239D01*
X92909375Y-122990625D01*
X93400582Y-123318839D01*
X93833744Y-123405000D01*
X94126256Y-123405000D01*
X94559418Y-123318839D01*
X95050625Y-122990625D01*
X95378839Y-122499418D01*
X95494092Y-121920000D01*
X95378839Y-121340582D01*
X95050625Y-120849375D01*
X94559418Y-120521161D01*
X94126256Y-120435000D01*
X93833744Y-120435000D01*
X93400582Y-120521161D01*
X92909375Y-120849375D01*
X92710000Y-121147761D01*
X92510625Y-120849375D01*
X92019418Y-120521161D01*
X91586256Y-120435000D01*
X91293744Y-120435000D01*
X90860582Y-120521161D01*
X90369375Y-120849375D01*
X90357184Y-120867619D01*
X90348157Y-120822235D01*
X90207809Y-120612191D01*
X89997765Y-120471843D01*
X89750000Y-120422560D01*
X88050000Y-120422560D01*
X87802235Y-120471843D01*
X87592191Y-120612191D01*
X87451843Y-120822235D01*
X87402560Y-121070000D01*
X50522000Y-121070000D01*
X50522000Y-110284126D01*
X118599000Y-110284126D01*
X118599000Y-110695874D01*
X118756569Y-111076280D01*
X119047720Y-111367431D01*
X119428126Y-111525000D01*
X119839874Y-111525000D01*
X120220280Y-111367431D01*
X120337711Y-111250000D01*
X131630289Y-111250000D01*
X131747720Y-111367431D01*
X132128126Y-111525000D01*
X132539874Y-111525000D01*
X132920280Y-111367431D01*
X133211431Y-111076280D01*
X133369000Y-110695874D01*
X133369000Y-110284126D01*
X133211431Y-109903720D01*
X132920280Y-109612569D01*
X132539874Y-109455000D01*
X132128126Y-109455000D01*
X131747720Y-109612569D01*
X131630289Y-109730000D01*
X120337711Y-109730000D01*
X120220280Y-109612569D01*
X119839874Y-109455000D01*
X119428126Y-109455000D01*
X119047720Y-109612569D01*
X118756569Y-109903720D01*
X118599000Y-110284126D01*
X50522000Y-110284126D01*
X50522000Y-104976832D01*
X53101385Y-104976186D01*
X56990674Y-108865477D01*
X56990674Y-108865477D01*
G37*
X56990674Y-108865477D02*
X57033072Y-108928930D01*
X57096525Y-108971328D01*
X57096527Y-108971330D01*
X57188448Y-109032749D01*
X57284464Y-109096905D01*
X57506149Y-109141001D01*
X57506153Y-109141001D01*
X57581000Y-109155889D01*
X57655847Y-109141001D01*
X134400955Y-109141001D01*
X134475802Y-109155889D01*
X134550649Y-109141001D01*
X134550654Y-109141001D01*
X134772339Y-109096905D01*
X135023731Y-108928930D01*
X135066133Y-108865471D01*
X135113603Y-108818001D01*
X142940204Y-108818001D01*
X142902000Y-108910234D01*
X142902000Y-109361766D01*
X143074793Y-109778926D01*
X143181867Y-109886000D01*
X143074793Y-109993074D01*
X142902000Y-110410234D01*
X142902000Y-110861766D01*
X143074793Y-111278926D01*
X143394074Y-111598207D01*
X143626669Y-111694551D01*
X143232097Y-111694551D01*
X143157250Y-111679663D01*
X143082403Y-111694551D01*
X143082399Y-111694551D01*
X142860714Y-111738647D01*
X142804811Y-111776000D01*
X140875711Y-111776000D01*
X140758280Y-111658569D01*
X140377874Y-111501000D01*
X139966126Y-111501000D01*
X139585720Y-111658569D01*
X139294569Y-111949720D01*
X139137000Y-112330126D01*
X139137000Y-112615999D01*
X124024848Y-112615999D01*
X123950000Y-112601111D01*
X123875152Y-112615999D01*
X123875148Y-112615999D01*
X123653463Y-112660095D01*
X123459047Y-112790000D01*
X102053711Y-112790000D01*
X101936280Y-112672569D01*
X101555874Y-112515000D01*
X101144126Y-112515000D01*
X100763720Y-112672569D01*
X100472569Y-112963720D01*
X100315000Y-113344126D01*
X100315000Y-113755874D01*
X100472569Y-114136280D01*
X100763720Y-114427431D01*
X101144126Y-114585000D01*
X101555874Y-114585000D01*
X101936280Y-114427431D01*
X102053711Y-114310000D01*
X112076289Y-114310000D01*
X111972569Y-114413720D01*
X111815000Y-114794126D01*
X111815000Y-115205874D01*
X111972569Y-115586280D01*
X111987289Y-115601000D01*
X108886846Y-115601000D01*
X108811999Y-115586112D01*
X108737152Y-115601000D01*
X108737148Y-115601000D01*
X108611465Y-115626000D01*
X99615711Y-115626000D01*
X99498280Y-115508569D01*
X99117874Y-115351000D01*
X98706126Y-115351000D01*
X98325720Y-115508569D01*
X98244289Y-115590000D01*
X94753711Y-115590000D01*
X94636280Y-115472569D01*
X94255874Y-115315000D01*
X93844126Y-115315000D01*
X93463720Y-115472569D01*
X93172569Y-115763720D01*
X93015000Y-116144126D01*
X93015000Y-116555874D01*
X93091267Y-116740000D01*
X92153711Y-116740000D01*
X92036280Y-116622569D01*
X91655874Y-116465000D01*
X91244126Y-116465000D01*
X90863720Y-116622569D01*
X90572569Y-116913720D01*
X90415000Y-117294126D01*
X90415000Y-117705874D01*
X90572569Y-118086280D01*
X90863720Y-118377431D01*
X91244126Y-118535000D01*
X91655874Y-118535000D01*
X92036280Y-118377431D01*
X92153711Y-118260000D01*
X98736955Y-118260000D01*
X98811802Y-118274888D01*
X98886649Y-118260000D01*
X98886654Y-118260000D01*
X99108339Y-118215904D01*
X99359731Y-118047929D01*
X99402133Y-117984470D01*
X99530603Y-117856000D01*
X144388289Y-117856000D01*
X144505720Y-117973431D01*
X144886126Y-118131000D01*
X145297874Y-118131000D01*
X145678280Y-117973431D01*
X145855711Y-117796000D01*
X148363921Y-117796000D01*
X148481352Y-117913431D01*
X148861758Y-118071000D01*
X149162000Y-118071000D01*
X149162000Y-118266208D01*
X149152198Y-118276010D01*
X148986126Y-118276010D01*
X148605720Y-118433579D01*
X148314569Y-118724730D01*
X148157000Y-119105136D01*
X148157000Y-119236011D01*
X147740615Y-119236011D01*
X147390331Y-118885728D01*
X147347929Y-118822269D01*
X147096537Y-118654294D01*
X146874852Y-118610198D01*
X146874847Y-118610198D01*
X146800000Y-118595310D01*
X146725153Y-118610198D01*
X145654648Y-118610198D01*
X145579801Y-118595310D01*
X145504954Y-118610198D01*
X145504950Y-118610198D01*
X145283265Y-118654294D01*
X145031873Y-118822269D01*
X144997307Y-118874000D01*
X114063161Y-118874000D01*
X113988314Y-118859112D01*
X113913467Y-118874000D01*
X113913463Y-118874000D01*
X113833026Y-118890000D01*
X89985000Y-118890000D01*
X89985000Y-118594126D01*
X89827431Y-118213720D01*
X89536280Y-117922569D01*
X89155874Y-117765000D01*
X88744126Y-117765000D01*
X88363720Y-117922569D01*
X88296289Y-117990000D01*
X63003711Y-117990000D01*
X62886280Y-117872569D01*
X62505874Y-117715000D01*
X62094126Y-117715000D01*
X61713720Y-117872569D01*
X61422569Y-118163720D01*
X61265000Y-118544126D01*
X61265000Y-118955874D01*
X61422569Y-119336280D01*
X61713720Y-119627431D01*
X62094126Y-119785000D01*
X62265000Y-119785000D01*
X62265000Y-119855874D01*
X62422569Y-120236280D01*
X62713720Y-120527431D01*
X63094126Y-120685000D01*
X63505874Y-120685000D01*
X63886280Y-120527431D01*
X64003711Y-120410000D01*
X97778528Y-120410000D01*
X97764235Y-120412843D01*
X97554191Y-120553191D01*
X97413843Y-120763235D01*
X97364560Y-121011000D01*
X97364560Y-122711000D01*
X97413843Y-122958765D01*
X97554191Y-123168809D01*
X97764235Y-123309157D01*
X98012000Y-123358440D01*
X99712000Y-123358440D01*
X99959765Y-123309157D01*
X100169809Y-123168809D01*
X100310157Y-122958765D01*
X100319184Y-122913381D01*
X100331375Y-122931625D01*
X100822582Y-123259839D01*
X101255744Y-123346000D01*
X101548256Y-123346000D01*
X101981418Y-123259839D01*
X102472625Y-122931625D01*
X102685843Y-122612522D01*
X102746817Y-122742358D01*
X103175076Y-123132645D01*
X103585110Y-123302476D01*
X103815000Y-123181155D01*
X103815000Y-121988000D01*
X104069000Y-121988000D01*
X104069000Y-123181155D01*
X104298890Y-123302476D01*
X104708924Y-123132645D01*
X105137183Y-122742358D01*
X105383486Y-122217892D01*
X105262819Y-121988000D01*
X104069000Y-121988000D01*
X103815000Y-121988000D01*
X103795000Y-121988000D01*
X103795000Y-121734000D01*
X103815000Y-121734000D01*
X103815000Y-121714000D01*
X104069000Y-121714000D01*
X104069000Y-121734000D01*
X105262819Y-121734000D01*
X105383486Y-121504108D01*
X105137183Y-120979642D01*
X104708924Y-120589355D01*
X104298890Y-120419524D01*
X104069002Y-120540844D01*
X104069002Y-120410000D01*
X113897468Y-120410000D01*
X113972315Y-120424888D01*
X114047162Y-120410000D01*
X114047167Y-120410000D01*
X114127604Y-120394000D01*
X115690982Y-120394000D01*
X115551843Y-120602235D01*
X115502560Y-120850000D01*
X115502560Y-122550000D01*
X115551843Y-122797765D01*
X115692191Y-123007809D01*
X115902235Y-123148157D01*
X116150000Y-123197440D01*
X117850000Y-123197440D01*
X118097765Y-123148157D01*
X118307809Y-123007809D01*
X118448157Y-122797765D01*
X118457184Y-122752381D01*
X118469375Y-122770625D01*
X118960582Y-123098839D01*
X119393744Y-123185000D01*
X119686256Y-123185000D01*
X120119418Y-123098839D01*
X120610625Y-122770625D01*
X120810000Y-122472239D01*
X121009375Y-122770625D01*
X121500582Y-123098839D01*
X121933744Y-123185000D01*
X122226256Y-123185000D01*
X122659418Y-123098839D01*
X123150625Y-122770625D01*
X123478839Y-122279418D01*
X123594092Y-121700000D01*
X123478839Y-121120582D01*
X123150625Y-120629375D01*
X122798361Y-120394000D01*
X125535977Y-120394000D01*
X125502560Y-120562000D01*
X125502560Y-122262000D01*
X125551843Y-122509765D01*
X125692191Y-122719809D01*
X125902235Y-122860157D01*
X126150000Y-122909440D01*
X127313985Y-122909440D01*
X127235000Y-123100126D01*
X127235000Y-123183064D01*
X127205874Y-123171000D01*
X126794126Y-123171000D01*
X126413720Y-123328569D01*
X126122569Y-123619720D01*
X125965000Y-124000126D01*
X125965000Y-124411874D01*
X126122569Y-124792280D01*
X126300289Y-124970000D01*
X124012803Y-124970000D01*
X122764331Y-123721530D01*
X122721929Y-123658071D01*
X122470537Y-123490096D01*
X122248852Y-123446000D01*
X122248847Y-123446000D01*
X122174000Y-123431112D01*
X122099153Y-123446000D01*
X62759711Y-123446000D01*
X62636280Y-123322569D01*
X62255874Y-123165000D01*
X61844126Y-123165000D01*
X61463720Y-123322569D01*
X61172569Y-123613720D01*
X61015000Y-123994126D01*
X61015000Y-124405874D01*
X61172569Y-124786280D01*
X61463720Y-125077431D01*
X61844126Y-125235000D01*
X62255874Y-125235000D01*
X62636280Y-125077431D01*
X62747711Y-124966000D01*
X121859199Y-124966000D01*
X122983197Y-126090000D01*
X79282230Y-126090000D01*
X79077339Y-125953096D01*
X78855654Y-125909000D01*
X78855649Y-125909000D01*
X78780802Y-125894112D01*
X78705955Y-125909000D01*
X75872711Y-125909000D01*
X75755280Y-125791569D01*
X75374874Y-125634000D01*
X74963126Y-125634000D01*
X74582720Y-125791569D01*
X74291569Y-126082720D01*
X74151343Y-126421256D01*
X69101213Y-126373006D01*
X69052522Y-126382208D01*
X69011059Y-126409344D01*
X68983137Y-126450280D01*
X68973003Y-126500855D01*
X69073003Y-141350855D01*
X69082997Y-141399390D01*
X69110804Y-141440405D01*
X69152190Y-141467657D01*
X69200000Y-141477000D01*
X70619320Y-141477000D01*
X70539348Y-144276000D01*
X54698418Y-144276000D01*
X54746013Y-144228405D01*
X54633469Y-144115861D01*
X55030169Y-143864625D01*
X55465227Y-142802554D01*
X55460730Y-141654838D01*
X55030169Y-140615375D01*
X54633467Y-140364138D01*
X52757605Y-142240000D01*
X52771748Y-142254143D01*
X52592143Y-142433748D01*
X52578000Y-142419605D01*
X52563858Y-142433748D01*
X52384253Y-142254143D01*
X52398395Y-142240000D01*
X52384253Y-142225858D01*
X52563858Y-142046253D01*
X52578000Y-142060395D01*
X54453862Y-140184533D01*
X54202625Y-139787831D01*
X53140554Y-139352773D01*
X51992838Y-139357270D01*
X50953375Y-139787831D01*
X50702139Y-140184531D01*
X50589595Y-140071987D01*
X50522000Y-140139582D01*
X50522000Y-121070000D01*
X87402560Y-121070000D01*
X87402560Y-122770000D01*
X87451843Y-123017765D01*
X87592191Y-123227809D01*
X87802235Y-123368157D01*
X88050000Y-123417440D01*
X89750000Y-123417440D01*
X89997765Y-123368157D01*
X90207809Y-123227809D01*
X90348157Y-123017765D01*
X90357184Y-122972381D01*
X90369375Y-122990625D01*
X90860582Y-123318839D01*
X91293744Y-123405000D01*
X91586256Y-123405000D01*
X92019418Y-123318839D01*
X92510625Y-122990625D01*
X92710000Y-122692239D01*
X92909375Y-122990625D01*
X93400582Y-123318839D01*
X93833744Y-123405000D01*
X94126256Y-123405000D01*
X94559418Y-123318839D01*
X95050625Y-122990625D01*
X95378839Y-122499418D01*
X95494092Y-121920000D01*
X95378839Y-121340582D01*
X95050625Y-120849375D01*
X94559418Y-120521161D01*
X94126256Y-120435000D01*
X93833744Y-120435000D01*
X93400582Y-120521161D01*
X92909375Y-120849375D01*
X92710000Y-121147761D01*
X92510625Y-120849375D01*
X92019418Y-120521161D01*
X91586256Y-120435000D01*
X91293744Y-120435000D01*
X90860582Y-120521161D01*
X90369375Y-120849375D01*
X90357184Y-120867619D01*
X90348157Y-120822235D01*
X90207809Y-120612191D01*
X89997765Y-120471843D01*
X89750000Y-120422560D01*
X88050000Y-120422560D01*
X87802235Y-120471843D01*
X87592191Y-120612191D01*
X87451843Y-120822235D01*
X87402560Y-121070000D01*
X50522000Y-121070000D01*
X50522000Y-110284126D01*
X118599000Y-110284126D01*
X118599000Y-110695874D01*
X118756569Y-111076280D01*
X119047720Y-111367431D01*
X119428126Y-111525000D01*
X119839874Y-111525000D01*
X120220280Y-111367431D01*
X120337711Y-111250000D01*
X131630289Y-111250000D01*
X131747720Y-111367431D01*
X132128126Y-111525000D01*
X132539874Y-111525000D01*
X132920280Y-111367431D01*
X133211431Y-111076280D01*
X133369000Y-110695874D01*
X133369000Y-110284126D01*
X133211431Y-109903720D01*
X132920280Y-109612569D01*
X132539874Y-109455000D01*
X132128126Y-109455000D01*
X131747720Y-109612569D01*
X131630289Y-109730000D01*
X120337711Y-109730000D01*
X120220280Y-109612569D01*
X119839874Y-109455000D01*
X119428126Y-109455000D01*
X119047720Y-109612569D01*
X118756569Y-109903720D01*
X118599000Y-110284126D01*
X50522000Y-110284126D01*
X50522000Y-104976832D01*
X53101385Y-104976186D01*
X56990674Y-108865477D01*
G36*
X249102001Y-140354391D02*
X249017861Y-140438531D01*
X248766625Y-140041831D01*
X247704554Y-139606773D01*
X246556838Y-139611270D01*
X245517375Y-140041831D01*
X245266138Y-140438533D01*
X247142000Y-142314395D01*
X247156143Y-142300253D01*
X247335748Y-142479858D01*
X247321605Y-142494000D01*
X247335748Y-142508143D01*
X247156143Y-142687748D01*
X247142000Y-142673605D01*
X247127858Y-142687748D01*
X246948253Y-142508143D01*
X246962395Y-142494000D01*
X245086533Y-140618138D01*
X244689831Y-140869375D01*
X244254773Y-141931446D01*
X244259270Y-143079162D01*
X244689831Y-144118625D01*
X244938325Y-144276000D01*
X85657468Y-144276000D01*
X85215175Y-133602000D01*
X94469000Y-133602000D01*
X94469000Y-133809874D01*
X94626569Y-134190280D01*
X94721289Y-134285000D01*
X92853711Y-134285000D01*
X92736280Y-134167569D01*
X92355874Y-134010000D01*
X91944126Y-134010000D01*
X91563720Y-134167569D01*
X91272569Y-134458720D01*
X91115000Y-134839126D01*
X91115000Y-135250874D01*
X91272569Y-135631280D01*
X91563720Y-135922431D01*
X91944126Y-136080000D01*
X92355874Y-136080000D01*
X92736280Y-135922431D01*
X92853711Y-135805000D01*
X94996289Y-135805000D01*
X95113720Y-135922431D01*
X95494126Y-136080000D01*
X95905874Y-136080000D01*
X96286280Y-135922431D01*
X96577431Y-135631280D01*
X96735000Y-135250874D01*
X96735000Y-134839126D01*
X96577431Y-134458720D01*
X96482711Y-134364000D01*
X105709523Y-134364000D01*
X105649000Y-134510116D01*
X105649000Y-134640990D01*
X105335268Y-134640990D01*
X104989743Y-134497869D01*
X104577995Y-134497869D01*
X104197589Y-134655438D01*
X103906438Y-134946589D01*
X103748869Y-135326995D01*
X103748869Y-135601000D01*
X103431126Y-135601000D01*
X103050720Y-135758569D01*
X102759569Y-136049720D01*
X102602000Y-136430126D01*
X102602000Y-136841874D01*
X102707975Y-137097721D01*
X102500720Y-137183569D01*
X102383289Y-137301000D01*
X92415711Y-137301000D01*
X92298280Y-137183569D01*
X91917874Y-137026000D01*
X91506126Y-137026000D01*
X91125720Y-137183569D01*
X90834569Y-137474720D01*
X90677000Y-137855126D01*
X90677000Y-138266874D01*
X90834569Y-138647280D01*
X91125720Y-138938431D01*
X91506126Y-139096000D01*
X91865000Y-139096000D01*
X91865000Y-139355874D01*
X92022569Y-139736280D01*
X92313720Y-140027431D01*
X92694126Y-140185000D01*
X93105874Y-140185000D01*
X93486280Y-140027431D01*
X93567711Y-139946000D01*
X96890289Y-139946000D01*
X96722569Y-140113720D01*
X96565000Y-140494126D01*
X96565000Y-140905874D01*
X96722569Y-141286280D01*
X96750747Y-141314458D01*
X96749375Y-141315375D01*
X96550000Y-141613761D01*
X96350625Y-141315375D01*
X95859418Y-140987161D01*
X95426256Y-140901000D01*
X95133744Y-140901000D01*
X94700582Y-140987161D01*
X94209375Y-141315375D01*
X94010000Y-141613761D01*
X93810625Y-141315375D01*
X93319418Y-140987161D01*
X92886256Y-140901000D01*
X92593744Y-140901000D01*
X92160582Y-140987161D01*
X91669375Y-141315375D01*
X91657184Y-141333619D01*
X91648157Y-141288235D01*
X91507809Y-141078191D01*
X91297765Y-140937843D01*
X91050000Y-140888560D01*
X89350000Y-140888560D01*
X89102235Y-140937843D01*
X88892191Y-141078191D01*
X88751843Y-141288235D01*
X88702560Y-141536000D01*
X88702560Y-143236000D01*
X88751843Y-143483765D01*
X88892191Y-143693809D01*
X89102235Y-143834157D01*
X89350000Y-143883440D01*
X91050000Y-143883440D01*
X91297765Y-143834157D01*
X91507809Y-143693809D01*
X91648157Y-143483765D01*
X91657184Y-143438381D01*
X91669375Y-143456625D01*
X92160582Y-143784839D01*
X92593744Y-143871000D01*
X92886256Y-143871000D01*
X93319418Y-143784839D01*
X93810625Y-143456625D01*
X94010000Y-143158239D01*
X94209375Y-143456625D01*
X94700582Y-143784839D01*
X95133744Y-143871000D01*
X95426256Y-143871000D01*
X95859418Y-143784839D01*
X96350625Y-143456625D01*
X96550000Y-143158239D01*
X96749375Y-143456625D01*
X97240582Y-143784839D01*
X97673744Y-143871000D01*
X97966256Y-143871000D01*
X98399418Y-143784839D01*
X98890625Y-143456625D01*
X99218839Y-142965418D01*
X99334092Y-142386000D01*
X99218839Y-141806582D01*
X99154305Y-141710000D01*
X101502560Y-141710000D01*
X101502560Y-143250000D01*
X101551843Y-143497765D01*
X101692191Y-143707809D01*
X101902235Y-143848157D01*
X102150000Y-143897440D01*
X103850000Y-143897440D01*
X104097765Y-143848157D01*
X104307809Y-143707809D01*
X104448157Y-143497765D01*
X104457184Y-143452381D01*
X104469375Y-143470625D01*
X104960582Y-143798839D01*
X105393744Y-143885000D01*
X105686256Y-143885000D01*
X106119418Y-143798839D01*
X106610625Y-143470625D01*
X106810000Y-143172239D01*
X107009375Y-143470625D01*
X107500582Y-143798839D01*
X107933744Y-143885000D01*
X108226256Y-143885000D01*
X108659418Y-143798839D01*
X109150625Y-143470625D01*
X109350000Y-143172239D01*
X109549375Y-143470625D01*
X110040582Y-143798839D01*
X110473744Y-143885000D01*
X110766256Y-143885000D01*
X111199418Y-143798839D01*
X111690625Y-143470625D01*
X111890000Y-143172239D01*
X112089375Y-143470625D01*
X112580582Y-143798839D01*
X113013744Y-143885000D01*
X113306256Y-143885000D01*
X113739418Y-143798839D01*
X114230625Y-143470625D01*
X114443843Y-143151522D01*
X114504817Y-143281358D01*
X114933076Y-143671645D01*
X115343110Y-143841476D01*
X115573000Y-143720155D01*
X115573000Y-142527000D01*
X115827000Y-142527000D01*
X115827000Y-143720155D01*
X116056890Y-143841476D01*
X116466924Y-143671645D01*
X116895183Y-143281358D01*
X117141486Y-142756892D01*
X117020819Y-142527000D01*
X115827000Y-142527000D01*
X115573000Y-142527000D01*
X115553000Y-142527000D01*
X115553000Y-142273000D01*
X115573000Y-142273000D01*
X115573000Y-141079845D01*
X115827000Y-141079845D01*
X115827000Y-142273000D01*
X117020819Y-142273000D01*
X117141486Y-142043108D01*
X116895183Y-141518642D01*
X116466924Y-141128355D01*
X116056890Y-140958524D01*
X115827000Y-141079845D01*
X115573000Y-141079845D01*
X115343110Y-140958524D01*
X114933076Y-141128355D01*
X114504817Y-141518642D01*
X114443843Y-141648478D01*
X114230625Y-141329375D01*
X113739418Y-141001161D01*
X113306256Y-140915000D01*
X113013744Y-140915000D01*
X112793592Y-140958791D01*
X112300331Y-140465530D01*
X112257929Y-140402071D01*
X112006537Y-140234096D01*
X111784852Y-140190000D01*
X111784847Y-140190000D01*
X111710000Y-140175112D01*
X111635153Y-140190000D01*
X111535000Y-140190000D01*
X111535000Y-139946000D01*
X119743290Y-139946000D01*
X119734569Y-139954721D01*
X119577000Y-140335127D01*
X119577000Y-140746875D01*
X119734569Y-141127281D01*
X120025720Y-141418432D01*
X120406126Y-141576001D01*
X120572199Y-141576001D01*
X121866670Y-142870473D01*
X121909070Y-142933929D01*
X122160462Y-143101904D01*
X122382147Y-143146000D01*
X122382151Y-143146000D01*
X122456999Y-143160888D01*
X122531847Y-143146000D01*
X124019560Y-143146000D01*
X124019560Y-143236000D01*
X124068843Y-143483765D01*
X124209191Y-143693809D01*
X124419235Y-143834157D01*
X124667000Y-143883440D01*
X126367000Y-143883440D01*
X126614765Y-143834157D01*
X126824809Y-143693809D01*
X126965157Y-143483765D01*
X126974184Y-143438381D01*
X126986375Y-143456625D01*
X127477582Y-143784839D01*
X127910744Y-143871000D01*
X128203256Y-143871000D01*
X128636418Y-143784839D01*
X129127625Y-143456625D01*
X129327000Y-143158239D01*
X129526375Y-143456625D01*
X130017582Y-143784839D01*
X130450744Y-143871000D01*
X130743256Y-143871000D01*
X131176418Y-143784839D01*
X131667625Y-143456625D01*
X131867000Y-143158239D01*
X132066375Y-143456625D01*
X132557582Y-143784839D01*
X132990744Y-143871000D01*
X133283256Y-143871000D01*
X133716418Y-143784839D01*
X134207625Y-143456625D01*
X134407000Y-143158239D01*
X134606375Y-143456625D01*
X135097582Y-143784839D01*
X135530744Y-143871000D01*
X135823256Y-143871000D01*
X136256418Y-143784839D01*
X136747625Y-143456625D01*
X136960843Y-143137522D01*
X137021817Y-143267358D01*
X137450076Y-143657645D01*
X137860110Y-143827476D01*
X138090000Y-143706155D01*
X138090000Y-142513000D01*
X138344000Y-142513000D01*
X138344000Y-143706155D01*
X138573890Y-143827476D01*
X138983924Y-143657645D01*
X139412183Y-143267358D01*
X139658486Y-142742892D01*
X139537819Y-142513000D01*
X138344000Y-142513000D01*
X138090000Y-142513000D01*
X138070000Y-142513000D01*
X138070000Y-142259000D01*
X138090000Y-142259000D01*
X138090000Y-142239000D01*
X138344000Y-142239000D01*
X138344000Y-142259000D01*
X139537819Y-142259000D01*
X139658486Y-142029108D01*
X139638242Y-141986002D01*
X143464560Y-141986002D01*
X143464560Y-143236000D01*
X143513843Y-143483765D01*
X143654191Y-143693809D01*
X143864235Y-143834157D01*
X144112000Y-143883440D01*
X145812000Y-143883440D01*
X146059765Y-143834157D01*
X146269809Y-143693809D01*
X146410157Y-143483765D01*
X146419184Y-143438381D01*
X146431375Y-143456625D01*
X146922582Y-143784839D01*
X147355744Y-143871000D01*
X147648256Y-143871000D01*
X148081418Y-143784839D01*
X148572625Y-143456625D01*
X148772000Y-143158239D01*
X148971375Y-143456625D01*
X149462582Y-143784839D01*
X149895744Y-143871000D01*
X150188256Y-143871000D01*
X150621418Y-143784839D01*
X151112625Y-143456625D01*
X151312000Y-143158239D01*
X151511375Y-143456625D01*
X152002582Y-143784839D01*
X152435744Y-143871000D01*
X152728256Y-143871000D01*
X153161418Y-143784839D01*
X153652625Y-143456625D01*
X153852000Y-143158239D01*
X154051375Y-143456625D01*
X154542582Y-143784839D01*
X154975744Y-143871000D01*
X155268256Y-143871000D01*
X155701418Y-143784839D01*
X156192625Y-143456625D01*
X156405843Y-143137522D01*
X156466817Y-143267358D01*
X156895076Y-143657645D01*
X157305110Y-143827476D01*
X157535000Y-143706155D01*
X157535000Y-142513000D01*
X157789000Y-142513000D01*
X157789000Y-143706155D01*
X158018890Y-143827476D01*
X158428924Y-143657645D01*
X158857183Y-143267358D01*
X159103486Y-142742892D01*
X158982819Y-142513000D01*
X157789000Y-142513000D01*
X157535000Y-142513000D01*
X157515000Y-142513000D01*
X157515000Y-142259000D01*
X157535000Y-142259000D01*
X157535000Y-142239000D01*
X157789000Y-142239000D01*
X157789000Y-142259000D01*
X158982819Y-142259000D01*
X159103486Y-142029108D01*
X159005753Y-141821000D01*
X159408289Y-141821000D01*
X159525720Y-141938431D01*
X159906126Y-142096000D01*
X160317874Y-142096000D01*
X160698280Y-141938431D01*
X160714961Y-141921750D01*
X235177000Y-141921750D01*
X235177000Y-142612309D01*
X235273673Y-142845698D01*
X235452301Y-143024327D01*
X235685690Y-143121000D01*
X236376250Y-143121000D01*
X236535000Y-142962250D01*
X236535000Y-141763000D01*
X236789000Y-141763000D01*
X236789000Y-142962250D01*
X236947750Y-143121000D01*
X237638310Y-143121000D01*
X237871699Y-143024327D01*
X238050327Y-142845698D01*
X238137136Y-142636122D01*
X238435076Y-142907645D01*
X238845110Y-143077476D01*
X239075000Y-142956155D01*
X239075000Y-141763000D01*
X239329000Y-141763000D01*
X239329000Y-142956155D01*
X239558890Y-143077476D01*
X239968924Y-142907645D01*
X240397183Y-142517358D01*
X240643486Y-141992892D01*
X240522819Y-141763000D01*
X239329000Y-141763000D01*
X239075000Y-141763000D01*
X236789000Y-141763000D01*
X236535000Y-141763000D01*
X235335750Y-141763000D01*
X235177000Y-141921750D01*
X160714961Y-141921750D01*
X160989431Y-141647280D01*
X161147000Y-141266874D01*
X161147000Y-140855126D01*
X160989431Y-140474720D01*
X160698280Y-140183569D01*
X160317874Y-140026000D01*
X160074580Y-140026000D01*
X160033159Y-139926000D01*
X160519725Y-139926000D01*
X160637156Y-140043431D01*
X161017562Y-140201000D01*
X161429310Y-140201000D01*
X161809716Y-140043431D01*
X162100867Y-139752280D01*
X162210307Y-139488068D01*
X162523280Y-139358431D01*
X162814431Y-139067280D01*
X162943686Y-138755231D01*
X163126609Y-138831000D01*
X163538357Y-138831000D01*
X163577200Y-138814911D01*
X163675720Y-138913431D01*
X164056126Y-139071000D01*
X164222198Y-139071000D01*
X164271671Y-139120473D01*
X164314071Y-139183929D01*
X164565463Y-139351904D01*
X164787148Y-139396000D01*
X164787152Y-139396000D01*
X164861999Y-139410888D01*
X164936846Y-139396000D01*
X165177000Y-139396000D01*
X165177000Y-139791874D01*
X165334569Y-140172280D01*
X165625720Y-140463431D01*
X166006126Y-140621000D01*
X166417874Y-140621000D01*
X166798280Y-140463431D01*
X166915711Y-140346000D01*
X181308289Y-140346000D01*
X181525720Y-140563431D01*
X181906126Y-140721000D01*
X182317874Y-140721000D01*
X182698280Y-140563431D01*
X182831455Y-140430256D01*
X183071670Y-140670472D01*
X183114071Y-140733929D01*
X183177527Y-140776329D01*
X183365462Y-140901904D01*
X183385421Y-140905874D01*
X183447425Y-140918207D01*
X183448830Y-140919146D01*
X183891684Y-141007235D01*
X184003467Y-140985000D01*
X190393289Y-140985000D01*
X190613720Y-141205431D01*
X190994126Y-141363000D01*
X191405874Y-141363000D01*
X191786280Y-141205431D01*
X192006711Y-140985000D01*
X193011783Y-140985000D01*
X193342855Y-140919146D01*
X193718289Y-140668289D01*
X193724034Y-140659691D01*
X235177000Y-140659691D01*
X235177000Y-141350250D01*
X235335750Y-141509000D01*
X236535000Y-141509000D01*
X236535000Y-140309750D01*
X236789000Y-140309750D01*
X236789000Y-141509000D01*
X239075000Y-141509000D01*
X239075000Y-140315845D01*
X239329000Y-140315845D01*
X239329000Y-141509000D01*
X240522819Y-141509000D01*
X240643486Y-141279108D01*
X240397183Y-140754642D01*
X239968924Y-140364355D01*
X239558890Y-140194524D01*
X239329000Y-140315845D01*
X239075000Y-140315845D01*
X238845110Y-140194524D01*
X238435076Y-140364355D01*
X238137136Y-140635878D01*
X238050327Y-140426302D01*
X237871699Y-140247673D01*
X237638310Y-140151000D01*
X236947750Y-140151000D01*
X236789000Y-140309750D01*
X236535000Y-140309750D01*
X236376250Y-140151000D01*
X235685690Y-140151000D01*
X235452301Y-140247673D01*
X235273673Y-140426302D01*
X235177000Y-140659691D01*
X193724034Y-140659691D01*
X193969146Y-140292855D01*
X194057235Y-139850000D01*
X193969146Y-139407145D01*
X193718289Y-139031711D01*
X193342855Y-138780854D01*
X193011783Y-138715000D01*
X184361817Y-138715000D01*
X183290562Y-137643745D01*
X189383861Y-137643745D01*
X189457995Y-137889864D01*
X189995223Y-138082965D01*
X190565454Y-138055778D01*
X190966005Y-137889864D01*
X191040139Y-137643745D01*
X190212000Y-136815605D01*
X189383861Y-137643745D01*
X183290562Y-137643745D01*
X183209298Y-137562482D01*
X183145974Y-137467711D01*
X182770540Y-137216854D01*
X182439468Y-137151000D01*
X182327685Y-137128765D01*
X182215902Y-137151000D01*
X176377923Y-137151000D01*
X176346473Y-137129986D01*
X175843016Y-136626530D01*
X175800614Y-136563071D01*
X175585331Y-136419223D01*
X188765035Y-136419223D01*
X188792222Y-136989454D01*
X188958136Y-137390005D01*
X189204255Y-137464139D01*
X190032395Y-136636000D01*
X189204255Y-135807861D01*
X188958136Y-135881995D01*
X188765035Y-136419223D01*
X175585331Y-136419223D01*
X175549222Y-136395096D01*
X175327537Y-136351000D01*
X175327532Y-136351000D01*
X175252685Y-136336112D01*
X175177838Y-136351000D01*
X168227654Y-136351000D01*
X168252791Y-136346000D01*
X168252796Y-136346000D01*
X168474481Y-136301904D01*
X168725873Y-136133929D01*
X168768275Y-136070470D01*
X168818442Y-136020303D01*
X168984515Y-136020303D01*
X169364921Y-135862734D01*
X169656072Y-135571583D01*
X169813641Y-135191177D01*
X169813641Y-134779429D01*
X169740272Y-134602301D01*
X169906126Y-134671000D01*
X170094382Y-134671000D01*
X170215462Y-134751903D01*
X170437147Y-134795999D01*
X170437151Y-134795999D01*
X170444107Y-134797383D01*
X171259197Y-135612473D01*
X171301597Y-135675929D01*
X171552989Y-135843904D01*
X171774674Y-135888000D01*
X171774678Y-135888000D01*
X171849526Y-135902888D01*
X171924374Y-135888000D01*
X172793289Y-135888000D01*
X172910720Y-136005431D01*
X173291126Y-136163000D01*
X173702874Y-136163000D01*
X174083280Y-136005431D01*
X174374431Y-135714280D01*
X174532000Y-135333874D01*
X174532000Y-135196000D01*
X175387153Y-135196000D01*
X175462000Y-135210888D01*
X175536847Y-135196000D01*
X175536852Y-135196000D01*
X175758537Y-135151904D01*
X176009929Y-134983929D01*
X176052331Y-134920470D01*
X176101801Y-134871000D01*
X176267874Y-134871000D01*
X176648280Y-134713431D01*
X176939431Y-134422280D01*
X177097000Y-134041874D01*
X177097000Y-133910999D01*
X180497288Y-133910999D01*
X180663720Y-134077431D01*
X181044126Y-134235000D01*
X181455874Y-134235000D01*
X181836280Y-134077431D01*
X182127431Y-133786280D01*
X182285000Y-133405874D01*
X182285000Y-133336000D01*
X188764560Y-133336000D01*
X188764560Y-134936000D01*
X188813843Y-135183765D01*
X188954191Y-135393809D01*
X189164235Y-135534157D01*
X189398187Y-135580693D01*
X189383861Y-135628255D01*
X190212000Y-136456395D01*
X190226143Y-136442253D01*
X190405748Y-136621858D01*
X190391605Y-136636000D01*
X191219745Y-137464139D01*
X191465864Y-137390005D01*
X191658965Y-136852777D01*
X191631895Y-136285000D01*
X199511783Y-136285000D01*
X199842855Y-136219146D01*
X199976082Y-136130126D01*
X209427000Y-136130126D01*
X209427000Y-136541874D01*
X209584569Y-136922280D01*
X209875720Y-137213431D01*
X210256126Y-137371000D01*
X210667874Y-137371000D01*
X211048280Y-137213431D01*
X211165711Y-137096000D01*
X218158289Y-137096000D01*
X218225720Y-137163431D01*
X218606126Y-137321000D01*
X219017874Y-137321000D01*
X219398280Y-137163431D01*
X219689431Y-136872280D01*
X219847000Y-136491874D01*
X219847000Y-136080126D01*
X219689431Y-135699720D01*
X219398280Y-135408569D01*
X219017874Y-135251000D01*
X218606126Y-135251000D01*
X218225720Y-135408569D01*
X218058289Y-135576000D01*
X212585711Y-135576000D01*
X212839431Y-135322280D01*
X212997000Y-134941874D01*
X212997000Y-134775802D01*
X213926803Y-133846000D01*
X236558289Y-133846000D01*
X236675720Y-133963431D01*
X237056126Y-134121000D01*
X237467874Y-134121000D01*
X237848280Y-133963431D01*
X238139431Y-133672280D01*
X238297000Y-133291874D01*
X238297000Y-133125802D01*
X238476802Y-132946000D01*
X241314560Y-132946000D01*
X241314560Y-132986000D01*
X241363843Y-133233765D01*
X241504191Y-133443809D01*
X241714235Y-133584157D01*
X241814503Y-133604101D01*
X241545466Y-133873138D01*
X241327000Y-134400561D01*
X241327000Y-134876000D01*
X236865711Y-134876000D01*
X236748280Y-134758569D01*
X236367874Y-134601000D01*
X235956126Y-134601000D01*
X235575720Y-134758569D01*
X235458289Y-134876000D01*
X231565711Y-134876000D01*
X231398280Y-134708569D01*
X231017874Y-134551000D01*
X230606126Y-134551000D01*
X230225720Y-134708569D01*
X229934569Y-134999720D01*
X229777000Y-135380126D01*
X229777000Y-135791874D01*
X229934569Y-136172280D01*
X230225720Y-136463431D01*
X230606126Y-136621000D01*
X231017874Y-136621000D01*
X231398280Y-136463431D01*
X231465711Y-136396000D01*
X235458289Y-136396000D01*
X235575720Y-136513431D01*
X235956126Y-136671000D01*
X236367874Y-136671000D01*
X236748280Y-136513431D01*
X236865711Y-136396000D01*
X241737153Y-136396000D01*
X241812000Y-136410888D01*
X241886847Y-136396000D01*
X241886852Y-136396000D01*
X242108537Y-136351904D01*
X242359929Y-136183929D01*
X242402331Y-136120470D01*
X242423698Y-136099103D01*
X242476561Y-136121000D01*
X243047439Y-136121000D01*
X243574862Y-135902534D01*
X243978534Y-135498862D01*
X244197000Y-134971439D01*
X244197000Y-134400561D01*
X243978534Y-133873138D01*
X243709497Y-133604101D01*
X243809765Y-133584157D01*
X244019809Y-133443809D01*
X244160157Y-133233765D01*
X244209440Y-132986000D01*
X244209440Y-131386000D01*
X244160157Y-131138235D01*
X244019809Y-130928191D01*
X243809765Y-130787843D01*
X243562000Y-130738560D01*
X241962000Y-130738560D01*
X241714235Y-130787843D01*
X241504191Y-130928191D01*
X241363843Y-131138235D01*
X241314560Y-131386000D01*
X241314560Y-131426000D01*
X238236846Y-131426000D01*
X238161999Y-131411112D01*
X238087152Y-131426000D01*
X238087148Y-131426000D01*
X237865463Y-131470096D01*
X237614071Y-131638071D01*
X237571671Y-131701527D01*
X237222198Y-132051000D01*
X237056126Y-132051000D01*
X236675720Y-132208569D01*
X236558289Y-132326000D01*
X213686846Y-132326000D01*
X213611999Y-132311112D01*
X213537152Y-132326000D01*
X213537148Y-132326000D01*
X213315463Y-132370096D01*
X213267859Y-132401904D01*
X213127526Y-132495671D01*
X213127524Y-132495673D01*
X213064071Y-132538071D01*
X213021673Y-132601524D01*
X211922198Y-133701000D01*
X211756126Y-133701000D01*
X211375720Y-133858569D01*
X211084569Y-134149720D01*
X210927000Y-134530126D01*
X210927000Y-134941874D01*
X211084569Y-135322280D01*
X211338289Y-135576000D01*
X211165711Y-135576000D01*
X211048280Y-135458569D01*
X210667874Y-135301000D01*
X210256126Y-135301000D01*
X209875720Y-135458569D01*
X209584569Y-135749720D01*
X209427000Y-136130126D01*
X199976082Y-136130126D01*
X200218289Y-135968289D01*
X200469146Y-135592855D01*
X200557235Y-135150000D01*
X200469146Y-134707145D01*
X200218289Y-134331711D01*
X199842855Y-134080854D01*
X199511783Y-134015000D01*
X191696132Y-134015000D01*
X191659440Y-133978308D01*
X191659440Y-133336000D01*
X191610157Y-133088235D01*
X191469809Y-132878191D01*
X191259765Y-132737843D01*
X191012000Y-132688560D01*
X189412000Y-132688560D01*
X189164235Y-132737843D01*
X188954191Y-132878191D01*
X188813843Y-133088235D01*
X188764560Y-133336000D01*
X182285000Y-133336000D01*
X182285000Y-132994126D01*
X182208733Y-132810000D01*
X183246289Y-132810000D01*
X183363720Y-132927431D01*
X183744126Y-133085000D01*
X184155874Y-133085000D01*
X184536280Y-132927431D01*
X184827431Y-132636280D01*
X184904590Y-132450000D01*
X203952560Y-132450000D01*
X203952560Y-134150000D01*
X204001843Y-134397765D01*
X204142191Y-134607809D01*
X204352235Y-134748157D01*
X204600000Y-134797440D01*
X206300000Y-134797440D01*
X206547765Y-134748157D01*
X206757809Y-134607809D01*
X206898157Y-134397765D01*
X206947440Y-134150000D01*
X206947440Y-132450000D01*
X206898157Y-132202235D01*
X206757809Y-131992191D01*
X206547765Y-131851843D01*
X206300000Y-131802560D01*
X204600000Y-131802560D01*
X204352235Y-131851843D01*
X204142191Y-131992191D01*
X204001843Y-132202235D01*
X203952560Y-132450000D01*
X184904590Y-132450000D01*
X184985000Y-132255874D01*
X184985000Y-132001001D01*
X188032152Y-132001001D01*
X188106999Y-132015889D01*
X188181846Y-132001001D01*
X188181851Y-132001001D01*
X188403536Y-131956905D01*
X188654928Y-131788930D01*
X188697330Y-131725471D01*
X190039362Y-130383440D01*
X191312000Y-130383440D01*
X191559765Y-130334157D01*
X191769809Y-130193809D01*
X191841845Y-130086000D01*
X195724765Y-130086000D01*
X195812854Y-130528855D01*
X196063711Y-130904289D01*
X196439145Y-131155146D01*
X196770217Y-131221000D01*
X204850217Y-131221000D01*
X204962000Y-131243235D01*
X205073783Y-131221000D01*
X205404855Y-131155146D01*
X205780289Y-130904289D01*
X205843613Y-130809518D01*
X206319691Y-130333440D01*
X207062000Y-130333440D01*
X207309765Y-130284157D01*
X207519809Y-130143809D01*
X207635277Y-129971000D01*
X207777719Y-129971000D01*
X208172582Y-130234839D01*
X208605744Y-130321000D01*
X208898256Y-130321000D01*
X209331418Y-130234839D01*
X209822625Y-129906625D01*
X210150839Y-129415418D01*
X210266092Y-128836000D01*
X210160495Y-128305126D01*
X217802000Y-128305126D01*
X217802000Y-128716874D01*
X217959569Y-129097280D01*
X218250720Y-129388431D01*
X218631126Y-129546000D01*
X219042874Y-129546000D01*
X219423280Y-129388431D01*
X219540711Y-129271000D01*
X228258289Y-129271000D01*
X228325720Y-129338431D01*
X228706126Y-129496000D01*
X229117874Y-129496000D01*
X229498280Y-129338431D01*
X229789431Y-129047280D01*
X229947000Y-128666874D01*
X229947000Y-128255126D01*
X229789431Y-127874720D01*
X229498280Y-127583569D01*
X229117874Y-127426000D01*
X228706126Y-127426000D01*
X228325720Y-127583569D01*
X228158289Y-127751000D01*
X219540711Y-127751000D01*
X219423280Y-127633569D01*
X219042874Y-127476000D01*
X218631126Y-127476000D01*
X218250720Y-127633569D01*
X217959569Y-127924720D01*
X217802000Y-128305126D01*
X210160495Y-128305126D01*
X210150839Y-128256582D01*
X209822625Y-127765375D01*
X209331418Y-127437161D01*
X208898256Y-127351000D01*
X208605744Y-127351000D01*
X208172582Y-127437161D01*
X207777719Y-127701000D01*
X207635277Y-127701000D01*
X207519809Y-127528191D01*
X207309765Y-127387843D01*
X207062000Y-127338560D01*
X205362000Y-127338560D01*
X205114235Y-127387843D01*
X204904191Y-127528191D01*
X204763843Y-127738235D01*
X204714560Y-127986000D01*
X204714560Y-128728309D01*
X204491869Y-128951000D01*
X196770217Y-128951000D01*
X196439145Y-129016854D01*
X196063711Y-129267711D01*
X195812854Y-129643145D01*
X195724765Y-130086000D01*
X191841845Y-130086000D01*
X191910157Y-129983765D01*
X191959440Y-129736000D01*
X191959440Y-128360000D01*
X194296289Y-128360000D01*
X194463720Y-128527431D01*
X194844126Y-128685000D01*
X195255874Y-128685000D01*
X195636280Y-128527431D01*
X195927431Y-128236280D01*
X196085000Y-127855874D01*
X196085000Y-127444126D01*
X195927431Y-127063720D01*
X195636280Y-126772569D01*
X195255874Y-126615000D01*
X194844126Y-126615000D01*
X194463720Y-126772569D01*
X194396289Y-126840000D01*
X191877830Y-126840000D01*
X191976092Y-126346000D01*
X191901500Y-125970999D01*
X192964314Y-125970999D01*
X193137778Y-126086904D01*
X193280603Y-126115314D01*
X193413720Y-126248431D01*
X193794126Y-126406000D01*
X194205874Y-126406000D01*
X194586280Y-126248431D01*
X194877431Y-125957280D01*
X195035000Y-125576874D01*
X195035000Y-125446000D01*
X209258289Y-125446000D01*
X209375720Y-125563431D01*
X209756126Y-125721000D01*
X210167874Y-125721000D01*
X210548280Y-125563431D01*
X210839431Y-125272280D01*
X210997000Y-124891874D01*
X210997000Y-124621000D01*
X217297199Y-124621000D01*
X218021671Y-125345473D01*
X218064071Y-125408929D01*
X218315463Y-125576904D01*
X218537148Y-125621000D01*
X218537152Y-125621000D01*
X218612000Y-125635888D01*
X218686848Y-125621000D01*
X228961468Y-125621000D01*
X229036315Y-125635888D01*
X229111162Y-125621000D01*
X229111167Y-125621000D01*
X229161440Y-125611000D01*
X232208289Y-125611000D01*
X232325720Y-125728431D01*
X232706126Y-125886000D01*
X233117874Y-125886000D01*
X233498280Y-125728431D01*
X233789431Y-125437280D01*
X233947000Y-125056874D01*
X233947000Y-124645126D01*
X233789431Y-124264720D01*
X233498280Y-123973569D01*
X233117874Y-123816000D01*
X232706126Y-123816000D01*
X232325720Y-123973569D01*
X232208289Y-124091000D01*
X229121161Y-124091000D01*
X229046314Y-124076112D01*
X228971467Y-124091000D01*
X228971463Y-124091000D01*
X228921190Y-124101000D01*
X226056553Y-124101000D01*
X226272625Y-123956625D01*
X226600839Y-123465418D01*
X226716092Y-122886000D01*
X226600839Y-122306582D01*
X226272625Y-121815375D01*
X225781418Y-121487161D01*
X225348256Y-121401000D01*
X225055744Y-121401000D01*
X224622582Y-121487161D01*
X224131375Y-121815375D01*
X224119184Y-121833619D01*
X224110157Y-121788235D01*
X223969809Y-121578191D01*
X223759765Y-121437843D01*
X223512000Y-121388560D01*
X221812000Y-121388560D01*
X221564235Y-121437843D01*
X221354191Y-121578191D01*
X221213843Y-121788235D01*
X221164560Y-122036000D01*
X221164560Y-123736000D01*
X221213843Y-123983765D01*
X221292178Y-124101000D01*
X218926802Y-124101000D01*
X218202331Y-123376530D01*
X218159929Y-123313071D01*
X217908537Y-123145096D01*
X217686852Y-123101000D01*
X217686847Y-123101000D01*
X217612000Y-123086112D01*
X217537153Y-123101000D01*
X204953711Y-123101000D01*
X204836280Y-122983569D01*
X204455874Y-122826000D01*
X204044126Y-122826000D01*
X203663720Y-122983569D01*
X203546289Y-123101000D01*
X181666999Y-123101000D01*
X181665565Y-123099566D01*
X181623163Y-123036107D01*
X181371771Y-122868132D01*
X181150086Y-122824036D01*
X181150081Y-122824036D01*
X181075234Y-122809148D01*
X181000387Y-122824036D01*
X173897342Y-122824036D01*
X174879334Y-121842045D01*
X175025720Y-121988431D01*
X175406126Y-122146000D01*
X175817874Y-122146000D01*
X176198280Y-121988431D01*
X176489431Y-121697280D01*
X176647000Y-121316874D01*
X176647000Y-121150801D01*
X177530103Y-120267699D01*
X177674929Y-120170929D01*
X177717331Y-120107471D01*
X177943792Y-119881010D01*
X181053754Y-119881010D01*
X180962191Y-119942191D01*
X180821843Y-120152235D01*
X180772560Y-120400000D01*
X180772560Y-122100000D01*
X180821843Y-122347765D01*
X180962191Y-122557809D01*
X181172235Y-122698157D01*
X181420000Y-122747440D01*
X183120000Y-122747440D01*
X183367765Y-122698157D01*
X183577809Y-122557809D01*
X183718157Y-122347765D01*
X183727184Y-122302381D01*
X183739375Y-122320625D01*
X184230582Y-122648839D01*
X184663744Y-122735000D01*
X184956256Y-122735000D01*
X185389418Y-122648839D01*
X185880625Y-122320625D01*
X186080000Y-122022239D01*
X186279375Y-122320625D01*
X186770582Y-122648839D01*
X187203744Y-122735000D01*
X187496256Y-122735000D01*
X187929418Y-122648839D01*
X188420625Y-122320625D01*
X188633843Y-122001522D01*
X188694817Y-122131358D01*
X189123076Y-122521645D01*
X189533110Y-122691476D01*
X189763000Y-122570155D01*
X189763000Y-121377000D01*
X190017000Y-121377000D01*
X190017000Y-122570155D01*
X190246890Y-122691476D01*
X190656924Y-122521645D01*
X191085183Y-122131358D01*
X191331486Y-121606892D01*
X191210819Y-121377000D01*
X190017000Y-121377000D01*
X189763000Y-121377000D01*
X189743000Y-121377000D01*
X189743000Y-121123000D01*
X189763000Y-121123000D01*
X189763000Y-121103000D01*
X190017000Y-121103000D01*
X190017000Y-121123000D01*
X191210819Y-121123000D01*
X191331486Y-120893108D01*
X191085183Y-120368642D01*
X190656924Y-119978355D01*
X190421898Y-119881010D01*
X195406209Y-119881010D01*
X196659673Y-121134476D01*
X196702071Y-121197929D01*
X196765524Y-121240327D01*
X196765526Y-121240329D01*
X196890902Y-121324102D01*
X196953463Y-121365904D01*
X197175148Y-121410000D01*
X197175152Y-121410000D01*
X197249999Y-121424888D01*
X197324846Y-121410000D01*
X204974199Y-121410000D01*
X205159671Y-121595472D01*
X205202071Y-121658929D01*
X205453463Y-121826904D01*
X205675148Y-121871000D01*
X205675152Y-121871000D01*
X205749999Y-121885888D01*
X205824846Y-121871000D01*
X206433289Y-121871000D01*
X206475720Y-121913431D01*
X206856126Y-122071000D01*
X207267874Y-122071000D01*
X207648280Y-121913431D01*
X207939431Y-121622280D01*
X208097000Y-121241874D01*
X208097000Y-120830126D01*
X207939431Y-120449720D01*
X207785711Y-120296000D01*
X233963289Y-120296000D01*
X234080720Y-120413431D01*
X234461126Y-120571000D01*
X234872874Y-120571000D01*
X235253280Y-120413431D01*
X235544431Y-120122280D01*
X235702000Y-119741874D01*
X235702000Y-119330126D01*
X235544431Y-118949720D01*
X235253280Y-118658569D01*
X234872874Y-118501000D01*
X234461126Y-118501000D01*
X234080720Y-118658569D01*
X233963289Y-118776000D01*
X203922000Y-118776000D01*
X203922000Y-118505126D01*
X203764431Y-118124720D01*
X203473280Y-117833569D01*
X203307169Y-117764764D01*
X205700934Y-115371000D01*
X208350217Y-115371000D01*
X208462000Y-115393235D01*
X208573783Y-115371000D01*
X208904855Y-115305146D01*
X209030788Y-115221000D01*
X214422132Y-115221000D01*
X214504191Y-115343809D01*
X214714235Y-115484157D01*
X214962000Y-115533440D01*
X216562000Y-115533440D01*
X216809765Y-115484157D01*
X217019809Y-115343809D01*
X217108334Y-115211322D01*
X221427000Y-115211322D01*
X221427000Y-116060678D01*
X221752034Y-116845380D01*
X222352620Y-117445966D01*
X223137322Y-117771000D01*
X223986678Y-117771000D01*
X224771380Y-117445966D01*
X225371966Y-116845380D01*
X225697000Y-116060678D01*
X225697000Y-116030126D01*
X236927000Y-116030126D01*
X236927000Y-116441874D01*
X237084569Y-116822280D01*
X237375720Y-117113431D01*
X237756126Y-117271000D01*
X238167874Y-117271000D01*
X238548280Y-117113431D01*
X238665711Y-116996000D01*
X241902654Y-116996000D01*
X242352620Y-117445966D01*
X243137322Y-117771000D01*
X243986678Y-117771000D01*
X244771380Y-117445966D01*
X245371966Y-116845380D01*
X245697000Y-116060678D01*
X245697000Y-115211322D01*
X245371966Y-114426620D01*
X244771380Y-113826034D01*
X243986678Y-113501000D01*
X243137322Y-113501000D01*
X242352620Y-113826034D01*
X241752034Y-114426620D01*
X241427000Y-115211322D01*
X241427000Y-115476000D01*
X238665711Y-115476000D01*
X238548280Y-115358569D01*
X238167874Y-115201000D01*
X237756126Y-115201000D01*
X237375720Y-115358569D01*
X237084569Y-115649720D01*
X236927000Y-116030126D01*
X225697000Y-116030126D01*
X225697000Y-115211322D01*
X225371966Y-114426620D01*
X224771380Y-113826034D01*
X223986678Y-113501000D01*
X223137322Y-113501000D01*
X222352620Y-113826034D01*
X221752034Y-114426620D01*
X221427000Y-115211322D01*
X217108334Y-115211322D01*
X217160157Y-115133765D01*
X217209440Y-114886000D01*
X217209440Y-113286000D01*
X217160157Y-113038235D01*
X217019809Y-112828191D01*
X216809765Y-112687843D01*
X216575813Y-112641307D01*
X216590139Y-112593745D01*
X215762000Y-111765605D01*
X214933861Y-112593745D01*
X214948187Y-112641307D01*
X214714235Y-112687843D01*
X214504191Y-112828191D01*
X214422132Y-112951000D01*
X210847001Y-112951000D01*
X210847001Y-112670126D01*
X210689432Y-112289720D01*
X210398281Y-111998569D01*
X210017875Y-111841000D01*
X209606127Y-111841000D01*
X209225721Y-111998569D01*
X209108290Y-112116000D01*
X204083045Y-112116000D01*
X204008198Y-112101112D01*
X203933351Y-112116000D01*
X203933346Y-112116000D01*
X203711661Y-112160096D01*
X203568131Y-112256000D01*
X202857711Y-112256000D01*
X202927431Y-112186280D01*
X203085000Y-111805874D01*
X203085000Y-111394126D01*
X203074685Y-111369223D01*
X214315035Y-111369223D01*
X214342222Y-111939454D01*
X214508136Y-112340005D01*
X214754255Y-112414139D01*
X215582395Y-111586000D01*
X215941605Y-111586000D01*
X216769745Y-112414139D01*
X217015864Y-112340005D01*
X217208965Y-111802777D01*
X217181778Y-111232546D01*
X217015864Y-110831995D01*
X216769745Y-110757861D01*
X215941605Y-111586000D01*
X215582395Y-111586000D01*
X214754255Y-110757861D01*
X214508136Y-110831995D01*
X214315035Y-111369223D01*
X203074685Y-111369223D01*
X202927431Y-111013720D01*
X202636280Y-110722569D01*
X202287875Y-110578255D01*
X214933861Y-110578255D01*
X215762000Y-111406395D01*
X216590139Y-110578255D01*
X216516005Y-110332136D01*
X216179888Y-110211322D01*
X221427000Y-110211322D01*
X221427000Y-111060678D01*
X221752034Y-111845380D01*
X222352620Y-112445966D01*
X223137322Y-112771000D01*
X223986678Y-112771000D01*
X224771380Y-112445966D01*
X225371966Y-111845380D01*
X225697000Y-111060678D01*
X225697000Y-110211322D01*
X241427000Y-110211322D01*
X241427000Y-111060678D01*
X241752034Y-111845380D01*
X242352620Y-112445966D01*
X243137322Y-112771000D01*
X243986678Y-112771000D01*
X244771380Y-112445966D01*
X245371966Y-111845380D01*
X245697000Y-111060678D01*
X245697000Y-110211322D01*
X245371966Y-109426620D01*
X244771380Y-108826034D01*
X243986678Y-108501000D01*
X243137322Y-108501000D01*
X242352620Y-108826034D01*
X241752034Y-109426620D01*
X241427000Y-110211322D01*
X225697000Y-110211322D01*
X225371966Y-109426620D01*
X224771380Y-108826034D01*
X223986678Y-108501000D01*
X223137322Y-108501000D01*
X222352620Y-108826034D01*
X221752034Y-109426620D01*
X221427000Y-110211322D01*
X216179888Y-110211322D01*
X215978777Y-110139035D01*
X215408546Y-110166222D01*
X215007995Y-110332136D01*
X214933861Y-110578255D01*
X202287875Y-110578255D01*
X202255874Y-110565000D01*
X201844126Y-110565000D01*
X201463720Y-110722569D01*
X201346289Y-110840000D01*
X200059046Y-110840000D01*
X199984198Y-110825112D01*
X199909350Y-110840000D01*
X199909346Y-110840000D01*
X199687661Y-110884096D01*
X199678825Y-110890000D01*
X192722000Y-110890000D01*
X192722000Y-110755126D01*
X192564431Y-110374720D01*
X192273280Y-110083569D01*
X191892874Y-109926000D01*
X191481126Y-109926000D01*
X191100720Y-110083569D01*
X190973288Y-110211001D01*
X189864982Y-110211001D01*
X189873486Y-110192892D01*
X189752819Y-109963000D01*
X188559000Y-109963000D01*
X188559000Y-109983000D01*
X188305000Y-109983000D01*
X188305000Y-109963000D01*
X188285000Y-109963000D01*
X188285000Y-109709000D01*
X188305000Y-109709000D01*
X188305000Y-109689000D01*
X188559000Y-109689000D01*
X188559000Y-109709000D01*
X189752819Y-109709000D01*
X189873486Y-109479108D01*
X189834456Y-109396000D01*
X190545780Y-109396000D01*
X190592603Y-109405314D01*
X190725720Y-109538431D01*
X191106126Y-109696000D01*
X191517874Y-109696000D01*
X191898280Y-109538431D01*
X192189431Y-109247280D01*
X192347000Y-108866874D01*
X192347000Y-108455126D01*
X192189431Y-108074720D01*
X191946756Y-107832045D01*
X192642803Y-107135999D01*
X198097500Y-107135999D01*
X198022908Y-107511000D01*
X198138161Y-108090418D01*
X198466375Y-108581625D01*
X198957582Y-108909839D01*
X199390744Y-108996000D01*
X199683256Y-108996000D01*
X200116418Y-108909839D01*
X200607625Y-108581625D01*
X200807000Y-108283239D01*
X201006375Y-108581625D01*
X201497582Y-108909839D01*
X201930744Y-108996000D01*
X202223256Y-108996000D01*
X202656418Y-108909839D01*
X203147625Y-108581625D01*
X203347000Y-108283239D01*
X203546375Y-108581625D01*
X204037582Y-108909839D01*
X204470744Y-108996000D01*
X204763256Y-108996000D01*
X205196418Y-108909839D01*
X205687625Y-108581625D01*
X205887000Y-108283239D01*
X206086375Y-108581625D01*
X206577582Y-108909839D01*
X207010744Y-108996000D01*
X207303256Y-108996000D01*
X207736418Y-108909839D01*
X208227625Y-108581625D01*
X208427000Y-108283239D01*
X208626375Y-108581625D01*
X209117582Y-108909839D01*
X209550744Y-108996000D01*
X209843256Y-108996000D01*
X210276418Y-108909839D01*
X210767625Y-108581625D01*
X210779816Y-108563381D01*
X210788843Y-108608765D01*
X210929191Y-108818809D01*
X211139235Y-108959157D01*
X211387000Y-109008440D01*
X213087000Y-109008440D01*
X213334765Y-108959157D01*
X213544809Y-108818809D01*
X213685157Y-108608765D01*
X213734440Y-108361000D01*
X213734440Y-107590803D01*
X213916126Y-107666060D01*
X214327874Y-107666060D01*
X214708280Y-107508491D01*
X214999431Y-107217340D01*
X215157000Y-106836934D01*
X215157000Y-106706060D01*
X238149093Y-106706060D01*
X238223940Y-106720948D01*
X238298787Y-106706060D01*
X238298792Y-106706060D01*
X238520477Y-106661964D01*
X238771869Y-106493989D01*
X238814271Y-106430530D01*
X240315466Y-104929336D01*
X249102001Y-104927137D01*
X249102001Y-140354391D01*
X249102001Y-140354391D01*
G37*
X249102001Y-140354391D02*
X249017861Y-140438531D01*
X248766625Y-140041831D01*
X247704554Y-139606773D01*
X246556838Y-139611270D01*
X245517375Y-140041831D01*
X245266138Y-140438533D01*
X247142000Y-142314395D01*
X247156143Y-142300253D01*
X247335748Y-142479858D01*
X247321605Y-142494000D01*
X247335748Y-142508143D01*
X247156143Y-142687748D01*
X247142000Y-142673605D01*
X247127858Y-142687748D01*
X246948253Y-142508143D01*
X246962395Y-142494000D01*
X245086533Y-140618138D01*
X244689831Y-140869375D01*
X244254773Y-141931446D01*
X244259270Y-143079162D01*
X244689831Y-144118625D01*
X244938325Y-144276000D01*
X85657468Y-144276000D01*
X85215175Y-133602000D01*
X94469000Y-133602000D01*
X94469000Y-133809874D01*
X94626569Y-134190280D01*
X94721289Y-134285000D01*
X92853711Y-134285000D01*
X92736280Y-134167569D01*
X92355874Y-134010000D01*
X91944126Y-134010000D01*
X91563720Y-134167569D01*
X91272569Y-134458720D01*
X91115000Y-134839126D01*
X91115000Y-135250874D01*
X91272569Y-135631280D01*
X91563720Y-135922431D01*
X91944126Y-136080000D01*
X92355874Y-136080000D01*
X92736280Y-135922431D01*
X92853711Y-135805000D01*
X94996289Y-135805000D01*
X95113720Y-135922431D01*
X95494126Y-136080000D01*
X95905874Y-136080000D01*
X96286280Y-135922431D01*
X96577431Y-135631280D01*
X96735000Y-135250874D01*
X96735000Y-134839126D01*
X96577431Y-134458720D01*
X96482711Y-134364000D01*
X105709523Y-134364000D01*
X105649000Y-134510116D01*
X105649000Y-134640990D01*
X105335268Y-134640990D01*
X104989743Y-134497869D01*
X104577995Y-134497869D01*
X104197589Y-134655438D01*
X103906438Y-134946589D01*
X103748869Y-135326995D01*
X103748869Y-135601000D01*
X103431126Y-135601000D01*
X103050720Y-135758569D01*
X102759569Y-136049720D01*
X102602000Y-136430126D01*
X102602000Y-136841874D01*
X102707975Y-137097721D01*
X102500720Y-137183569D01*
X102383289Y-137301000D01*
X92415711Y-137301000D01*
X92298280Y-137183569D01*
X91917874Y-137026000D01*
X91506126Y-137026000D01*
X91125720Y-137183569D01*
X90834569Y-137474720D01*
X90677000Y-137855126D01*
X90677000Y-138266874D01*
X90834569Y-138647280D01*
X91125720Y-138938431D01*
X91506126Y-139096000D01*
X91865000Y-139096000D01*
X91865000Y-139355874D01*
X92022569Y-139736280D01*
X92313720Y-140027431D01*
X92694126Y-140185000D01*
X93105874Y-140185000D01*
X93486280Y-140027431D01*
X93567711Y-139946000D01*
X96890289Y-139946000D01*
X96722569Y-140113720D01*
X96565000Y-140494126D01*
X96565000Y-140905874D01*
X96722569Y-141286280D01*
X96750747Y-141314458D01*
X96749375Y-141315375D01*
X96550000Y-141613761D01*
X96350625Y-141315375D01*
X95859418Y-140987161D01*
X95426256Y-140901000D01*
X95133744Y-140901000D01*
X94700582Y-140987161D01*
X94209375Y-141315375D01*
X94010000Y-141613761D01*
X93810625Y-141315375D01*
X93319418Y-140987161D01*
X92886256Y-140901000D01*
X92593744Y-140901000D01*
X92160582Y-140987161D01*
X91669375Y-141315375D01*
X91657184Y-141333619D01*
X91648157Y-141288235D01*
X91507809Y-141078191D01*
X91297765Y-140937843D01*
X91050000Y-140888560D01*
X89350000Y-140888560D01*
X89102235Y-140937843D01*
X88892191Y-141078191D01*
X88751843Y-141288235D01*
X88702560Y-141536000D01*
X88702560Y-143236000D01*
X88751843Y-143483765D01*
X88892191Y-143693809D01*
X89102235Y-143834157D01*
X89350000Y-143883440D01*
X91050000Y-143883440D01*
X91297765Y-143834157D01*
X91507809Y-143693809D01*
X91648157Y-143483765D01*
X91657184Y-143438381D01*
X91669375Y-143456625D01*
X92160582Y-143784839D01*
X92593744Y-143871000D01*
X92886256Y-143871000D01*
X93319418Y-143784839D01*
X93810625Y-143456625D01*
X94010000Y-143158239D01*
X94209375Y-143456625D01*
X94700582Y-143784839D01*
X95133744Y-143871000D01*
X95426256Y-143871000D01*
X95859418Y-143784839D01*
X96350625Y-143456625D01*
X96550000Y-143158239D01*
X96749375Y-143456625D01*
X97240582Y-143784839D01*
X97673744Y-143871000D01*
X97966256Y-143871000D01*
X98399418Y-143784839D01*
X98890625Y-143456625D01*
X99218839Y-142965418D01*
X99334092Y-142386000D01*
X99218839Y-141806582D01*
X99154305Y-141710000D01*
X101502560Y-141710000D01*
X101502560Y-143250000D01*
X101551843Y-143497765D01*
X101692191Y-143707809D01*
X101902235Y-143848157D01*
X102150000Y-143897440D01*
X103850000Y-143897440D01*
X104097765Y-143848157D01*
X104307809Y-143707809D01*
X104448157Y-143497765D01*
X104457184Y-143452381D01*
X104469375Y-143470625D01*
X104960582Y-143798839D01*
X105393744Y-143885000D01*
X105686256Y-143885000D01*
X106119418Y-143798839D01*
X106610625Y-143470625D01*
X106810000Y-143172239D01*
X107009375Y-143470625D01*
X107500582Y-143798839D01*
X107933744Y-143885000D01*
X108226256Y-143885000D01*
X108659418Y-143798839D01*
X109150625Y-143470625D01*
X109350000Y-143172239D01*
X109549375Y-143470625D01*
X110040582Y-143798839D01*
X110473744Y-143885000D01*
X110766256Y-143885000D01*
X111199418Y-143798839D01*
X111690625Y-143470625D01*
X111890000Y-143172239D01*
X112089375Y-143470625D01*
X112580582Y-143798839D01*
X113013744Y-143885000D01*
X113306256Y-143885000D01*
X113739418Y-143798839D01*
X114230625Y-143470625D01*
X114443843Y-143151522D01*
X114504817Y-143281358D01*
X114933076Y-143671645D01*
X115343110Y-143841476D01*
X115573000Y-143720155D01*
X115573000Y-142527000D01*
X115827000Y-142527000D01*
X115827000Y-143720155D01*
X116056890Y-143841476D01*
X116466924Y-143671645D01*
X116895183Y-143281358D01*
X117141486Y-142756892D01*
X117020819Y-142527000D01*
X115827000Y-142527000D01*
X115573000Y-142527000D01*
X115553000Y-142527000D01*
X115553000Y-142273000D01*
X115573000Y-142273000D01*
X115573000Y-141079845D01*
X115827000Y-141079845D01*
X115827000Y-142273000D01*
X117020819Y-142273000D01*
X117141486Y-142043108D01*
X116895183Y-141518642D01*
X116466924Y-141128355D01*
X116056890Y-140958524D01*
X115827000Y-141079845D01*
X115573000Y-141079845D01*
X115343110Y-140958524D01*
X114933076Y-141128355D01*
X114504817Y-141518642D01*
X114443843Y-141648478D01*
X114230625Y-141329375D01*
X113739418Y-141001161D01*
X113306256Y-140915000D01*
X113013744Y-140915000D01*
X112793592Y-140958791D01*
X112300331Y-140465530D01*
X112257929Y-140402071D01*
X112006537Y-140234096D01*
X111784852Y-140190000D01*
X111784847Y-140190000D01*
X111710000Y-140175112D01*
X111635153Y-140190000D01*
X111535000Y-140190000D01*
X111535000Y-139946000D01*
X119743290Y-139946000D01*
X119734569Y-139954721D01*
X119577000Y-140335127D01*
X119577000Y-140746875D01*
X119734569Y-141127281D01*
X120025720Y-141418432D01*
X120406126Y-141576001D01*
X120572199Y-141576001D01*
X121866670Y-142870473D01*
X121909070Y-142933929D01*
X122160462Y-143101904D01*
X122382147Y-143146000D01*
X122382151Y-143146000D01*
X122456999Y-143160888D01*
X122531847Y-143146000D01*
X124019560Y-143146000D01*
X124019560Y-143236000D01*
X124068843Y-143483765D01*
X124209191Y-143693809D01*
X124419235Y-143834157D01*
X124667000Y-143883440D01*
X126367000Y-143883440D01*
X126614765Y-143834157D01*
X126824809Y-143693809D01*
X126965157Y-143483765D01*
X126974184Y-143438381D01*
X126986375Y-143456625D01*
X127477582Y-143784839D01*
X127910744Y-143871000D01*
X128203256Y-143871000D01*
X128636418Y-143784839D01*
X129127625Y-143456625D01*
X129327000Y-143158239D01*
X129526375Y-143456625D01*
X130017582Y-143784839D01*
X130450744Y-143871000D01*
X130743256Y-143871000D01*
X131176418Y-143784839D01*
X131667625Y-143456625D01*
X131867000Y-143158239D01*
X132066375Y-143456625D01*
X132557582Y-143784839D01*
X132990744Y-143871000D01*
X133283256Y-143871000D01*
X133716418Y-143784839D01*
X134207625Y-143456625D01*
X134407000Y-143158239D01*
X134606375Y-143456625D01*
X135097582Y-143784839D01*
X135530744Y-143871000D01*
X135823256Y-143871000D01*
X136256418Y-143784839D01*
X136747625Y-143456625D01*
X136960843Y-143137522D01*
X137021817Y-143267358D01*
X137450076Y-143657645D01*
X137860110Y-143827476D01*
X138090000Y-143706155D01*
X138090000Y-142513000D01*
X138344000Y-142513000D01*
X138344000Y-143706155D01*
X138573890Y-143827476D01*
X138983924Y-143657645D01*
X139412183Y-143267358D01*
X139658486Y-142742892D01*
X139537819Y-142513000D01*
X138344000Y-142513000D01*
X138090000Y-142513000D01*
X138070000Y-142513000D01*
X138070000Y-142259000D01*
X138090000Y-142259000D01*
X138090000Y-142239000D01*
X138344000Y-142239000D01*
X138344000Y-142259000D01*
X139537819Y-142259000D01*
X139658486Y-142029108D01*
X139638242Y-141986002D01*
X143464560Y-141986002D01*
X143464560Y-143236000D01*
X143513843Y-143483765D01*
X143654191Y-143693809D01*
X143864235Y-143834157D01*
X144112000Y-143883440D01*
X145812000Y-143883440D01*
X146059765Y-143834157D01*
X146269809Y-143693809D01*
X146410157Y-143483765D01*
X146419184Y-143438381D01*
X146431375Y-143456625D01*
X146922582Y-143784839D01*
X147355744Y-143871000D01*
X147648256Y-143871000D01*
X148081418Y-143784839D01*
X148572625Y-143456625D01*
X148772000Y-143158239D01*
X148971375Y-143456625D01*
X149462582Y-143784839D01*
X149895744Y-143871000D01*
X150188256Y-143871000D01*
X150621418Y-143784839D01*
X151112625Y-143456625D01*
X151312000Y-143158239D01*
X151511375Y-143456625D01*
X152002582Y-143784839D01*
X152435744Y-143871000D01*
X152728256Y-143871000D01*
X153161418Y-143784839D01*
X153652625Y-143456625D01*
X153852000Y-143158239D01*
X154051375Y-143456625D01*
X154542582Y-143784839D01*
X154975744Y-143871000D01*
X155268256Y-143871000D01*
X155701418Y-143784839D01*
X156192625Y-143456625D01*
X156405843Y-143137522D01*
X156466817Y-143267358D01*
X156895076Y-143657645D01*
X157305110Y-143827476D01*
X157535000Y-143706155D01*
X157535000Y-142513000D01*
X157789000Y-142513000D01*
X157789000Y-143706155D01*
X158018890Y-143827476D01*
X158428924Y-143657645D01*
X158857183Y-143267358D01*
X159103486Y-142742892D01*
X158982819Y-142513000D01*
X157789000Y-142513000D01*
X157535000Y-142513000D01*
X157515000Y-142513000D01*
X157515000Y-142259000D01*
X157535000Y-142259000D01*
X157535000Y-142239000D01*
X157789000Y-142239000D01*
X157789000Y-142259000D01*
X158982819Y-142259000D01*
X159103486Y-142029108D01*
X159005753Y-141821000D01*
X159408289Y-141821000D01*
X159525720Y-141938431D01*
X159906126Y-142096000D01*
X160317874Y-142096000D01*
X160698280Y-141938431D01*
X160714961Y-141921750D01*
X235177000Y-141921750D01*
X235177000Y-142612309D01*
X235273673Y-142845698D01*
X235452301Y-143024327D01*
X235685690Y-143121000D01*
X236376250Y-143121000D01*
X236535000Y-142962250D01*
X236535000Y-141763000D01*
X236789000Y-141763000D01*
X236789000Y-142962250D01*
X236947750Y-143121000D01*
X237638310Y-143121000D01*
X237871699Y-143024327D01*
X238050327Y-142845698D01*
X238137136Y-142636122D01*
X238435076Y-142907645D01*
X238845110Y-143077476D01*
X239075000Y-142956155D01*
X239075000Y-141763000D01*
X239329000Y-141763000D01*
X239329000Y-142956155D01*
X239558890Y-143077476D01*
X239968924Y-142907645D01*
X240397183Y-142517358D01*
X240643486Y-141992892D01*
X240522819Y-141763000D01*
X239329000Y-141763000D01*
X239075000Y-141763000D01*
X236789000Y-141763000D01*
X236535000Y-141763000D01*
X235335750Y-141763000D01*
X235177000Y-141921750D01*
X160714961Y-141921750D01*
X160989431Y-141647280D01*
X161147000Y-141266874D01*
X161147000Y-140855126D01*
X160989431Y-140474720D01*
X160698280Y-140183569D01*
X160317874Y-140026000D01*
X160074580Y-140026000D01*
X160033159Y-139926000D01*
X160519725Y-139926000D01*
X160637156Y-140043431D01*
X161017562Y-140201000D01*
X161429310Y-140201000D01*
X161809716Y-140043431D01*
X162100867Y-139752280D01*
X162210307Y-139488068D01*
X162523280Y-139358431D01*
X162814431Y-139067280D01*
X162943686Y-138755231D01*
X163126609Y-138831000D01*
X163538357Y-138831000D01*
X163577200Y-138814911D01*
X163675720Y-138913431D01*
X164056126Y-139071000D01*
X164222198Y-139071000D01*
X164271671Y-139120473D01*
X164314071Y-139183929D01*
X164565463Y-139351904D01*
X164787148Y-139396000D01*
X164787152Y-139396000D01*
X164861999Y-139410888D01*
X164936846Y-139396000D01*
X165177000Y-139396000D01*
X165177000Y-139791874D01*
X165334569Y-140172280D01*
X165625720Y-140463431D01*
X166006126Y-140621000D01*
X166417874Y-140621000D01*
X166798280Y-140463431D01*
X166915711Y-140346000D01*
X181308289Y-140346000D01*
X181525720Y-140563431D01*
X181906126Y-140721000D01*
X182317874Y-140721000D01*
X182698280Y-140563431D01*
X182831455Y-140430256D01*
X183071670Y-140670472D01*
X183114071Y-140733929D01*
X183177527Y-140776329D01*
X183365462Y-140901904D01*
X183385421Y-140905874D01*
X183447425Y-140918207D01*
X183448830Y-140919146D01*
X183891684Y-141007235D01*
X184003467Y-140985000D01*
X190393289Y-140985000D01*
X190613720Y-141205431D01*
X190994126Y-141363000D01*
X191405874Y-141363000D01*
X191786280Y-141205431D01*
X192006711Y-140985000D01*
X193011783Y-140985000D01*
X193342855Y-140919146D01*
X193718289Y-140668289D01*
X193724034Y-140659691D01*
X235177000Y-140659691D01*
X235177000Y-141350250D01*
X235335750Y-141509000D01*
X236535000Y-141509000D01*
X236535000Y-140309750D01*
X236789000Y-140309750D01*
X236789000Y-141509000D01*
X239075000Y-141509000D01*
X239075000Y-140315845D01*
X239329000Y-140315845D01*
X239329000Y-141509000D01*
X240522819Y-141509000D01*
X240643486Y-141279108D01*
X240397183Y-140754642D01*
X239968924Y-140364355D01*
X239558890Y-140194524D01*
X239329000Y-140315845D01*
X239075000Y-140315845D01*
X238845110Y-140194524D01*
X238435076Y-140364355D01*
X238137136Y-140635878D01*
X238050327Y-140426302D01*
X237871699Y-140247673D01*
X237638310Y-140151000D01*
X236947750Y-140151000D01*
X236789000Y-140309750D01*
X236535000Y-140309750D01*
X236376250Y-140151000D01*
X235685690Y-140151000D01*
X235452301Y-140247673D01*
X235273673Y-140426302D01*
X235177000Y-140659691D01*
X193724034Y-140659691D01*
X193969146Y-140292855D01*
X194057235Y-139850000D01*
X193969146Y-139407145D01*
X193718289Y-139031711D01*
X193342855Y-138780854D01*
X193011783Y-138715000D01*
X184361817Y-138715000D01*
X183290562Y-137643745D01*
X189383861Y-137643745D01*
X189457995Y-137889864D01*
X189995223Y-138082965D01*
X190565454Y-138055778D01*
X190966005Y-137889864D01*
X191040139Y-137643745D01*
X190212000Y-136815605D01*
X189383861Y-137643745D01*
X183290562Y-137643745D01*
X183209298Y-137562482D01*
X183145974Y-137467711D01*
X182770540Y-137216854D01*
X182439468Y-137151000D01*
X182327685Y-137128765D01*
X182215902Y-137151000D01*
X176377923Y-137151000D01*
X176346473Y-137129986D01*
X175843016Y-136626530D01*
X175800614Y-136563071D01*
X175585331Y-136419223D01*
X188765035Y-136419223D01*
X188792222Y-136989454D01*
X188958136Y-137390005D01*
X189204255Y-137464139D01*
X190032395Y-136636000D01*
X189204255Y-135807861D01*
X188958136Y-135881995D01*
X188765035Y-136419223D01*
X175585331Y-136419223D01*
X175549222Y-136395096D01*
X175327537Y-136351000D01*
X175327532Y-136351000D01*
X175252685Y-136336112D01*
X175177838Y-136351000D01*
X168227654Y-136351000D01*
X168252791Y-136346000D01*
X168252796Y-136346000D01*
X168474481Y-136301904D01*
X168725873Y-136133929D01*
X168768275Y-136070470D01*
X168818442Y-136020303D01*
X168984515Y-136020303D01*
X169364921Y-135862734D01*
X169656072Y-135571583D01*
X169813641Y-135191177D01*
X169813641Y-134779429D01*
X169740272Y-134602301D01*
X169906126Y-134671000D01*
X170094382Y-134671000D01*
X170215462Y-134751903D01*
X170437147Y-134795999D01*
X170437151Y-134795999D01*
X170444107Y-134797383D01*
X171259197Y-135612473D01*
X171301597Y-135675929D01*
X171552989Y-135843904D01*
X171774674Y-135888000D01*
X171774678Y-135888000D01*
X171849526Y-135902888D01*
X171924374Y-135888000D01*
X172793289Y-135888000D01*
X172910720Y-136005431D01*
X173291126Y-136163000D01*
X173702874Y-136163000D01*
X174083280Y-136005431D01*
X174374431Y-135714280D01*
X174532000Y-135333874D01*
X174532000Y-135196000D01*
X175387153Y-135196000D01*
X175462000Y-135210888D01*
X175536847Y-135196000D01*
X175536852Y-135196000D01*
X175758537Y-135151904D01*
X176009929Y-134983929D01*
X176052331Y-134920470D01*
X176101801Y-134871000D01*
X176267874Y-134871000D01*
X176648280Y-134713431D01*
X176939431Y-134422280D01*
X177097000Y-134041874D01*
X177097000Y-133910999D01*
X180497288Y-133910999D01*
X180663720Y-134077431D01*
X181044126Y-134235000D01*
X181455874Y-134235000D01*
X181836280Y-134077431D01*
X182127431Y-133786280D01*
X182285000Y-133405874D01*
X182285000Y-133336000D01*
X188764560Y-133336000D01*
X188764560Y-134936000D01*
X188813843Y-135183765D01*
X188954191Y-135393809D01*
X189164235Y-135534157D01*
X189398187Y-135580693D01*
X189383861Y-135628255D01*
X190212000Y-136456395D01*
X190226143Y-136442253D01*
X190405748Y-136621858D01*
X190391605Y-136636000D01*
X191219745Y-137464139D01*
X191465864Y-137390005D01*
X191658965Y-136852777D01*
X191631895Y-136285000D01*
X199511783Y-136285000D01*
X199842855Y-136219146D01*
X199976082Y-136130126D01*
X209427000Y-136130126D01*
X209427000Y-136541874D01*
X209584569Y-136922280D01*
X209875720Y-137213431D01*
X210256126Y-137371000D01*
X210667874Y-137371000D01*
X211048280Y-137213431D01*
X211165711Y-137096000D01*
X218158289Y-137096000D01*
X218225720Y-137163431D01*
X218606126Y-137321000D01*
X219017874Y-137321000D01*
X219398280Y-137163431D01*
X219689431Y-136872280D01*
X219847000Y-136491874D01*
X219847000Y-136080126D01*
X219689431Y-135699720D01*
X219398280Y-135408569D01*
X219017874Y-135251000D01*
X218606126Y-135251000D01*
X218225720Y-135408569D01*
X218058289Y-135576000D01*
X212585711Y-135576000D01*
X212839431Y-135322280D01*
X212997000Y-134941874D01*
X212997000Y-134775802D01*
X213926803Y-133846000D01*
X236558289Y-133846000D01*
X236675720Y-133963431D01*
X237056126Y-134121000D01*
X237467874Y-134121000D01*
X237848280Y-133963431D01*
X238139431Y-133672280D01*
X238297000Y-133291874D01*
X238297000Y-133125802D01*
X238476802Y-132946000D01*
X241314560Y-132946000D01*
X241314560Y-132986000D01*
X241363843Y-133233765D01*
X241504191Y-133443809D01*
X241714235Y-133584157D01*
X241814503Y-133604101D01*
X241545466Y-133873138D01*
X241327000Y-134400561D01*
X241327000Y-134876000D01*
X236865711Y-134876000D01*
X236748280Y-134758569D01*
X236367874Y-134601000D01*
X235956126Y-134601000D01*
X235575720Y-134758569D01*
X235458289Y-134876000D01*
X231565711Y-134876000D01*
X231398280Y-134708569D01*
X231017874Y-134551000D01*
X230606126Y-134551000D01*
X230225720Y-134708569D01*
X229934569Y-134999720D01*
X229777000Y-135380126D01*
X229777000Y-135791874D01*
X229934569Y-136172280D01*
X230225720Y-136463431D01*
X230606126Y-136621000D01*
X231017874Y-136621000D01*
X231398280Y-136463431D01*
X231465711Y-136396000D01*
X235458289Y-136396000D01*
X235575720Y-136513431D01*
X235956126Y-136671000D01*
X236367874Y-136671000D01*
X236748280Y-136513431D01*
X236865711Y-136396000D01*
X241737153Y-136396000D01*
X241812000Y-136410888D01*
X241886847Y-136396000D01*
X241886852Y-136396000D01*
X242108537Y-136351904D01*
X242359929Y-136183929D01*
X242402331Y-136120470D01*
X242423698Y-136099103D01*
X242476561Y-136121000D01*
X243047439Y-136121000D01*
X243574862Y-135902534D01*
X243978534Y-135498862D01*
X244197000Y-134971439D01*
X244197000Y-134400561D01*
X243978534Y-133873138D01*
X243709497Y-133604101D01*
X243809765Y-133584157D01*
X244019809Y-133443809D01*
X244160157Y-133233765D01*
X244209440Y-132986000D01*
X244209440Y-131386000D01*
X244160157Y-131138235D01*
X244019809Y-130928191D01*
X243809765Y-130787843D01*
X243562000Y-130738560D01*
X241962000Y-130738560D01*
X241714235Y-130787843D01*
X241504191Y-130928191D01*
X241363843Y-131138235D01*
X241314560Y-131386000D01*
X241314560Y-131426000D01*
X238236846Y-131426000D01*
X238161999Y-131411112D01*
X238087152Y-131426000D01*
X238087148Y-131426000D01*
X237865463Y-131470096D01*
X237614071Y-131638071D01*
X237571671Y-131701527D01*
X237222198Y-132051000D01*
X237056126Y-132051000D01*
X236675720Y-132208569D01*
X236558289Y-132326000D01*
X213686846Y-132326000D01*
X213611999Y-132311112D01*
X213537152Y-132326000D01*
X213537148Y-132326000D01*
X213315463Y-132370096D01*
X213267859Y-132401904D01*
X213127526Y-132495671D01*
X213127524Y-132495673D01*
X213064071Y-132538071D01*
X213021673Y-132601524D01*
X211922198Y-133701000D01*
X211756126Y-133701000D01*
X211375720Y-133858569D01*
X211084569Y-134149720D01*
X210927000Y-134530126D01*
X210927000Y-134941874D01*
X211084569Y-135322280D01*
X211338289Y-135576000D01*
X211165711Y-135576000D01*
X211048280Y-135458569D01*
X210667874Y-135301000D01*
X210256126Y-135301000D01*
X209875720Y-135458569D01*
X209584569Y-135749720D01*
X209427000Y-136130126D01*
X199976082Y-136130126D01*
X200218289Y-135968289D01*
X200469146Y-135592855D01*
X200557235Y-135150000D01*
X200469146Y-134707145D01*
X200218289Y-134331711D01*
X199842855Y-134080854D01*
X199511783Y-134015000D01*
X191696132Y-134015000D01*
X191659440Y-133978308D01*
X191659440Y-133336000D01*
X191610157Y-133088235D01*
X191469809Y-132878191D01*
X191259765Y-132737843D01*
X191012000Y-132688560D01*
X189412000Y-132688560D01*
X189164235Y-132737843D01*
X188954191Y-132878191D01*
X188813843Y-133088235D01*
X188764560Y-133336000D01*
X182285000Y-133336000D01*
X182285000Y-132994126D01*
X182208733Y-132810000D01*
X183246289Y-132810000D01*
X183363720Y-132927431D01*
X183744126Y-133085000D01*
X184155874Y-133085000D01*
X184536280Y-132927431D01*
X184827431Y-132636280D01*
X184904590Y-132450000D01*
X203952560Y-132450000D01*
X203952560Y-134150000D01*
X204001843Y-134397765D01*
X204142191Y-134607809D01*
X204352235Y-134748157D01*
X204600000Y-134797440D01*
X206300000Y-134797440D01*
X206547765Y-134748157D01*
X206757809Y-134607809D01*
X206898157Y-134397765D01*
X206947440Y-134150000D01*
X206947440Y-132450000D01*
X206898157Y-132202235D01*
X206757809Y-131992191D01*
X206547765Y-131851843D01*
X206300000Y-131802560D01*
X204600000Y-131802560D01*
X204352235Y-131851843D01*
X204142191Y-131992191D01*
X204001843Y-132202235D01*
X203952560Y-132450000D01*
X184904590Y-132450000D01*
X184985000Y-132255874D01*
X184985000Y-132001001D01*
X188032152Y-132001001D01*
X188106999Y-132015889D01*
X188181846Y-132001001D01*
X188181851Y-132001001D01*
X188403536Y-131956905D01*
X188654928Y-131788930D01*
X188697330Y-131725471D01*
X190039362Y-130383440D01*
X191312000Y-130383440D01*
X191559765Y-130334157D01*
X191769809Y-130193809D01*
X191841845Y-130086000D01*
X195724765Y-130086000D01*
X195812854Y-130528855D01*
X196063711Y-130904289D01*
X196439145Y-131155146D01*
X196770217Y-131221000D01*
X204850217Y-131221000D01*
X204962000Y-131243235D01*
X205073783Y-131221000D01*
X205404855Y-131155146D01*
X205780289Y-130904289D01*
X205843613Y-130809518D01*
X206319691Y-130333440D01*
X207062000Y-130333440D01*
X207309765Y-130284157D01*
X207519809Y-130143809D01*
X207635277Y-129971000D01*
X207777719Y-129971000D01*
X208172582Y-130234839D01*
X208605744Y-130321000D01*
X208898256Y-130321000D01*
X209331418Y-130234839D01*
X209822625Y-129906625D01*
X210150839Y-129415418D01*
X210266092Y-128836000D01*
X210160495Y-128305126D01*
X217802000Y-128305126D01*
X217802000Y-128716874D01*
X217959569Y-129097280D01*
X218250720Y-129388431D01*
X218631126Y-129546000D01*
X219042874Y-129546000D01*
X219423280Y-129388431D01*
X219540711Y-129271000D01*
X228258289Y-129271000D01*
X228325720Y-129338431D01*
X228706126Y-129496000D01*
X229117874Y-129496000D01*
X229498280Y-129338431D01*
X229789431Y-129047280D01*
X229947000Y-128666874D01*
X229947000Y-128255126D01*
X229789431Y-127874720D01*
X229498280Y-127583569D01*
X229117874Y-127426000D01*
X228706126Y-127426000D01*
X228325720Y-127583569D01*
X228158289Y-127751000D01*
X219540711Y-127751000D01*
X219423280Y-127633569D01*
X219042874Y-127476000D01*
X218631126Y-127476000D01*
X218250720Y-127633569D01*
X217959569Y-127924720D01*
X217802000Y-128305126D01*
X210160495Y-128305126D01*
X210150839Y-128256582D01*
X209822625Y-127765375D01*
X209331418Y-127437161D01*
X208898256Y-127351000D01*
X208605744Y-127351000D01*
X208172582Y-127437161D01*
X207777719Y-127701000D01*
X207635277Y-127701000D01*
X207519809Y-127528191D01*
X207309765Y-127387843D01*
X207062000Y-127338560D01*
X205362000Y-127338560D01*
X205114235Y-127387843D01*
X204904191Y-127528191D01*
X204763843Y-127738235D01*
X204714560Y-127986000D01*
X204714560Y-128728309D01*
X204491869Y-128951000D01*
X196770217Y-128951000D01*
X196439145Y-129016854D01*
X196063711Y-129267711D01*
X195812854Y-129643145D01*
X195724765Y-130086000D01*
X191841845Y-130086000D01*
X191910157Y-129983765D01*
X191959440Y-129736000D01*
X191959440Y-128360000D01*
X194296289Y-128360000D01*
X194463720Y-128527431D01*
X194844126Y-128685000D01*
X195255874Y-128685000D01*
X195636280Y-128527431D01*
X195927431Y-128236280D01*
X196085000Y-127855874D01*
X196085000Y-127444126D01*
X195927431Y-127063720D01*
X195636280Y-126772569D01*
X195255874Y-126615000D01*
X194844126Y-126615000D01*
X194463720Y-126772569D01*
X194396289Y-126840000D01*
X191877830Y-126840000D01*
X191976092Y-126346000D01*
X191901500Y-125970999D01*
X192964314Y-125970999D01*
X193137778Y-126086904D01*
X193280603Y-126115314D01*
X193413720Y-126248431D01*
X193794126Y-126406000D01*
X194205874Y-126406000D01*
X194586280Y-126248431D01*
X194877431Y-125957280D01*
X195035000Y-125576874D01*
X195035000Y-125446000D01*
X209258289Y-125446000D01*
X209375720Y-125563431D01*
X209756126Y-125721000D01*
X210167874Y-125721000D01*
X210548280Y-125563431D01*
X210839431Y-125272280D01*
X210997000Y-124891874D01*
X210997000Y-124621000D01*
X217297199Y-124621000D01*
X218021671Y-125345473D01*
X218064071Y-125408929D01*
X218315463Y-125576904D01*
X218537148Y-125621000D01*
X218537152Y-125621000D01*
X218612000Y-125635888D01*
X218686848Y-125621000D01*
X228961468Y-125621000D01*
X229036315Y-125635888D01*
X229111162Y-125621000D01*
X229111167Y-125621000D01*
X229161440Y-125611000D01*
X232208289Y-125611000D01*
X232325720Y-125728431D01*
X232706126Y-125886000D01*
X233117874Y-125886000D01*
X233498280Y-125728431D01*
X233789431Y-125437280D01*
X233947000Y-125056874D01*
X233947000Y-124645126D01*
X233789431Y-124264720D01*
X233498280Y-123973569D01*
X233117874Y-123816000D01*
X232706126Y-123816000D01*
X232325720Y-123973569D01*
X232208289Y-124091000D01*
X229121161Y-124091000D01*
X229046314Y-124076112D01*
X228971467Y-124091000D01*
X228971463Y-124091000D01*
X228921190Y-124101000D01*
X226056553Y-124101000D01*
X226272625Y-123956625D01*
X226600839Y-123465418D01*
X226716092Y-122886000D01*
X226600839Y-122306582D01*
X226272625Y-121815375D01*
X225781418Y-121487161D01*
X225348256Y-121401000D01*
X225055744Y-121401000D01*
X224622582Y-121487161D01*
X224131375Y-121815375D01*
X224119184Y-121833619D01*
X224110157Y-121788235D01*
X223969809Y-121578191D01*
X223759765Y-121437843D01*
X223512000Y-121388560D01*
X221812000Y-121388560D01*
X221564235Y-121437843D01*
X221354191Y-121578191D01*
X221213843Y-121788235D01*
X221164560Y-122036000D01*
X221164560Y-123736000D01*
X221213843Y-123983765D01*
X221292178Y-124101000D01*
X218926802Y-124101000D01*
X218202331Y-123376530D01*
X218159929Y-123313071D01*
X217908537Y-123145096D01*
X217686852Y-123101000D01*
X217686847Y-123101000D01*
X217612000Y-123086112D01*
X217537153Y-123101000D01*
X204953711Y-123101000D01*
X204836280Y-122983569D01*
X204455874Y-122826000D01*
X204044126Y-122826000D01*
X203663720Y-122983569D01*
X203546289Y-123101000D01*
X181666999Y-123101000D01*
X181665565Y-123099566D01*
X181623163Y-123036107D01*
X181371771Y-122868132D01*
X181150086Y-122824036D01*
X181150081Y-122824036D01*
X181075234Y-122809148D01*
X181000387Y-122824036D01*
X173897342Y-122824036D01*
X174879334Y-121842045D01*
X175025720Y-121988431D01*
X175406126Y-122146000D01*
X175817874Y-122146000D01*
X176198280Y-121988431D01*
X176489431Y-121697280D01*
X176647000Y-121316874D01*
X176647000Y-121150801D01*
X177530103Y-120267699D01*
X177674929Y-120170929D01*
X177717331Y-120107471D01*
X177943792Y-119881010D01*
X181053754Y-119881010D01*
X180962191Y-119942191D01*
X180821843Y-120152235D01*
X180772560Y-120400000D01*
X180772560Y-122100000D01*
X180821843Y-122347765D01*
X180962191Y-122557809D01*
X181172235Y-122698157D01*
X181420000Y-122747440D01*
X183120000Y-122747440D01*
X183367765Y-122698157D01*
X183577809Y-122557809D01*
X183718157Y-122347765D01*
X183727184Y-122302381D01*
X183739375Y-122320625D01*
X184230582Y-122648839D01*
X184663744Y-122735000D01*
X184956256Y-122735000D01*
X185389418Y-122648839D01*
X185880625Y-122320625D01*
X186080000Y-122022239D01*
X186279375Y-122320625D01*
X186770582Y-122648839D01*
X187203744Y-122735000D01*
X187496256Y-122735000D01*
X187929418Y-122648839D01*
X188420625Y-122320625D01*
X188633843Y-122001522D01*
X188694817Y-122131358D01*
X189123076Y-122521645D01*
X189533110Y-122691476D01*
X189763000Y-122570155D01*
X189763000Y-121377000D01*
X190017000Y-121377000D01*
X190017000Y-122570155D01*
X190246890Y-122691476D01*
X190656924Y-122521645D01*
X191085183Y-122131358D01*
X191331486Y-121606892D01*
X191210819Y-121377000D01*
X190017000Y-121377000D01*
X189763000Y-121377000D01*
X189743000Y-121377000D01*
X189743000Y-121123000D01*
X189763000Y-121123000D01*
X189763000Y-121103000D01*
X190017000Y-121103000D01*
X190017000Y-121123000D01*
X191210819Y-121123000D01*
X191331486Y-120893108D01*
X191085183Y-120368642D01*
X190656924Y-119978355D01*
X190421898Y-119881010D01*
X195406209Y-119881010D01*
X196659673Y-121134476D01*
X196702071Y-121197929D01*
X196765524Y-121240327D01*
X196765526Y-121240329D01*
X196890902Y-121324102D01*
X196953463Y-121365904D01*
X197175148Y-121410000D01*
X197175152Y-121410000D01*
X197249999Y-121424888D01*
X197324846Y-121410000D01*
X204974199Y-121410000D01*
X205159671Y-121595472D01*
X205202071Y-121658929D01*
X205453463Y-121826904D01*
X205675148Y-121871000D01*
X205675152Y-121871000D01*
X205749999Y-121885888D01*
X205824846Y-121871000D01*
X206433289Y-121871000D01*
X206475720Y-121913431D01*
X206856126Y-122071000D01*
X207267874Y-122071000D01*
X207648280Y-121913431D01*
X207939431Y-121622280D01*
X208097000Y-121241874D01*
X208097000Y-120830126D01*
X207939431Y-120449720D01*
X207785711Y-120296000D01*
X233963289Y-120296000D01*
X234080720Y-120413431D01*
X234461126Y-120571000D01*
X234872874Y-120571000D01*
X235253280Y-120413431D01*
X235544431Y-120122280D01*
X235702000Y-119741874D01*
X235702000Y-119330126D01*
X235544431Y-118949720D01*
X235253280Y-118658569D01*
X234872874Y-118501000D01*
X234461126Y-118501000D01*
X234080720Y-118658569D01*
X233963289Y-118776000D01*
X203922000Y-118776000D01*
X203922000Y-118505126D01*
X203764431Y-118124720D01*
X203473280Y-117833569D01*
X203307169Y-117764764D01*
X205700934Y-115371000D01*
X208350217Y-115371000D01*
X208462000Y-115393235D01*
X208573783Y-115371000D01*
X208904855Y-115305146D01*
X209030788Y-115221000D01*
X214422132Y-115221000D01*
X214504191Y-115343809D01*
X214714235Y-115484157D01*
X214962000Y-115533440D01*
X216562000Y-115533440D01*
X216809765Y-115484157D01*
X217019809Y-115343809D01*
X217108334Y-115211322D01*
X221427000Y-115211322D01*
X221427000Y-116060678D01*
X221752034Y-116845380D01*
X222352620Y-117445966D01*
X223137322Y-117771000D01*
X223986678Y-117771000D01*
X224771380Y-117445966D01*
X225371966Y-116845380D01*
X225697000Y-116060678D01*
X225697000Y-116030126D01*
X236927000Y-116030126D01*
X236927000Y-116441874D01*
X237084569Y-116822280D01*
X237375720Y-117113431D01*
X237756126Y-117271000D01*
X238167874Y-117271000D01*
X238548280Y-117113431D01*
X238665711Y-116996000D01*
X241902654Y-116996000D01*
X242352620Y-117445966D01*
X243137322Y-117771000D01*
X243986678Y-117771000D01*
X244771380Y-117445966D01*
X245371966Y-116845380D01*
X245697000Y-116060678D01*
X245697000Y-115211322D01*
X245371966Y-114426620D01*
X244771380Y-113826034D01*
X243986678Y-113501000D01*
X243137322Y-113501000D01*
X242352620Y-113826034D01*
X241752034Y-114426620D01*
X241427000Y-115211322D01*
X241427000Y-115476000D01*
X238665711Y-115476000D01*
X238548280Y-115358569D01*
X238167874Y-115201000D01*
X237756126Y-115201000D01*
X237375720Y-115358569D01*
X237084569Y-115649720D01*
X236927000Y-116030126D01*
X225697000Y-116030126D01*
X225697000Y-115211322D01*
X225371966Y-114426620D01*
X224771380Y-113826034D01*
X223986678Y-113501000D01*
X223137322Y-113501000D01*
X222352620Y-113826034D01*
X221752034Y-114426620D01*
X221427000Y-115211322D01*
X217108334Y-115211322D01*
X217160157Y-115133765D01*
X217209440Y-114886000D01*
X217209440Y-113286000D01*
X217160157Y-113038235D01*
X217019809Y-112828191D01*
X216809765Y-112687843D01*
X216575813Y-112641307D01*
X216590139Y-112593745D01*
X215762000Y-111765605D01*
X214933861Y-112593745D01*
X214948187Y-112641307D01*
X214714235Y-112687843D01*
X214504191Y-112828191D01*
X214422132Y-112951000D01*
X210847001Y-112951000D01*
X210847001Y-112670126D01*
X210689432Y-112289720D01*
X210398281Y-111998569D01*
X210017875Y-111841000D01*
X209606127Y-111841000D01*
X209225721Y-111998569D01*
X209108290Y-112116000D01*
X204083045Y-112116000D01*
X204008198Y-112101112D01*
X203933351Y-112116000D01*
X203933346Y-112116000D01*
X203711661Y-112160096D01*
X203568131Y-112256000D01*
X202857711Y-112256000D01*
X202927431Y-112186280D01*
X203085000Y-111805874D01*
X203085000Y-111394126D01*
X203074685Y-111369223D01*
X214315035Y-111369223D01*
X214342222Y-111939454D01*
X214508136Y-112340005D01*
X214754255Y-112414139D01*
X215582395Y-111586000D01*
X215941605Y-111586000D01*
X216769745Y-112414139D01*
X217015864Y-112340005D01*
X217208965Y-111802777D01*
X217181778Y-111232546D01*
X217015864Y-110831995D01*
X216769745Y-110757861D01*
X215941605Y-111586000D01*
X215582395Y-111586000D01*
X214754255Y-110757861D01*
X214508136Y-110831995D01*
X214315035Y-111369223D01*
X203074685Y-111369223D01*
X202927431Y-111013720D01*
X202636280Y-110722569D01*
X202287875Y-110578255D01*
X214933861Y-110578255D01*
X215762000Y-111406395D01*
X216590139Y-110578255D01*
X216516005Y-110332136D01*
X216179888Y-110211322D01*
X221427000Y-110211322D01*
X221427000Y-111060678D01*
X221752034Y-111845380D01*
X222352620Y-112445966D01*
X223137322Y-112771000D01*
X223986678Y-112771000D01*
X224771380Y-112445966D01*
X225371966Y-111845380D01*
X225697000Y-111060678D01*
X225697000Y-110211322D01*
X241427000Y-110211322D01*
X241427000Y-111060678D01*
X241752034Y-111845380D01*
X242352620Y-112445966D01*
X243137322Y-112771000D01*
X243986678Y-112771000D01*
X244771380Y-112445966D01*
X245371966Y-111845380D01*
X245697000Y-111060678D01*
X245697000Y-110211322D01*
X245371966Y-109426620D01*
X244771380Y-108826034D01*
X243986678Y-108501000D01*
X243137322Y-108501000D01*
X242352620Y-108826034D01*
X241752034Y-109426620D01*
X241427000Y-110211322D01*
X225697000Y-110211322D01*
X225371966Y-109426620D01*
X224771380Y-108826034D01*
X223986678Y-108501000D01*
X223137322Y-108501000D01*
X222352620Y-108826034D01*
X221752034Y-109426620D01*
X221427000Y-110211322D01*
X216179888Y-110211322D01*
X215978777Y-110139035D01*
X215408546Y-110166222D01*
X215007995Y-110332136D01*
X214933861Y-110578255D01*
X202287875Y-110578255D01*
X202255874Y-110565000D01*
X201844126Y-110565000D01*
X201463720Y-110722569D01*
X201346289Y-110840000D01*
X200059046Y-110840000D01*
X199984198Y-110825112D01*
X199909350Y-110840000D01*
X199909346Y-110840000D01*
X199687661Y-110884096D01*
X199678825Y-110890000D01*
X192722000Y-110890000D01*
X192722000Y-110755126D01*
X192564431Y-110374720D01*
X192273280Y-110083569D01*
X191892874Y-109926000D01*
X191481126Y-109926000D01*
X191100720Y-110083569D01*
X190973288Y-110211001D01*
X189864982Y-110211001D01*
X189873486Y-110192892D01*
X189752819Y-109963000D01*
X188559000Y-109963000D01*
X188559000Y-109983000D01*
X188305000Y-109983000D01*
X188305000Y-109963000D01*
X188285000Y-109963000D01*
X188285000Y-109709000D01*
X188305000Y-109709000D01*
X188305000Y-109689000D01*
X188559000Y-109689000D01*
X188559000Y-109709000D01*
X189752819Y-109709000D01*
X189873486Y-109479108D01*
X189834456Y-109396000D01*
X190545780Y-109396000D01*
X190592603Y-109405314D01*
X190725720Y-109538431D01*
X191106126Y-109696000D01*
X191517874Y-109696000D01*
X191898280Y-109538431D01*
X192189431Y-109247280D01*
X192347000Y-108866874D01*
X192347000Y-108455126D01*
X192189431Y-108074720D01*
X191946756Y-107832045D01*
X192642803Y-107135999D01*
X198097500Y-107135999D01*
X198022908Y-107511000D01*
X198138161Y-108090418D01*
X198466375Y-108581625D01*
X198957582Y-108909839D01*
X199390744Y-108996000D01*
X199683256Y-108996000D01*
X200116418Y-108909839D01*
X200607625Y-108581625D01*
X200807000Y-108283239D01*
X201006375Y-108581625D01*
X201497582Y-108909839D01*
X201930744Y-108996000D01*
X202223256Y-108996000D01*
X202656418Y-108909839D01*
X203147625Y-108581625D01*
X203347000Y-108283239D01*
X203546375Y-108581625D01*
X204037582Y-108909839D01*
X204470744Y-108996000D01*
X204763256Y-108996000D01*
X205196418Y-108909839D01*
X205687625Y-108581625D01*
X205887000Y-108283239D01*
X206086375Y-108581625D01*
X206577582Y-108909839D01*
X207010744Y-108996000D01*
X207303256Y-108996000D01*
X207736418Y-108909839D01*
X208227625Y-108581625D01*
X208427000Y-108283239D01*
X208626375Y-108581625D01*
X209117582Y-108909839D01*
X209550744Y-108996000D01*
X209843256Y-108996000D01*
X210276418Y-108909839D01*
X210767625Y-108581625D01*
X210779816Y-108563381D01*
X210788843Y-108608765D01*
X210929191Y-108818809D01*
X211139235Y-108959157D01*
X211387000Y-109008440D01*
X213087000Y-109008440D01*
X213334765Y-108959157D01*
X213544809Y-108818809D01*
X213685157Y-108608765D01*
X213734440Y-108361000D01*
X213734440Y-107590803D01*
X213916126Y-107666060D01*
X214327874Y-107666060D01*
X214708280Y-107508491D01*
X214999431Y-107217340D01*
X215157000Y-106836934D01*
X215157000Y-106706060D01*
X238149093Y-106706060D01*
X238223940Y-106720948D01*
X238298787Y-106706060D01*
X238298792Y-106706060D01*
X238520477Y-106661964D01*
X238771869Y-106493989D01*
X238814271Y-106430530D01*
X240315466Y-104929336D01*
X249102001Y-104927137D01*
X249102001Y-140354391D01*
G36*
X50522531Y-140364139D02*
X50522000Y-140364476D01*
X50522000Y-140363608D01*
X50522531Y-140364139D01*
X50522531Y-140364139D01*
G37*
X50522531Y-140364139D02*
X50522000Y-140364476D01*
X50522000Y-140363608D01*
X50522531Y-140364139D01*
G36*
X169077000Y-133841874D02*
X169150369Y-134019002D01*
X168984515Y-133950303D01*
X168572767Y-133950303D01*
X168192361Y-134107872D01*
X167901210Y-134399023D01*
X167743641Y-134779429D01*
X167743641Y-134826000D01*
X162497711Y-134826000D01*
X162497711Y-134695126D01*
X162340142Y-134314720D01*
X162048991Y-134023569D01*
X161929542Y-133974092D01*
X161956016Y-133934471D01*
X162179488Y-133710999D01*
X169077000Y-133710999D01*
X169077000Y-133841874D01*
X169077000Y-133841874D01*
G37*
X169077000Y-133841874D02*
X169150369Y-134019002D01*
X168984515Y-133950303D01*
X168572767Y-133950303D01*
X168192361Y-134107872D01*
X167901210Y-134399023D01*
X167743641Y-134779429D01*
X167743641Y-134826000D01*
X162497711Y-134826000D01*
X162497711Y-134695126D01*
X162340142Y-134314720D01*
X162048991Y-134023569D01*
X161929542Y-133974092D01*
X161956016Y-133934471D01*
X162179488Y-133710999D01*
X169077000Y-133710999D01*
X169077000Y-133841874D01*
G36*
X163672569Y-122586280D02*
X163821789Y-122735500D01*
X163699569Y-122857720D01*
X163542000Y-123238126D01*
X163542000Y-123351199D01*
X163290367Y-123099566D01*
X163247965Y-123036107D01*
X162996573Y-122868132D01*
X162774888Y-122824036D01*
X162774883Y-122824036D01*
X162700036Y-122809148D01*
X162625189Y-122824036D01*
X160081379Y-122824036D01*
X160137338Y-122812905D01*
X160388730Y-122644930D01*
X160431132Y-122581472D01*
X160586603Y-122426000D01*
X163606179Y-122426000D01*
X163672569Y-122586280D01*
X163672569Y-122586280D01*
G37*
X163672569Y-122586280D02*
X163821789Y-122735500D01*
X163699569Y-122857720D01*
X163542000Y-123238126D01*
X163542000Y-123351199D01*
X163290367Y-123099566D01*
X163247965Y-123036107D01*
X162996573Y-122868132D01*
X162774888Y-122824036D01*
X162774883Y-122824036D01*
X162700036Y-122809148D01*
X162625189Y-122824036D01*
X160081379Y-122824036D01*
X160137338Y-122812905D01*
X160388730Y-122644930D01*
X160431132Y-122581472D01*
X160586603Y-122426000D01*
X163606179Y-122426000D01*
X163672569Y-122586280D01*
G36*
X157538874Y-122644930D02*
X157790266Y-122812905D01*
X157846225Y-122824036D01*
X156309326Y-122824036D01*
X156191895Y-122706605D01*
X155961081Y-122610999D01*
X157516202Y-122610999D01*
X157538874Y-122644930D01*
X157538874Y-122644930D01*
G37*
X157538874Y-122644930D02*
X157790266Y-122812905D01*
X157846225Y-122824036D01*
X156309326Y-122824036D01*
X156191895Y-122706605D01*
X155961081Y-122610999D01*
X157516202Y-122610999D01*
X157538874Y-122644930D01*
G36*
X168913505Y-117429615D02*
X168913505Y-117841363D01*
X168995783Y-118040000D01*
X167824846Y-118040000D01*
X167749999Y-118025112D01*
X167675152Y-118040000D01*
X167675148Y-118040000D01*
X167482000Y-118078420D01*
X167482000Y-117904126D01*
X167324431Y-117523720D01*
X167171710Y-117370999D01*
X168937784Y-117370999D01*
X168913505Y-117429615D01*
X168913505Y-117429615D01*
G37*
X168913505Y-117429615D02*
X168913505Y-117841363D01*
X168995783Y-118040000D01*
X167824846Y-118040000D01*
X167749999Y-118025112D01*
X167675152Y-118040000D01*
X167675148Y-118040000D01*
X167482000Y-118078420D01*
X167482000Y-117904126D01*
X167324431Y-117523720D01*
X167171710Y-117370999D01*
X168937784Y-117370999D01*
X168913505Y-117429615D01*
G36*
X199483861Y-114528255D02*
X200312000Y-115356395D01*
X201140139Y-114528255D01*
X201100302Y-114396000D01*
X203465670Y-114396000D01*
X201408639Y-116453031D01*
X201319747Y-116364139D01*
X201565864Y-116290005D01*
X201758965Y-115752777D01*
X201731778Y-115182546D01*
X201565864Y-114781995D01*
X201319745Y-114707861D01*
X200491605Y-115536000D01*
X200505748Y-115550142D01*
X200326142Y-115729748D01*
X200312000Y-115715605D01*
X199483861Y-116543745D01*
X199535445Y-116715000D01*
X199122468Y-116715000D01*
X199210157Y-116583765D01*
X199256693Y-116349813D01*
X199304255Y-116364139D01*
X200132395Y-115536000D01*
X199304255Y-114707861D01*
X199256693Y-114722187D01*
X199210157Y-114488235D01*
X199148527Y-114396000D01*
X199523698Y-114396000D01*
X199483861Y-114528255D01*
X199483861Y-114528255D01*
G37*
X199483861Y-114528255D02*
X200312000Y-115356395D01*
X201140139Y-114528255D01*
X201100302Y-114396000D01*
X203465670Y-114396000D01*
X201408639Y-116453031D01*
X201319747Y-116364139D01*
X201565864Y-116290005D01*
X201758965Y-115752777D01*
X201731778Y-115182546D01*
X201565864Y-114781995D01*
X201319745Y-114707861D01*
X200491605Y-115536000D01*
X200505748Y-115550142D01*
X200326142Y-115729748D01*
X200312000Y-115715605D01*
X199483861Y-116543745D01*
X199535445Y-116715000D01*
X199122468Y-116715000D01*
X199210157Y-116583765D01*
X199256693Y-116349813D01*
X199304255Y-116364139D01*
X200132395Y-115536000D01*
X199304255Y-114707861D01*
X199256693Y-114722187D01*
X199210157Y-114488235D01*
X199148527Y-114396000D01*
X199523698Y-114396000D01*
X199483861Y-114528255D01*
G36*
X173472569Y-104963720D02*
X173315000Y-105344126D01*
X173315000Y-105755874D01*
X173472569Y-106136280D01*
X173744065Y-106407776D01*
X173656369Y-106619495D01*
X173656369Y-107031243D01*
X173813938Y-107411649D01*
X173823525Y-107421236D01*
X173737000Y-107630126D01*
X173737000Y-108041874D01*
X173861343Y-108342066D01*
X173745805Y-108621001D01*
X173745805Y-109032749D01*
X173903374Y-109413155D01*
X174142321Y-109652102D01*
X170152904Y-109652102D01*
X169647000Y-109146199D01*
X169647000Y-108980126D01*
X169489431Y-108599720D01*
X169198280Y-108308569D01*
X168817874Y-108151000D01*
X168406126Y-108151000D01*
X168025720Y-108308569D01*
X167734569Y-108599720D01*
X167577000Y-108980126D01*
X167577000Y-109391874D01*
X167734569Y-109772280D01*
X168025720Y-110063431D01*
X168406126Y-110221000D01*
X168572199Y-110221000D01*
X169247773Y-110896575D01*
X169290173Y-110960031D01*
X169541565Y-111128006D01*
X169763250Y-111172102D01*
X169763254Y-111172102D01*
X169838101Y-111186990D01*
X169912948Y-111172102D01*
X172227676Y-111172102D01*
X172115000Y-111444126D01*
X172115000Y-111855874D01*
X172257956Y-112201000D01*
X171086848Y-112201000D01*
X171012000Y-112186112D01*
X170937152Y-112201000D01*
X170937148Y-112201000D01*
X170886870Y-112211001D01*
X153881394Y-112211001D01*
X153739431Y-111868271D01*
X153448280Y-111577120D01*
X153067874Y-111419551D01*
X152656126Y-111419551D01*
X152275720Y-111577120D01*
X152158289Y-111694551D01*
X144447331Y-111694551D01*
X144679926Y-111598207D01*
X144999207Y-111278926D01*
X145172000Y-110861766D01*
X145172000Y-110410234D01*
X144999207Y-109993074D01*
X144892133Y-109886000D01*
X144999207Y-109778926D01*
X145172000Y-109361766D01*
X145172000Y-108910234D01*
X145133796Y-108818001D01*
X145586841Y-108818001D01*
X145680569Y-109044280D01*
X145971720Y-109335431D01*
X146352126Y-109493000D01*
X146763874Y-109493000D01*
X147144280Y-109335431D01*
X147228918Y-109250793D01*
X147491758Y-109359664D01*
X147903506Y-109359664D01*
X148283912Y-109202095D01*
X148575063Y-108910944D01*
X148732632Y-108530538D01*
X148732632Y-108461301D01*
X148968912Y-108363431D01*
X149189726Y-108142617D01*
X149192000Y-108146019D01*
X149192000Y-108334276D01*
X149349569Y-108714682D01*
X149640720Y-109005833D01*
X150021126Y-109163402D01*
X150432874Y-109163402D01*
X150813280Y-109005833D01*
X151104431Y-108714682D01*
X151262000Y-108334276D01*
X151262000Y-108112962D01*
X151263280Y-108112432D01*
X151554431Y-107821281D01*
X151712000Y-107440875D01*
X151712000Y-107029127D01*
X151554431Y-106648721D01*
X151329941Y-106424231D01*
X151364339Y-106424231D01*
X151744745Y-106266662D01*
X152035896Y-105975511D01*
X152193465Y-105595105D01*
X152193465Y-105183357D01*
X152097391Y-104951413D01*
X153755849Y-104950998D01*
X153651000Y-105204126D01*
X153651000Y-105615874D01*
X153808569Y-105996280D01*
X154099720Y-106287431D01*
X154409660Y-106415812D01*
X154559570Y-106777727D01*
X154850721Y-107068878D01*
X155231127Y-107226447D01*
X155642875Y-107226447D01*
X156023281Y-107068878D01*
X156131725Y-106960435D01*
X156220721Y-107049431D01*
X156601127Y-107207000D01*
X157012875Y-107207000D01*
X157393281Y-107049431D01*
X157417001Y-107025711D01*
X157417001Y-108839420D01*
X157402113Y-108914267D01*
X157417001Y-108989114D01*
X157417001Y-108989118D01*
X157461097Y-109210803D01*
X157542000Y-109331883D01*
X157542000Y-109520140D01*
X157699569Y-109900546D01*
X157990720Y-110191697D01*
X158371126Y-110349266D01*
X158782874Y-110349266D01*
X159163280Y-110191697D01*
X159454431Y-109900546D01*
X159612000Y-109520140D01*
X159612000Y-109325384D01*
X159663280Y-109304143D01*
X159954431Y-109012992D01*
X160112000Y-108632586D01*
X160112000Y-108467496D01*
X160163280Y-108446255D01*
X160454431Y-108155104D01*
X160612000Y-107774698D01*
X160612000Y-107578672D01*
X160663280Y-107557431D01*
X160954431Y-107266280D01*
X161112000Y-106885874D01*
X161112000Y-106652797D01*
X161163280Y-106631556D01*
X161454431Y-106340405D01*
X161612000Y-105959999D01*
X161612000Y-105548251D01*
X161454431Y-105167845D01*
X161235712Y-104949126D01*
X168478939Y-104947313D01*
X167436897Y-105989355D01*
X167373441Y-106031755D01*
X167205465Y-106283147D01*
X167177055Y-106425972D01*
X167043938Y-106559089D01*
X166886369Y-106939495D01*
X166886369Y-107351243D01*
X167043938Y-107731649D01*
X167335089Y-108022800D01*
X167715495Y-108180369D01*
X168127243Y-108180369D01*
X168507649Y-108022800D01*
X168798800Y-107731649D01*
X168956369Y-107351243D01*
X168956369Y-106939495D01*
X168862640Y-106713214D01*
X170629080Y-104946775D01*
X173490230Y-104946059D01*
X173472569Y-104963720D01*
X173472569Y-104963720D01*
G37*
X173472569Y-104963720D02*
X173315000Y-105344126D01*
X173315000Y-105755874D01*
X173472569Y-106136280D01*
X173744065Y-106407776D01*
X173656369Y-106619495D01*
X173656369Y-107031243D01*
X173813938Y-107411649D01*
X173823525Y-107421236D01*
X173737000Y-107630126D01*
X173737000Y-108041874D01*
X173861343Y-108342066D01*
X173745805Y-108621001D01*
X173745805Y-109032749D01*
X173903374Y-109413155D01*
X174142321Y-109652102D01*
X170152904Y-109652102D01*
X169647000Y-109146199D01*
X169647000Y-108980126D01*
X169489431Y-108599720D01*
X169198280Y-108308569D01*
X168817874Y-108151000D01*
X168406126Y-108151000D01*
X168025720Y-108308569D01*
X167734569Y-108599720D01*
X167577000Y-108980126D01*
X167577000Y-109391874D01*
X167734569Y-109772280D01*
X168025720Y-110063431D01*
X168406126Y-110221000D01*
X168572199Y-110221000D01*
X169247773Y-110896575D01*
X169290173Y-110960031D01*
X169541565Y-111128006D01*
X169763250Y-111172102D01*
X169763254Y-111172102D01*
X169838101Y-111186990D01*
X169912948Y-111172102D01*
X172227676Y-111172102D01*
X172115000Y-111444126D01*
X172115000Y-111855874D01*
X172257956Y-112201000D01*
X171086848Y-112201000D01*
X171012000Y-112186112D01*
X170937152Y-112201000D01*
X170937148Y-112201000D01*
X170886870Y-112211001D01*
X153881394Y-112211001D01*
X153739431Y-111868271D01*
X153448280Y-111577120D01*
X153067874Y-111419551D01*
X152656126Y-111419551D01*
X152275720Y-111577120D01*
X152158289Y-111694551D01*
X144447331Y-111694551D01*
X144679926Y-111598207D01*
X144999207Y-111278926D01*
X145172000Y-110861766D01*
X145172000Y-110410234D01*
X144999207Y-109993074D01*
X144892133Y-109886000D01*
X144999207Y-109778926D01*
X145172000Y-109361766D01*
X145172000Y-108910234D01*
X145133796Y-108818001D01*
X145586841Y-108818001D01*
X145680569Y-109044280D01*
X145971720Y-109335431D01*
X146352126Y-109493000D01*
X146763874Y-109493000D01*
X147144280Y-109335431D01*
X147228918Y-109250793D01*
X147491758Y-109359664D01*
X147903506Y-109359664D01*
X148283912Y-109202095D01*
X148575063Y-108910944D01*
X148732632Y-108530538D01*
X148732632Y-108461301D01*
X148968912Y-108363431D01*
X149189726Y-108142617D01*
X149192000Y-108146019D01*
X149192000Y-108334276D01*
X149349569Y-108714682D01*
X149640720Y-109005833D01*
X150021126Y-109163402D01*
X150432874Y-109163402D01*
X150813280Y-109005833D01*
X151104431Y-108714682D01*
X151262000Y-108334276D01*
X151262000Y-108112962D01*
X151263280Y-108112432D01*
X151554431Y-107821281D01*
X151712000Y-107440875D01*
X151712000Y-107029127D01*
X151554431Y-106648721D01*
X151329941Y-106424231D01*
X151364339Y-106424231D01*
X151744745Y-106266662D01*
X152035896Y-105975511D01*
X152193465Y-105595105D01*
X152193465Y-105183357D01*
X152097391Y-104951413D01*
X153755849Y-104950998D01*
X153651000Y-105204126D01*
X153651000Y-105615874D01*
X153808569Y-105996280D01*
X154099720Y-106287431D01*
X154409660Y-106415812D01*
X154559570Y-106777727D01*
X154850721Y-107068878D01*
X155231127Y-107226447D01*
X155642875Y-107226447D01*
X156023281Y-107068878D01*
X156131725Y-106960435D01*
X156220721Y-107049431D01*
X156601127Y-107207000D01*
X157012875Y-107207000D01*
X157393281Y-107049431D01*
X157417001Y-107025711D01*
X157417001Y-108839420D01*
X157402113Y-108914267D01*
X157417001Y-108989114D01*
X157417001Y-108989118D01*
X157461097Y-109210803D01*
X157542000Y-109331883D01*
X157542000Y-109520140D01*
X157699569Y-109900546D01*
X157990720Y-110191697D01*
X158371126Y-110349266D01*
X158782874Y-110349266D01*
X159163280Y-110191697D01*
X159454431Y-109900546D01*
X159612000Y-109520140D01*
X159612000Y-109325384D01*
X159663280Y-109304143D01*
X159954431Y-109012992D01*
X160112000Y-108632586D01*
X160112000Y-108467496D01*
X160163280Y-108446255D01*
X160454431Y-108155104D01*
X160612000Y-107774698D01*
X160612000Y-107578672D01*
X160663280Y-107557431D01*
X160954431Y-107266280D01*
X161112000Y-106885874D01*
X161112000Y-106652797D01*
X161163280Y-106631556D01*
X161454431Y-106340405D01*
X161612000Y-105959999D01*
X161612000Y-105548251D01*
X161454431Y-105167845D01*
X161235712Y-104949126D01*
X168478939Y-104947313D01*
X167436897Y-105989355D01*
X167373441Y-106031755D01*
X167205465Y-106283147D01*
X167177055Y-106425972D01*
X167043938Y-106559089D01*
X166886369Y-106939495D01*
X166886369Y-107351243D01*
X167043938Y-107731649D01*
X167335089Y-108022800D01*
X167715495Y-108180369D01*
X168127243Y-108180369D01*
X168507649Y-108022800D01*
X168798800Y-107731649D01*
X168956369Y-107351243D01*
X168956369Y-106939495D01*
X168862640Y-106713214D01*
X170629080Y-104946775D01*
X173490230Y-104946059D01*
X173472569Y-104963720D01*
M02*
